<svg width="164" height="164" viewBox="0 0 164 164" fill="none" xmlns="http://www.w3.org/2000/svg">
<rect width="163.997" height="163.997" rx="8" fill="#FDEAF4"/>
<path d="M61.3074 96.7346C67.1104 100.973 74.2759 103.446 81.9964 103.446C100.879 103.446 117.319 87.1016 117.319 68.1233C117.319 48.6455 101.474 32.8008 81.9964 32.8008C62.5185 32.8008 46.6738 48.6455 46.6738 68.1233C46.6738 79.8807 52.4264 90.326 61.3074 96.7346Z" fill="#F7ACD5"/>
<path d="M113.079 101.176C104.955 108.846 94.0051 113.539 81.9955 113.539C69.9858 113.539 59.0358 108.846 50.9116 101.176C30.3741 112.278 16.3965 134.026 16.3965 158.954C16.3965 161.729 18.6672 164 21.4426 164H142.548C145.324 164 147.594 161.729 147.594 158.954C147.594 134.026 133.617 112.278 113.079 101.176Z" fill="#F7ACD5"/>
</svg>
