<svg width="40" height="40" viewBox="0 0 40 40" fill="none" xmlns="http://www.w3.org/2000/svg">
<circle opacity="0.3" cx="20" cy="20" r="20" fill="white"/>
<path d="M16.6064 22.0586C16.6064 24.3182 18.4445 26.1563 20.7041 26.1563C22.9637 26.1563 24.8011 24.3182 24.8011 22.0586C24.8011 19.799 22.9637 17.9609 20.7041 17.9609C18.4445 17.9609 16.6064 19.7997 16.6064 22.0586ZM8 16.24V27.8786C8 29.4302 9.25798 30.6882 10.8096 30.6882H30.5986C32.1502 30.6882 33.4082 29.4302 33.4082 27.8786V16.24C33.4082 14.6884 32.1502 13.4305 30.5986 13.4305H27.1429V12.4584C27.1429 11.1006 26.043 10 24.6845 10H16.7237C15.3652 10 14.2653 11.1006 14.2653 12.4584V13.4298H10.8096C9.25798 13.4305 8 14.6884 8 16.24ZM14.4992 22.0586C14.4992 18.6373 17.2828 15.8537 20.7041 15.8537C24.1247 15.8537 26.9083 18.6373 26.9083 22.0586C26.9083 25.4799 24.1247 28.2635 20.7041 28.2635C17.2828 28.2635 14.4992 25.4799 14.4992 22.0586Z" fill="white"/>
</svg>
