<svg width="189" height="112" viewBox="0 0 189 112" fill="none" xmlns="http://www.w3.org/2000/svg">
<rect width="189" height="112" rx="8" fill="#E0E1E4"/>
<path d="M113.422 83.0004H75.1053C72.8392 83.0004 71 81.1612 71 78.895V76.1581C71 63.3303 81.4358 52.8945 94.2636 52.8945C107.091 52.8945 117.527 63.3303 117.527 76.1581V78.895C117.527 81.1612 115.688 83.0004 113.422 83.0004Z" fill="white"/>
<path d="M94.2636 58.3689C86.718 58.3689 80.5791 52.2301 80.5791 44.6845C80.5791 37.1389 86.718 31 94.2636 31C101.809 31 107.948 37.1389 107.948 44.6845C107.948 52.2301 101.809 58.3689 94.2636 58.3689Z" fill="white"/>
</svg>
