<svg width="12" height="12" viewBox="0 0 12 12" fill="none" xmlns="http://www.w3.org/2000/svg">
<path d="M6 12C9.31371 12 12 9.31371 12 6C12 2.68629 9.31371 0 6 0C2.68629 0 0 2.68629 0 6C0 9.31371 2.68629 12 6 12Z" fill="#2FB350"/>
<path d="M4.12458 8.92912L1.93718 6.57164C1.79207 6.41616 1.71455 6.20946 1.72164 5.9969C1.72872 5.78433 1.81983 5.58326 1.97497 5.43778C2.13107 5.29327 2.33812 5.21658 2.5507 5.22455C2.76327 5.23253 2.964 5.3245 3.10883 5.4803L4.80017 7.28975L7.47891 4.78581C7.50284 4.76383 7.52808 4.74332 7.5545 4.7244L8.81119 3.54802C8.96668 3.40291 9.17337 3.32539 9.38594 3.33248C9.5985 3.33956 9.79957 3.43067 9.94505 3.58581C10.0902 3.7413 10.1677 3.948 10.1606 4.16056C10.1535 4.37312 10.0624 4.5742 9.90726 4.71967L6.05686 8.31022L4.71986 9.55274L4.1293 8.91967L4.12458 8.92912Z" fill="white"/>
</svg>
