<svg width="26" height="26" viewBox="0 0 26 26" fill="none" xmlns="http://www.w3.org/2000/svg">
<path d="M0.326591 6.26677L12.7356 0.0622553C12.8177 0.0213121 12.9082 0 12.9999 0C13.0916 0 13.1821 0.0213121 13.2642 0.0622553L25.6732 6.26677C25.7714 6.31584 25.854 6.39127 25.9117 6.48463C25.9694 6.57799 26 6.68558 26 6.79534V19.2044C26 19.3141 25.9695 19.4217 25.9118 19.515C25.8542 19.6084 25.7717 19.6838 25.6735 19.7329L13.2645 25.9375C13.1824 25.9786 13.0919 26 13.0001 26C12.9082 26 12.8177 25.9786 12.7356 25.9375L0.326591 19.7329C0.228462 19.6838 0.145945 19.6084 0.0882816 19.515C0.0306206 19.4217 8.96454e-05 19.3141 0.000114441 19.2044V6.79534C8.96454e-05 6.68561 0.0306206 6.57804 0.0882816 6.48469C0.145945 6.39133 0.228462 6.31588 0.326591 6.26677ZM13.0001 1.25145L1.91229 6.79534L4.28419 7.98129L15.3717 2.4374L13.0001 1.25145ZM9.01144 10.3449L20.0992 4.80103L16.6932 3.09804L5.60545 8.64192L9.01144 10.3449ZM8.56826 11.4446L5.02282 9.67187V14.0673L6.15677 13.2575C6.22056 13.212 6.29273 13.1797 6.3691 13.1623C6.44547 13.1449 6.52454 13.1428 6.60172 13.1562C6.67885 13.1697 6.75253 13.1984 6.8185 13.2406C6.88448 13.2828 6.94144 13.3376 6.9861 13.402L8.56826 15.6879V11.4446ZM21.4205 5.46166L10.333 11.0055L13.0001 12.3392L24.0878 6.79534L21.4205 5.46166ZM24.8182 7.75143L13.591 13.365V24.4525L24.8182 18.8389V7.75143ZM12.4092 24.4528V13.365L9.75007 12.0355V17.5794C9.75016 17.7054 9.70998 17.8281 9.63538 17.9297C9.56078 18.0312 9.45568 18.1062 9.33541 18.1438C9.21514 18.1814 9.08601 18.1796 8.96687 18.1386C8.84772 18.0976 8.74481 18.0195 8.67314 17.9159L6.35531 14.5681L4.77493 15.6968C4.68666 15.7601 4.58261 15.7978 4.47425 15.8058C4.3659 15.8137 4.25746 15.7916 4.16087 15.7419C4.06429 15.6921 3.98331 15.6167 3.92687 15.5238C3.87043 15.431 3.84072 15.3244 3.84101 15.2158V9.08097L1.18193 7.75143V18.8389L12.4092 24.4528Z" fill="white"/>
</svg>
