<svg width="12" height="16" viewBox="0 0 12 16" fill="none" xmlns="http://www.w3.org/2000/svg">
<path d="M10.5 6H10V4C10 1.794 8.206 0 6 0C3.794 0 2 1.794 2 4V6H1.5C1.10234 6.00053 0.721114 6.15873 0.439924 6.43992C0.158734 6.72111 0.000529159 7.10234 0 7.5V14.5C0 15.3273 0.673333 16 1.5 16H10.5C11.3267 16 12 15.3273 12 14.5V7.5C12 6.67267 11.3267 6 10.5 6ZM3.33333 4C3.33333 2.52933 4.52933 1.33333 6 1.33333C7.47067 1.33333 8.66667 2.52933 8.66667 4V6H3.33333V4ZM6.66667 11.148V12.6667C6.66667 12.8435 6.59643 13.013 6.4714 13.1381C6.34638 13.2631 6.17681 13.3333 6 13.3333C5.82319 13.3333 5.65362 13.2631 5.5286 13.1381C5.40357 13.013 5.33333 12.8435 5.33333 12.6667V11.148C4.93667 10.9167 4.66667 10.4913 4.66667 10C4.66667 9.26467 5.26467 8.66667 6 8.66667C6.73533 8.66667 7.33333 9.26467 7.33333 10C7.33333 10.4913 7.06333 10.9167 6.66667 11.148Z" fill="#E42B2C"/>
</svg>
