<svg width="19" height="20" viewBox="0 0 19 20" fill="none" xmlns="http://www.w3.org/2000/svg">
<path d="M18.167 9.06945C17.707 9.06945 17.3337 8.69625 17.3337 8.23617C17.3337 5.89867 16.4237 3.70203 14.7711 2.04859C14.4454 1.72281 14.4454 1.19625 14.7711 0.870313C15.0969 0.544531 15.6237 0.544531 15.9494 0.870313C17.9171 2.83777 19.0003 5.45375 19.0003 8.23617C19.0003 8.69625 18.627 9.06945 18.167 9.06945ZM1.50027 9.06945C1.04039 9.06945 0.666992 8.69625 0.666992 8.23617C0.666992 5.45375 1.75035 2.83777 3.71785 0.870313C4.04363 0.544531 4.57035 0.544531 4.89613 0.870313C5.22203 1.19625 5.22203 1.72281 4.89613 2.04859C3.24355 3.70117 2.33371 5.89871 2.33371 8.23617C2.33371 8.69625 1.96031 9.06945 1.50027 9.06945Z" fill="#F4BDCB"/>
<path d="M13.1677 16.6667C13.1677 18.5077 11.6754 20 9.83441 20C7.99344 20 6.50098 18.5077 6.50098 16.6667C6.50098 14.8257 7.99344 13.3333 9.83441 13.3333C11.6754 13.3333 13.1677 14.8257 13.1677 16.6667ZM9.83441 3.33328C9.37437 3.33328 9.00098 2.96004 9.00098 2.5V0.833281C9.00098 0.373398 9.37437 0 9.83441 0C10.2943 0 10.6677 0.373398 10.6677 0.833281V2.5C10.6677 2.96004 10.2943 3.33328 9.83441 3.33328Z" fill="#D6465F"/>
<path d="M17.6493 14.0927C16.3892 13.0275 15.6667 11.4717 15.6667 9.82258V7.4993C15.6667 4.28258 13.0492 1.66602 9.83344 1.66602C6.6175 1.66602 4 4.28258 4 7.4993V9.82262C4 11.4718 3.2775 13.0285 2.01012 14.1001C1.84999 14.2367 1.72144 14.4066 1.63337 14.5978C1.5453 14.789 1.49979 14.9971 1.5 15.2076C1.5 16.0119 2.15414 16.666 2.95844 16.666H16.7084C17.5126 16.666 18.1667 16.0119 18.1667 15.2076C18.1667 14.7809 17.9809 14.3767 17.6493 14.0926V14.0927Z" fill="url(#paint0_linear_1499_14723)"/>
<defs>
<linearGradient id="paint0_linear_1499_14723" x1="1.5" y1="1.66602" x2="13.2547" y2="19.461" gradientUnits="userSpaceOnUse">
<stop offset="0.162245" stop-color="#D6465F"/>
<stop offset="1" stop-color="#FF8CA0"/>
</linearGradient>
</defs>
</svg>
