<svg width="21" height="21" viewBox="0 0 21 21" fill="none" xmlns="http://www.w3.org/2000/svg">
<path d="M0.8323 3.77349H10.289C10.574 5.09181 11.7326 6.08153 13.1142 6.08153C14.4959 6.08153 15.6545 5.09185 15.9395 3.77349H19.4658C19.8089 3.77349 20.087 3.49088 20.087 3.14231C20.087 2.79374 19.8089 2.51113 19.4658 2.51113H15.9392C15.6536 1.19348 14.4935 0.203125 13.1142 0.203125C11.7343 0.203125 10.5747 1.19332 10.2892 2.51113H0.8323C0.489287 2.51113 0.211182 2.79374 0.211182 3.14231C0.211182 3.49088 0.489287 3.77349 0.8323 3.77349ZM11.4642 3.14397L11.4642 3.13718C11.4669 2.21539 12.2071 1.46551 13.1142 1.46551C14.0201 1.46551 14.7603 2.21436 14.7642 3.13572L14.7644 3.14499C14.7629 4.06836 14.0233 4.81922 13.1142 4.81922C12.2056 4.81922 11.4662 4.06911 11.4641 3.14629L11.4642 3.14397ZM19.4658 16.8499H15.9392C15.6536 15.5323 14.4935 14.5419 13.1142 14.5419C11.7343 14.5419 10.5747 15.5321 10.2892 16.8499H0.8323C0.489287 16.8499 0.211182 17.1325 0.211182 17.4811C0.211182 17.8297 0.489287 18.1122 0.8323 18.1122H10.289C10.574 19.4306 11.7326 20.4203 13.1142 20.4203C14.4959 20.4203 15.6545 19.4306 15.9395 18.1122H19.4658C19.8089 18.1122 20.087 17.8297 20.087 17.4811C20.087 17.1325 19.8089 16.8499 19.4658 16.8499ZM13.1142 19.1579C12.2056 19.1579 11.4662 18.4078 11.4641 17.485L11.4642 17.4827L11.4642 17.4759C11.4669 16.5541 12.2071 15.8042 13.1142 15.8042C14.0201 15.8042 14.7603 16.5531 14.7642 17.4744L14.7644 17.4837C14.763 18.4072 14.0233 19.1579 13.1142 19.1579ZM19.4658 9.68053H10.0091C9.72411 8.36221 8.56557 7.37252 7.18389 7.37252C5.80221 7.37252 4.64367 8.36221 4.35866 9.68053H0.8323C0.489287 9.68053 0.211182 9.96314 0.211182 10.3117C0.211182 10.6603 0.489287 10.9429 0.8323 10.9429H4.35897C4.64457 12.2605 5.80466 13.2509 7.18389 13.2509C8.56386 13.2509 9.72345 12.2607 10.0089 10.9429H19.4658C19.8089 10.9429 20.087 10.6603 20.087 10.3117C20.087 9.96314 19.8089 9.68053 19.4658 9.68053ZM8.83397 10.3101L8.83393 10.3168C8.83121 11.2386 8.09103 11.9885 7.18389 11.9885C6.27803 11.9885 5.53781 11.2397 5.53389 10.3183L5.53377 10.3091C5.53513 9.38562 6.27485 8.63487 7.18389 8.63487C8.09251 8.63487 8.83195 9.38495 8.83401 10.3078L8.83397 10.3101Z" fill="#1E1E1E"/>
</svg>
