<svg width="106" height="32" viewBox="0 0 106 32" fill="none" xmlns="http://www.w3.org/2000/svg">
<path d="M106 0H12C5.37258 0 0 5.37258 0 12V32H74C91.6731 32 106 17.6731 106 0Z" fill="#EF7197"/>
<path d="M11.0868 20H8.93058V18.8494H11.0144C11.6792 18.8494 12.2317 18.7244 12.6721 18.4744C13.1124 18.2216 13.4419 17.8565 13.6607 17.3793C13.8794 16.8991 13.9888 16.3139 13.9888 15.6236C13.9888 14.9389 13.8794 14.358 13.6607 13.8807C13.4448 13.4034 13.1223 13.0412 12.6934 12.794C12.2644 12.5469 11.7317 12.4233 11.0953 12.4233H8.8837V11.2727H11.1763C12.0314 11.2727 12.7658 11.4474 13.3794 11.7969C13.9931 12.1435 14.4632 12.642 14.79 13.2926C15.1195 13.9403 15.2843 14.7173 15.2843 15.6236C15.2843 16.5327 15.1181 17.3139 14.7857 17.9673C14.4561 18.6207 13.9789 19.1236 13.3539 19.4759C12.7289 19.8253 11.9732 20 11.0868 20ZM9.5783 11.2727V20H8.26154V11.2727H9.5783ZM6.95756 15.9048V15.027H10.8738V15.9048H6.95756ZM18.7243 20.1449C18.3095 20.1449 17.9345 20.0682 17.5993 19.9148C17.264 19.7585 16.9984 19.5327 16.8024 19.2372C16.6092 18.9418 16.5126 18.5795 16.5126 18.1506C16.5126 17.7812 16.5836 17.4773 16.7257 17.2386C16.8677 17 17.0595 16.8111 17.301 16.6719C17.5424 16.5327 17.8123 16.4276 18.1106 16.3565C18.4089 16.2855 18.7129 16.2315 19.0225 16.1946C19.4146 16.1491 19.7328 16.1122 19.9771 16.0838C20.2214 16.0526 20.399 16.0028 20.5098 15.9347C20.6206 15.8665 20.676 15.7557 20.676 15.6023V15.5724C20.676 15.2003 20.5708 14.9119 20.3606 14.7074C20.1532 14.5028 19.8436 14.4006 19.4316 14.4006C19.0027 14.4006 18.6646 14.4957 18.4174 14.6861C18.1731 14.8736 18.0041 15.0824 17.9103 15.3125L16.7129 15.0398C16.8549 14.642 17.0623 14.321 17.335 14.0767C17.6106 13.8295 17.9274 13.6506 18.2853 13.5398C18.6433 13.4261 19.0197 13.3693 19.4146 13.3693C19.676 13.3693 19.9529 13.4006 20.2456 13.4631C20.541 13.5227 20.8166 13.6335 21.0723 13.7955C21.3308 13.9574 21.5424 14.1889 21.7072 14.4901C21.872 14.7884 21.9544 15.1761 21.9544 15.6534V20H20.71V19.1051H20.6589C20.5765 19.2699 20.4529 19.4318 20.2882 19.5909C20.1234 19.75 19.9118 19.8821 19.6532 19.9872C19.3947 20.0923 19.085 20.1449 18.7243 20.1449ZM19.0012 19.1222C19.3535 19.1222 19.6547 19.0526 19.9047 18.9134C20.1575 18.7741 20.3493 18.5923 20.4799 18.3679C20.6135 18.1406 20.6802 17.8977 20.6802 17.6392V16.7955C20.6348 16.8409 20.5467 16.8835 20.416 16.9233C20.2882 16.9602 20.1419 16.9929 19.9771 17.0213C19.8123 17.0469 19.6518 17.071 19.4956 17.0938C19.3393 17.1136 19.2086 17.1307 19.1035 17.1449C18.8564 17.1761 18.6305 17.2287 18.426 17.3026C18.2243 17.3764 18.0623 17.483 17.9402 17.6222C17.8208 17.7585 17.7612 17.9403 17.7612 18.1676C17.7612 18.483 17.8777 18.7216 18.1106 18.8835C18.3436 19.0426 18.6404 19.1222 19.0012 19.1222ZM24.9256 16.1136V20H23.6515V13.4545H24.8745V14.5199H24.9554C25.106 14.1733 25.3418 13.8949 25.6628 13.6847C25.9867 13.4744 26.3944 13.3693 26.8858 13.3693C27.3319 13.3693 27.7225 13.4631 28.0577 13.6506C28.3929 13.8352 28.6529 14.1108 28.8375 14.4773C29.0222 14.8437 29.1145 15.2969 29.1145 15.8366V20H27.8404V15.9901C27.8404 15.5156 27.7168 15.1449 27.4696 14.8778C27.2225 14.608 26.883 14.473 26.4512 14.473C26.1557 14.473 25.8929 14.5369 25.6628 14.6648C25.4355 14.7926 25.2551 14.9801 25.1216 15.2273C24.9909 15.4716 24.9256 15.767 24.9256 16.1136ZM33.5676 22.5909C33.0478 22.5909 32.6003 22.5227 32.2253 22.3864C31.8532 22.25 31.5492 22.0696 31.3134 21.8452C31.0776 21.6207 30.9015 21.375 30.785 21.108L31.8801 20.6562C31.9569 20.7812 32.0591 20.9134 32.187 21.0526C32.3176 21.1946 32.4938 21.3153 32.7154 21.4148C32.9398 21.5142 33.2282 21.5639 33.5804 21.5639C34.0634 21.5639 34.4625 21.446 34.7779 21.2102C35.0932 20.9773 35.2509 20.6051 35.2509 20.0938V18.8068H35.1699C35.0932 18.946 34.9824 19.1009 34.8375 19.2713C34.6955 19.4418 34.4995 19.5895 34.2495 19.7145C33.9995 19.8395 33.6742 19.902 33.2736 19.902C32.7566 19.902 32.2907 19.7812 31.8759 19.5398C31.464 19.2955 31.1373 18.9361 30.8958 18.4616C30.6571 17.9844 30.5378 17.3977 30.5378 16.7017C30.5378 16.0057 30.6557 15.4091 30.8915 14.9119C31.1301 14.4148 31.4569 14.0341 31.8716 13.7699C32.2864 13.5028 32.7566 13.3693 33.2821 13.3693C33.6884 13.3693 34.0165 13.4375 34.2665 13.5739C34.5165 13.7074 34.7111 13.8636 34.8503 14.0426C34.9924 14.2216 35.1017 14.3793 35.1784 14.5156H35.2722V13.4545H36.5208V20.1449C36.5208 20.7074 36.3901 21.169 36.1287 21.5298C35.8674 21.8906 35.5137 22.1577 35.0676 22.331C34.6245 22.5043 34.1245 22.5909 33.5676 22.5909ZM33.5549 18.8452C33.9213 18.8452 34.231 18.7599 34.4838 18.5895C34.7395 18.4162 34.9327 18.169 35.0634 17.848C35.1969 17.5241 35.2637 17.1364 35.2637 16.6847C35.2637 16.2443 35.1983 15.8565 35.0676 15.5213C34.937 15.1861 34.7452 14.9247 34.4924 14.7372C34.2395 14.5469 33.927 14.4517 33.5549 14.4517C33.1713 14.4517 32.8517 14.5511 32.5961 14.75C32.3404 14.946 32.1472 15.2131 32.0165 15.5511C31.8887 15.8892 31.8248 16.267 31.8248 16.6847C31.8248 17.1136 31.8901 17.4901 32.0208 17.8139C32.1515 18.1378 32.3446 18.3906 32.6003 18.5724C32.8588 18.7543 33.177 18.8452 33.5549 18.8452ZM41.5076 20V11.2727H42.7818V14.5156H42.8585C42.9324 14.3793 43.0389 14.2216 43.1781 14.0426C43.3173 13.8636 43.5105 13.7074 43.7576 13.5739C44.0048 13.4375 44.3315 13.3693 44.7377 13.3693C45.2662 13.3693 45.7377 13.5028 46.1525 13.7699C46.5673 14.0369 46.8926 14.4219 47.1284 14.9247C47.367 15.4276 47.4863 16.0327 47.4863 16.7401C47.4863 17.4474 47.3684 18.054 47.1326 18.5597C46.8968 19.0625 46.573 19.4503 46.161 19.723C45.7491 19.9929 45.2789 20.1278 44.7505 20.1278C44.3528 20.1278 44.0275 20.0611 43.7747 19.9276C43.5247 19.794 43.3287 19.6378 43.1866 19.4588C43.0446 19.2798 42.9352 19.1207 42.8585 18.9815H42.752V20H41.5076ZM42.7562 16.7273C42.7562 17.1875 42.823 17.5909 42.9565 17.9375C43.09 18.2841 43.2832 18.5554 43.536 18.7514C43.7889 18.9446 44.0985 19.0412 44.465 19.0412C44.8457 19.0412 45.1639 18.9403 45.4196 18.7386C45.6752 18.5341 45.8684 18.2571 45.9991 17.9077C46.1326 17.5582 46.1994 17.1648 46.1994 16.7273C46.1994 16.2955 46.1341 15.9077 46.0034 15.5639C45.8755 15.2202 45.6824 14.9489 45.4238 14.75C45.1681 14.5511 44.8485 14.4517 44.465 14.4517C44.0957 14.4517 43.7832 14.5469 43.5275 14.7372C43.2747 14.9276 43.0829 15.1932 42.9522 15.5341C42.8216 15.875 42.7562 16.2727 42.7562 16.7273ZM50.8219 20.1449C50.4071 20.1449 50.0321 20.0682 49.6969 19.9148C49.3617 19.7585 49.0961 19.5327 48.9 19.2372C48.7069 18.9418 48.6103 18.5795 48.6103 18.1506C48.6103 17.7812 48.6813 17.4773 48.8233 17.2386C48.9654 17 49.1571 16.8111 49.3986 16.6719C49.6401 16.5327 49.91 16.4276 50.2083 16.3565C50.5066 16.2855 50.8105 16.2315 51.1202 16.1946C51.5123 16.1491 51.8304 16.1122 52.0748 16.0838C52.3191 16.0526 52.4966 16.0028 52.6074 15.9347C52.7182 15.8665 52.7736 15.7557 52.7736 15.6023V15.5724C52.7736 15.2003 52.6685 14.9119 52.4583 14.7074C52.2509 14.5028 51.9412 14.4006 51.5293 14.4006C51.1003 14.4006 50.7623 14.4957 50.5151 14.6861C50.2708 14.8736 50.1017 15.0824 50.008 15.3125L48.8105 15.0398C48.9526 14.642 49.16 14.321 49.4327 14.0767C49.7083 13.8295 50.025 13.6506 50.383 13.5398C50.7409 13.4261 51.1174 13.3693 51.5123 13.3693C51.7736 13.3693 52.0506 13.4006 52.3432 13.4631C52.6387 13.5227 52.9142 13.6335 53.1699 13.7955C53.4284 13.9574 53.6401 14.1889 53.8049 14.4901C53.9696 14.7884 54.052 15.1761 54.052 15.6534V20H52.8077V19.1051H52.7566C52.6742 19.2699 52.5506 19.4318 52.3858 19.5909C52.2211 19.75 52.0094 19.8821 51.7509 19.9872C51.4924 20.0923 51.1827 20.1449 50.8219 20.1449ZM51.0989 19.1222C51.4512 19.1222 51.7523 19.0526 52.0023 18.9134C52.2551 18.7741 52.4469 18.5923 52.5776 18.3679C52.7111 18.1406 52.7779 17.8977 52.7779 17.6392V16.7955C52.7324 16.8409 52.6444 16.8835 52.5137 16.9233C52.3858 16.9602 52.2395 16.9929 52.0748 17.0213C51.91 17.0469 51.7495 17.071 51.5932 17.0938C51.437 17.1136 51.3063 17.1307 51.2012 17.1449C50.954 17.1761 50.7282 17.2287 50.5236 17.3026C50.3219 17.3764 50.16 17.483 50.0378 17.6222C49.9185 17.7585 49.8588 17.9403 49.8588 18.1676C49.8588 18.483 49.9753 18.7216 50.2083 18.8835C50.4412 19.0426 50.7381 19.1222 51.0989 19.1222ZM51.0819 12.581L49.7651 10.6165H51.1074L52.1003 12.581H51.0819ZM57.0233 16.1136V20H55.7491V13.4545H56.9721V14.5199H57.0531C57.2037 14.1733 57.4395 13.8949 57.7605 13.6847C58.0843 13.4744 58.492 13.3693 58.9835 13.3693C59.4295 13.3693 59.8201 13.4631 60.1554 13.6506C60.4906 13.8352 60.7505 14.1108 60.9352 14.4773C61.1199 14.8437 61.2122 15.2969 61.2122 15.8366V20H59.938V15.9901C59.938 15.5156 59.8145 15.1449 59.5673 14.8778C59.3201 14.608 58.9806 14.473 58.5488 14.473C58.2534 14.473 57.9906 14.5369 57.7605 14.6648C57.5332 14.7926 57.3528 14.9801 57.2193 15.2273C57.0886 15.4716 57.0233 15.767 57.0233 16.1136ZM68.8411 22.5909C68.3212 22.5909 67.8738 22.5227 67.4988 22.3864C67.1266 22.25 66.8226 22.0696 66.5868 21.8452C66.351 21.6207 66.1749 21.375 66.0584 21.108L67.1536 20.6562C67.2303 20.7812 67.3326 20.9134 67.4604 21.0526C67.5911 21.1946 67.7672 21.3153 67.9888 21.4148C68.2132 21.5142 68.5016 21.5639 68.8539 21.5639C69.3368 21.5639 69.736 21.446 70.0513 21.2102C70.3667 20.9773 70.5243 20.6051 70.5243 20.0938V18.8068H70.4434C70.3667 18.946 70.2559 19.1009 70.111 19.2713C69.9689 19.4418 69.7729 19.5895 69.5229 19.7145C69.2729 19.8395 68.9476 19.902 68.5471 19.902C68.03 19.902 67.5641 19.7812 67.1493 19.5398C66.7374 19.2955 66.4107 18.9361 66.1692 18.4616C65.9306 17.9844 65.8113 17.3977 65.8113 16.7017C65.8113 16.0057 65.9292 15.4091 66.165 14.9119C66.4036 14.4148 66.7303 14.0341 67.1451 13.7699C67.5598 13.5028 68.03 13.3693 68.5556 13.3693C68.9618 13.3693 69.29 13.4375 69.54 13.5739C69.79 13.7074 69.9846 13.8636 70.1238 14.0426C70.2658 14.2216 70.3752 14.3793 70.4519 14.5156H70.5456V13.4545H71.7942V20.1449C71.7942 20.7074 71.6635 21.169 71.4022 21.5298C71.1408 21.8906 70.7871 22.1577 70.3411 22.331C69.8979 22.5043 69.3979 22.5909 68.8411 22.5909ZM68.8283 18.8452C69.1948 18.8452 69.5044 18.7599 69.7573 18.5895C70.013 18.4162 70.2061 18.169 70.3368 17.848C70.4703 17.5241 70.5371 17.1364 70.5371 16.6847C70.5371 16.2443 70.4718 15.8565 70.3411 15.5213C70.2104 15.1861 70.0186 14.9247 69.7658 14.7372C69.513 14.5469 69.2005 14.4517 68.8283 14.4517C68.4448 14.4517 68.1252 14.5511 67.8695 14.75C67.6138 14.946 67.4206 15.2131 67.29 15.5511C67.1621 15.8892 67.0982 16.267 67.0982 16.6847C67.0982 17.1136 67.1635 17.4901 67.2942 17.8139C67.4249 18.1378 67.6181 18.3906 67.8738 18.5724C68.1323 18.7543 68.4505 18.8452 68.8283 18.8452ZM73.503 20V13.4545H74.7772V20H73.503ZM74.1465 12.4446C73.9249 12.4446 73.7346 12.3707 73.5755 12.223C73.4192 12.0724 73.3411 11.8935 73.3411 11.6861C73.3411 11.4759 73.4192 11.2969 73.5755 11.1491C73.7346 10.9986 73.9249 10.9233 74.1465 10.9233C74.3681 10.9233 74.557 10.9986 74.7132 11.1491C74.8723 11.2969 74.9519 11.4759 74.9519 11.6861C74.9519 11.8935 74.8723 12.0724 74.7132 12.223C74.557 12.3707 74.3681 12.4446 74.1465 12.4446ZM78.3961 20.1449C77.9814 20.1449 77.6064 20.0682 77.2711 19.9148C76.9359 19.7585 76.6703 19.5327 76.4743 19.2372C76.2811 18.9418 76.1845 18.5795 76.1845 18.1506C76.1845 17.7812 76.2555 17.4773 76.3975 17.2386C76.5396 17 76.7314 16.8111 76.9728 16.6719C77.2143 16.5327 77.4842 16.4276 77.7825 16.3565C78.0808 16.2855 78.3848 16.2315 78.6944 16.1946C79.0865 16.1491 79.4047 16.1122 79.649 16.0838C79.8933 16.0526 80.0708 16.0028 80.1816 15.9347C80.2924 15.8665 80.3478 15.7557 80.3478 15.6023V15.5724C80.3478 15.2003 80.2427 14.9119 80.0325 14.7074C79.8251 14.5028 79.5154 14.4006 79.1035 14.4006C78.6745 14.4006 78.3365 14.4957 78.0893 14.6861C77.845 14.8736 77.676 15.0824 77.5822 15.3125L76.3848 15.0398C76.5268 14.642 76.7342 14.321 77.0069 14.0767C77.2825 13.8295 77.5993 13.6506 77.9572 13.5398C78.3152 13.4261 78.6916 13.3693 79.0865 13.3693C79.3478 13.3693 79.6248 13.4006 79.9174 13.4631C80.2129 13.5227 80.4885 13.6335 80.7441 13.7955C81.0027 13.9574 81.2143 14.1889 81.3791 14.4901C81.5439 14.7884 81.6262 15.1761 81.6262 15.6534V20H80.3819V19.1051H80.3308C80.2484 19.2699 80.1248 19.4318 79.96 19.5909C79.7953 19.75 79.5836 19.8821 79.3251 19.9872C79.0666 20.0923 78.7569 20.1449 78.3961 20.1449ZM78.6731 19.1222C79.0254 19.1222 79.3265 19.0526 79.5765 18.9134C79.8294 18.7741 80.0211 18.5923 80.1518 18.3679C80.2853 18.1406 80.3521 17.8977 80.3521 17.6392V16.7955C80.3066 16.8409 80.2186 16.8835 80.0879 16.9233C79.96 16.9602 79.8137 16.9929 79.649 17.0213C79.4842 17.0469 79.3237 17.071 79.1674 17.0938C79.0112 17.1136 78.8805 17.1307 78.7754 17.1449C78.5282 17.1761 78.3024 17.2287 78.0978 17.3026C77.8961 17.3764 77.7342 17.483 77.612 17.6222C77.4927 17.7585 77.4331 17.9403 77.4331 18.1676C77.4331 18.483 77.5495 18.7216 77.7825 18.8835C78.0154 19.0426 78.3123 19.1222 78.6731 19.1222ZM86.0804 20.1321C85.4668 20.1321 84.9313 19.9915 84.4739 19.7102C84.0165 19.429 83.6614 19.0355 83.4086 18.5298C83.1557 18.0241 83.0293 17.4332 83.0293 16.7571C83.0293 16.0781 83.1557 15.4844 83.4086 14.9759C83.6614 14.4673 84.0165 14.0724 84.4739 13.7912C84.9313 13.5099 85.4668 13.3693 86.0804 13.3693C86.6941 13.3693 87.2296 13.5099 87.687 13.7912C88.1444 14.0724 88.4995 14.4673 88.7523 14.9759C89.0051 15.4844 89.1316 16.0781 89.1316 16.7571C89.1316 17.4332 89.0051 18.0241 88.7523 18.5298C88.4995 19.0355 88.1444 19.429 87.687 19.7102C87.2296 19.9915 86.6941 20.1321 86.0804 20.1321ZM86.0847 19.0625C86.4824 19.0625 86.812 18.9574 87.0733 18.7472C87.3347 18.5369 87.5279 18.2571 87.6529 17.9077C87.7807 17.5582 87.8446 17.1733 87.8446 16.7528C87.8446 16.3352 87.7807 15.9517 87.6529 15.6023C87.5279 15.25 87.3347 14.9673 87.0733 14.7543C86.812 14.5412 86.4824 14.4347 86.0847 14.4347C85.6841 14.4347 85.3517 14.5412 85.0875 14.7543C84.8262 14.9673 84.6316 15.25 84.5037 15.6023C84.3787 15.9517 84.3162 16.3352 84.3162 16.7528C84.3162 17.1733 84.3787 17.5582 84.5037 17.9077C84.6316 18.2571 84.8262 18.5369 85.0875 18.7472C85.3517 18.9574 85.6841 19.0625 86.0847 19.0625Z" fill="white"/>
</svg>
