<svg width="106" height="32" viewBox="0 0 106 32" fill="none" xmlns="http://www.w3.org/2000/svg">
<path d="M106 0H12C5.37258 0 0 5.37258 0 12V32H74C91.6731 32 106 17.6731 106 0Z" fill="#2AC8C8"/>
<path d="M17.8759 20H15.7196V18.8494H17.8034C18.4682 18.8494 19.0208 18.7244 19.4611 18.4744C19.9015 18.2216 20.231 17.8565 20.4498 17.3793C20.6685 16.8991 20.7779 16.3139 20.7779 15.6236C20.7779 14.9389 20.6685 14.358 20.4498 13.8807C20.2338 13.4034 19.9114 13.0412 19.4824 12.794C19.0534 12.5469 18.5208 12.4233 17.8844 12.4233H15.6728V11.2727H17.9654C18.8205 11.2727 19.5549 11.4474 20.1685 11.7969C20.7821 12.1435 21.2523 12.642 21.579 13.2926C21.9086 13.9403 22.0733 14.7173 22.0733 15.6236C22.0733 16.5327 21.9071 17.3139 21.5748 17.9673C21.2452 18.6207 20.7679 19.1236 20.1429 19.4759C19.5179 19.8253 18.7623 20 17.8759 20ZM16.3674 11.2727V20H15.0506V11.2727H16.3674ZM13.7466 15.9048V15.027H17.6628V15.9048H13.7466ZM25.5133 20.1449C25.0985 20.1449 24.7235 20.0682 24.3883 19.9148C24.0531 19.7585 23.7875 19.5327 23.5914 19.2372C23.3983 18.9418 23.3017 18.5795 23.3017 18.1506C23.3017 17.7812 23.3727 17.4773 23.5147 17.2386C23.6568 17 23.8485 16.8111 24.09 16.6719C24.3315 16.5327 24.6014 16.4276 24.8997 16.3565C25.198 16.2855 25.502 16.2315 25.8116 16.1946C26.2037 16.1491 26.5218 16.1122 26.7662 16.0838C27.0105 16.0526 27.188 16.0028 27.2988 15.9347C27.4096 15.8665 27.465 15.7557 27.465 15.6023V15.5724C27.465 15.2003 27.3599 14.9119 27.1497 14.7074C26.9423 14.5028 26.6326 14.4006 26.2207 14.4006C25.7917 14.4006 25.4537 14.4957 25.2065 14.6861C24.9622 14.8736 24.7931 15.0824 24.6994 15.3125L23.502 15.0398C23.644 14.642 23.8514 14.321 24.1241 14.0767C24.3997 13.8295 24.7164 13.6506 25.0744 13.5398C25.4324 13.4261 25.8088 13.3693 26.2037 13.3693C26.465 13.3693 26.742 13.4006 27.0346 13.4631C27.3301 13.5227 27.6056 13.6335 27.8613 13.7955C28.1199 13.9574 28.3315 14.1889 28.4963 14.4901C28.661 14.7884 28.7434 15.1761 28.7434 15.6534V20H27.4991V19.1051H27.448C27.3656 19.2699 27.242 19.4318 27.0772 19.5909C26.9125 19.75 26.7008 19.8821 26.4423 19.9872C26.1838 20.0923 25.8741 20.1449 25.5133 20.1449ZM25.7903 19.1222C26.1426 19.1222 26.4437 19.0526 26.6937 18.9134C26.9466 18.7741 27.1383 18.5923 27.269 18.3679C27.4025 18.1406 27.4693 17.8977 27.4693 17.6392V16.7955C27.4238 16.8409 27.3358 16.8835 27.2051 16.9233C27.0772 16.9602 26.9309 16.9929 26.7662 17.0213C26.6014 17.0469 26.4409 17.071 26.2846 17.0938C26.1284 17.1136 25.9977 17.1307 25.8926 17.1449C25.6454 17.1761 25.4196 17.2287 25.215 17.3026C25.0133 17.3764 24.8514 17.483 24.7292 17.6222C24.6099 17.7585 24.5502 17.9403 24.5502 18.1676C24.5502 18.483 24.6667 18.7216 24.8997 18.8835C25.1326 19.0426 25.4295 19.1222 25.7903 19.1222ZM24.9892 12.6619L24.1326 12.6364C24.1326 12.1648 24.2591 11.7884 24.5119 11.5071C24.7676 11.2259 25.0829 11.0852 25.4579 11.0852C25.6312 11.0852 25.7832 11.1151 25.9139 11.1747C26.0446 11.2315 26.1667 11.2983 26.2804 11.375C26.3968 11.4489 26.5119 11.5156 26.6255 11.5753C26.742 11.6321 26.8713 11.6605 27.0133 11.6605C27.1781 11.6605 27.3116 11.598 27.4139 11.473C27.519 11.348 27.5716 11.1932 27.5716 11.0085L28.411 11.0639C28.411 11.5384 28.2832 11.9119 28.0275 12.1847C27.7718 12.4545 27.4579 12.5909 27.0858 12.5938C26.8841 12.5938 26.7164 12.5653 26.5829 12.5085C26.4522 12.4489 26.3358 12.3821 26.2335 12.3082C26.1312 12.2315 26.0261 12.1634 25.9181 12.1037C25.8102 12.044 25.6809 12.0142 25.5304 12.0142C25.3713 12.0142 25.2406 12.0767 25.1383 12.2017C25.0389 12.3239 24.9892 12.4773 24.9892 12.6619ZM33.7186 20V11.2727H34.9927V14.5156H35.0694C35.1433 14.3793 35.2498 14.2216 35.389 14.0426C35.5282 13.8636 35.7214 13.7074 35.9686 13.5739C36.2157 13.4375 36.5424 13.3693 36.9487 13.3693C37.4771 13.3693 37.9487 13.5028 38.3635 13.7699C38.7782 14.0369 39.1035 14.4219 39.3393 14.9247C39.5779 15.4276 39.6973 16.0327 39.6973 16.7401C39.6973 17.4474 39.5794 18.054 39.3436 18.5597C39.1078 19.0625 38.7839 19.4503 38.372 19.723C37.96 19.9929 37.4899 20.1278 36.9615 20.1278C36.5637 20.1278 36.2385 20.0611 35.9856 19.9276C35.7356 19.794 35.5396 19.6378 35.3975 19.4588C35.2555 19.2798 35.1461 19.1207 35.0694 18.9815H34.9629V20H33.7186ZM34.9672 16.7273C34.9672 17.1875 35.0339 17.5909 35.1674 17.9375C35.301 18.2841 35.4941 18.5554 35.747 18.7514C35.9998 18.9446 36.3095 19.0412 36.676 19.0412C37.0566 19.0412 37.3748 18.9403 37.6305 18.7386C37.8862 18.5341 38.0794 18.2571 38.21 17.9077C38.3436 17.5582 38.4103 17.1648 38.4103 16.7273C38.4103 16.2955 38.345 15.9077 38.2143 15.5639C38.0865 15.2202 37.8933 14.9489 37.6348 14.75C37.3791 14.5511 37.0595 14.4517 36.676 14.4517C36.3066 14.4517 35.9941 14.5469 35.7385 14.7372C35.4856 14.9276 35.2939 15.1932 35.1632 15.5341C35.0325 15.875 34.9672 16.2727 34.9672 16.7273ZM43.0328 20.1449C42.6181 20.1449 42.2431 20.0682 41.9078 19.9148C41.5726 19.7585 41.307 19.5327 41.111 19.2372C40.9178 18.9418 40.8212 18.5795 40.8212 18.1506C40.8212 17.7812 40.8922 17.4773 41.0343 17.2386C41.1763 17 41.3681 16.8111 41.6096 16.6719C41.851 16.5327 42.1209 16.4276 42.4192 16.3565C42.7175 16.2855 43.0215 16.2315 43.3311 16.1946C43.7232 16.1491 44.0414 16.1122 44.2857 16.0838C44.53 16.0526 44.7076 16.0028 44.8184 15.9347C44.9292 15.8665 44.9846 15.7557 44.9846 15.6023V15.5724C44.9846 15.2003 44.8794 14.9119 44.6692 14.7074C44.4618 14.5028 44.1522 14.4006 43.7402 14.4006C43.3113 14.4006 42.9732 14.4957 42.726 14.6861C42.4817 14.8736 42.3127 15.0824 42.2189 15.3125L41.0215 15.0398C41.1635 14.642 41.3709 14.321 41.6436 14.0767C41.9192 13.8295 42.236 13.6506 42.5939 13.5398C42.9519 13.4261 43.3283 13.3693 43.7232 13.3693C43.9846 13.3693 44.2615 13.4006 44.5542 13.4631C44.8496 13.5227 45.1252 13.6335 45.3809 13.7955C45.6394 13.9574 45.851 14.1889 46.0158 14.4901C46.1806 14.7884 46.263 15.1761 46.263 15.6534V20H45.0186V19.1051H44.9675C44.8851 19.2699 44.7615 19.4318 44.5968 19.5909C44.432 19.75 44.2203 19.8821 43.9618 19.9872C43.7033 20.0923 43.3936 20.1449 43.0328 20.1449ZM43.3098 19.1222C43.6621 19.1222 43.9632 19.0526 44.2132 18.9134C44.4661 18.7741 44.6578 18.5923 44.7885 18.3679C44.9221 18.1406 44.9888 17.8977 44.9888 17.6392V16.7955C44.9434 16.8409 44.8553 16.8835 44.7246 16.9233C44.5968 16.9602 44.4505 16.9929 44.2857 17.0213C44.1209 17.0469 43.9604 17.071 43.8042 17.0938C43.6479 17.1136 43.5172 17.1307 43.4121 17.1449C43.165 17.1761 42.9391 17.2287 42.7346 17.3026C42.5328 17.3764 42.3709 17.483 42.2488 17.6222C42.1294 17.7585 42.0698 17.9403 42.0698 18.1676C42.0698 18.483 42.1863 18.7216 42.4192 18.8835C42.6522 19.0426 42.949 19.1222 43.3098 19.1222ZM43.2928 12.581L41.976 10.6165H43.3184L44.3113 12.581H43.2928ZM49.2342 16.1136V20H47.96V13.4545H49.1831V14.5199H49.264C49.4146 14.1733 49.6504 13.8949 49.9714 13.6847C50.2953 13.4744 50.7029 13.3693 51.1944 13.3693C51.6404 13.3693 52.0311 13.4631 52.3663 13.6506C52.7015 13.8352 52.9615 14.1108 53.1461 14.4773C53.3308 14.8437 53.4231 15.2969 53.4231 15.8366V20H52.149V15.9901C52.149 15.5156 52.0254 15.1449 51.7782 14.8778C51.5311 14.608 51.1916 14.473 50.7598 14.473C50.4643 14.473 50.2015 14.5369 49.9714 14.6648C49.7441 14.7926 49.5637 14.9801 49.4302 15.2273C49.2995 15.4716 49.2342 15.767 49.2342 16.1136ZM61.052 22.5909C60.5321 22.5909 60.0847 22.5227 59.7097 22.3864C59.3375 22.25 59.0336 22.0696 58.7978 21.8452C58.562 21.6207 58.3858 21.375 58.2694 21.108L59.3645 20.6562C59.4412 20.7812 59.5435 20.9134 59.6713 21.0526C59.802 21.1946 59.9782 21.3153 60.1998 21.4148C60.4242 21.5142 60.7125 21.5639 61.0648 21.5639C61.5478 21.5639 61.9469 21.446 62.2623 21.2102C62.5776 20.9773 62.7353 20.6051 62.7353 20.0938V18.8068H62.6543C62.5776 18.946 62.4668 19.1009 62.3219 19.2713C62.1799 19.4418 61.9838 19.5895 61.7338 19.7145C61.4838 19.8395 61.1586 19.902 60.758 19.902C60.2409 19.902 59.775 19.7812 59.3603 19.5398C58.9483 19.2955 58.6216 18.9361 58.3801 18.4616C58.1415 17.9844 58.0222 17.3977 58.0222 16.7017C58.0222 16.0057 58.1401 15.4091 58.3759 14.9119C58.6145 14.4148 58.9412 14.0341 59.356 13.7699C59.7708 13.5028 60.2409 13.3693 60.7665 13.3693C61.1728 13.3693 61.5009 13.4375 61.7509 13.5739C62.0009 13.7074 62.1955 13.8636 62.3347 14.0426C62.4767 14.2216 62.5861 14.3793 62.6628 14.5156H62.7566V13.4545H64.0051V20.1449C64.0051 20.7074 63.8745 21.169 63.6131 21.5298C63.3517 21.8906 62.998 22.1577 62.552 22.331C62.1088 22.5043 61.6088 22.5909 61.052 22.5909ZM61.0392 18.8452C61.4057 18.8452 61.7154 18.7599 61.9682 18.5895C62.2239 18.4162 62.4171 18.169 62.5478 17.848C62.6813 17.5241 62.748 17.1364 62.748 16.6847C62.748 16.2443 62.6827 15.8565 62.552 15.5213C62.4213 15.1861 62.2296 14.9247 61.9767 14.7372C61.7239 14.5469 61.4114 14.4517 61.0392 14.4517C60.6557 14.4517 60.3361 14.5511 60.0804 14.75C59.8248 14.946 59.6316 15.2131 59.5009 15.5511C59.373 15.8892 59.3091 16.267 59.3091 16.6847C59.3091 17.1136 59.3745 17.4901 59.5051 17.8139C59.6358 18.1378 59.829 18.3906 60.0847 18.5724C60.3432 18.7543 60.6614 18.8452 61.0392 18.8452ZM65.714 20V13.4545H66.9881V20H65.714ZM66.3574 12.4446C66.1358 12.4446 65.9455 12.3707 65.7864 12.223C65.6301 12.0724 65.552 11.8935 65.552 11.6861C65.552 11.4759 65.6301 11.2969 65.7864 11.1491C65.9455 10.9986 66.1358 10.9233 66.3574 10.9233C66.579 10.9233 66.7679 10.9986 66.9242 11.1491C67.0833 11.2969 67.1628 11.4759 67.1628 11.6861C67.1628 11.8935 67.0833 12.0724 66.9242 12.223C66.7679 12.3707 66.579 12.4446 66.3574 12.4446ZM70.6071 20.1449C70.1923 20.1449 69.8173 20.0682 69.4821 19.9148C69.1468 19.7585 68.8812 19.5327 68.6852 19.2372C68.492 18.9418 68.3954 18.5795 68.3954 18.1506C68.3954 17.7812 68.4664 17.4773 68.6085 17.2386C68.7505 17 68.9423 16.8111 69.1838 16.6719C69.4252 16.5327 69.6951 16.4276 69.9934 16.3565C70.2917 16.2855 70.5957 16.2315 70.9054 16.1946C71.2974 16.1491 71.6156 16.1122 71.8599 16.0838C72.1042 16.0526 72.2818 16.0028 72.3926 15.9347C72.5034 15.8665 72.5588 15.7557 72.5588 15.6023V15.5724C72.5588 15.2003 72.4537 14.9119 72.2434 14.7074C72.036 14.5028 71.7264 14.4006 71.3145 14.4006C70.8855 14.4006 70.5474 14.4957 70.3002 14.6861C70.0559 14.8736 69.8869 15.0824 69.7931 15.3125L68.5957 15.0398C68.7377 14.642 68.9451 14.321 69.2179 14.0767C69.4934 13.8295 69.8102 13.6506 70.1681 13.5398C70.5261 13.4261 70.9025 13.3693 71.2974 13.3693C71.5588 13.3693 71.8358 13.4006 72.1284 13.4631C72.4238 13.5227 72.6994 13.6335 72.9551 13.7955C73.2136 13.9574 73.4252 14.1889 73.59 14.4901C73.7548 14.7884 73.8372 15.1761 73.8372 15.6534V20H72.5929V19.1051H72.5417C72.4593 19.2699 72.3358 19.4318 72.171 19.5909C72.0062 19.75 71.7946 19.8821 71.536 19.9872C71.2775 20.0923 70.9679 20.1449 70.6071 20.1449ZM70.8841 19.1222C71.2363 19.1222 71.5375 19.0526 71.7875 18.9134C72.0403 18.7741 72.2321 18.5923 72.3627 18.3679C72.4963 18.1406 72.563 17.8977 72.563 17.6392V16.7955C72.5176 16.8409 72.4295 16.8835 72.2988 16.9233C72.171 16.9602 72.0247 16.9929 71.8599 17.0213C71.6951 17.0469 71.5346 17.071 71.3784 17.0938C71.2221 17.1136 71.0914 17.1307 70.9863 17.1449C70.7392 17.1761 70.5133 17.2287 70.3088 17.3026C70.1071 17.3764 69.9451 17.483 69.823 17.6222C69.7037 17.7585 69.644 17.9403 69.644 18.1676C69.644 18.483 69.7605 18.7216 69.9934 18.8835C70.2264 19.0426 70.5233 19.1222 70.8841 19.1222ZM78.2914 20.1321C77.6777 20.1321 77.1422 19.9915 76.6848 19.7102C76.2275 19.429 75.8723 19.0355 75.6195 18.5298C75.3667 18.0241 75.2402 17.4332 75.2402 16.7571C75.2402 16.0781 75.3667 15.4844 75.6195 14.9759C75.8723 14.4673 76.2275 14.0724 76.6848 13.7912C77.1422 13.5099 77.6777 13.3693 78.2914 13.3693C78.905 13.3693 79.4405 13.5099 79.8979 13.7912C80.3553 14.0724 80.7104 14.4673 80.9632 14.9759C81.2161 15.4844 81.3425 16.0781 81.3425 16.7571C81.3425 17.4332 81.2161 18.0241 80.9632 18.5298C80.7104 19.0355 80.3553 19.429 79.8979 19.7102C79.4405 19.9915 78.905 20.1321 78.2914 20.1321ZM78.2956 19.0625C78.6934 19.0625 79.0229 18.9574 79.2843 18.7472C79.5456 18.5369 79.7388 18.2571 79.8638 17.9077C79.9917 17.5582 80.0556 17.1733 80.0556 16.7528C80.0556 16.3352 79.9917 15.9517 79.8638 15.6023C79.7388 15.25 79.5456 14.9673 79.2843 14.7543C79.0229 14.5412 78.6934 14.4347 78.2956 14.4347C77.8951 14.4347 77.5627 14.5412 77.2985 14.7543C77.0371 14.9673 76.8425 15.25 76.7147 15.6023C76.5897 15.9517 76.5272 16.3352 76.5272 16.7528C76.5272 17.1733 76.5897 17.5582 76.7147 17.9077C76.8425 18.2571 77.0371 18.5369 77.2985 18.7472C77.5627 18.9574 77.8951 19.0625 78.2956 19.0625Z" fill="white"/>
</svg>
