<svg width="16" height="16" viewBox="0 0 16 16" fill="none" xmlns="http://www.w3.org/2000/svg">
<g id="Group">
<path id="Vector" d="M15.4317 2.20716C15.088 2.17582 14.7839 2.4291 14.7526 2.77285L14.6698 3.68126C13.2648 1.47482 10.8259 0 8 0C4.95995 0 2.28085 1.73507 0.950907 4.3392C0.793906 4.64661 0.915845 5.02308 1.22325 5.18008C1.53072 5.33708 1.90713 5.21518 2.06413 4.90774C3.18967 2.70385 5.44989 1.25 8 1.25C10.3243 1.25 12.4219 2.46035 13.6236 4.35652L12.7324 3.72005C12.4515 3.51945 12.0611 3.58451 11.8605 3.86539C11.6599 4.1463 11.725 4.53661 12.0059 4.73724L14.7082 6.66728C15.1043 6.94962 15.6506 6.69115 15.6939 6.21543L15.9974 2.88636C16.0287 2.54257 15.7755 2.23851 15.4317 2.20716ZM14.7767 10.82C14.4693 10.663 14.0929 10.7849 13.9359 11.0923C12.8103 13.2962 10.5501 14.7501 8 14.7501C5.67571 14.7501 3.57814 13.5397 2.37644 11.6435L3.2676 12.28C3.54851 12.4806 3.93882 12.4155 4.13945 12.1347C4.34005 11.8538 4.27498 11.4635 3.99411 11.2628L1.29175 9.33279C0.900532 9.05329 0.349842 9.30401 0.306092 9.78463L0.00262213 13.1137C-0.0287217 13.4575 0.224561 13.7615 0.568281 13.7929C0.912469 13.8241 1.21613 13.5706 1.24744 13.2272L1.33025 12.3188C2.7352 14.5252 5.17408 16.0001 8 16.0001C11.04 16.0001 13.7191 14.265 15.0491 11.6609C15.2061 11.3535 15.0842 10.977 14.7767 10.82Z" fill="#2FB350"/>
</g>
</svg>
