<svg width="10" height="10" viewBox="0 0 10 10" fill="none" xmlns="http://www.w3.org/2000/svg">
<path fill-rule="evenodd" clip-rule="evenodd" d="M9.00102 1.00053C8.75555 0.755058 8.35755 0.755058 8.11208 1.00053L5.00109 4.11152L1.8895 0.999928C1.64403 0.754453 1.24603 0.754453 1.00056 0.999928C0.755085 1.2454 0.755085 1.6434 1.00056 1.88887L4.11215 5.00046L1.00053 8.11208C0.755052 8.35756 0.755052 8.75555 1.00053 9.00103C1.246 9.2465 1.644 9.2465 1.88947 9.00103L5.00109 5.88941L8.11211 9.00042C8.35758 9.2459 8.75558 9.2459 9.00105 9.00042C9.24653 8.75495 9.24653 8.35695 9.00105 8.11148L5.89004 5.00046L9.00102 1.88948C9.2465 1.644 9.2465 1.24601 9.00102 1.00053Z" fill="#D6465F"/>
</svg>
