<svg width="25" height="20" viewBox="0 0 25 20" fill="none" xmlns="http://www.w3.org/2000/svg">
<path d="M16.6759 0.330068C16.4461 0.162252 16.1781 0.0542392 15.8962 0.0157583C15.6143 -0.0227226 15.3272 0.00953729 15.0608 0.109632L8.27705 2.99502C7.27334 3.42363 6.19314 3.64422 5.10175 3.64346H2.09028C1.53634 3.64391 1.00519 3.86405 0.613335 4.25558C0.221479 4.64711 0.000908284 5.17808 0 5.73202V11.399C0.000454292 11.9532 0.220825 12.4846 0.612729 12.8766C1.00463 13.2685 1.53604 13.4888 2.09028 13.4893H2.4651L5.09746 19.4693C5.19266 19.6852 5.36972 19.8544 5.58969 19.9398C5.80966 20.0251 6.05452 20.0196 6.2704 19.9244C6.48628 19.8292 6.6555 19.6521 6.74083 19.4321C6.82617 19.2122 6.82062 18.9673 6.72542 18.7514L4.40956 13.4893H5.10261C6.20049 13.4893 7.26922 13.7071 8.2779 14.1369L15.1388 17.0506C15.3967 17.1327 15.6703 17.153 15.9375 17.1098C16.2047 17.0666 16.4579 16.9611 16.6767 16.8018C17.1185 16.4785 17.3827 15.9595 17.3827 15.4123V1.72044C17.3827 1.17321 17.1185 0.652573 16.6759 0.330068ZM20.274 9.4554H23.1268C23.3627 9.4554 23.589 9.36169 23.7558 9.19489C23.9226 9.02808 24.0163 8.80184 24.0163 8.56594C24.0163 8.33004 23.9226 8.1038 23.7558 7.937C23.589 7.77019 23.3627 7.67648 23.1268 7.67648H20.274C20.0381 7.67648 19.8119 7.77019 19.6451 7.937C19.4783 8.1038 19.3846 8.33004 19.3846 8.56594C19.3846 8.80184 19.4783 9.02808 19.6451 9.19489C19.8119 9.36169 20.0381 9.4554 20.274 9.4554ZM20.2749 5.70028C20.4087 5.70028 20.5451 5.67026 20.6737 5.60593L23.5265 4.17268C23.631 4.12019 23.724 4.04764 23.8004 3.95919C23.8768 3.87074 23.935 3.76811 23.9717 3.65716C24.0084 3.54621 24.0229 3.42912 24.0144 3.31257C24.0058 3.19601 23.9744 3.08228 23.9219 2.97786C23.8695 2.87345 23.7969 2.7804 23.7085 2.70401C23.62 2.62763 23.5174 2.56942 23.4064 2.53271C23.2955 2.49599 23.1784 2.48148 23.0618 2.49002C22.9453 2.49856 22.8316 2.52996 22.7271 2.58245L19.8743 4.01571C19.6952 4.10555 19.5516 4.25329 19.4669 4.43495C19.3822 4.61662 19.3613 4.82158 19.4077 5.01658C19.454 5.21159 19.5649 5.38522 19.7223 5.50932C19.8797 5.63342 20.0745 5.70071 20.2749 5.70028ZM23.5265 12.9592L20.6737 11.5268C20.4639 11.429 20.2242 11.4169 20.0055 11.4929C19.7868 11.5689 19.6063 11.7271 19.5023 11.934C19.3983 12.1408 19.379 12.3801 19.4485 12.6009C19.5179 12.8218 19.6707 13.0069 19.8743 13.117L22.7271 14.5494C22.8316 14.6019 22.9453 14.6333 23.0618 14.6419C23.1784 14.6504 23.2955 14.6359 23.4064 14.5992C23.5174 14.5625 23.62 14.5043 23.7085 14.4279C23.7969 14.3515 23.8695 14.2584 23.9219 14.154C23.9744 14.0496 24.0058 13.9359 24.0144 13.8193C24.0229 13.7028 24.0084 13.5857 23.9717 13.4747C23.935 13.3638 23.8768 13.2611 23.8004 13.1727C23.724 13.0842 23.631 13.0117 23.5265 12.9592Z" fill="#D6465F"/>
</svg>
