<svg width="20" height="16" viewBox="0 0 20 16" fill="none" xmlns="http://www.w3.org/2000/svg">
<path d="M13.3407 0.264055C13.1569 0.129802 12.9425 0.0433914 12.717 0.0126066C12.4914 -0.0181781 12.2617 0.00762983 12.0486 0.087706L6.62164 2.39602C5.81867 2.7389 4.95451 2.91537 4.0814 2.91477H1.67222C1.22907 2.91513 0.804152 3.09124 0.490668 3.40446C0.177184 3.71769 0.000726627 4.14246 0 4.58562V9.11921C0.000363434 9.5626 0.17666 9.98772 0.490183 10.3012C0.803707 10.6148 1.22883 10.7911 1.67222 10.7914H1.97208L4.07797 15.5755C4.15413 15.7482 4.29578 15.8836 4.47175 15.9518C4.64773 16.0201 4.84361 16.0157 5.01632 15.9395C5.18902 15.8633 5.3244 15.7217 5.39267 15.5457C5.46093 15.3697 5.4565 15.1738 5.38034 15.0011L3.52765 10.7914H4.08208C4.96039 10.7914 5.81537 10.9657 6.62232 11.3095L12.1111 13.6404C12.3174 13.7062 12.5363 13.7224 12.75 13.6878C12.9637 13.6533 13.1663 13.5689 13.3414 13.4415C13.6948 13.1828 13.9061 12.7676 13.9061 12.3298V1.37635C13.9061 0.938569 13.6948 0.522058 13.3407 0.264055ZM16.2192 7.56432H18.5015C18.6902 7.56432 18.8712 7.48935 19.0046 7.35591C19.1381 7.22246 19.213 7.04147 19.213 6.85275C19.213 6.66403 19.1381 6.48304 19.0046 6.3496C18.8712 6.21615 18.6902 6.14119 18.5015 6.14119H16.2192C16.0305 6.14119 15.8495 6.21615 15.7161 6.3496C15.5826 6.48304 15.5077 6.66403 15.5077 6.85275C15.5077 7.04147 15.5826 7.22246 15.7161 7.35591C15.8495 7.48935 16.0305 7.56432 16.2192 7.56432ZM16.2199 4.56023C16.327 4.56023 16.4361 4.53621 16.539 4.48475L18.8212 3.33814C18.9048 3.29615 18.9792 3.23812 19.0403 3.16735C19.1014 3.09659 19.148 3.01449 19.1774 2.92573C19.2067 2.83697 19.2183 2.7433 19.2115 2.65005C19.2047 2.55681 19.1796 2.46582 19.1376 2.38229C19.0956 2.29876 19.0375 2.22432 18.9668 2.16321C18.896 2.10211 18.8139 2.05554 18.7251 2.02616C18.6364 1.99679 18.5427 1.98519 18.4495 1.99202C18.3562 1.99884 18.2652 2.02397 18.1817 2.06596L15.8995 3.21257C15.7561 3.28444 15.6413 3.40263 15.5735 3.54796C15.5057 3.6933 15.489 3.85726 15.5261 4.01327C15.5632 4.16927 15.6519 4.30818 15.7779 4.40746C15.9038 4.50673 16.0596 4.56057 16.2199 4.56023ZM18.8212 10.3674L16.539 9.22145C16.3711 9.14323 16.1793 9.1335 16.0044 9.19431C15.8294 9.25512 15.685 9.38169 15.6018 9.54718C15.5187 9.71267 15.5032 9.90405 15.5588 10.0807C15.6143 10.2574 15.7365 10.4055 15.8995 10.4936L18.1817 11.6395C18.2652 11.6815 18.3562 11.7067 18.4495 11.7135C18.5427 11.7203 18.6364 11.7087 18.7251 11.6793C18.8139 11.65 18.896 11.6034 18.9668 11.5423C19.0375 11.4812 19.0956 11.4067 19.1376 11.3232C19.1796 11.2397 19.2047 11.1487 19.2115 11.0555C19.2183 10.9622 19.2067 10.8685 19.1774 10.7798C19.148 10.691 19.1014 10.6089 19.0403 10.5382C18.9792 10.4674 18.9048 10.4094 18.8212 10.3674Z" fill="#2A9F47"/>
</svg>
