<svg width="21" height="24" viewBox="0 0 21 24" fill="none" xmlns="http://www.w3.org/2000/svg">
<path fill-rule="evenodd" clip-rule="evenodd" d="M14.6576 5.23485C14.6576 6.62322 14.1061 7.95473 13.1243 8.93645C12.1426 9.91818 10.8111 10.4697 9.42274 10.4697C8.03437 10.4697 6.70286 9.91818 5.72114 8.93645C4.73941 7.95473 4.18788 6.62322 4.18788 5.23485C4.18788 3.84648 4.73941 2.51498 5.72114 1.53325C6.70286 0.551528 8.03437 0 9.42274 0C10.8111 0 12.1426 0.551528 13.1243 1.53325C14.1061 2.51498 14.6576 3.84648 14.6576 5.23485ZM7.32879 12.5636C5.38508 12.5636 3.52097 13.3358 2.14655 14.7102C0.772139 16.0846 0 17.9487 0 19.8924C0 20.7255 0.330917 21.5244 0.919952 22.1134C1.50899 22.7024 2.30789 23.0334 3.14091 23.0334H10.899C11.3502 23.0334 11.6078 22.4806 11.3732 22.0932C10.7804 21.1137 10.4679 19.9903 10.4697 18.8455C10.4689 17.835 10.7122 16.8393 11.1788 15.943C11.6455 15.0467 12.3217 14.2764 13.15 13.6975C13.531 13.4305 13.4986 12.8191 13.0442 12.7238C12.5521 12.6191 12.0402 12.5636 11.5167 12.5636H7.32879ZM16.7515 14.6576C17.0292 14.6576 17.2955 14.7679 17.4918 14.9642C17.6882 15.1606 17.7985 15.4269 17.7985 15.7046V17.7985H19.8924C20.1701 17.7985 20.4364 17.9088 20.6328 18.1052C20.8291 18.3015 20.9394 18.5678 20.9394 18.8455C20.9394 19.1231 20.8291 19.3894 20.6328 19.5858C20.4364 19.7821 20.1701 19.8924 19.8924 19.8924H17.7985V21.9864C17.7985 22.2641 17.6882 22.5304 17.4918 22.7267C17.2955 22.9231 17.0292 23.0334 16.7515 23.0334C16.4739 23.0334 16.2076 22.9231 16.0112 22.7267C15.8149 22.5304 15.7046 22.2641 15.7046 21.9864V19.8924H13.6106C13.3329 19.8924 13.0666 19.7821 12.8703 19.5858C12.674 19.3894 12.5636 19.1231 12.5636 18.8455C12.5636 18.5678 12.674 18.3015 12.8703 18.1052C13.0666 17.9088 13.3329 17.7985 13.6106 17.7985H15.7046V15.7046C15.7046 15.4269 15.8149 15.1606 16.0112 14.9642C16.2076 14.7679 16.4739 14.6576 16.7515 14.6576Z" fill="#AFAFAF"/>
</svg>
