<svg width="20" height="20" viewBox="0 0 20 20" fill="none" xmlns="http://www.w3.org/2000/svg">
<path fill-rule="evenodd" clip-rule="evenodd" d="M0.228823 0.228823C0.376676 0.0809698 0.577627 -0.00144428 0.786718 1.91622e-05L3.4266 0.0184957C3.85806 0.0215155 4.20538 0.373732 4.20236 0.805194C4.19934 1.23666 3.84713 1.58398 3.41567 1.58096L2.68067 1.57581L3.55028 2.44542C3.85538 2.75052 3.85538 3.24518 3.55028 3.55028C3.24518 3.85538 2.75052 3.85538 2.44542 3.55028L1.57581 2.68067L1.58096 3.41567C1.58398 3.84713 1.23666 4.19934 0.805194 4.20236C0.373732 4.20538 0.0215155 3.85806 0.0184957 3.4266L1.91622e-05 0.786718C-0.00144428 0.577627 0.0809698 0.376676 0.228823 0.228823ZM19.7712 0.228823C19.919 0.376676 20.0014 0.577627 20 0.786718L19.9815 3.4266C19.9785 3.85806 19.6263 4.20538 19.1948 4.20236C18.7633 4.19934 18.416 3.84713 18.419 3.41567L18.4242 2.68067L17.5546 3.55028C17.2495 3.85538 16.7548 3.85538 16.4497 3.55028C16.1446 3.24518 16.1446 2.75052 16.4497 2.44542L17.3193 1.57581L16.5843 1.58096C16.1529 1.58398 15.8007 1.23666 15.7976 0.805194C15.7946 0.373732 16.1419 0.0215155 16.5734 0.0184957L19.2133 1.91622e-05C19.4224 -0.00144428 19.6233 0.0809698 19.7712 0.228823ZM0.805194 15.7976C1.23666 15.8007 1.58398 16.1529 1.58096 16.5843L1.57581 17.3193L2.44542 16.4497C2.75052 16.1446 3.24518 16.1446 3.55028 16.4497C3.85538 16.7548 3.85538 17.2495 3.55028 17.5546L2.68067 18.4242L3.41567 18.419C3.84713 18.416 4.19934 18.7633 4.20236 19.1948C4.20538 19.6263 3.85806 19.9785 3.4266 19.9815L0.786718 20C0.577627 20.0014 0.376676 19.919 0.228823 19.7712C0.0809698 19.6233 -0.00144428 19.4224 1.91622e-05 19.2133L0.0184957 16.5734C0.0215155 16.1419 0.373732 15.7946 0.805194 15.7976ZM19.1948 15.7976C19.6263 15.7946 19.9785 16.1419 19.9815 16.5734L20 19.2133C20.0014 19.4224 19.919 19.6233 19.7712 19.7712C19.6233 19.919 19.4224 20.0014 19.2133 20L16.5734 19.9815C16.1419 19.9785 15.7946 19.6263 15.7976 19.1948C15.8007 18.7633 16.1529 18.416 16.5843 18.419L17.3193 18.4242L16.4497 17.5546C16.1446 17.2495 16.1446 16.7548 16.4497 16.4497C16.7548 16.1446 17.2495 16.1446 17.5546 16.4497L18.4242 17.3193L18.419 16.5843C18.416 16.1529 18.7633 15.8007 19.1948 15.7976ZM10 7.93586C8.87179 7.93586 7.95127 8.85547 7.95127 9.99718C7.95127 11.1389 8.87179 12.0585 10 12.0585C11.1283 12.0585 12.0488 11.1389 12.0488 9.99718C12.0488 8.85547 11.1283 7.93586 10 7.93586ZM6.38877 9.99718C6.38877 7.99907 8.00232 6.37336 10 6.37336C11.9977 6.37336 13.6113 7.99907 13.6113 9.99718C13.6113 11.9953 11.9977 13.621 10 13.621C8.00232 13.621 6.38877 11.9953 6.38877 9.99718ZM10 2.93997C7.14727 2.93997 4.65436 4.68383 2.94607 6.2908C2.07731 7.10803 1.37674 7.9227 0.893476 8.53235C0.651356 8.83779 0.46253 9.09336 0.333163 9.27417C0.26845 9.36462 0.218531 9.43649 0.184176 9.48668C0.166996 9.51177 0.1537 9.53146 0.144385 9.54535L0.133407 9.5618L0.130177 9.56667L0.129131 9.56826L0.128751 9.56884C0.128601 9.56906 0.128466 9.56927 0.78125 9.99848L0.128466 9.56927C-0.042822 9.82978 -0.042822 10.1672 0.128466 10.4277L0.78125 9.99848C0.128466 10.4277 0.128601 10.4279 0.128751 10.4281L0.129131 10.4287L0.130177 10.4303L0.133407 10.4352L0.144385 10.4516C0.1537 10.4655 0.166996 10.4852 0.184176 10.5103C0.218531 10.5605 0.26845 10.6323 0.333163 10.7228C0.46253 10.9036 0.651356 11.1592 0.893476 11.4646C1.37674 12.0743 2.07731 12.8889 2.94607 13.7062C4.65436 15.3131 7.14727 17.057 10 17.057C12.1991 17.057 14.1781 16.0201 15.7346 14.83C16.0774 14.5679 16.1428 14.0776 15.8807 13.7349C15.6186 13.3921 15.1283 13.3267 14.7856 13.5887C13.3586 14.6798 11.7115 15.4945 10 15.4945C7.76136 15.4945 5.64489 14.0997 4.01666 12.5681C3.21714 11.816 2.56766 11.0613 2.11794 10.494C1.96805 10.3049 1.84091 10.1373 1.73836 9.99848C1.84091 9.85963 1.96805 9.69205 2.11794 9.50297C2.56766 8.93563 3.21714 8.18098 4.01666 7.42889C5.64489 5.89723 7.76136 4.50247 10 4.50247C12.2386 4.50247 14.3551 5.89723 15.9833 7.42889C16.7829 8.18098 17.4323 8.93563 17.8821 9.50297C18.0319 9.69205 18.1591 9.85961 18.2616 9.99846C18.0759 10.25 17.8099 10.5951 17.4746 10.9913C17.1958 11.3207 17.2369 11.8136 17.5663 12.0923C17.8956 12.3711 18.3886 12.33 18.6673 12.0007C19.0463 11.5528 19.3444 11.164 19.5489 10.8855C19.6512 10.7461 19.7302 10.6341 19.7845 10.5558C19.8116 10.5166 19.8326 10.4858 19.8472 10.4642L19.8642 10.4388L19.8691 10.4314L19.8711 10.4283L19.8713 10.428L19.8714 10.4279C19.8715 10.4278 19.8715 10.4277 19.2188 9.99848L19.8715 10.4277C20.0428 10.1672 20.0428 9.82979 19.8715 9.56927L19.2188 9.99848C19.8715 9.56927 19.8714 9.56906 19.8712 9.56884L19.8709 9.56826L19.8698 9.56667L19.8666 9.5618L19.863 9.55643L19.8556 9.54535C19.8463 9.53146 19.833 9.51177 19.8158 9.48668C19.7815 9.43649 19.7316 9.36462 19.6668 9.27417C19.5375 9.09336 19.3486 8.83779 19.1065 8.53235C18.6233 7.9227 17.9227 7.10803 17.0539 6.2908C15.3456 4.68383 12.8527 2.93997 10 2.93997Z" fill="white"/>
</svg>
