<svg width="24" height="24" viewBox="0 0 24 24" fill="none" xmlns="http://www.w3.org/2000/svg">
<path d="M0 5.15625V2.8125C0 1.26169 1.26169 0 2.8125 0H5.15625C5.67403 0 6.09375 0.419719 6.09375 0.9375C6.09375 1.45528 5.67403 1.875 5.15625 1.875H2.8125C2.29556 1.875 1.875 2.29556 1.875 2.8125V5.15625C1.875 5.67403 1.45528 6.09375 0.9375 6.09375C0.419719 6.09375 0 5.67403 0 5.15625ZM5.15625 22.125H2.8125C2.29556 22.125 1.875 21.7044 1.875 21.1875V18.8438C1.875 18.326 1.45528 17.9062 0.9375 17.9062C0.419719 17.9062 0 18.326 0 18.8438V21.1875C0 22.7383 1.26169 24 2.8125 24H5.15625C5.67403 24 6.09375 23.5803 6.09375 23.0625C6.09375 22.5447 5.67403 22.125 5.15625 22.125ZM21.1875 0H18.8438C18.326 0 17.9062 0.419719 17.9062 0.9375C17.9062 1.45528 18.326 1.875 18.8438 1.875H21.1875C21.7044 1.875 22.125 2.29556 22.125 2.8125V5.15625C22.125 5.67403 22.5447 6.09375 23.0625 6.09375C23.5803 6.09375 24 5.67403 24 5.15625V2.8125C24 1.26169 22.7383 0 21.1875 0ZM23.0625 17.9062C22.5447 17.9062 22.125 18.326 22.125 18.8438V21.1875C22.125 21.7044 21.7044 22.125 21.1875 22.125H18.8438C18.326 22.125 17.9062 22.5447 17.9062 23.0625C17.9062 23.5803 18.326 24 18.8438 24H21.1875C22.7383 24 24 22.7383 24 21.1875V18.8438C24 18.326 23.5803 17.9062 23.0625 17.9062Z" fill="white"/>
<path fill-rule="evenodd" clip-rule="evenodd" d="M4.74505 16.7231C4.43408 16.8472 4.08169 16.8093 3.80427 16.6218C3.5268 16.4342 3.36035 16.1213 3.36035 15.7863V8.21187C3.36035 7.8769 3.5268 7.56399 3.80427 7.37644C4.08169 7.18893 4.43408 7.15103 4.74505 7.27515C6.70002 8.05542 9.32465 8.46553 12.0001 8.46553C14.6755 8.46553 17.3001 8.05542 19.2551 7.27515C19.5661 7.15103 19.9185 7.18893 20.1959 7.37644C20.4734 7.56399 20.6398 7.8769 20.6398 8.21187V15.7863C20.6398 16.1213 20.4734 16.4342 20.1959 16.6218C19.9185 16.8093 19.5661 16.8472 19.2551 16.7231C17.3001 15.9428 14.6755 15.5327 12.0001 15.5327C9.32465 15.5327 6.70002 15.9428 4.74505 16.7231ZM5.38024 9.62159V14.3766C7.37929 13.7958 9.70493 13.5152 12.0001 13.5152C14.2952 13.5152 16.6209 13.7958 18.6199 14.3766V9.62159C16.6209 10.2024 14.2952 10.483 12.0001 10.483C9.70493 10.483 7.37929 10.2024 5.38024 9.62159Z" fill="white"/>
</svg>
