<svg width="17" height="17" viewBox="0 0 17 17" fill="none" xmlns="http://www.w3.org/2000/svg">
<path fill-rule="evenodd" clip-rule="evenodd" d="M0.5 8.0252C0.5 8.39339 0.798477 8.69187 1.16667 8.69187L7.65196 8.69187L7.65196 15.5677C7.65196 15.9359 7.95044 16.2344 8.31863 16.2344C8.68682 16.2344 8.98529 15.9359 8.98529 15.5677L8.98529 8.69187L15.8333 8.69187C16.2015 8.69187 16.5 8.39339 16.5 8.0252C16.5 7.65701 16.2015 7.35853 15.8333 7.35853L8.98529 7.35853L8.98529 0.901042C8.98529 0.532852 8.68682 0.234375 8.31863 0.234375C7.95044 0.234375 7.65196 0.532853 7.65196 0.901043L7.65196 7.35853L1.16667 7.35853C0.798477 7.35853 0.5 7.65701 0.5 8.0252Z" fill="#AFAFAF"/>
</svg>
