<svg width="24" height="18" viewBox="0 0 24 18" fill="none" xmlns="http://www.w3.org/2000/svg">
<path d="M15.5556 8.36496L10.0484 4.92295C9.94421 4.85784 9.82447 4.82181 9.70163 4.8186C9.5788 4.81538 9.45734 4.8451 9.34986 4.90466C9.24239 4.96423 9.15281 5.05147 9.09043 5.15734C9.02805 5.26321 8.99514 5.38384 8.99512 5.50672V12.3907C8.99512 12.5136 9.02801 12.6343 9.09038 12.7401C9.15275 12.846 9.24232 12.9333 9.3498 12.9928C9.45728 13.0524 9.57875 13.0821 9.70159 13.0789C9.82443 13.0757 9.94417 13.0396 10.0484 12.9745L15.5556 9.53249C15.6546 9.47061 15.7362 9.38457 15.7928 9.28245C15.8495 9.18033 15.8792 9.06549 15.8792 8.94874C15.8792 8.83198 15.8495 8.71714 15.7929 8.61502C15.7363 8.51289 15.6546 8.42684 15.5556 8.36496ZM10.372 11.1487V6.74873L13.8919 8.94872L10.372 11.1487Z" fill="#AFAFAF"/>
<path d="M20.0554 0H3.44201C1.54408 0 0 1.54408 0 3.44201V14.4564C0 16.3544 1.54408 17.8984 3.44201 17.8984H20.0554C21.9534 17.8984 23.4974 16.3544 23.4974 14.4564V3.44201C23.4974 1.54408 21.9534 0 20.0554 0ZM22.1206 14.4564C22.1206 15.5952 21.1942 16.5216 20.0554 16.5216H3.44201C2.30325 16.5216 1.3768 15.5952 1.3768 14.4564V3.44201C1.3768 2.30325 2.30325 1.3768 3.44201 1.3768H20.0554C21.1942 1.3768 22.1206 2.30325 22.1206 3.44201V14.4564Z" fill="#AFAFAF"/>
</svg>
