<svg width="33" height="33" viewBox="0 0 33 33" fill="none" xmlns="http://www.w3.org/2000/svg">
<path d="M22.8308 16.4595C22.8322 15.3245 22.5304 14.2097 21.9566 13.2304C21.3828 12.2512 20.5579 11.4429 19.567 10.8893C18.5762 10.3358 17.4555 10.0569 16.3207 10.0816C15.186 10.1063 14.0785 10.4336 13.1127 11.0298C12.1468 11.626 11.3578 12.4693 10.8272 13.4726C10.2965 14.4759 10.0435 15.6028 10.0943 16.7367C10.1451 17.8705 10.4978 18.9702 11.116 19.9221C11.7343 20.8739 12.5955 21.6433 13.6108 22.1508L12.9142 23.8929H12.7427C12.1794 23.8929 11.6392 24.1166 11.2409 24.5149C10.8426 24.9132 10.6188 25.4534 10.6188 26.0167V26.5476C10.6188 26.6884 10.6748 26.8235 10.7744 26.9231C10.8739 27.0226 11.009 27.0786 11.1498 27.0786H21.7689C21.9097 27.0786 22.0448 27.0226 22.1444 26.9231C22.2439 26.8235 22.2999 26.6884 22.2999 26.5476V26.0167C22.2999 25.4534 22.0761 24.9132 21.6778 24.5149C21.2795 24.1166 20.7393 23.8929 20.1761 23.8929H20.0046L19.3079 22.1508C20.3653 21.6223 21.2548 20.8101 21.8769 19.805C22.4991 18.7999 22.8294 17.6415 22.8308 16.4595ZM11.1498 16.4595C11.1498 15.4093 11.4612 14.3828 12.0446 13.5096C12.628 12.6365 13.4573 11.9559 14.4275 11.5541C15.3977 11.1522 16.4653 11.0471 17.4952 11.2519C18.5252 11.4568 19.4712 11.9625 20.2138 12.705C20.9563 13.4476 21.462 14.3937 21.6669 15.4236C21.8718 16.4536 21.7666 17.5212 21.3648 18.4913C20.9629 19.4615 20.2823 20.2908 19.4092 20.8742C18.536 21.4576 17.5095 21.769 16.4594 21.769C15.0517 21.7675 13.702 21.2076 12.7066 20.2122C11.7112 19.2168 11.1513 17.8672 11.1498 16.4595ZM21.238 26.0167H11.6808C11.6808 25.735 11.7926 25.4649 11.9918 25.2658C12.1909 25.0666 12.461 24.9548 12.7427 24.9548H20.1761C20.4577 24.9548 20.7278 25.0666 20.9269 25.2658C21.1261 25.4649 21.238 25.735 21.238 26.0167ZM18.8609 23.8929H14.0578L14.5946 22.5511C15.8098 22.9242 17.1089 22.9242 18.3241 22.5511L18.8609 23.8929Z" fill="#AFAFAF"/>
<path d="M19.1144 18.0525C19.1144 17.5274 18.9587 17.0142 18.667 16.5776C18.3753 16.141 17.9607 15.8007 17.4756 15.5998C16.9905 15.3989 16.4567 15.3463 15.9417 15.4487C15.4267 15.5512 14.9537 15.804 14.5824 16.1753C14.2111 16.5466 13.9583 17.0196 13.8559 17.5346C13.7534 18.0496 13.806 18.5834 14.0069 19.0685C14.2079 19.5535 14.5481 19.9682 14.9847 20.2599C15.4213 20.5516 15.9346 20.7073 16.4596 20.7073C17.1635 20.7064 17.8382 20.4265 18.3359 19.9288C18.8336 19.4311 19.1136 18.7563 19.1144 18.0525ZM14.8668 18.0525C14.8668 17.7375 14.9602 17.4295 15.1352 17.1676C15.3102 16.9056 15.559 16.7015 15.8501 16.5809C16.1411 16.4603 16.4614 16.4288 16.7704 16.4902C17.0794 16.5517 17.3632 16.7034 17.586 16.9262C17.8087 17.1489 17.9604 17.4328 18.0219 17.7418C18.0834 18.0507 18.0518 18.371 17.9313 18.6621C17.8107 18.9531 17.6065 19.2019 17.3446 19.3769C17.0826 19.552 16.7747 19.6454 16.4596 19.6454C16.0372 19.6454 15.632 19.4776 15.3333 19.1788C15.0346 18.8801 14.8668 18.475 14.8668 18.0525ZM18.0525 13.2739H19.1144V14.3358H18.0525V13.2739ZM0 24.424C0 27.7833 6.23024 30.4275 14.6836 30.7588L13.4295 32.0129L14.1802 32.7637L16.3041 30.6399C16.4036 30.5403 16.4595 30.4053 16.4595 30.2645C16.4595 30.1237 16.4036 29.9887 16.3041 29.8891L14.1802 27.7653L13.4295 28.5161L14.6045 29.6911C7.83426 29.3757 1.06191 27.3028 1.06191 24.424C1.06191 22.6384 4.02306 20.8565 8.60574 19.8843L8.38486 18.8452C3.13264 19.9592 0 22.0448 0 24.424ZM24.5344 18.8452L24.3135 19.8843C28.8962 20.8565 31.8574 22.6384 31.8574 24.424C31.8574 26.8048 26.3715 29.5068 17.5088 29.7208L17.5343 30.7827C26.3052 30.5709 32.9193 27.8375 32.9193 24.424C32.9193 22.0448 29.7866 19.9592 24.5344 18.8452ZM10.0882 6.90243V7.16791C10.0875 7.47472 10.1629 7.77691 10.3074 8.04752C10.452 8.31812 10.6613 8.54872 10.9167 8.71873C11.1721 8.88875 11.4657 8.99288 11.7711 9.02184C12.0765 9.0508 12.3844 9.00368 12.6672 8.8847C12.95 8.76572 13.1989 8.57857 13.3918 8.33996C13.5847 8.10135 13.7154 7.8187 13.7725 7.51724C13.8295 7.21577 13.811 6.90488 13.7186 6.61231C13.6263 6.31974 13.4629 6.05458 13.2431 5.84052C13.4629 5.62645 13.6263 5.3613 13.7186 5.06873C13.811 4.77615 13.8295 4.46526 13.7725 4.1638C13.7154 3.86234 13.5847 3.57969 13.3918 3.34108C13.1989 3.10247 12.95 2.91532 12.6672 2.79633C12.3844 2.67735 12.0765 2.63024 11.7711 2.6592C11.4657 2.68816 11.1721 2.79229 10.9167 2.9623C10.6613 3.13231 10.452 3.36291 10.3074 3.63352C10.1629 3.90413 10.0875 4.20632 10.0882 4.51313V4.77861H11.1501V4.51313C11.1501 4.35561 11.1968 4.20163 11.2843 4.07065C11.3718 3.93968 11.4962 3.8376 11.6417 3.77732C11.7873 3.71704 11.9474 3.70127 12.1019 3.732C12.2564 3.76273 12.3983 3.83858 12.5097 3.94996C12.6211 4.06135 12.6969 4.20326 12.7276 4.35775C12.7584 4.51224 12.7426 4.67238 12.6823 4.81791C12.622 4.96344 12.52 5.08782 12.389 5.17534C12.258 5.26285 12.104 5.30956 11.9465 5.30956H11.681V6.37147H11.9465C12.104 6.37147 12.258 6.41818 12.389 6.5057C12.52 6.59321 12.622 6.7176 12.6823 6.86313C12.7426 7.00866 12.7584 7.16879 12.7276 7.32328C12.6969 7.47778 12.6211 7.61969 12.5097 7.73107C12.3983 7.84246 12.2564 7.91831 12.1019 7.94904C11.9474 7.97977 11.7873 7.964 11.6417 7.90372C11.4962 7.84344 11.3718 7.74136 11.2843 7.61038C11.1968 7.47941 11.1501 7.32543 11.1501 7.16791V6.90243H10.0882ZM18.0525 4.77861V4.51313C18.0525 4.02026 17.8567 3.54759 17.5082 3.19908C17.1597 2.85057 16.687 2.65478 16.1942 2.65478C15.7013 2.65478 15.2286 2.85057 14.8801 3.19908C14.5316 3.54759 14.3358 4.02026 14.3358 4.51313V7.16791C14.3358 7.53545 14.4448 7.89475 14.649 8.20035C14.8532 8.50595 15.1434 8.74414 15.483 8.8848C15.8226 9.02545 16.1962 9.06225 16.5567 8.99055C16.9172 8.91884 17.2483 8.74185 17.5082 8.48196C17.7681 8.22206 17.9451 7.89094 18.0168 7.53045C18.0885 7.16997 18.0517 6.79632 17.9111 6.45675C17.7704 6.11718 17.5322 5.82695 17.2266 5.62275C16.921 5.41855 16.5617 5.30956 16.1942 5.30956H15.3977V4.51313C15.3977 4.3019 15.4816 4.09932 15.631 3.94996C15.7804 3.8006 15.9829 3.71669 16.1942 3.71669C16.4054 3.71669 16.608 3.8006 16.7573 3.94996C16.9067 4.09932 16.9906 4.3019 16.9906 4.51313V4.77861H18.0525ZM16.1942 6.37147C16.3517 6.37147 16.5057 6.41818 16.6366 6.5057C16.7676 6.59321 16.8697 6.7176 16.93 6.86313C16.9903 7.00866 17.006 7.16879 16.9753 7.32328C16.9446 7.47778 16.8687 7.61969 16.7573 7.73107C16.6459 7.84246 16.504 7.91831 16.3495 7.94904C16.195 7.97977 16.0349 7.964 15.8894 7.90372C15.7439 7.84344 15.6195 7.74136 15.532 7.61038C15.4444 7.47941 15.3977 7.32543 15.3977 7.16791V6.37147H16.1942ZM22.3002 7.16791V4.51313C22.3002 4.02026 22.1044 3.54759 21.7559 3.19908C21.4074 2.85057 20.9347 2.65478 20.4418 2.65478C19.9489 2.65478 19.4763 2.85057 19.1278 3.19908C18.7793 3.54759 18.5835 4.02026 18.5835 4.51313V7.16791C18.5835 7.66077 18.7793 8.13345 19.1278 8.48196C19.4763 8.83047 19.9489 9.02625 20.4418 9.02625C20.9347 9.02625 21.4074 8.83047 21.7559 8.48196C22.1044 8.13345 22.3002 7.66077 22.3002 7.16791ZM19.6454 7.16791V4.51313C19.6454 4.3019 19.7293 4.09932 19.8786 3.94996C20.028 3.8006 20.2306 3.71669 20.4418 3.71669C20.653 3.71669 20.8556 3.8006 21.005 3.94996C21.1543 4.09932 21.2382 4.3019 21.2382 4.51313V7.16791C21.2382 7.37914 21.1543 7.58171 21.005 7.73107C20.8556 7.88043 20.653 7.96434 20.4418 7.96434C20.2306 7.96434 20.028 7.88043 19.8786 7.73107C19.7293 7.58171 19.6454 7.37914 19.6454 7.16791ZM24.424 0C24.1089 0 23.801 0.0934201 23.539 0.268447C23.2771 0.443473 23.0729 0.692245 22.9524 0.983304C22.8318 1.27436 22.8003 1.59464 22.8617 1.90362C22.9232 2.21261 23.0749 2.49643 23.2977 2.7192C23.5204 2.94196 23.8042 3.09367 24.1132 3.15513C24.4222 3.21659 24.7425 3.18505 25.0335 3.06449C25.3246 2.94393 25.5734 2.73976 25.7484 2.47782C25.9234 2.21587 26.0169 1.90791 26.0169 1.59287C26.0169 1.17041 25.849 0.765261 25.5503 0.46654C25.2516 0.16782 24.8464 0 24.424 0ZM24.424 2.12382C24.319 2.12382 24.2163 2.09268 24.129 2.03434C24.0417 1.976 23.9736 1.89308 23.9334 1.79606C23.8933 1.69904 23.8827 1.59228 23.9032 1.48928C23.9237 1.38629 23.9743 1.29168 24.0485 1.21743C24.1228 1.14317 24.2174 1.0926 24.3204 1.07211C24.4234 1.05163 24.5302 1.06214 24.6272 1.10233C24.7242 1.14252 24.8071 1.21057 24.8655 1.29789C24.9238 1.3852 24.9549 1.48786 24.9549 1.59287C24.9549 1.73369 24.899 1.86874 24.7994 1.96831C24.6999 2.06788 24.5648 2.12382 24.424 2.12382Z" fill="#AFAFAF"/>
</svg>
