<svg width="21" height="21" viewBox="0 0 21 21" fill="none" xmlns="http://www.w3.org/2000/svg">
<path d="M10.5 0C8.42327 0 6.39321 0.615812 4.6665 1.76956C2.93979 2.92331 1.59398 4.56319 0.799267 6.4818C0.00454955 8.40042 -0.203385 10.5116 0.201759 12.5484C0.606902 14.5852 1.60693 16.4561 3.07537 17.9246C4.54382 19.393 6.41474 20.393 8.45153 20.7982C10.4883 21.2033 12.5995 20.9954 14.5181 20.2007C16.4368 19.406 18.0766 18.0601 19.2304 16.3334C20.3841 14.6067 20.9999 12.5767 20.9999 10.5C20.9967 7.71619 19.8895 5.04734 17.921 3.07891C15.9526 1.11047 13.2838 0.00320289 10.5 0ZM10.5 19.9321C8.63446 19.9321 6.81085 19.379 5.25974 18.3425C3.70862 17.3061 2.49968 15.833 1.78578 14.1095C1.07188 12.386 0.885092 10.4895 1.24903 8.65984C1.61298 6.83018 2.5113 5.14953 3.83042 3.83041C5.14953 2.5113 6.83018 1.61297 8.65985 1.24903C10.4895 0.885087 12.386 1.07188 14.1095 1.78577C15.833 2.49967 17.3061 3.70862 18.3425 5.25973C19.379 6.81085 19.9321 8.63446 19.9321 10.5C19.9294 13.0007 18.9347 15.3982 17.1665 17.1665C15.3982 18.9347 13.0007 19.9294 10.5 19.9321Z" fill="#AFAFAF"/>
<path d="M15.2272 5.03404L8.46327 8.21678C8.35052 8.27003 8.25984 8.3609 8.20683 8.47376L5.06306 15.1985C5.01655 15.2979 5.00177 15.4092 5.02074 15.5172C5.0397 15.6253 5.0915 15.7249 5.16907 15.8024C5.24664 15.88 5.34623 15.9318 5.45429 15.9508C5.56234 15.9697 5.67361 15.955 5.77297 15.9085L12.4981 12.7649C12.611 12.7119 12.7018 12.6212 12.7551 12.5084L15.9376 5.74448C15.9778 5.65557 15.9935 5.55752 15.983 5.46051C15.9725 5.3635 15.9363 5.27107 15.878 5.19279C15.8017 5.099 15.6968 5.03274 15.5793 5.00408C15.4618 4.97542 15.3382 4.98595 15.2272 5.03404ZM6.65354 14.3183L8.85177 9.61595L11.3557 12.1197L6.65354 14.3183ZM12.1123 11.3664L9.60528 8.85959L14.3392 6.63164L12.1123 11.3664Z" fill="#AFAFAF"/>
</svg>
