<svg width="26" height="22" viewBox="0 0 26 22" fill="none" xmlns="http://www.w3.org/2000/svg">
<path d="M12.5839 16.3672C12.6619 16.4123 12.7505 16.436 12.8407 16.436C12.9308 16.436 13.0194 16.4123 13.0975 16.3672L19.7746 12.515C19.8527 12.4699 19.9175 12.4051 19.9626 12.327C20.0077 12.2489 20.0314 12.1604 20.0314 12.0702V4.36581C20.0314 4.27566 20.0077 4.18709 19.9626 4.10901C19.9175 4.03093 19.8527 3.96609 19.7746 3.92101L13.0975 0.0688129C13.0194 0.0237327 12.9308 0 12.8407 0C12.7505 0 12.6619 0.0237327 12.5839 0.0688129L5.91184 3.92101C5.83376 3.96609 5.76893 4.03093 5.72385 4.10901C5.67877 4.18709 5.65503 4.27566 5.65503 4.36581V12.0702C5.65503 12.1604 5.67877 12.2489 5.72385 12.327C5.76893 12.4051 5.83376 12.4699 5.91184 12.515L12.5839 16.3672ZM6.68228 5.25542L12.327 8.51489V15.0328L6.68228 11.7733V5.25542ZM13.3543 15.0328V8.51489L19.0042 5.25542V11.7733L13.3543 15.0328ZM12.8407 1.10634L18.4906 4.36581L12.8407 7.62529L7.19591 4.36581L12.8407 1.10634ZM11.4477 16.885C11.3508 16.7914 11.2211 16.7396 11.0864 16.7408C10.9518 16.742 10.8229 16.796 10.7277 16.8912C10.6325 16.9864 10.5785 17.1153 10.5773 17.2499C10.5761 17.3846 10.6279 17.5143 10.7214 17.6112L11.5782 18.469C5.34891 18.2851 1.02725 16.7206 1.02725 15.4088C1.02725 14.9311 1.74633 14.1833 3.75667 13.5186C3.82074 13.4975 3.88002 13.4639 3.93112 13.4198C3.98221 13.3757 4.02412 13.322 4.05446 13.2617C4.08479 13.2014 4.10295 13.1357 4.10791 13.0684C4.11286 13.0011 4.10451 12.9335 4.08333 12.8694C4.06215 12.8053 4.02856 12.7461 3.98447 12.695C3.94038 12.6439 3.88666 12.602 3.82638 12.5716C3.76609 12.5413 3.70042 12.5231 3.63311 12.5182C3.56581 12.5132 3.49819 12.5216 3.43411 12.5428C1.1875 13.2855 0 14.2788 0 15.4088C0 18.0005 5.98786 19.338 11.6203 19.4983L10.7214 20.3971C10.6279 20.494 10.5761 20.6237 10.5773 20.7584C10.5785 20.8931 10.6325 21.0219 10.7277 21.1171C10.8229 21.2124 10.9518 21.2664 11.0864 21.2676C11.2211 21.2687 11.3508 21.217 11.4477 21.1234L13.2043 19.3678C13.2521 19.3201 13.2901 19.2634 13.316 19.201C13.3419 19.1386 13.3552 19.0717 13.3552 19.0042C13.3552 18.9366 13.3419 18.8697 13.316 18.8073C13.2901 18.7449 13.2521 18.6882 13.2043 18.6405L11.4477 16.885ZM22.2472 12.5428C22.1831 12.5216 22.1155 12.5132 22.0482 12.5182C21.9809 12.5231 21.9152 12.5413 21.855 12.5716C21.7947 12.602 21.741 12.6439 21.6969 12.695C21.6528 12.7461 21.6192 12.8053 21.598 12.8694C21.5768 12.9335 21.5685 13.0011 21.5734 13.0684C21.5784 13.1357 21.5965 13.2014 21.6269 13.2617C21.6572 13.322 21.6991 13.3757 21.7502 13.4198C21.8013 13.4639 21.8606 13.4975 21.9247 13.5186C23.9371 14.1833 24.6541 14.9311 24.6541 15.4088C24.6541 16.6415 20.7228 18.1546 14.8705 18.4412C14.8031 18.4429 14.7366 18.4577 14.6749 18.4851C14.6132 18.5124 14.5575 18.5516 14.5109 18.6004C14.4169 18.699 14.366 18.831 14.3692 18.9672C14.3725 19.1034 14.4297 19.2328 14.5284 19.3268C14.627 19.4208 14.759 19.4718 14.8952 19.4685H14.9198C20.277 19.2096 25.6813 17.8485 25.6813 15.4088C25.6813 14.2788 24.4938 13.2855 22.2472 12.5428Z" fill="#AFAFAF"/>
</svg>
