<svg width="21" height="19" viewBox="0 0 21 19" fill="none" xmlns="http://www.w3.org/2000/svg">
<path fill-rule="evenodd" clip-rule="evenodd" d="M13.0805 5.60295C13.0805 6.34971 12.473 6.95715 11.7262 6.95715C10.9793 6.95715 10.3718 6.34971 10.3718 5.60295C10.3718 4.85614 10.9793 4.24874 11.7262 4.24874C12.473 4.24869 13.0805 4.85614 13.0805 5.60295ZM9.31126 5.60295C9.31126 6.93442 10.3948 8.01776 11.7262 8.01776C13.0575 8.01776 14.1411 6.93442 14.1411 5.60295C14.1411 4.27147 13.0575 3.18817 11.7262 3.18817C10.3948 3.18813 9.31126 4.27147 9.31126 5.60295ZM21 5.94589V5.97762C21 6.27046 20.7624 6.50803 20.469 6.50803C20.1755 6.50803 19.938 6.27046 19.938 5.97762V5.94589C19.938 5.65305 20.1755 5.41548 20.469 5.41548C20.7624 5.41548 21 5.65305 21 5.94589ZM5.56659 6.96055L13.5272 14.9212C13.6308 15.0248 13.7663 15.0765 13.9021 15.0765C14.0378 15.0765 14.1736 15.0248 14.2772 14.9212C14.4842 14.7142 14.4842 14.3785 14.2772 14.1712L12.476 12.3703L15.2182 9.62828L19.938 14.3487V15.0989C19.938 16.2956 18.9658 17.2693 17.7681 17.2693H3.23085C2.03416 17.2693 1.0606 16.2956 1.0606 15.0989V11.4668L5.56659 6.96055ZM17.7681 0H3.23085C1.44945 0 0 1.44945 0 3.23085V15.0988C0 16.8804 1.44945 18.3299 3.23085 18.3299H17.7682C19.5488 18.3299 21 16.8804 21 15.0988V8.03371C21 7.74087 20.7624 7.50351 20.469 7.50351C20.1756 7.50351 19.938 7.74087 19.938 8.03371V12.8487L15.5931 8.50341C15.3861 8.29639 15.0501 8.29622 14.8431 8.50341L11.7263 11.6203L5.94169 5.83567C5.89244 5.7864 5.83396 5.74732 5.7696 5.72067C5.70524 5.69402 5.63625 5.68033 5.56659 5.68037C5.42594 5.68051 5.29108 5.73635 5.19149 5.83567L1.06056 9.96682V3.23085C1.06056 2.03411 2.03411 1.0606 3.23081 1.0606H17.7681C18.9658 1.0606 19.938 2.03416 19.938 3.23085V3.8898C19.938 4.18264 20.1756 4.42016 20.469 4.42016C20.7624 4.42016 21 4.18264 21 3.8898V3.23085C21 1.44945 19.5487 0 17.7681 0Z" fill="#AFAFAF"/>
</svg>
