<svg width="17" height="18" viewBox="0 0 17 18" fill="none" xmlns="http://www.w3.org/2000/svg">
<path d="M1.94925 11.9548V2.65662L1.32265 3.28322C1.23118 3.37157 1.10867 3.42045 0.981506 3.41934C0.854344 3.41824 0.732703 3.36723 0.642782 3.27731C0.552861 3.18739 0.501856 3.06575 0.500751 2.93859C0.499646 2.81143 0.54853 2.68892 0.636874 2.59745L2.09184 1.14248C2.13689 1.09732 2.19041 1.06148 2.24933 1.03703C2.30825 1.01259 2.37142 1 2.43521 1C2.499 1 2.56217 1.01259 2.62109 1.03703C2.68001 1.06148 2.73353 1.09732 2.77858 1.14248L4.23355 2.59745C4.32189 2.68892 4.37077 2.81143 4.36967 2.93859C4.36856 3.06575 4.31756 3.18739 4.22764 3.27731C4.13772 3.36723 4.01608 3.41824 3.88891 3.41934C3.76175 3.42045 3.63924 3.37157 3.54777 3.28322L2.9202 2.65662V11.9548L3.54777 11.3272C3.63924 11.2389 3.76175 11.19 3.88891 11.1911C4.01608 11.1922 4.13772 11.2432 4.22764 11.3331C4.31756 11.4231 4.36856 11.5447 4.36967 11.6719C4.37077 11.799 4.32189 11.9215 4.23355 12.013L2.77858 13.468C2.73353 13.5131 2.68001 13.549 2.62109 13.5734C2.56217 13.5979 2.499 13.6105 2.43521 13.6105C2.37142 13.6105 2.30825 13.5979 2.24933 13.5734C2.19041 13.549 2.13689 13.5131 2.09184 13.468L0.636874 12.013C0.54853 11.9215 0.499646 11.799 0.500751 11.6719C0.501856 11.5447 0.552861 11.4231 0.642782 11.3331C0.732703 11.2432 0.854344 11.1922 0.981506 11.1911C1.10867 11.19 1.23118 11.2389 1.32265 11.3272L1.94925 11.9548ZM16.3563 14.7222L14.9013 13.2672C14.8099 13.1788 14.6874 13.13 14.5602 13.1311C14.433 13.1322 14.3114 13.1832 14.2215 13.2731C14.1316 13.363 14.0806 13.4847 14.0794 13.6118C14.0783 13.739 14.1272 13.8615 14.2156 13.953L14.8422 14.5805H5.54495L6.17253 13.953C6.26087 13.8615 6.30976 13.739 6.30865 13.6118C6.30755 13.4847 6.25654 13.363 6.16662 13.2731C6.0767 13.1832 5.95506 13.1322 5.8279 13.1311C5.70073 13.13 5.57823 13.1788 5.48676 13.2672L4.03179 14.7222C3.98663 14.7672 3.95079 14.8207 3.92634 14.8796C3.90189 14.9386 3.88931 15.0017 3.88931 15.0655C3.88931 15.1293 3.90189 15.1925 3.92634 15.2514C3.95079 15.3103 3.98663 15.3638 4.03179 15.4089L5.48676 16.8639C5.57823 16.9522 5.70073 17.0011 5.8279 17C5.95506 16.9989 6.0767 16.9479 6.16662 16.858C6.25654 16.768 6.30755 16.6464 6.30865 16.5192C6.30976 16.3921 6.26087 16.2696 6.17253 16.1781L5.54495 15.5515H14.8431L14.2165 16.1781C14.1282 16.2696 14.0793 16.3921 14.0804 16.5192C14.0815 16.6464 14.1325 16.768 14.2225 16.858C14.3124 16.9479 14.434 16.9989 14.5612 17C14.6883 17.0011 14.8108 16.9522 14.9023 16.8639L16.3573 15.4089C16.4024 15.3638 16.4381 15.3102 16.4625 15.2513C16.4869 15.1923 16.4994 15.1291 16.4993 15.0653C16.4992 15.0015 16.4865 14.9384 16.462 14.8795C16.4375 14.8206 16.4015 14.7671 16.3563 14.7222ZM16.0139 3.9108C15.8853 3.9108 15.7619 3.96189 15.671 4.05285C15.58 4.1438 15.5289 4.26716 15.5289 4.39578V5.36576C15.5289 5.49439 15.58 5.61775 15.671 5.7087C15.7619 5.79965 15.8853 5.85075 16.0139 5.85075C16.1425 5.85075 16.2659 5.79965 16.3568 5.7087C16.4478 5.61775 16.4989 5.49439 16.4989 5.36576V4.39578C16.4989 4.26716 16.4478 4.1438 16.3568 4.05285C16.2659 3.96189 16.1425 3.9108 16.0139 3.9108ZM16.0139 6.82072C15.8853 6.82072 15.7619 6.87182 15.671 6.96277C15.58 7.05373 15.5289 7.17709 15.5289 7.30571V8.27569C15.5289 8.40432 15.58 8.52767 15.671 8.61863C15.7619 8.70958 15.8853 8.76068 16.0139 8.76068C16.1425 8.76068 16.2659 8.70958 16.3568 8.61863C16.4478 8.52767 16.4989 8.40432 16.4989 8.27569V7.30571C16.4989 7.17709 16.4478 7.05373 16.3568 6.96277C16.2659 6.87182 16.1425 6.82072 16.0139 6.82072ZM6.31415 5.85075C6.44277 5.85075 6.56613 5.79965 6.65708 5.7087C6.74804 5.61775 6.79913 5.49439 6.79913 5.36576V4.39578C6.79913 4.26716 6.74804 4.1438 6.65708 4.05285C6.56613 3.96189 6.44277 3.9108 6.31415 3.9108C6.18552 3.9108 6.06216 3.96189 5.97121 4.05285C5.88025 4.1438 5.82916 4.26716 5.82916 4.39578V5.36576C5.82916 5.49439 5.88025 5.61775 5.97121 5.7087C6.06216 5.79965 6.18552 5.85075 6.31415 5.85075ZM6.31415 8.76068C6.44277 8.76068 6.56613 8.70958 6.65708 8.61863C6.74804 8.52767 6.79913 8.40432 6.79913 8.27569V7.30571C6.79913 7.17709 6.74804 7.05373 6.65708 6.96277C6.56613 6.87182 6.44277 6.82072 6.31415 6.82072C6.18552 6.82072 6.06216 6.87182 5.97121 6.96277C5.88025 7.05373 5.82916 7.17709 5.82916 7.30571V8.27569C5.82916 8.40432 5.88025 8.52767 5.97121 8.61863C6.06216 8.70958 6.18552 8.76068 6.31415 8.76068ZM12.134 1.97084H13.104C13.2326 1.97084 13.356 1.91975 13.4469 1.82879C13.5379 1.73784 13.589 1.61448 13.589 1.48585C13.589 1.35723 13.5379 1.23387 13.4469 1.14292C13.356 1.05196 13.2326 1.00087 13.104 1.00087H12.134C12.0054 1.00087 11.882 1.05196 11.7911 1.14292C11.7001 1.23387 11.649 1.35723 11.649 1.48585C11.649 1.61448 11.7001 1.73784 11.7911 1.82879C11.882 1.91975 12.0054 1.97084 12.134 1.97084ZM9.22407 1.97084H10.1941C10.3227 1.97084 10.446 1.91975 10.537 1.82879C10.6279 1.73784 10.679 1.61448 10.679 1.48585C10.679 1.35723 10.6279 1.23387 10.537 1.14292C10.446 1.05196 10.3227 1.00087 10.1941 1.00087H9.22407C9.09545 1.00087 8.97209 1.05196 8.88114 1.14292C8.79018 1.23387 8.73909 1.35723 8.73909 1.48585C8.73909 1.61448 8.79018 1.73784 8.88114 1.82879C8.97209 1.91975 9.09545 1.97084 9.22407 1.97084ZM12.134 11.6706H13.104C13.2326 11.6706 13.356 11.6195 13.4469 11.5286C13.5379 11.4376 13.589 11.3142 13.589 11.1856C13.589 11.057 13.5379 10.9336 13.4469 10.8427C13.356 10.7517 13.2326 10.7006 13.104 10.7006H12.134C12.0054 10.7006 11.882 10.7517 11.7911 10.8427C11.7001 10.9336 11.649 11.057 11.649 11.1856C11.649 11.3142 11.7001 11.4376 11.7911 11.5286C11.882 11.6195 12.0054 11.6706 12.134 11.6706ZM9.22407 11.6706H10.1941C10.3227 11.6706 10.446 11.6195 10.537 11.5286C10.6279 11.4376 10.679 11.3142 10.679 11.1856C10.679 11.057 10.6279 10.9336 10.537 10.8427C10.446 10.7517 10.3227 10.7006 10.1941 10.7006H9.22407C9.09545 10.7006 8.97209 10.7517 8.88114 10.8427C8.79018 10.9336 8.73909 11.057 8.73909 11.1856C8.73909 11.3142 8.79018 11.4376 8.88114 11.5286C8.97209 11.6195 9.09545 11.6706 9.22407 11.6706ZM15.0439 1.00087C14.9153 1.00087 14.7919 1.05196 14.701 1.14292C14.61 1.23387 14.5589 1.35723 14.5589 1.48585C14.5589 1.61448 14.61 1.73784 14.701 1.82879C14.7919 1.91975 14.9153 1.97084 15.0439 1.97084C15.1726 1.97084 15.2959 2.02194 15.3869 2.11289C15.4778 2.20385 15.5289 2.3272 15.5289 2.45583C15.5289 2.58446 15.58 2.70782 15.671 2.79877C15.7619 2.88972 15.8853 2.94082 16.0139 2.94082C16.1425 2.94082 16.2659 2.88972 16.3568 2.79877C16.4478 2.70782 16.4989 2.58446 16.4989 2.45583C16.4989 2.06995 16.3456 1.69987 16.0727 1.42702C15.7999 1.15416 15.4298 1.00087 15.0439 1.00087ZM7.28412 11.6706C7.41275 11.6706 7.53611 11.6195 7.62706 11.5286C7.71801 11.4376 7.76911 11.3142 7.76911 11.1856C7.76911 11.057 7.71801 10.9336 7.62706 10.8427C7.53611 10.7517 7.41275 10.7006 7.28412 10.7006C7.1555 10.7006 7.03214 10.6495 6.94118 10.5586C6.85023 10.4676 6.79913 10.3443 6.79913 10.2156C6.79913 10.087 6.74804 9.96366 6.65708 9.8727C6.56613 9.78175 6.44277 9.73065 6.31415 9.73065C6.18552 9.73065 6.06216 9.78175 5.97121 9.8727C5.88025 9.96366 5.82916 10.087 5.82916 10.2156C5.82916 10.6015 5.98245 10.9716 6.25531 11.2445C6.52817 11.5173 6.89824 11.6706 7.28412 11.6706ZM16.0139 9.73065C15.8853 9.73065 15.7619 9.78175 15.671 9.8727C15.58 9.96366 15.5289 10.087 15.5289 10.2156C15.5289 10.3443 15.4778 10.4676 15.3869 10.5586C15.2959 10.6495 15.1726 10.7006 15.0439 10.7006C14.9153 10.7006 14.7919 10.7517 14.701 10.8427C14.61 10.9336 14.5589 11.057 14.5589 11.1856C14.5589 11.3142 14.61 11.4376 14.701 11.5286C14.7919 11.6195 14.9153 11.6706 15.0439 11.6706C15.4298 11.6706 15.7999 11.5173 16.0727 11.2445C16.3456 10.9716 16.4989 10.6015 16.4989 10.2156C16.4989 10.087 16.4478 9.96366 16.3568 9.8727C16.2659 9.78175 16.1425 9.73065 16.0139 9.73065ZM6.31415 2.94082C6.44277 2.94082 6.56613 2.88972 6.65708 2.79877C6.74804 2.70782 6.79913 2.58446 6.79913 2.45583C6.79913 2.3272 6.85023 2.20385 6.94118 2.11289C7.03214 2.02194 7.1555 1.97084 7.28412 1.97084C7.41275 1.97084 7.53611 1.91975 7.62706 1.82879C7.71801 1.73784 7.76911 1.61448 7.76911 1.48585C7.76911 1.35723 7.71801 1.23387 7.62706 1.14292C7.53611 1.05196 7.41275 1.00087 7.28412 1.00087C6.89824 1.00087 6.52817 1.15416 6.25531 1.42702C5.98245 1.69987 5.82916 2.06995 5.82916 2.45583C5.82916 2.58446 5.88025 2.70782 5.97121 2.79877C6.06216 2.88972 6.18552 2.94082 6.31415 2.94082Z" fill="#AFAFAF" stroke="#AFAFAF" stroke-width="0.3"/>
</svg>
