<svg width="15" height="15" viewBox="0 0 15 15" fill="none" xmlns="http://www.w3.org/2000/svg">
<path d="M11.3501 6.53437H9.25007C8.9716 6.53437 8.70452 6.42375 8.50761 6.22684C8.3107 6.02992 8.20007 5.76285 8.20007 5.48438V3.38438C8.20007 2.76136 8.38482 2.15234 8.73094 1.63433C9.07707 1.11632 9.56903 0.712572 10.1446 0.474156C10.7202 0.23574 11.3536 0.173359 11.9646 0.294903C12.5756 0.416446 13.1369 0.716454 13.5775 1.15699C14.018 1.59753 14.318 2.1588 14.4395 2.76984C14.5611 3.38088 14.4987 4.01424 14.2603 4.58983C14.0219 5.16541 13.6181 5.65738 13.1001 6.0035C12.5821 6.34963 11.9731 6.53437 11.3501 6.53437ZM9.60007 5.13438H11.3501C11.6962 5.13438 12.0345 5.03174 12.3223 4.83945C12.6101 4.64715 12.8344 4.37384 12.9669 4.05407C13.0993 3.7343 13.134 3.38243 13.0664 3.04297C12.9989 2.7035 12.8323 2.39168 12.5875 2.14694C12.3428 1.9022 12.0309 1.73553 11.6915 1.668C11.352 1.60048 11.0001 1.63513 10.6804 1.76759C10.3606 1.90004 10.0873 2.12434 9.895 2.41213C9.70271 2.69991 9.60007 3.03826 9.60007 3.38438V5.13438Z" fill="#AFAFAF"/>
<path d="M11.3501 14.2355C10.5152 14.2337 9.71507 13.9012 9.12473 13.3109C8.53439 12.7206 8.20192 11.9204 8.20007 11.0855V8.63555C8.20007 8.4499 8.27382 8.27185 8.4051 8.14057C8.53637 8.0093 8.71442 7.93555 8.90007 7.93555C9.08572 7.93555 9.26377 8.0093 9.39505 8.14057C9.52632 8.27185 9.60007 8.4499 9.60007 8.63555V11.0855C9.60007 11.4317 9.70271 11.77 9.895 12.0578C10.0873 12.3456 10.3606 12.5699 10.6804 12.7023C11.0001 12.8348 11.352 12.8694 11.6915 12.8019C12.0309 12.7344 12.3428 12.5677 12.5875 12.323C12.8323 12.0782 12.9989 11.7664 13.0664 11.427C13.134 11.0875 13.0993 10.7356 12.9669 10.4159C12.8344 10.0961 12.6101 9.82277 12.3223 9.63047C12.0345 9.43818 11.6962 9.33555 11.3501 9.33555H11.0001C10.8144 9.33555 10.6364 9.2618 10.5051 9.13052C10.3738 8.99925 10.3001 8.8212 10.3001 8.63555C10.3001 8.4499 10.3738 8.27185 10.5051 8.14057C10.6364 8.0093 10.8144 7.93555 11.0001 7.93555H11.3501C12.1855 7.93555 12.9867 8.26742 13.5775 8.85816C14.1682 9.4489 14.5001 10.2501 14.5001 11.0855C14.5001 11.921 14.1682 12.7222 13.5775 13.3129C12.9867 13.9037 12.1855 14.2355 11.3501 14.2355Z" fill="#AFAFAF"/>
<path d="M5.74988 6.53438H3.64988C3.02687 6.53438 2.41785 6.34963 1.89983 6.0035C1.38182 5.65738 0.978075 5.16542 0.739659 4.58983C0.501243 4.01424 0.438862 3.38088 0.560406 2.76984C0.681949 2.1588 0.981957 1.59753 1.42249 1.15699C1.86303 0.716454 2.4243 0.416446 3.03534 0.294903C3.64638 0.173359 4.27974 0.23574 4.85533 0.474156C5.43092 0.712572 5.92288 1.11632 6.26901 1.63433C6.61513 2.15234 6.79988 2.76136 6.79988 3.38438V5.48438C6.79988 5.76285 6.68925 6.02992 6.49234 6.22684C6.29543 6.42375 6.02836 6.53438 5.74988 6.53438ZM3.64988 1.63438C3.18575 1.63438 2.74063 1.81875 2.41244 2.14694C2.08425 2.47513 1.89988 2.92025 1.89988 3.38438C1.89988 3.8485 2.08425 4.29362 2.41244 4.62181C2.74063 4.95 3.18575 5.13438 3.64988 5.13438H5.39988V3.38438C5.39988 2.92025 5.2155 2.47513 4.88731 2.14694C4.55913 1.81875 4.11401 1.63438 3.64988 1.63438ZM3.64988 14.2344C2.81445 14.2344 2.01323 13.9025 1.42249 13.3118C0.831753 12.721 0.499879 11.9198 0.499879 11.0844C0.499879 10.2489 0.831753 9.44773 1.42249 8.85699C2.01323 8.26625 2.81445 7.93437 3.64988 7.93437H5.74988C6.02836 7.93437 6.29543 8.045 6.49234 8.24191C6.68925 8.43883 6.79988 8.7059 6.79988 8.98438V11.0844C6.79803 11.9192 6.46556 12.7194 5.87522 13.3097C5.28488 13.9001 4.48474 14.2325 3.64988 14.2344ZM3.64988 9.33437C3.30376 9.33437 2.96542 9.43701 2.67763 9.6293C2.38984 9.8216 2.16554 10.0949 2.03309 10.4147C1.90064 10.7344 1.86598 11.0863 1.9335 11.4258C2.00103 11.7652 2.1677 12.0771 2.41244 12.3218C2.65718 12.5666 2.969 12.7332 3.30847 12.8007C3.64794 12.8683 3.9998 12.8336 4.31957 12.7012C4.63934 12.5687 4.91266 12.3444 5.10495 12.0566C5.29724 11.7688 5.39988 11.4305 5.39988 11.0844V9.33437H3.64988Z" fill="#AFAFAF"/>
</svg>
