<svg width="19" height="17" viewBox="0 0 19 17" fill="none" xmlns="http://www.w3.org/2000/svg">
<path fill-rule="evenodd" clip-rule="evenodd" d="M11.7524 5.12514C11.7524 5.77698 11.2222 6.30721 10.5703 6.30721C9.9183 6.30721 9.38807 5.77698 9.38807 5.12514C9.38807 4.47326 9.9183 3.94306 10.5703 3.94306C11.2222 3.94302 11.7524 4.47326 11.7524 5.12514ZM8.46231 5.12514C8.46231 6.28737 9.40814 7.233 10.5703 7.233C11.7324 7.233 12.6782 6.28737 12.6782 5.12514C12.6782 3.96291 11.7324 3.0173 10.5703 3.0173C9.4081 3.01727 8.46231 3.96291 8.46231 5.12514ZM18.6653 5.42449V5.45219C18.6653 5.70781 18.4579 5.91517 18.2018 5.91517C17.9456 5.91517 17.7383 5.70781 17.7383 5.45219V5.42449C17.7383 5.16887 17.9456 4.9615 18.2018 4.9615C18.4579 4.9615 18.6653 5.16887 18.6653 5.42449ZM5.19362 6.31018L12.1424 13.259C12.2328 13.3494 12.3511 13.3945 12.4696 13.3945C12.5881 13.3945 12.7066 13.3494 12.797 13.259C12.9777 13.0783 12.9777 12.7852 12.797 12.6043L11.2248 11.0323L13.6184 8.63882L17.7383 12.7592V13.414C17.7383 14.4587 16.8897 15.3086 15.8442 15.3086H3.15478C2.11019 15.3086 1.26039 14.4587 1.26039 13.414V10.2436L5.19362 6.31018ZM15.8442 0.234375H3.15478C1.5998 0.234375 0.334595 1.49959 0.334595 3.05456V13.414C0.334595 14.9692 1.5998 16.2344 3.15478 16.2344H15.8443C17.3985 16.2344 18.6653 14.9692 18.6653 13.414V7.24693C18.6653 6.99131 18.4579 6.78413 18.2018 6.78413C17.9457 6.78413 17.7383 6.99131 17.7383 7.24693V11.4499L13.9457 7.65693C13.765 7.47622 13.4717 7.47607 13.291 7.65693L10.5704 10.3776L5.52104 5.32828C5.47806 5.28527 5.42701 5.25116 5.37083 5.2279C5.31465 5.20464 5.25443 5.19268 5.19362 5.19272C5.07085 5.19285 4.95313 5.24159 4.8662 5.32828L1.26035 8.93432V3.05456C1.26035 2.00994 2.11015 1.16017 3.15474 1.16017H15.8442C16.8897 1.16017 17.7383 2.00997 17.7383 3.05456V3.62975C17.7383 3.88537 17.9457 4.0927 18.2018 4.0927C18.4579 4.0927 18.6653 3.88537 18.6653 3.62975V3.05456C18.6653 1.49959 17.3985 0.234375 15.8442 0.234375Z" fill="#AFAFAF"/>
</svg>
