<svg width="17" height="17" viewBox="0 0 17 17" fill="none" xmlns="http://www.w3.org/2000/svg">
<path d="M12.7268 4.24619C11.3213 1.6768 9.03769 -0.453538 7.40097 0.442762C6.8858 0.726461 6.58703 1.22657 6.46414 1.85736C6.40309 2.17145 6.28774 2.45567 6.12277 2.72898C4.70168 5.06975 3.76381 6.23883 1.63348 7.40532C1.32469 7.56549 1.05139 7.78633 0.829975 8.05462C0.608557 8.32291 0.443566 8.63313 0.344886 8.9667C0.137049 9.67595 0.248761 10.4398 0.646251 11.0633C1.12428 11.8141 1.95043 12.2246 2.80516 12.2246C2.91428 12.2246 3.02339 12.2168 3.13121 12.2035L3.62898 14.6518C3.67971 14.9065 3.78057 15.1486 3.9257 15.3639C4.07083 15.5792 4.25734 15.7636 4.47436 15.9061C4.91205 16.1946 5.44591 16.2986 5.95988 16.1956C7.02712 15.9763 7.71767 14.9316 7.49944 13.868L6.88502 10.832C7.90914 10.6265 9.00574 10.5954 10.451 10.6291C10.7656 10.6349 11.067 10.6759 11.3613 10.7936C11.6757 10.9193 11.9768 10.9825 12.2592 10.9825C12.5502 10.9825 12.8203 10.9175 13.0645 10.7824C13.8232 10.3667 14.1635 9.39771 14.0232 8.05196C13.9011 6.90132 13.4413 5.54777 12.7268 4.24619ZM5.70112 14.9228C5.61396 14.9407 5.52412 14.9412 5.43676 14.9243C5.34939 14.9075 5.26622 14.8735 5.192 14.8244C5.11779 14.7753 5.05399 14.7121 5.00427 14.6383C4.95455 14.5645 4.91988 14.4816 4.90225 14.3944L4.36473 11.7515C4.77378 11.5348 5.1969 11.3457 5.63124 11.1856L6.22669 14.1278C6.26212 14.3029 6.2267 14.4849 6.12818 14.6339C6.02966 14.7829 5.87609 14.8868 5.70112 14.9228ZM3.47024 10.7567C2.85453 11.0918 2.09592 10.9204 1.74 10.3644C1.54255 10.0527 1.48799 9.68374 1.59191 9.33042C1.69765 8.97086 1.94316 8.72873 2.25699 8.54323C4.30679 7.42091 5.42392 6.22325 6.65536 4.32673C6.88657 5.20224 7.26328 6.11933 7.73611 6.98185C8.22453 7.87036 8.79348 8.67054 9.39362 9.32003C7.13338 9.33562 5.52004 9.63178 3.47024 10.7567ZM12.5291 9.56709C12.2002 10.0267 11.3403 9.33042 11.0563 9.1044C10.2821 8.48868 9.50793 7.51184 8.87662 6.35574C8.05566 4.85671 7.71793 3.50057 7.71013 2.61467C7.70675 2.24212 7.68987 1.53651 8.22453 1.53651C8.56746 1.53651 9.10784 1.82748 9.71576 2.38864C10.3237 2.9498 10.994 3.78115 11.5889 4.8697C12.2228 6.0258 12.6281 7.20268 12.7294 8.18731C12.8099 8.94852 12.6878 9.38498 12.5291 9.56709ZM15.4666 3.55617C15.3838 3.40515 15.2444 3.29319 15.0791 3.24491C14.9137 3.19664 14.736 3.21599 14.5849 3.29871L14.0944 3.5676C13.9678 3.63688 13.8679 3.74635 13.8104 3.87872C13.753 4.01109 13.7412 4.15883 13.7771 4.29861C13.8129 4.4384 13.8943 4.56227 14.0083 4.65067C14.1224 4.73908 14.2626 4.78698 14.4069 4.78683C14.6891 4.78683 14.9699 4.56912 15.2089 4.43792C15.2837 4.39695 15.3498 4.34165 15.4032 4.27516C15.4567 4.20868 15.4965 4.13231 15.5204 4.05043C15.5444 3.96855 15.5519 3.88276 15.5427 3.79795C15.5335 3.71314 15.5076 3.63099 15.4666 3.55617ZM13.2033 2.72612C13.5426 2.82588 13.9097 2.6248 14.0089 2.28498L14.1658 1.74798C14.1904 1.66592 14.1986 1.57981 14.1897 1.49459C14.1809 1.40938 14.1553 1.32675 14.1145 1.25146C14.0736 1.17618 14.0182 1.10973 13.9515 1.05594C13.8848 1.00215 13.8082 0.962076 13.726 0.938036C13.6437 0.913997 13.5576 0.906462 13.4724 0.915867C13.3873 0.925271 13.3048 0.951429 13.2298 0.992833C13.1548 1.03424 13.0887 1.09007 13.0354 1.15712C12.9821 1.22416 12.9425 1.3011 12.9191 1.38349L12.7621 1.92049C12.7138 2.08582 12.7331 2.26358 12.8159 2.41466C12.8986 2.56575 13.038 2.67778 13.2033 2.72612ZM16.2902 5.62597L15.7532 5.46906C15.6713 5.44506 15.5855 5.43745 15.5007 5.44666C15.4159 5.45586 15.3338 5.4817 15.2589 5.5227C15.1841 5.5637 15.1182 5.61906 15.0648 5.68559C15.0114 5.75213 14.9716 5.82854 14.9478 5.91045C14.9239 5.99233 14.9163 6.07812 14.9256 6.16293C14.9348 6.24773 14.9606 6.32988 15.0016 6.4047C15.0426 6.47951 15.0979 6.54551 15.1645 6.59894C15.231 6.65237 15.3073 6.69217 15.3892 6.71608C15.6165 6.78233 15.8685 6.89898 16.1083 6.89898C16.3897 6.89898 16.6487 6.71504 16.7313 6.43134C16.7554 6.3495 16.763 6.26371 16.7538 6.17891C16.7447 6.0941 16.7188 6.01194 16.6779 5.93712C16.6369 5.86231 16.5816 5.79632 16.515 5.74292C16.4485 5.68953 16.3721 5.64979 16.2902 5.62597Z" fill="#AFAFAF"/>
</svg>
