<svg width="17" height="16" viewBox="0 0 17 16" fill="none" xmlns="http://www.w3.org/2000/svg">
<path d="M11.7 0H5.3C2.6528 0 0.5 2.1528 0.5 4.8V15.2C0.5 15.4122 0.584285 15.6157 0.734315 15.7657C0.884344 15.9157 1.08783 16 1.3 16H11.7C14.3472 16 16.5 13.8472 16.5 11.2V4.8C16.5 2.1528 14.3472 0 11.7 0ZM14.9 11.2C14.9 12.9648 13.4648 14.4 11.7 14.4H2.1V4.8C2.1 3.0352 3.5352 1.6 5.3 1.6H11.7C13.4648 1.6 14.9 3.0352 14.9 4.8V11.2Z" fill="#AFAFAF"/>
<path d="M7.70007 3.20312H9.30007V9.60312H7.70007V3.20312ZM7.70007 11.2031H9.30007V12.8031H7.70007V11.2031Z" fill="#AFAFAF"/>
</svg>
