<svg width="29" height="29" viewBox="0 0 29 29" fill="none" xmlns="http://www.w3.org/2000/svg">
<rect x="0.5" y="0.5" width="28" height="28" rx="3.5" fill="white" stroke="#C6D7E0"/>
<path d="M19.474 8.40799L21.592 10.525L19.474 8.40799ZM20.836 6.54299L15.109 12.27C14.8131 12.5655 14.6113 12.942 14.529 13.352L14 16L16.648 15.47C17.058 15.388 17.434 15.187 17.73 14.891L23.457 9.16399C23.6291 8.9919 23.7656 8.78759 23.8588 8.56273C23.9519 8.33788 23.9998 8.09688 23.9998 7.85349C23.9998 7.61011 23.9519 7.36911 23.8588 7.14426C23.7656 6.9194 23.6291 6.71509 23.457 6.54299C23.2849 6.3709 23.0806 6.23438 22.8557 6.14124C22.6309 6.04811 22.3899 6.00017 22.1465 6.00017C21.9031 6.00017 21.6621 6.04811 21.4373 6.14124C21.2124 6.23438 21.0081 6.3709 20.836 6.54299V6.54299Z" stroke="#223250" stroke-width="2" stroke-linecap="round" stroke-linejoin="round"/>
<path d="M22 18V21C22 21.5304 21.7893 22.0391 21.4142 22.4142C21.0391 22.7893 20.5304 23 20 23H9C8.46957 23 7.96086 22.7893 7.58579 22.4142C7.21071 22.0391 7 21.5304 7 21V10C7 9.46957 7.21071 8.96086 7.58579 8.58579C7.96086 8.21071 8.46957 8 9 8H12" stroke="#223250" stroke-width="2" stroke-linecap="round" stroke-linejoin="round"/>
</svg>
