<svg width="132" height="25" viewBox="0 0 132 25" fill="none" xmlns="http://www.w3.org/2000/svg">
<path d="M47.3649 19.4467V15.9273H49.3115C52.9491 15.9273 55.2103 14.1776 55.2103 10.9565C55.2103 7.85467 52.9098 6.08505 49.1542 6.08505H44.4941V19.4666L47.3649 19.4467ZM49.2329 8.76931C51.1205 8.76931 52.2609 9.48511 52.2609 10.9565C52.2609 12.5074 51.1205 13.2431 49.2329 13.2431H47.3649V8.76931H49.2329Z" fill="#1DE9B6"/>
<path d="M61.2681 19.725C62.6052 19.725 63.667 19.1882 64.3552 18.3133V19.4666H67.0096V14.5156C67.0096 11.553 64.7681 9.32604 61.7204 9.32604C58.7316 9.32604 56.4508 11.6922 56.4508 14.5156C56.4508 17.3788 58.4367 19.725 61.2681 19.725ZM61.7204 17.0806C60.285 17.0806 59.2429 15.9273 59.2429 14.5355C59.2429 13.1437 60.285 11.9904 61.7204 11.9904C63.1557 11.9904 64.2175 13.1437 64.2175 14.5355C64.2175 15.9273 63.1557 17.0806 61.7204 17.0806Z" fill="#1DE9B6"/>
<path d="M72.1388 24V18.8303C72.8663 19.387 73.7905 19.7449 74.7736 19.7449C77.8017 19.7449 79.8859 17.5975 79.8859 14.5156C79.8859 11.6922 77.6247 9.34592 74.6163 9.34592C71.5883 9.34592 69.3467 11.553 69.3467 14.5156V24H72.1388ZM74.6163 17.0806C73.1809 17.0806 72.1388 15.9273 72.1388 14.5355C72.1388 13.1437 73.1809 12.0103 74.6163 12.0103C76.0517 12.0103 77.0938 13.1437 77.0938 14.5355C77.0938 15.9273 76.0517 17.0806 74.6163 17.0806Z" fill="#1DE9B6"/>
<path d="M86.0769 19.725C87.414 19.725 88.4758 19.1882 89.164 18.3133V19.4666H91.8184V14.5156C91.8184 11.553 89.5769 9.32604 86.5292 9.32604C83.5404 9.32604 81.2595 11.6922 81.2595 14.5156C81.2595 17.3788 83.2455 19.725 86.0769 19.725ZM86.5292 17.0806C85.0938 17.0806 84.0517 15.9273 84.0517 14.5355C84.0517 13.1437 85.0938 11.9904 86.5292 11.9904C87.9645 11.9904 89.0263 13.1437 89.0263 14.5355C89.0263 15.9273 87.9645 17.0806 86.5292 17.0806Z" fill="#1DE9B6"/>
<path d="M97.6161 19.4666V14.1378H103.653V19.4666H106.523V6.08505H103.653V11.4734H97.6161V6.08505H94.7454V19.4666H97.6161Z" fill="#1DE9B6"/>
<path d="M114.276 17.001C112.841 17.001 112.133 15.7086 112.133 14.1975V9.62429H109.341V14.5156C109.341 17.3987 111.032 19.725 114.276 19.725C117.54 19.725 119.231 17.3987 119.231 14.5156V9.62429H116.439V14.1776C116.439 15.7086 115.712 17.001 114.276 17.001Z" fill="#1DE9B6"/>
<path d="M126.73 19.7449C129.739 19.7449 132 17.3987 132 14.5554C132 11.4933 129.916 9.34592 126.887 9.34592C125.904 9.34592 124.98 9.70383 124.253 10.2606V5.09088H121.461V14.5554C121.461 17.5379 123.702 19.7449 126.73 19.7449ZM126.73 17.0806C125.295 17.0806 124.253 15.9472 124.253 14.5554C124.253 13.1635 125.295 12.0103 126.73 12.0103C128.166 12.0103 129.208 13.1635 129.208 14.5554C129.208 15.9472 128.166 17.0806 126.73 17.0806Z" fill="#1DE9B6"/>
<path fill-rule="evenodd" clip-rule="evenodd" d="M34.6894 5.39659L34.6883 5.39404C34.6387 5.27334 34.5843 5.14645 34.5238 5.01862L34.4685 4.90174L34.4644 4.89774C34.4264 4.82023 34.3879 4.74394 34.3488 4.66844C34.3441 4.65875 34.3387 4.64811 34.3325 4.63676L34.3294 4.63107L34.3262 4.62494L34.2888 4.55286L34.2864 4.55053C34.2386 4.46271 34.1895 4.37763 34.1403 4.29561L34.1297 4.27796L34.129 4.27696L34.1236 4.26807C34.0631 4.16686 34 4.0696 33.9442 3.98384C33.934 3.96671 33.9152 3.9363 33.8901 3.90207C33.845 3.83505 33.7965 3.76672 33.7553 3.70878L33.755 3.70838L33.7142 3.65081L33.7115 3.64699L33.7066 3.64004C33.7057 3.63871 33.7043 3.63653 33.6925 3.6197C33.6835 3.60698 33.6694 3.58723 33.6516 3.56455C33.6059 3.50305 33.5556 3.43967 33.5154 3.38906L33.4833 3.34865L33.4824 3.34741C33.4596 3.31764 33.4297 3.27856 33.3985 3.24029L33.3943 3.23524C33.3567 3.18997 33.3127 3.1399 33.2782 3.10062L33.2481 3.06632C33.2142 3.02599 33.17 2.97353 33.1215 2.92058C33.0972 2.8925 33.0756 2.87079 33.0663 2.86146L33.0567 2.85177L33.0537 2.84857L33.0179 2.81032C32.9603 2.74867 32.8891 2.67233 32.8161 2.60062C32.2144 2.00006 31.5315 1.49712 30.7929 1.09554C29.4979 0.386368 28.0272 0 26.5285 0H12.7326C8.2685 0 4.34102 2.95099 3.181 7.17559L0.169586 18.1317C-0.366979 20.0872 0.394411 22.0957 2.10381 23.2315C2.92092 23.7736 3.85143 24.0491 4.78553 24.0491C5.795 24.0491 6.79646 23.7279 7.65023 23.1005L14.7989 17.8424C15.612 17.2443 16.6248 16.9137 17.6417 16.9137H26.6656C31.3338 16.9137 35.1968 13.1957 35.2866 8.62176C35.309 7.50419 35.1026 6.41188 34.6894 5.39659ZM8.20035 1.90869C6.13323 3.06693 4.54622 5.00039 3.89707 7.36469H3.89708C4.54623 5.00039 6.13324 3.06693 8.20035 1.90869ZM32.5082 3.34128C32.5148 3.34854 32.5221 3.3558 32.5294 3.3632L32.5293 3.36307C32.522 3.35572 32.5148 3.3485 32.5082 3.34128ZM32.7248 3.58495C32.71 3.56809 32.6951 3.55116 32.6802 3.53402L32.7248 3.58495ZM32.8194 3.69464C32.844 3.72475 32.8686 3.75687 32.8931 3.789L32.8929 3.78878C32.8684 3.75673 32.8439 3.72468 32.8194 3.69464ZM33.1525 4.13257C33.1363 4.1097 33.12 4.08688 33.104 4.06405L33.1525 4.13257ZM12.6807 15.0726L5.53204 20.3308C5.00904 20.7157 4.45814 20.6141 4.08167 20.3647C3.70677 20.1149 3.4053 19.6494 3.57516 19.032L6.58638 8.0786C7.33629 5.35975 9.86213 3.46223 12.7326 3.46223H26.5305C27.9327 3.46223 29.3108 4.03139 30.3025 5.02329C31.2717 5.9914 31.7833 7.24549 31.7586 8.55514C31.7051 11.2507 29.4166 13.4515 26.6656 13.4515H17.6417C15.8642 13.4515 14.1031 14.0264 12.6807 15.0726ZM14.288 14.9534C13.8803 15.1516 13.4906 15.386 13.1257 15.6544H13.1257C13.4906 15.386 13.8803 15.1516 14.288 14.9534Z" fill="#4737FF"/>
<path d="M38.405 18.5829L36.5122 11.6577C34.9471 15.6159 31.0244 18.4453 26.4996 18.4453H25.2134L31.5712 23.148C32.3571 23.7287 33.2713 24.0213 34.1878 24.0213C35.0357 24.0213 35.8857 23.7702 36.6384 23.2681C38.2035 22.2223 38.8986 20.384 38.405 18.5829Z" fill="#4737FF"/>
<rect x="9.53076" y="8.1347" width="6.78387" height="1.84807" rx="0.924036" fill="#1DE9B6"/>
<rect x="13.8647" y="5.73187" width="6.65306" height="1.88441" rx="0.942204" transform="rotate(90 13.8647 5.73187)" fill="#1DE9B6"/>
</svg>
