<svg width="25" height="24" viewBox="0 0 25 24" fill="none" xmlns="http://www.w3.org/2000/svg">
<path d="M10.0545 8.26562H15.7872C16.2655 8.26562 16.6542 8.65133 16.6542 9.12605V10.0755C16.6542 10.4241 16.4374 10.8543 16.2207 11.0694L14.3521 12.7087C14.0905 12.9238 13.9186 13.354 13.9186 13.7026V15.557C13.9186 15.8166 13.7467 16.1578 13.53 16.2913L12.9246 16.6696C12.3565 17.0182 11.5792 16.6251 11.5792 15.9353V13.6507C11.5792 13.3466 11.4073 12.9609 11.2279 12.7458L9.57616 11.0175C9.35941 10.8098 9.1875 10.4167 9.1875 10.1571V9.17055C9.1875 8.65133 9.57616 8.26562 10.0545 8.26562Z" stroke="white" stroke-miterlimit="10" stroke-linecap="round" stroke-linejoin="round"/>
<path d="M10.5219 20H15.3219C19.3219 20 20.9219 18.4 20.9219 14.4V9.6C20.9219 5.6 19.3219 4 15.3219 4H10.5219C6.52188 4 4.92188 5.6 4.92188 9.6V14.4C4.92188 18.4 6.52188 20 10.5219 20Z" stroke="white" stroke-linecap="round" stroke-linejoin="round"/>
</svg>
