<svg width="16" height="15" viewBox="0 0 16 15" fill="none" xmlns="http://www.w3.org/2000/svg">
<g id="Group">
<path id="Vector" d="M6.03795 12.0696C7.37887 12.0696 8.68146 11.6222 9.73934 10.7982L13.7304 14.7893C14.0286 15.0773 14.5037 15.069 14.7916 14.7709C15.0725 14.48 15.0725 14.019 14.7916 13.7282L10.8005 9.73707C12.8451 7.10508 12.369 3.31394 9.73703 1.26931C7.10504 -0.775323 3.31394 -0.299199 1.26931 2.33279C-0.775322 4.96478 -0.299199 8.75592 2.33279 10.8006C3.39241 11.6237 4.69616 12.0703 6.03795 12.0696ZM2.83115 2.82884C4.60224 1.05772 7.47373 1.05769 9.24485 2.82878C11.016 4.59986 11.016 7.47136 9.24492 9.24248C7.47383 11.0136 4.60233 11.0136 2.83121 9.24255L2.83115 9.24248C1.06006 7.4843 1.04963 4.62327 2.80781 2.85218L2.83115 2.82884Z" fill="#7A7A7A"/>
</g>
</svg>
