<svg width="12" height="12" viewBox="0 0 12 12" fill="none" xmlns="http://www.w3.org/2000/svg">
<path d="M6 0C9.312 0 12 2.688 12 6C12 9.312 9.312 12 6 12C2.688 12 0 9.312 0 6C0 2.688 2.688 0 6 0ZM6 9.6C6.44 9.6 6.8 9.24 6.8 8.8C6.8 8.36 6.44 8 6 8C5.56 8 5.2 8.36 5.2 8.8C5.2 9.24 5.56 9.6 6 9.6ZM5.084 3.396L5.352 6.604C5.38 6.94 5.66 7.2 6 7.2C6.34 7.2 6.62 6.94 6.648 6.604L6.916 3.396C6.96 2.86 6.54 2.4 6 2.4C5.87918 2.4 5.75955 2.4238 5.64793 2.47003C5.53631 2.51627 5.43489 2.58403 5.34946 2.66946C5.26403 2.75489 5.19626 2.85631 5.15003 2.96793C5.1038 3.07955 5.08 3.19918 5.08 3.32C5.08 3.344 5.08 3.372 5.084 3.396Z" fill="#D6465F"/>
</svg>
