<svg width="16" height="16" viewBox="0 0 16 16" fill="none" xmlns="http://www.w3.org/2000/svg">
<circle cx="8" cy="8" r="8" fill="#D45B7A"/>
<path fill-rule="evenodd" clip-rule="evenodd" d="M8.15539 3C7.83905 3 7.58261 3.25644 7.58261 3.57278V7.58181L3.57282 7.58181C3.25648 7.58181 3.00004 7.83825 3.00004 8.15459C3.00004 8.47093 3.25648 8.72737 3.57282 8.72737L7.58261 8.72737V12.7372C7.58261 13.0536 7.83905 13.31 8.15539 13.31C8.47173 13.31 8.72817 13.0536 8.72817 12.7372V8.72737L12.7373 8.72737C13.0536 8.72737 13.31 8.47093 13.31 8.15459C13.31 7.83825 13.0536 7.58181 12.7373 7.58181L8.72817 7.58181V3.57278C8.72817 3.25644 8.47173 3 8.15539 3Z" fill="white"/>
</svg>
