<svg width="12" height="12" viewBox="0 0 12 12" fill="none" xmlns="http://www.w3.org/2000/svg">
<path fill-rule="evenodd" clip-rule="evenodd" d="M-2.62268e-07 6C-2.53748e-07 6.19493 0.158017 6.35294 0.352942 6.35294L5.64703 6.35294L5.64703 11.6471C5.64703 11.842 5.80505 12 5.99997 12C6.1949 12 6.35291 11.842 6.35291 11.6471L6.35291 6.35294L11.6471 6.35294C11.842 6.35294 12 6.19493 12 6C12 5.80508 11.842 5.64706 11.6471 5.64706L6.35291 5.64706L6.35291 0.352941C6.35291 0.158017 6.1949 -2.70788e-07 5.99997 -2.62267e-07C5.80505 -2.53747e-07 5.64703 0.158018 5.64703 0.352941L5.64703 5.64706L0.352941 5.64706C0.158017 5.64706 -2.70789e-07 5.80508 -2.62268e-07 6Z" fill="#D45B7A"/>
</svg>
