<svg width="38" height="16" viewBox="0 0 38 16" fill="none" xmlns="http://www.w3.org/2000/svg">
<path d="M35.7096 6.70968H4.96757L10.0601 2.2049C10.6283 1.70219 10.6305 0.885222 10.065 0.380125C9.49942 -0.125037 8.58026 -0.126907 8.01203 0.375738L0.42709 7.08542L0.425784 7.08664C-0.140996 7.58935 -0.142811 8.40897 0.425639 8.91336L0.426945 8.91458L8.01188 15.6243C8.58004 16.1268 9.4992 16.1251 10.0648 15.6199C10.6304 15.1148 10.6282 14.2978 10.06 13.7951L4.96757 9.29032H35.7096C36.5113 9.29032 37.1612 8.71265 37.1612 8C37.1612 7.28735 36.5113 6.70968 35.7096 6.70968Z" fill="#1E1E1E"/>
</svg>
