<svg width="28" height="26" viewBox="0 0 28 26" fill="none" xmlns="http://www.w3.org/2000/svg">
<path d="M23.2528 25.7467H5.24719C4.05514 25.7445 2.91256 25.27 2.06966 24.4271C1.22676 23.5842 0.75223 22.4416 0.75 21.2496L0.75 10.458C0.749998 9.26449 1.22354 8.11974 2.06668 7.27501C2.90983 6.43029 4.05368 5.9546 5.24719 5.95237H23.2528C24.4463 5.9546 25.5902 6.43029 26.4333 7.27501C27.2765 8.11974 27.75 9.26449 27.75 10.458V21.2496C27.7478 22.4416 27.2732 23.5842 26.4303 24.4271C25.5874 25.27 24.4449 25.7445 23.2528 25.7467ZM5.24719 7.75799C4.5311 7.75799 3.84435 8.04246 3.338 8.54881C2.83165 9.05515 2.54719 9.74191 2.54719 10.458V21.2496C2.54719 21.9656 2.83165 22.6524 3.338 23.1587C3.84435 23.6651 4.5311 23.9496 5.24719 23.9496H23.2528C23.9689 23.9496 24.6557 23.6651 25.162 23.1587C25.6683 22.6524 25.9528 21.9656 25.9528 21.2496V10.458C25.9528 9.74191 25.6683 9.05515 25.162 8.54881C24.6557 8.04246 23.9689 7.75799 23.2528 7.75799H5.24719ZM18.7472 5.04956C18.6286 5.04956 18.5112 5.0262 18.4017 4.98083C18.2922 4.93546 18.1926 4.86896 18.1088 4.78513C18.025 4.70129 17.9585 4.60177 17.9131 4.49223C17.8677 4.3827 17.8444 4.2653 17.8444 4.14674V3.25237C17.8444 3.01438 17.7504 2.78602 17.5829 2.61695C17.4154 2.44788 17.188 2.35178 16.95 2.34956H11.55C11.4314 2.34956 11.314 2.37291 11.2045 2.41828C11.095 2.46365 10.9954 2.53015 10.9116 2.61398C10.8278 2.69782 10.7613 2.79734 10.7159 2.90688C10.6705 3.01641 10.6472 3.13381 10.6472 3.25237V4.14674C10.6593 4.27206 10.6452 4.39854 10.6055 4.51806C10.5659 4.63757 10.5017 4.74747 10.4171 4.8407C10.3325 4.93393 10.2293 5.00843 10.1141 5.05941C9.99902 5.11039 9.8745 5.13673 9.74859 5.13673C9.62268 5.13673 9.49817 5.11039 9.38304 5.05941C9.26791 5.00843 9.16472 4.93393 9.0801 4.8407C8.99547 4.74747 8.93129 4.63757 8.89166 4.51806C8.85203 4.39854 8.83784 4.27206 8.85 4.14674V3.25237C8.85 2.53628 9.13446 1.84953 9.64081 1.34318C10.1472 0.836832 10.8339 0.552368 11.55 0.552368H16.95C17.6661 0.552368 18.3528 0.836832 18.8592 1.34318C19.3655 1.84953 19.65 2.53628 19.65 3.25237V4.14674C19.65 4.2653 19.6266 4.3827 19.5813 4.49223C19.5359 4.60177 19.4694 4.70129 19.3856 4.78513C19.3017 4.86896 19.2022 4.93546 19.0927 4.98083C18.9831 5.0262 18.8657 5.04956 18.7472 5.04956Z" fill="#D45B7A"/>
<path d="M14.2501 16.2377C13.3769 16.2294 12.5149 16.0398 11.7189 15.6808L5.81261 13.0736C5.58884 12.9763 5.41289 12.794 5.32349 12.567C5.23409 12.3399 5.23855 12.0866 5.33589 11.8628C5.43324 11.6391 5.61549 11.4631 5.84255 11.3737C6.06962 11.2843 6.3229 11.2888 6.54668 11.3861L12.4529 14.0102C13.0281 14.2653 13.6504 14.3971 14.2796 14.3971C14.9089 14.3971 15.5312 14.2653 16.1064 14.0102L22.0126 11.3861C22.1234 11.3379 22.2426 11.312 22.3634 11.3099C22.4843 11.3078 22.6043 11.3295 22.7167 11.3737C22.8292 11.418 22.9318 11.484 23.0187 11.5679C23.1056 11.6518 23.1752 11.752 23.2234 11.8628C23.2716 11.9736 23.2975 12.0929 23.2996 12.2137C23.3018 12.3345 23.2801 12.4545 23.2358 12.567C23.1915 12.6794 23.1255 12.782 23.0416 12.8689C22.9577 12.9559 22.8575 13.0254 22.7467 13.0736L16.7814 15.6808C15.9853 16.0398 15.1233 16.2294 14.2501 16.2377Z" fill="#D45B7A"/>
</svg>
