<svg width="19" height="16" viewBox="0 0 19 16" fill="none" xmlns="http://www.w3.org/2000/svg">
<path d="M11.0262 13.0676H1.45455C1.06895 13.0671 0.699319 12.9136 0.426664 12.641C0.154009 12.3683 0.000577091 11.9987 0 11.6131V4.34036C0.000577091 3.95477 0.154009 3.58514 0.426664 3.31248C0.699319 3.03983 1.06895 2.8864 1.45455 2.88582H10.9796C11.1725 2.88582 11.3575 2.96244 11.4939 3.09883C11.6303 3.23522 11.7069 3.42021 11.7069 3.61309C11.7069 3.80598 11.6303 3.99096 11.4939 4.12735C11.3575 4.26374 11.1725 4.34036 10.9796 4.34036H1.45455V11.6131H11.0262C11.2191 11.6131 11.4041 11.6897 11.5404 11.8261C11.6768 11.9625 11.7535 12.1475 11.7535 12.3404C11.7535 12.5332 11.6768 12.7182 11.5404 12.8546C11.4041 12.991 11.2191 13.0676 11.0262 13.0676ZM18.9091 4.34036V11.6131C18.9085 11.9987 18.7551 12.3683 18.4824 12.641C18.2098 12.9136 17.8401 13.0671 17.4545 13.0676H14.5455V14.5455H15.0145C15.2074 14.5455 15.3924 14.6221 15.5288 14.7585C15.6652 14.8949 15.7418 15.0798 15.7418 15.2727C15.7418 15.4656 15.6652 15.6506 15.5288 15.787C15.3924 15.9234 15.2074 16 15.0145 16H12.3404C12.1475 16 11.9625 15.9234 11.8261 15.787C11.6897 15.6506 11.6131 15.4656 11.6131 15.2727C11.6131 15.0798 11.6897 14.8949 11.8261 14.7585C11.9625 14.6221 12.1475 14.5455 12.3404 14.5455H13.0909C13.0895 13.0822 13.0916 3.17818 13.0909 1.45455H12.3404C12.1475 1.45455 11.9625 1.37792 11.8261 1.24153C11.6897 1.10514 11.6131 0.920157 11.6131 0.727273C11.6131 0.534388 11.6897 0.349404 11.8261 0.213013C11.9625 0.0766233 12.1475 0 12.3404 0H15.0145C15.2074 0 15.3924 0.0766233 15.5288 0.213013C15.6652 0.349404 15.7418 0.534388 15.7418 0.727273C15.7418 0.920157 15.6652 1.10514 15.5288 1.24153C15.3924 1.37792 15.2074 1.45455 15.0145 1.45455H14.5455V2.88582H17.4545C17.8401 2.8864 18.2098 3.03983 18.4824 3.31248C18.7551 3.58514 18.9085 3.95477 18.9091 4.34036ZM17.4545 4.34036H14.5455V11.6131H17.4545V4.34036Z" fill="white"/>
</svg>
