<svg width="12" height="12" viewBox="0 0 12 12" fill="none" xmlns="http://www.w3.org/2000/svg">
<path d="M5.99999 12C9.3137 12 12 9.3137 12 5.99999C12 2.68629 9.3137 0 5.99999 0C2.68629 0 0 2.68629 0 5.99999C0 9.3137 2.68629 12 5.99999 12Z" fill="#D45B7A"/>
<path d="M4.39165 8.46648L2.44072 6.48362C2.17363 6.21215 2.18896 5.78265 2.47483 5.52902C2.7607 5.27538 3.21298 5.28998 3.48007 5.56141L4.98494 7.09088L7.36693 4.97743C7.38836 4.9584 7.41074 4.94097 7.43389 4.92494L8.55405 3.93109C8.83992 3.67746 9.29224 3.69206 9.55929 3.96352C9.82639 4.23495 9.81101 4.66448 9.52519 4.91812L6.10392 7.95366L6.10027 7.94995L4.91681 9L4.39165 8.46624V8.46648Z" fill="white"/>
</svg>
