<svg width="16" height="16" viewBox="0 0 16 16" fill="none" xmlns="http://www.w3.org/2000/svg">
<path fill-rule="evenodd" clip-rule="evenodd" d="M12.001 4.00053C11.7555 3.75506 11.3576 3.75506 11.1121 4.00053L8.00109 7.11152L4.8895 3.99993C4.64403 3.75445 4.24603 3.75445 4.00056 3.99993C3.75508 4.2454 3.75509 4.6434 4.00056 4.88887L7.11215 8.00046L4.00053 11.1121C3.75505 11.3576 3.75505 11.7556 4.00053 12.001C4.246 12.2465 4.644 12.2465 4.88947 12.001L8.00109 8.88941L11.1121 12.0004C11.3576 12.2459 11.7556 12.2459 12.0011 12.0004C12.2465 11.7549 12.2465 11.357 12.0011 11.1115L8.89004 8.00046L12.001 4.88948C12.2465 4.644 12.2465 4.24601 12.001 4.00053Z" fill="#D6465F"/>
</svg>
