<svg width="14" height="28" viewBox="0 0 14 28" fill="none" xmlns="http://www.w3.org/2000/svg">
<path d="M13.9995 8.62085V4.40232C13.9995 3.93639 13.6218 3.55862 13.1558 3.55862H12.3121V1.0275C12.3121 0.561563 11.9344 0.183794 11.4684 0.183794C10.2739 0.183794 8.44468 0.0922519 6.29735 1.37869C4.9625 0.981359 4.01844 1.0275 3.03136 1.0275C2.56537 1.0275 2.18766 1.40527 2.18766 1.87121V3.55862H1.34395C0.877961 3.55862 0.500244 3.93639 0.500244 4.40232V8.62085C0.500244 12.0569 3.08119 14.9014 6.40618 15.3179V26.3387C6.40618 26.8046 6.7839 27.1824 7.24989 27.1824C7.71588 27.1824 8.0936 26.8046 8.0936 26.3387V23.3857H9.35915C11.9178 23.3857 13.9995 21.304 13.9995 18.7453V17.4798C13.9995 17.0138 13.6218 16.6361 13.1558 16.6361H11.0466C9.92575 16.6361 8.89649 17.0355 8.0936 17.6995V15.3174C11.4136 14.9063 13.9995 12.076 13.9995 8.62085ZM12.3121 8.62085C12.3121 10.1224 11.6481 11.4785 10.5986 12.4083C10.6151 12.273 10.6247 12.1355 10.6247 11.9957C10.6247 9.85904 9.82593 7.90576 8.51186 6.41767C9.62592 5.65749 10.9468 5.24603 12.3121 5.24603V8.62085ZM10.6247 1.87121V3.72883C10.469 3.76058 10.3141 3.79673 10.1604 3.83725C9.61306 3.22456 8.98882 2.70257 8.30726 2.28077C9.04975 2.0094 9.83419 1.87076 10.6247 1.87121ZM3.87507 2.71491C5.55125 2.71491 7.17902 3.32697 8.44495 4.4964C8.02538 4.71303 7.62479 4.96459 7.24741 5.2484C6.26645 4.5109 5.12022 3.982 3.87507 3.72825V2.71491ZM2.18766 8.62085V5.24603C5.9094 5.24603 8.9373 8.27388 8.9373 11.9957C8.9373 12.9385 8.15872 13.7068 7.20554 13.6823C4.2415 13.6091 2.18766 11.2542 2.18766 8.62085ZM11.0466 18.3235H12.3121V18.7453C12.3121 20.3736 10.9875 21.6983 9.35915 21.6983H8.0936V21.2764C8.0936 19.6482 9.41832 18.3235 11.0466 18.3235Z" fill="#D45B7A"/>
</svg>
