<svg width="24" height="24" viewBox="0 0 24 24" fill="none" xmlns="http://www.w3.org/2000/svg">
<path d="M18.0246 7.63628L15.5708 5.18252C14.8195 4.43121 13.8044 4.01562 12.7414 4.01562H8.80103C6.40322 4.01562 4.80469 5.61416 4.80469 8.01196V16.0046C4.80469 18.4024 6.40322 20.001 8.80103 20.001H15.1952C17.593 20.001 19.1915 18.4024 19.1915 16.0046V10.4657C19.1915 9.3947 18.7679 8.3796 18.0246 7.63628Z" stroke="white" stroke-linecap="round" stroke-linejoin="round"/>
<path d="M8.79315 19.9685L8.78516 17.5946C8.78516 16.7074 9.4965 15.9961 10.3837 15.9961H13.5888C14.4679 15.9961 15.1793 16.7074 15.1873 17.5866L15.2113 19.9764" stroke="white" stroke-linecap="round" stroke-linejoin="round"/>
<path d="M13.573 8.62695H8.77734" stroke="white" stroke-linecap="round" stroke-linejoin="round"/>
</svg>
