<svg width="86" height="17" viewBox="0 0 86 17" fill="none" xmlns="http://www.w3.org/2000/svg">
<path d="M8.56427 16.1156C7.24433 16.1002 6.05485 15.8853 4.99583 15.4709C3.9368 15.0565 3.03894 14.4887 2.30222 13.7673C1.56551 13.0459 0.99763 12.2018 0.598578 11.2349C0.199526 10.2526 0 9.19355 0 8.05778C0 6.92202 0.199526 5.87067 0.598578 4.90374C0.99763 3.92145 1.56551 3.06963 2.30222 2.34827C3.05428 1.6269 3.95215 1.05902 4.99583 0.644622C6.05485 0.230222 7.24433 0.015348 8.56427 0H11.0507V3.22311H8.65636C7.935 3.23846 7.27503 3.36892 6.67645 3.61449C6.09322 3.86006 5.58673 4.19772 5.15698 4.62747C4.74258 5.05722 4.42027 5.56371 4.19005 6.14694C3.97517 6.73017 3.86774 7.36712 3.86774 8.05778C3.86774 8.74845 3.97517 9.3854 4.19005 9.96863C4.42027 10.5519 4.74258 11.0583 5.15698 11.4881C5.58673 11.9178 6.09322 12.2555 6.67645 12.5011C7.27503 12.7466 7.935 12.8771 8.65636 12.8925H11.0507V16.1156H8.56427Z" fill="white"/>
<path d="M21.5251 16.1156C20.5428 16.1156 19.6756 15.9007 18.9236 15.4709C18.1868 15.0258 17.6036 14.4349 17.1739 13.6982C16.7595 12.9615 16.5523 12.1404 16.5523 11.2349V3.22311H12.178V0H24.7712V3.22311H20.42V11.5802C20.42 11.9332 20.5428 12.2402 20.7884 12.5011C21.0339 12.762 21.3409 12.8925 21.7092 12.8925H22.9755V16.1156H21.5251Z" fill="white"/>
<path d="M31.5129 16.1156C30.5153 16.1156 29.6404 15.893 28.8884 15.4479C28.1363 15.0028 27.5531 14.4119 27.1387 13.6752C26.7243 12.9385 26.5171 12.125 26.5171 11.2349V0H30.3848V11.5111C30.3848 11.8795 30.5153 12.2018 30.7762 12.4781C31.0371 12.7543 31.3594 12.8925 31.7431 12.8925H36.0023V16.1156H31.5129Z" fill="white"/>
<path d="M43.6318 16.3918C42.4193 16.3918 41.3296 16.1232 40.3626 15.5861C39.3957 15.0489 38.6283 14.3122 38.0604 13.3759C37.5079 12.4397 37.2316 11.3883 37.2316 10.2219C37.2316 9.04007 37.5079 7.98872 38.0604 7.06783C38.6283 6.13159 39.3957 5.39488 40.3626 4.85769C41.3296 4.30516 42.4193 4.02889 43.6318 4.02889C44.8443 4.02889 45.9263 4.30516 46.8779 4.85769C47.8449 5.39488 48.6046 6.13159 49.1571 7.06783C49.725 7.98872 50.0089 9.04007 50.0089 10.2219C50.0089 11.3883 49.725 12.4397 49.1571 13.3759C48.6046 14.3122 47.8449 15.0489 46.8779 15.5861C45.911 16.1232 44.8289 16.3918 43.6318 16.3918ZM43.6318 13.2838C44.1997 13.2838 44.6908 13.1457 45.1052 12.8694C45.5196 12.5932 45.8419 12.2248 46.0721 11.7644C46.3024 11.3039 46.4175 10.7821 46.4175 10.1989C46.4175 9.63097 46.3024 9.11681 46.0721 8.65636C45.8419 8.19592 45.5196 7.82756 45.1052 7.5513C44.6908 7.27503 44.1997 7.13689 43.6318 7.13689C43.0639 7.13689 42.5651 7.27503 42.1353 7.5513C41.7209 7.82756 41.3986 8.19592 41.1684 8.65636C40.9382 9.11681 40.8231 9.63097 40.8231 10.1989C40.8231 10.7821 40.9382 11.3039 41.1684 11.7644C41.3986 12.2248 41.7209 12.5932 42.1353 12.8694C42.5651 13.1457 43.0639 13.2838 43.6318 13.2838Z" fill="white"/>
<path d="M56.0066 16.1156C54.9169 16.1156 54.0651 15.8086 53.4511 15.1947C52.8372 14.5654 52.5302 13.7213 52.5302 12.6622V1.42738H56.1217V12.455C56.1217 12.6392 56.1831 12.8004 56.3059 12.9385C56.444 13.0613 56.6052 13.1227 56.7894 13.1227H59.3678V16.1156H56.0066ZM50.5964 7.22898V4.30516H59.3678V7.22898H50.5964Z" fill="white"/>
<path d="M67.442 16.3918C66.2295 16.3918 65.1781 16.1616 64.2879 15.7012C63.4131 15.2254 62.7378 14.5884 62.262 13.7903C61.7862 12.9769 61.5483 12.079 61.5483 11.0967V4.30516H65.1167V11.0046C65.1167 11.419 65.2165 11.8027 65.416 12.1557C65.6156 12.4934 65.8842 12.7697 66.2218 12.9845C66.5748 13.1841 66.9739 13.2838 67.419 13.2838C67.8487 13.2838 68.2324 13.1841 68.5701 12.9845C68.9231 12.7697 69.1994 12.4934 69.3989 12.1557C69.5984 11.8027 69.6982 11.419 69.6982 11.0046V4.30516H73.2666V11.0967C73.2666 12.079 73.0364 12.9769 72.576 13.7903C72.1155 14.5884 71.4479 15.2254 70.573 15.7012C69.7135 16.1616 68.6698 16.3918 67.442 16.3918Z" fill="white"/>
<path d="M75.9602 16.1156V13.2838H81.6467C81.8002 13.2838 81.9383 13.2531 82.0611 13.1917C82.1839 13.115 82.2837 13.0152 82.3604 12.8925C82.4371 12.7697 82.4755 12.6392 82.4755 12.5011C82.4755 12.3476 82.4371 12.2095 82.3604 12.0867C82.2837 11.9639 82.1839 11.8718 82.0611 11.8104C81.9383 11.7337 81.8002 11.6953 81.6467 11.6953H79.5747C78.8073 11.6953 78.109 11.5725 77.4797 11.3269C76.8658 11.066 76.3746 10.667 76.0063 10.1298C75.6533 9.57725 75.4768 8.86356 75.4768 7.98872C75.4768 7.3134 75.6379 6.69947 75.9602 6.14694C76.2979 5.5944 76.7507 5.14931 77.3185 4.81165C77.9018 4.47399 78.5387 4.30516 79.2294 4.30516H84.9159V7.15992H79.7819C79.567 7.15992 79.3829 7.22898 79.2294 7.36712C79.0912 7.50525 79.0222 7.67408 79.0222 7.8736C79.0222 8.08848 79.0912 8.27266 79.2294 8.42614C79.3829 8.56427 79.567 8.63334 79.7819 8.63334H81.8079C82.6674 8.63334 83.4041 8.7638 84.018 9.02472C84.6473 9.27029 85.1307 9.66934 85.4684 10.2219C85.8214 10.7744 85.9979 11.4881 85.9979 12.3629C85.9979 13.0536 85.8214 13.6829 85.4684 14.2508C85.1307 14.8186 84.6703 15.2714 84.0871 15.6091C83.5192 15.9467 82.8746 16.1156 82.1532 16.1156H75.9602Z" fill="white"/>
</svg>
