<svg width="225" height="74" viewBox="0 0 225 74" fill="none" xmlns="http://www.w3.org/2000/svg">
<path d="M74.2417 34.064C72.6404 33.9323 68.6267 33.5582 62.8022 35.1056C62.066 29.0986 60.4108 24.4294 58.3636 19.449C50.2075 22.3103 42.8925 27.0842 37.4751 32.4268C32.0606 27.0872 24.7456 22.3103 16.5865 19.449C14.5363 24.4294 12.8841 29.0986 12.1479 35.1056C5.89238 33.4654 2.31269 33.9323 0.708411 34.064C-1.01559 43.124 0.301356 53.4201 5.82653 60.9536C13.6504 71.6149 26.0596 72.429 32.4647 73.3598C29.7799 70.7559 23.6891 63.9137 22.3961 62.2257C22.3931 62.2227 22.3721 62.1987 22.3721 62.1987H22.3751C16.6314 54.7011 14.8236 46.8534 15.2427 37.6946C15.3295 35.812 15.6707 33.9114 15.946 32.5196L15.952 32.5226C16.5207 29.5565 17.3767 26.6203 18.4722 23.738C21.555 25.058 28.8581 28.6077 35.2213 34.9081C32.8508 37.6018 30.8754 40.4782 29.325 43.4951C29.325 43.4951 24.8444 39.4575 17.8197 36.9912C17.697 38.1645 17.6581 39.4036 17.694 40.5769C27.9422 45.0186 34.7963 52.7137 37.4242 57.1524C39.6181 54.2851 41.0697 52.0343 44.38 48.9664C44.9906 50.6306 45.4755 52.3426 45.8257 54.0786C44.802 55.7188 41.4528 60.8309 37.4751 64.1263C33.4973 60.8309 30.1511 55.7188 29.1244 54.0786C29.307 53.1777 29.4656 52.3695 29.7171 51.4866C28.9299 50.7054 27.9422 49.8703 26.9485 49.0862C26.29 51.0795 25.9458 52.8035 25.5956 54.7041C29.5884 61.9982 34.0061 65.5988 37.4182 68.3584C41.0278 65.4881 46.0352 61.2769 49.3455 54.7041C47.825 46.0572 42.7338 38.6225 41.3002 36.8027C40.4831 37.5958 39.657 38.4429 38.9566 39.251C40.5429 41.3132 41.8898 43.4682 42.9823 45.704C40.953 47.4879 39.1302 49.4124 37.4691 51.5225C35.8079 49.4124 33.9881 47.4879 31.9559 45.704C34.6047 40.2716 39.3517 34.8871 41.6025 33.1422C47.4659 27.9343 53.6884 24.9263 56.4689 23.735C58.0702 27.9522 59.0969 32.0946 59.5308 36.0873C55.0652 37.6168 51.1054 39.67 47.424 42.2351C47.9717 43.1629 48.4835 44.2464 48.9205 45.285C52.2038 42.9444 57.0586 40.3285 61.3746 39.0116C65.3194 37.8083 69.5007 37.2457 71.3564 37.2457C71.7575 40.8104 72.2633 50.9868 66.4089 58.9692C63.0656 63.5246 58.16 66.6733 51.7758 68.3734C56.5019 63.5127 62.9848 54.4018 63.1195 40.9391C61.9911 41.2593 60.8029 41.6305 59.7463 42.0286C59.4321 50.8102 56.3133 57.3051 52.563 62.1987H52.566C52.3116 62.4861 46.553 69.406 42.4734 73.3598C48.8786 72.429 61.2878 71.6149 69.1116 60.9536C74.6487 53.4201 75.9657 43.127 74.2417 34.064ZM23.1653 68.3734C16.7811 66.6733 11.8755 63.5246 8.53225 58.9692C2.67784 50.9897 3.18366 40.8134 3.58473 37.2486C3.60868 37.2486 3.63262 37.2486 3.65657 37.2486C6.08692 37.2486 8.90039 37.6767 11.8635 38.4997C11.1751 53.3064 18.1609 63.2253 23.1653 68.3734Z" fill="url(#paint0_linear_639_19507)"/>
<path fill-rule="evenodd" clip-rule="evenodd" d="M42.2323 11.5394C44.3338 15.3715 45.5243 19.4156 45.5769 23.2594C46.6113 22.5577 47.6985 21.8628 48.8222 21.1986C48.4483 17.4226 47.1832 13.5691 45.1821 9.91985C43.4727 6.8031 41.219 3.82384 38.5204 1.1623L37.3418 0H37.3418L36.1633 1.1623C33.4647 3.82384 31.2112 6.80285 29.5018 9.9196C27.5105 13.5506 26.248 17.3838 25.8671 21.1417C26.9355 21.7231 28.0255 22.3568 29.1109 23.0406C29.2047 19.2623 30.3896 15.2987 32.4514 11.5391C33.7539 9.16411 35.4019 6.87798 37.3418 4.77674C39.2817 6.87798 40.9297 9.16411 42.2323 11.5394Z" fill="url(#paint1_linear_639_19507)"/>
<path d="M100.55 64.9171C98.4291 64.8925 96.5175 64.5472 94.8155 63.8812C93.1136 63.2152 91.6706 62.3025 90.4866 61.1432C89.3026 59.9839 88.39 58.6273 87.7486 57.0733C87.1073 55.4946 86.7867 53.7927 86.7867 51.9674C86.7867 50.1421 87.1073 48.4524 87.7486 46.8984C88.39 45.3198 89.3026 43.9508 90.4866 42.7915C91.6952 41.6322 93.1382 40.7195 94.8155 40.0536C96.5175 39.3876 98.4291 39.0422 100.55 39.0176H104.546V44.1975H100.698C99.5391 44.2222 98.4785 44.4318 97.5165 44.8265C96.5792 45.2211 95.7652 45.7638 95.0745 46.4545C94.4085 47.1451 93.8905 47.9591 93.5205 48.8964C93.1752 49.8337 93.0026 50.8574 93.0026 51.9674C93.0026 53.0773 93.1752 54.101 93.5205 55.0383C93.8905 55.9756 94.4085 56.7896 95.0745 57.4803C95.7652 58.1709 96.5792 58.7136 97.5165 59.1082C98.4785 59.5029 99.5391 59.7126 100.698 59.7372H104.546V64.9171H100.55Z" fill="#EF7197"/>
<path d="M121.38 64.9171C119.801 64.9171 118.408 64.5718 117.199 63.8812C116.015 63.1658 115.078 62.2162 114.387 61.0322C113.721 59.8482 113.388 58.5286 113.388 57.0733V44.1975H106.358V39.0176H126.597V44.1975H119.604V57.6283C119.604 58.1956 119.801 58.6889 120.196 59.1082C120.591 59.5276 121.084 59.7372 121.676 59.7372H123.711V64.9171H121.38Z" fill="#EF7197"/>
<path d="M137.432 64.9171C135.829 64.9171 134.423 64.5595 133.215 63.8442C132.006 63.1288 131.069 62.1792 130.403 60.9952C129.737 59.8112 129.404 58.5039 129.404 57.0733V39.0176H135.62V57.5173C135.62 58.1093 135.829 58.6273 136.248 59.0712C136.668 59.5152 137.186 59.7372 137.802 59.7372H144.647V64.9171H137.432Z" fill="#D6465F"/>
<path d="M156.909 65.3611C154.96 65.3611 153.209 64.9295 151.655 64.0662C150.101 63.2028 148.868 62.0189 147.955 60.5142C147.067 59.0096 146.623 57.3199 146.623 55.4453C146.623 53.546 147.067 51.8564 147.955 50.3764C148.868 48.8717 150.101 47.6878 151.655 46.8244C153.209 45.9365 154.96 45.4925 156.909 45.4925C158.858 45.4925 160.596 45.9365 162.126 46.8244C163.68 47.6878 164.901 48.8717 165.789 50.3764C166.701 51.8564 167.158 53.546 167.158 55.4453C167.158 57.3199 166.701 59.0096 165.789 60.5142C164.901 62.0189 163.68 63.2028 162.126 64.0662C160.572 64.9295 158.833 65.3611 156.909 65.3611ZM156.909 60.3662C157.822 60.3662 158.611 60.1442 159.277 59.7002C159.943 59.2562 160.461 58.6643 160.831 57.9243C161.201 57.1843 161.386 56.3456 161.386 55.4083C161.386 54.4957 161.201 53.6693 160.831 52.9293C160.461 52.1894 159.943 51.5974 159.277 51.1534C158.611 50.7094 157.822 50.4874 156.909 50.4874C155.996 50.4874 155.195 50.7094 154.504 51.1534C153.838 51.5974 153.32 52.1894 152.95 52.9293C152.58 53.6693 152.395 54.4957 152.395 55.4083C152.395 56.3456 152.58 57.1843 152.95 57.9243C153.32 58.6643 153.838 59.2562 154.504 59.7002C155.195 60.1442 155.996 60.3662 156.909 60.3662Z" fill="#D6465F"/>
<path d="M176.797 64.9171C175.045 64.9171 173.676 64.4238 172.69 63.4372C171.703 62.4259 171.21 61.0692 171.21 59.3672V41.3115H176.982V59.0342C176.982 59.3302 177.08 59.5892 177.278 59.8112C177.5 60.0086 177.759 60.1072 178.055 60.1072H182.199V64.9171H176.797ZM168.102 50.6354V45.9365H182.199V50.6354H168.102Z" fill="#D6465F"/>
<path d="M195.175 65.3611C193.226 65.3611 191.536 64.9911 190.106 64.2512C188.7 63.4865 187.614 62.4629 186.85 61.1802C186.085 59.8729 185.703 58.4299 185.703 56.8513V45.9365H191.438V56.7033C191.438 57.3693 191.598 57.9859 191.919 58.5533C192.239 59.0959 192.671 59.5399 193.214 59.8852C193.781 60.2059 194.422 60.3662 195.138 60.3662C195.828 60.3662 196.445 60.2059 196.988 59.8852C197.555 59.5399 197.999 59.0959 198.32 58.5533C198.64 57.9859 198.801 57.3693 198.801 56.7033V45.9365H204.535V56.8513C204.535 58.4299 204.165 59.8729 203.425 61.1802C202.686 62.4629 201.613 63.4865 200.207 64.2512C198.825 64.9911 197.148 65.3611 195.175 65.3611Z" fill="#D6465F"/>
<path d="M208.864 64.9171V60.3662H218.003C218.25 60.3662 218.472 60.3169 218.669 60.2182C218.867 60.0949 219.027 59.9346 219.15 59.7372C219.274 59.5399 219.335 59.3302 219.335 59.1082C219.335 58.8616 219.274 58.6396 219.15 58.4423C219.027 58.2449 218.867 58.0969 218.669 57.9983C218.472 57.8749 218.25 57.8133 218.003 57.8133H214.673C213.44 57.8133 212.318 57.6159 211.306 57.2213C210.32 56.802 209.53 56.1606 208.938 55.2973C208.371 54.4093 208.087 53.2623 208.087 51.8564C208.087 50.771 208.346 49.7844 208.864 48.8964C209.407 48.0084 210.135 47.2931 211.047 46.7505C211.985 46.2078 213.008 45.9365 214.118 45.9365H223.257V50.5244H215.006C214.661 50.5244 214.365 50.6354 214.118 50.8574C213.896 51.0794 213.785 51.3507 213.785 51.6714C213.785 52.0167 213.896 52.3127 214.118 52.5594C214.365 52.7813 214.661 52.8923 215.006 52.8923H218.262C219.644 52.8923 220.828 53.102 221.814 53.5213C222.826 53.916 223.602 54.5573 224.145 55.4453C224.712 56.3333 224.996 57.4803 224.996 58.8862C224.996 59.9962 224.712 61.0075 224.145 61.9202C223.602 62.8328 222.863 63.5605 221.925 64.1032C221.013 64.6458 219.977 64.9171 218.817 64.9171H208.864Z" fill="#D6465F"/>
<defs>
<linearGradient id="paint0_linear_639_19507" x1="39.1738" y1="67.3345" x2="39.1738" y2="21.0346" gradientUnits="userSpaceOnUse">
<stop stop-color="#FF9EB6"/>
<stop offset="1" stop-color="#E66A8C"/>
</linearGradient>
<linearGradient id="paint1_linear_639_19507" x1="37.865" y1="20.6599" x2="37.865" y2="0.684104" gradientUnits="userSpaceOnUse">
<stop stop-color="#FF9EB6"/>
<stop offset="1" stop-color="#E66A8C"/>
</linearGradient>
</defs>
</svg>
