<svg width="33" height="25" viewBox="0 0 33 25" fill="none" xmlns="http://www.w3.org/2000/svg">
<mask id="path-1-inside-1_488_5063" fill="white">
<path fill-rule="evenodd" clip-rule="evenodd" d="M16.5657 2.91288C17.6123 2.91288 18.616 3.32865 19.3561 4.06872C20.0962 4.8088 20.5119 5.81255 20.5119 6.85917C20.5119 7.90579 20.0962 8.90954 19.3561 9.64962C18.616 10.3897 17.6123 10.8055 16.5657 10.8055C15.519 10.8055 14.5153 10.3897 13.7752 9.64962C13.0351 8.90954 12.6194 7.90579 12.6194 6.85917C12.6194 5.81255 13.0351 4.8088 13.7752 4.06872C14.5153 3.32865 15.519 2.91288 16.5657 2.91288ZM22.7438 6.85917C22.7438 6.04802 22.5841 5.24482 22.2737 4.49541C21.9632 3.74601 21.5083 3.06508 20.9347 2.49152C20.3611 1.91795 19.6802 1.46297 18.9308 1.15255C18.1814 0.842141 17.3782 0.682373 16.567 0.682373C15.7559 0.682373 14.9527 0.842141 14.2033 1.15255C13.4539 1.46297 12.7729 1.91795 12.1994 2.49152C11.6258 3.06508 11.1708 3.74601 10.8604 4.49541C10.55 5.24482 10.3902 6.04802 10.3902 6.85917C10.3902 8.49736 11.041 10.0685 12.1994 11.2268C13.3578 12.3852 14.9288 13.036 16.567 13.036C18.2052 13.036 19.7763 12.3852 20.9347 11.2268C22.0931 10.0685 22.7438 8.49736 22.7438 6.85917ZM23.3409 18.0556C18.9605 16.4911 14.1736 16.4911 9.79314 18.0556C9.50903 18.1568 9.26321 18.3435 9.08945 18.59C8.91569 18.8365 8.82251 19.1308 8.8227 19.4324V21.0974C8.8227 21.9209 9.55294 22.5537 10.3683 22.4371L10.8652 22.3671C14.6472 21.8269 18.4868 21.8269 22.2689 22.3671L22.7644 22.4371C22.9564 22.4644 23.152 22.4501 23.338 22.3954C23.524 22.3406 23.6961 22.2465 23.8426 22.1195C23.9891 21.9925 24.1066 21.8355 24.1873 21.6592C24.2679 21.4829 24.3098 21.2913 24.31 21.0974V19.4324C24.31 18.8147 23.9215 18.2643 23.3409 18.0556ZM9.04232 15.9555C13.9078 14.2178 19.2249 14.2178 24.0904 15.9555C24.8074 16.2117 25.4277 16.6833 25.8664 17.3057C26.305 17.9281 26.5404 18.6709 26.5405 19.4324V21.0974C26.5405 23.2785 24.6092 24.9544 22.4501 24.6456L21.9532 24.5742C18.3806 24.0638 14.7535 24.0638 11.1809 24.5742L10.684 24.6456C10.1757 24.7182 9.65769 24.6807 9.16513 24.5356C8.67257 24.3906 8.21693 24.1414 7.82905 23.8049C7.44118 23.4685 7.13013 23.0526 6.91697 22.5855C6.70382 22.1183 6.59352 21.6108 6.59356 21.0974V19.4324C6.59352 18.6711 6.82878 17.9284 7.26714 17.306C7.7055 16.6836 8.32552 16.2119 9.04232 15.9555ZM24.159 5.22163C24.918 5.22163 25.646 5.52316 26.1827 6.05987C26.7194 6.59658 27.0209 7.32452 27.0209 8.08355C27.0209 8.84258 26.7194 9.57052 26.1827 10.1072C25.646 10.6439 24.918 10.9455 24.159 10.9455C23.87 10.9556 23.5962 11.0775 23.3953 11.2856C23.1945 11.4936 23.0822 11.7715 23.0822 12.0607C23.0822 12.3499 23.1945 12.6278 23.3953 12.8359C23.5962 13.0439 23.87 13.1658 24.159 13.176C24.8277 13.176 25.4899 13.0443 26.1078 12.7883C26.7256 12.5324 27.287 12.1573 27.7599 11.6844C28.2328 11.2116 28.6079 10.6502 28.8638 10.0323C29.1197 9.41449 29.2514 8.7523 29.2514 8.08355C29.2514 7.4148 29.1197 6.7526 28.8638 6.13476C28.6079 5.51692 28.2328 4.95554 27.7599 4.48266C27.287 4.00978 26.7256 3.63468 26.1078 3.37876C25.4899 3.12284 24.8277 2.99112 24.159 2.99112C23.87 3.00126 23.5962 3.1232 23.3953 3.33125C23.1945 3.53929 23.0822 3.81719 23.0822 4.10638C23.0822 4.39557 23.1945 4.67347 23.3953 4.88151C23.5962 5.08955 23.87 5.21149 24.159 5.22163ZM26.2289 15.1745C26.2566 15.0307 26.3123 14.8938 26.3928 14.7716C26.4734 14.6494 26.5773 14.5442 26.6985 14.4621C26.8197 14.38 26.9559 14.3226 27.0993 14.2932C27.2427 14.2637 27.3905 14.2628 27.5343 14.2905C28.4196 14.4607 29.294 14.6996 30.1519 15.0057C30.7617 15.2234 31.2893 15.6244 31.6623 16.1537C32.0353 16.683 32.2356 17.3148 32.2355 17.9623V19.2704C32.2355 21.1303 30.5884 22.5578 28.7477 22.2957L28.3579 22.2408C28.0648 22.1989 27.8004 22.0423 27.6228 21.8055C27.4451 21.5687 27.3689 21.271 27.4107 20.978C27.4526 20.6849 27.6092 20.4205 27.846 20.2429C28.0828 20.0652 28.3805 19.989 28.6736 20.0308L29.0634 20.0871C29.1804 20.1038 29.2996 20.0952 29.413 20.0618C29.5264 20.0285 29.6313 19.9711 29.7206 19.8937C29.8099 19.8162 29.8815 19.7205 29.9305 19.613C29.9796 19.5054 30.005 19.3886 30.005 19.2704V17.9623C30.005 17.578 29.7634 17.2348 29.401 17.1072C28.6554 16.8406 27.8904 16.6314 27.1129 16.4812C26.969 16.4536 26.8319 16.3979 26.7096 16.3172C26.5873 16.2365 26.482 16.1326 26.3999 16.0112C26.3178 15.8898 26.2605 15.7534 26.2311 15.6099C26.2018 15.4663 26.201 15.3184 26.2289 15.1745ZM8.34091 5.22163C7.58188 5.22163 6.85394 5.52316 6.31723 6.05987C5.78052 6.59658 5.47899 7.32452 5.47899 8.08355C5.47899 8.84258 5.78052 9.57052 6.31723 10.1072C6.85394 10.6439 7.58188 10.9455 8.34091 10.9455C8.62992 10.9556 8.90371 11.0775 9.10458 11.2856C9.30546 11.4936 9.41772 11.7715 9.41772 12.0607C9.41772 12.3499 9.30546 12.6278 9.10458 12.8359C8.90371 13.0439 8.62992 13.1658 8.34091 13.176C6.99031 13.176 5.69504 12.6395 4.74002 11.6844C3.78501 10.7294 3.24848 9.43414 3.24848 8.08355C3.24848 6.73295 3.78501 5.43767 4.74002 4.48266C5.69504 3.52764 6.99031 2.99112 8.34091 2.99112C8.62992 3.00126 8.90371 3.1232 9.10458 3.33125C9.30546 3.53929 9.41772 3.81719 9.41772 4.10638C9.41772 4.39557 9.30546 4.67347 9.10458 4.88151C8.90371 5.08955 8.62992 5.21149 8.34091 5.22163ZM6.271 15.1745C6.24335 15.0307 6.18765 14.8938 6.10708 14.7716C6.02652 14.6494 5.92266 14.5442 5.80144 14.4621C5.68022 14.38 5.54401 14.3226 5.4006 14.2932C5.25719 14.2637 5.10939 14.2628 4.96563 14.2905C4.08029 14.4607 3.20593 14.6996 2.34804 15.0057C1.7382 15.2234 1.21061 15.6244 0.83759 16.1537C0.464566 16.683 0.264358 17.3148 0.264404 17.9623V19.2704C0.264404 21.1303 1.91155 22.5578 3.75224 22.2957L4.14206 22.2408C4.43511 22.1989 4.69953 22.0423 4.87715 21.8055C5.05477 21.5687 5.13103 21.271 5.08917 20.978C5.04731 20.6849 4.89074 20.4205 4.65392 20.2429C4.41709 20.0652 4.11941 19.989 3.82636 20.0308L3.43791 20.0871C3.32079 20.1041 3.20141 20.0956 3.08785 20.0623C2.9743 20.029 2.86923 19.9717 2.77979 19.8943C2.69034 19.8168 2.6186 19.721 2.56945 19.6133C2.5203 19.5057 2.49488 19.3887 2.49491 19.2704V17.9623C2.49491 17.578 2.7365 17.2348 3.09887 17.1072C3.84502 16.8406 4.61042 16.6314 5.3884 16.4812C5.53231 16.4536 5.66935 16.3979 5.79169 16.3172C5.91402 16.2365 6.01926 16.1326 6.10136 16.0112C6.18347 15.8898 6.24083 15.7534 6.27017 15.6099C6.29952 15.4663 6.29889 15.3184 6.271 15.1745Z"/>
</mask>
<path fill-rule="evenodd" clip-rule="evenodd" d="M16.5657 2.91288C17.6123 2.91288 18.616 3.32865 19.3561 4.06872C20.0962 4.8088 20.5119 5.81255 20.5119 6.85917C20.5119 7.90579 20.0962 8.90954 19.3561 9.64962C18.616 10.3897 17.6123 10.8055 16.5657 10.8055C15.519 10.8055 14.5153 10.3897 13.7752 9.64962C13.0351 8.90954 12.6194 7.90579 12.6194 6.85917C12.6194 5.81255 13.0351 4.8088 13.7752 4.06872C14.5153 3.32865 15.519 2.91288 16.5657 2.91288ZM22.7438 6.85917C22.7438 6.04802 22.5841 5.24482 22.2737 4.49541C21.9632 3.74601 21.5083 3.06508 20.9347 2.49152C20.3611 1.91795 19.6802 1.46297 18.9308 1.15255C18.1814 0.842141 17.3782 0.682373 16.567 0.682373C15.7559 0.682373 14.9527 0.842141 14.2033 1.15255C13.4539 1.46297 12.7729 1.91795 12.1994 2.49152C11.6258 3.06508 11.1708 3.74601 10.8604 4.49541C10.55 5.24482 10.3902 6.04802 10.3902 6.85917C10.3902 8.49736 11.041 10.0685 12.1994 11.2268C13.3578 12.3852 14.9288 13.036 16.567 13.036C18.2052 13.036 19.7763 12.3852 20.9347 11.2268C22.0931 10.0685 22.7438 8.49736 22.7438 6.85917ZM23.3409 18.0556C18.9605 16.4911 14.1736 16.4911 9.79314 18.0556C9.50903 18.1568 9.26321 18.3435 9.08945 18.59C8.91569 18.8365 8.82251 19.1308 8.8227 19.4324V21.0974C8.8227 21.9209 9.55294 22.5537 10.3683 22.4371L10.8652 22.3671C14.6472 21.8269 18.4868 21.8269 22.2689 22.3671L22.7644 22.4371C22.9564 22.4644 23.152 22.4501 23.338 22.3954C23.524 22.3406 23.6961 22.2465 23.8426 22.1195C23.9891 21.9925 24.1066 21.8355 24.1873 21.6592C24.2679 21.4829 24.3098 21.2913 24.31 21.0974V19.4324C24.31 18.8147 23.9215 18.2643 23.3409 18.0556ZM9.04232 15.9555C13.9078 14.2178 19.2249 14.2178 24.0904 15.9555C24.8074 16.2117 25.4277 16.6833 25.8664 17.3057C26.305 17.9281 26.5404 18.6709 26.5405 19.4324V21.0974C26.5405 23.2785 24.6092 24.9544 22.4501 24.6456L21.9532 24.5742C18.3806 24.0638 14.7535 24.0638 11.1809 24.5742L10.684 24.6456C10.1757 24.7182 9.65769 24.6807 9.16513 24.5356C8.67257 24.3906 8.21693 24.1414 7.82905 23.8049C7.44118 23.4685 7.13013 23.0526 6.91697 22.5855C6.70382 22.1183 6.59352 21.6108 6.59356 21.0974V19.4324C6.59352 18.6711 6.82878 17.9284 7.26714 17.306C7.7055 16.6836 8.32552 16.2119 9.04232 15.9555ZM24.159 5.22163C24.918 5.22163 25.646 5.52316 26.1827 6.05987C26.7194 6.59658 27.0209 7.32452 27.0209 8.08355C27.0209 8.84258 26.7194 9.57052 26.1827 10.1072C25.646 10.6439 24.918 10.9455 24.159 10.9455C23.87 10.9556 23.5962 11.0775 23.3953 11.2856C23.1945 11.4936 23.0822 11.7715 23.0822 12.0607C23.0822 12.3499 23.1945 12.6278 23.3953 12.8359C23.5962 13.0439 23.87 13.1658 24.159 13.176C24.8277 13.176 25.4899 13.0443 26.1078 12.7883C26.7256 12.5324 27.287 12.1573 27.7599 11.6844C28.2328 11.2116 28.6079 10.6502 28.8638 10.0323C29.1197 9.41449 29.2514 8.7523 29.2514 8.08355C29.2514 7.4148 29.1197 6.7526 28.8638 6.13476C28.6079 5.51692 28.2328 4.95554 27.7599 4.48266C27.287 4.00978 26.7256 3.63468 26.1078 3.37876C25.4899 3.12284 24.8277 2.99112 24.159 2.99112C23.87 3.00126 23.5962 3.1232 23.3953 3.33125C23.1945 3.53929 23.0822 3.81719 23.0822 4.10638C23.0822 4.39557 23.1945 4.67347 23.3953 4.88151C23.5962 5.08955 23.87 5.21149 24.159 5.22163ZM26.2289 15.1745C26.2566 15.0307 26.3123 14.8938 26.3928 14.7716C26.4734 14.6494 26.5773 14.5442 26.6985 14.4621C26.8197 14.38 26.9559 14.3226 27.0993 14.2932C27.2427 14.2637 27.3905 14.2628 27.5343 14.2905C28.4196 14.4607 29.294 14.6996 30.1519 15.0057C30.7617 15.2234 31.2893 15.6244 31.6623 16.1537C32.0353 16.683 32.2356 17.3148 32.2355 17.9623V19.2704C32.2355 21.1303 30.5884 22.5578 28.7477 22.2957L28.3579 22.2408C28.0648 22.1989 27.8004 22.0423 27.6228 21.8055C27.4451 21.5687 27.3689 21.271 27.4107 20.978C27.4526 20.6849 27.6092 20.4205 27.846 20.2429C28.0828 20.0652 28.3805 19.989 28.6736 20.0308L29.0634 20.0871C29.1804 20.1038 29.2996 20.0952 29.413 20.0618C29.5264 20.0285 29.6313 19.9711 29.7206 19.8937C29.8099 19.8162 29.8815 19.7205 29.9305 19.613C29.9796 19.5054 30.005 19.3886 30.005 19.2704V17.9623C30.005 17.578 29.7634 17.2348 29.401 17.1072C28.6554 16.8406 27.8904 16.6314 27.1129 16.4812C26.969 16.4536 26.8319 16.3979 26.7096 16.3172C26.5873 16.2365 26.482 16.1326 26.3999 16.0112C26.3178 15.8898 26.2605 15.7534 26.2311 15.6099C26.2018 15.4663 26.201 15.3184 26.2289 15.1745ZM8.34091 5.22163C7.58188 5.22163 6.85394 5.52316 6.31723 6.05987C5.78052 6.59658 5.47899 7.32452 5.47899 8.08355C5.47899 8.84258 5.78052 9.57052 6.31723 10.1072C6.85394 10.6439 7.58188 10.9455 8.34091 10.9455C8.62992 10.9556 8.90371 11.0775 9.10458 11.2856C9.30546 11.4936 9.41772 11.7715 9.41772 12.0607C9.41772 12.3499 9.30546 12.6278 9.10458 12.8359C8.90371 13.0439 8.62992 13.1658 8.34091 13.176C6.99031 13.176 5.69504 12.6395 4.74002 11.6844C3.78501 10.7294 3.24848 9.43414 3.24848 8.08355C3.24848 6.73295 3.78501 5.43767 4.74002 4.48266C5.69504 3.52764 6.99031 2.99112 8.34091 2.99112C8.62992 3.00126 8.90371 3.1232 9.10458 3.33125C9.30546 3.53929 9.41772 3.81719 9.41772 4.10638C9.41772 4.39557 9.30546 4.67347 9.10458 4.88151C8.90371 5.08955 8.62992 5.21149 8.34091 5.22163ZM6.271 15.1745C6.24335 15.0307 6.18765 14.8938 6.10708 14.7716C6.02652 14.6494 5.92266 14.5442 5.80144 14.4621C5.68022 14.38 5.54401 14.3226 5.4006 14.2932C5.25719 14.2637 5.10939 14.2628 4.96563 14.2905C4.08029 14.4607 3.20593 14.6996 2.34804 15.0057C1.7382 15.2234 1.21061 15.6244 0.83759 16.1537C0.464566 16.683 0.264358 17.3148 0.264404 17.9623V19.2704C0.264404 21.1303 1.91155 22.5578 3.75224 22.2957L4.14206 22.2408C4.43511 22.1989 4.69953 22.0423 4.87715 21.8055C5.05477 21.5687 5.13103 21.271 5.08917 20.978C5.04731 20.6849 4.89074 20.4205 4.65392 20.2429C4.41709 20.0652 4.11941 19.989 3.82636 20.0308L3.43791 20.0871C3.32079 20.1041 3.20141 20.0956 3.08785 20.0623C2.9743 20.029 2.86923 19.9717 2.77979 19.8943C2.69034 19.8168 2.6186 19.721 2.56945 19.6133C2.5203 19.5057 2.49488 19.3887 2.49491 19.2704V17.9623C2.49491 17.578 2.7365 17.2348 3.09887 17.1072C3.84502 16.8406 4.61042 16.6314 5.3884 16.4812C5.53231 16.4536 5.66935 16.3979 5.79169 16.3172C5.91402 16.2365 6.01926 16.1326 6.10136 16.0112C6.18347 15.8898 6.24083 15.7534 6.27017 15.6099C6.29952 15.4663 6.29889 15.3184 6.271 15.1745Z" fill="#D45B7A" stroke="white" stroke-width="0.6" mask="url(#path-1-inside-1_488_5063)"/>
</svg>
