<svg width="100" height="100" viewBox="0 0 100 100" fill="none" xmlns="http://www.w3.org/2000/svg">
<mask id="mask0_4066_166620" style="mask-type:alpha" maskUnits="userSpaceOnUse" x="0" y="0" width="100" height="100">
<circle cx="50" cy="50" r="50" fill="white"/>
</mask>
<g mask="url(#mask0_4066_166620)">
<circle opacity="0.3" cx="50" cy="50" r="50" fill="#C1C1C1"/>
<path d="M50 24.6484C38.96 24.6484 30 33.6204 30 44.6751C30 55.5163 38.48 64.328 49.7333 64.6484C49.8933 64.6484 50.1067 64.6484 50.2133 64.6484C50.32 64.6484 50.48 64.6484 50.5867 64.6484C50.64 64.6484 50.6933 64.6484 50.6933 64.6484C61.4667 64.2746 69.9467 55.5163 70 44.6751C70 33.6204 61.04 24.6484 50 24.6484Z" fill="#C1C1C1"/>
<path d="M50 70C25.16 70 5 90.1869 5 115.06C5 139.453 24.08 159.279 49.4 160C49.76 160 50.24 160 50.48 160C50.72 160 51.08 160 51.32 160C51.44 160 51.56 160 51.56 160C75.8 159.159 94.88 139.453 95 115.06C95 90.1869 74.84 70 50 70Z" fill="#C1C1C1"/>
</g>
</svg>
