<svg width="14" height="17" viewBox="0 0 14 17" fill="none" xmlns="http://www.w3.org/2000/svg">
<path d="M12.363 4.63613C12.1581 4.63613 11.9615 4.71754 11.8166 4.86244C11.6717 5.00735 11.5903 5.20389 11.5903 5.40882V14.056C11.5682 14.4467 11.3925 14.8129 11.1016 15.0747C10.8107 15.3365 10.4281 15.4727 10.0372 15.4538H3.87117C3.48026 15.4727 3.09769 15.3365 2.80679 15.0747C2.51589 14.8129 2.34023 14.4467 2.31806 14.056V5.40882C2.31806 5.20389 2.23666 5.00735 2.09175 4.86244C1.94684 4.71754 1.75031 4.63613 1.54538 4.63613C1.34045 4.63613 1.14391 4.71754 0.999003 4.86244C0.854096 5.00735 0.772688 5.20389 0.772688 5.40882V14.056C0.794744 14.8567 1.13321 15.616 1.71396 16.1676C2.29471 16.7192 3.07041 17.0182 3.87117 16.9991H10.0372C10.838 17.0182 11.6137 16.7192 12.1944 16.1676C12.7752 15.616 13.1136 14.8567 13.1357 14.056V5.40882C13.1357 5.20389 13.0543 5.00735 12.9094 4.86244C12.7645 4.71754 12.5679 4.63613 12.363 4.63613ZM13.1357 2.31806H10.0449V0.772688C10.0449 0.567758 9.96354 0.371222 9.81863 0.226315C9.67372 0.0814079 9.47719 0 9.27226 0H4.63613C4.4312 0 4.23466 0.0814079 4.08976 0.226315C3.94485 0.371222 3.86344 0.567758 3.86344 0.772688V2.31806H0.772688C0.567758 2.31806 0.371222 2.39947 0.226315 2.54438C0.0814079 2.68929 0 2.88582 0 3.09075C0 3.29568 0.0814079 3.49222 0.226315 3.63713C0.371222 3.78203 0.567758 3.86344 0.772688 3.86344H13.1357C13.3406 3.86344 13.5372 3.78203 13.6821 3.63713C13.827 3.49222 13.9084 3.29568 13.9084 3.09075C13.9084 2.88582 13.827 2.68929 13.6821 2.54438C13.5372 2.39947 13.3406 2.31806 13.1357 2.31806ZM5.40882 2.31806V1.54538H8.49957V2.31806H5.40882Z" fill="white"/>
<path d="M6.18161 12.3631V6.95433C6.18161 6.7494 6.1002 6.55286 5.95529 6.40796C5.81038 6.26305 5.61385 6.18164 5.40892 6.18164C5.20399 6.18164 5.00745 6.26305 4.86255 6.40796C4.71764 6.55286 4.63623 6.7494 4.63623 6.95433V12.3631C4.63623 12.5681 4.71764 12.7646 4.86255 12.9095C5.00745 13.0544 5.20399 13.1358 5.40892 13.1358C5.61385 13.1358 5.81038 13.0544 5.95529 12.9095C6.1002 12.7646 6.18161 12.5681 6.18161 12.3631ZM9.27236 12.3631V6.95433C9.27236 6.7494 9.19095 6.55286 9.04604 6.40796C8.90114 6.26305 8.7046 6.18164 8.49967 6.18164C8.29474 6.18164 8.09821 6.26305 7.9533 6.40796C7.80839 6.55286 7.72698 6.7494 7.72698 6.95433V12.3631C7.72698 12.5681 7.80839 12.7646 7.9533 12.9095C8.09821 13.0544 8.29474 13.1358 8.49967 13.1358C8.7046 13.1358 8.90114 13.0544 9.04604 12.9095C9.19095 12.7646 9.27236 12.5681 9.27236 12.3631Z" fill="white"/>
</svg>
