<svg width="23" height="22" viewBox="0 0 23 22" fill="none" xmlns="http://www.w3.org/2000/svg">
<path d="M21.5667 19.2965H1.13509C0.834044 19.2965 0.54533 19.4161 0.33246 19.629C0.119589 19.8418 0 20.1305 0 20.4316C0 20.7326 0.119589 21.0213 0.33246 21.2342C0.54533 21.4471 0.834044 21.5667 1.13509 21.5667H21.5667C21.8677 21.5667 22.1564 21.4471 22.3693 21.2342C22.5822 21.0213 22.7018 20.7326 22.7018 20.4316C22.7018 20.1305 22.5822 19.8418 22.3693 19.629C22.1564 19.4161 21.8677 19.2965 21.5667 19.2965ZM11.3509 0C11.0498 0 10.7611 0.119589 10.5483 0.33246C10.3354 0.54533 10.2158 0.834044 10.2158 1.13509V13.1557L6.48135 9.40988C6.26761 9.19614 5.97772 9.07606 5.67544 9.07606C5.37317 9.07606 5.08327 9.19614 4.86953 9.40988C4.65579 9.62362 4.53571 9.91352 4.53571 10.2158C4.53571 10.5181 4.65579 10.808 4.86953 11.0217L10.545 16.6971C10.6505 16.8035 10.776 16.888 10.9144 16.9456C11.0527 17.0032 11.201 17.0329 11.3509 17.0329C11.5007 17.0329 11.6491 17.0032 11.7874 16.9456C11.9257 16.888 12.0513 16.8035 12.1568 16.6971L17.8322 11.0217C17.9381 10.9159 18.022 10.7902 18.0793 10.652C18.1366 10.5137 18.1661 10.3655 18.1661 10.2158C18.1661 10.0661 18.1366 9.91792 18.0793 9.77964C18.022 9.64136 17.9381 9.51572 17.8322 9.40988C17.7264 9.30405 17.6008 9.2201 17.4625 9.16282C17.3242 9.10554 17.176 9.07606 17.0263 9.07606C16.8767 9.07606 16.7284 9.10554 16.5902 9.16282C16.4519 9.2201 16.3262 9.30405 16.2204 9.40988L12.486 13.1557V1.13509C12.486 0.834044 12.3664 0.54533 12.1535 0.33246C11.9406 0.119589 11.6519 0 11.3509 0Z" fill="white"/>
</svg>
