<svg width="35" height="33" viewBox="0 0 35 33" fill="none" xmlns="http://www.w3.org/2000/svg">
<path d="M33.0766 27.743H18.1388C17.5498 27.743 17.0718 27.265 17.0718 26.676V5.33633C17.0718 4.74736 17.5498 4.26935 18.1388 4.26935H33.0766C33.6655 4.26935 34.1435 4.74736 34.1435 5.33633V26.676C34.1435 27.265 33.6655 27.743 33.0766 27.743Z" fill="#ECEFF1"/>
<path d="M22.4067 10.6713H18.1388C17.5498 10.6713 17.0718 10.1933 17.0718 9.60428C17.0718 9.0153 17.5498 8.53729 18.1388 8.53729H22.4067C22.9957 8.53729 23.4737 9.0153 23.4737 9.60428C23.4737 10.1933 22.9957 10.6713 22.4067 10.6713ZM22.4067 14.9392H18.1388C17.5498 14.9392 17.0718 14.4612 17.0718 13.8722C17.0718 13.2832 17.5498 12.8052 18.1388 12.8052H22.4067C22.9957 12.8052 23.4737 13.2832 23.4737 13.8722C23.4737 14.4612 22.9957 14.9392 22.4067 14.9392ZM22.4067 19.2071H18.1388C17.5498 19.2071 17.0718 18.7291 17.0718 18.1402C17.0718 17.5512 17.5498 17.0732 18.1388 17.0732H22.4067C22.9957 17.0732 23.4737 17.5512 23.4737 18.1402C23.4737 18.7291 22.9957 19.2071 22.4067 19.2071ZM22.4067 23.4751H18.1388C17.5498 23.4751 17.0718 22.9971 17.0718 22.4081C17.0718 21.8191 17.5498 21.3411 18.1388 21.3411H22.4067C22.9957 21.3411 23.4737 21.8191 23.4737 22.4081C23.4737 22.9971 22.9957 23.4751 22.4067 23.4751ZM28.8086 10.6713H26.6746C26.0857 10.6713 25.6077 10.1933 25.6077 9.60428C25.6077 9.0153 26.0857 8.53729 26.6746 8.53729H28.8086C29.3976 8.53729 29.8756 9.0153 29.8756 9.60428C29.8756 10.1933 29.3976 10.6713 28.8086 10.6713ZM28.8086 14.9392H26.6746C26.0857 14.9392 25.6077 14.4612 25.6077 13.8722C25.6077 13.2832 26.0857 12.8052 26.6746 12.8052H28.8086C29.3976 12.8052 29.8756 13.2832 29.8756 13.8722C29.8756 14.4612 29.3976 14.9392 28.8086 14.9392ZM28.8086 19.2071H26.6746C26.0857 19.2071 25.6077 18.7291 25.6077 18.1402C25.6077 17.5512 26.0857 17.0732 26.6746 17.0732H28.8086C29.3976 17.0732 29.8756 17.5512 29.8756 18.1402C29.8756 18.7291 29.3976 19.2071 28.8086 19.2071ZM28.8086 23.4751H26.6746C26.0857 23.4751 25.6077 22.9971 25.6077 22.4081C25.6077 21.8191 26.0857 21.3411 26.6746 21.3411H28.8086C29.3976 21.3411 29.8756 21.8191 29.8756 22.4081C29.8756 22.9971 29.3976 23.4751 28.8086 23.4751Z" fill="#388E3C"/>
<path d="M18.8195 0.246844C18.5762 0.0441172 18.2497 -0.0433756 17.9424 0.0206435L0.870661 3.2216C0.625895 3.26682 0.404732 3.39643 0.245653 3.58787C0.0865744 3.77931 -0.000351189 4.02047 1.0664e-06 4.26938V27.743C1.0664e-06 28.2552 0.36491 28.6969 0.870661 28.7908L17.9424 31.9918C18.0064 32.0046 18.0726 32.011 18.1387 32.011C18.3863 32.011 18.6274 31.9256 18.8195 31.7656C18.9403 31.6654 19.0375 31.5399 19.1043 31.3979C19.1711 31.2559 19.2057 31.1009 19.2057 30.944V1.06842C19.2057 0.750461 19.0649 0.449571 18.8195 0.246844Z" fill="#2E7D32"/>
<path d="M14.6733 19.5721L11.2995 15.716L14.7117 11.3286C15.0745 10.8634 14.9892 10.1933 14.5261 9.83051C14.063 9.46774 13.393 9.55309 13.028 10.0162L9.86763 14.0792L7.20444 11.0362C6.81392 10.5881 6.13959 10.5475 5.69999 10.9359C5.25612 11.3243 5.21131 11.9986 5.59969 12.4404L8.5339 15.795L5.55915 19.619C5.19637 20.0842 5.28173 20.7543 5.7448 21.1171C5.93303 21.2625 6.16421 21.3413 6.40207 21.3411C6.72003 21.3411 7.03372 21.2003 7.24498 20.9293L9.9658 17.4296L13.0686 20.9741C13.1681 21.0894 13.2912 21.1819 13.4297 21.2452C13.5682 21.3085 13.7187 21.3413 13.871 21.3411C14.1206 21.3411 14.3703 21.2537 14.573 21.0765C15.0169 20.6882 15.0617 20.0138 14.6733 19.5721Z" fill="#FAFAFA"/>
</svg>
