<svg width="18" height="19" viewBox="0 0 18 19" fill="none" xmlns="http://www.w3.org/2000/svg">
<g clip-path="url(#clip0_6372_62521)">
<path d="M4.5 0.0625C3.88125 0.0625 3.375 0.56875 3.375 1.1875V16.9375C3.375 17.5562 3.88125 18.0625 4.5 18.0625H15.75C16.3687 18.0625 16.875 17.5562 16.875 16.9375V4.5625L12.375 0.0625H4.5Z" fill="#E2E5E7"/>
<path d="M13.5 4.5625H16.875L12.375 0.0625V3.4375C12.375 4.05625 12.8812 4.5625 13.5 4.5625Z" fill="#B0B7BD"/>
<path d="M16.875 7.9375L13.5 4.5625H16.875V7.9375Z" fill="#CAD1D8"/>
<path d="M14.625 14.6875C14.625 14.9969 14.3719 15.25 14.0625 15.25H1.6875C1.37812 15.25 1.125 14.9969 1.125 14.6875V9.0625C1.125 8.75312 1.37812 8.5 1.6875 8.5H14.0625C14.3719 8.5 14.625 8.75312 14.625 9.0625V14.6875Z" fill="#117D43"/>
<path d="M14.0625 15.25H3.375V15.8125H14.0625C14.3719 15.8125 14.625 15.5594 14.625 15.25V14.6875C14.625 14.9969 14.3719 15.25 14.0625 15.25Z" fill="#CAD1D8"/>
<path d="M3.62497 11.5326L4.40741 10.5521C4.64141 10.2461 5.09591 10.6371 4.83941 10.9296C4.56997 11.2491 4.28647 11.5956 4.01647 11.9505L4.93391 13.093C5.18141 13.4305 4.68697 13.7539 4.44397 13.4209L3.61597 12.3595L2.80203 13.444C2.57253 13.7719 2.06403 13.4035 2.32053 13.0975L3.22447 11.9505C2.94097 11.595 2.66647 11.2491 2.39253 10.9296C2.10959 10.5921 2.63553 10.2461 2.84253 10.5617L3.62497 11.5326Z" fill="white"/>
<path d="M12.3281 11.5326L13.1105 10.5521C13.3445 10.2461 13.799 10.6371 13.5425 10.9296C13.2731 11.2491 12.9896 11.5956 12.7196 11.9505L13.637 13.093C13.8845 13.4305 13.3901 13.7539 13.1471 13.4209L12.3191 12.3595L11.5052 13.444C11.2757 13.7719 10.7672 13.4035 11.0237 13.0975L11.9276 11.9505C11.6441 11.595 11.3696 11.2491 11.0957 10.9296C10.8127 10.5921 11.3387 10.2461 11.5457 10.5617L12.3281 11.5326Z" fill="white"/>
<path d="M5.48828 10.7198C5.48828 10.5713 5.61428 10.4453 5.77178 10.4453C5.91578 10.4453 6.03728 10.5719 6.03728 10.7198V12.9732H7.26072C7.70116 12.9732 7.71072 13.5621 7.26072 13.5621H5.77234C5.61484 13.5621 5.48884 13.4502 5.48884 13.2882V10.7198H5.48828Z" fill="white"/>
<path d="M8.11472 11.1265C8.21822 10.2535 9.5356 10.0966 10.1566 10.5736C10.4626 10.8205 10.1386 11.212 9.8686 11.014C9.5356 10.8031 8.78016 10.7041 8.68566 11.1709C8.56416 11.9089 10.5205 11.4865 10.489 12.6829C10.4575 13.8254 8.80266 13.8518 8.18166 13.3394C8.0326 13.2179 8.03766 13.0204 8.11866 12.8984C8.23566 12.7819 8.3656 12.7414 8.51916 12.8674C8.8876 13.1189 9.8371 13.3079 9.90404 12.6689C9.8461 12.004 7.97522 12.4039 8.11472 11.1265Z" fill="white"/>
</g>
<defs>
<clipPath id="clip0_6372_62521">
<rect width="18" height="18" fill="white" transform="translate(0 0.0625)"/>
</clipPath>
</defs>
</svg>
