<svg width="40" height="40" viewBox="0 0 40 40" fill="none" xmlns="http://www.w3.org/2000/svg">
<path d="M28.4241 19.9259H22.5266C22.1814 19.9259 21.9016 20.2057 21.9016 20.5509V39.3749C21.9016 39.7201 22.1814 39.9999 22.5266 39.9999H28.4241C28.7693 39.9999 29.0491 39.7201 29.0491 39.3749V20.5509C29.0491 20.2057 28.7694 19.9259 28.4241 19.9259ZM27.7991 38.7499H23.1516V21.1759H27.7991V38.7499ZM17.4733 22.384H11.5757C11.2305 22.384 10.9507 22.6638 10.9507 23.009V39.375C10.9507 39.7202 11.2305 40 11.5757 40H17.4733C17.8184 40 18.0983 39.7202 18.0983 39.375V23.009C18.0983 22.6638 17.8185 22.384 17.4733 22.384ZM16.8483 38.75H12.2007V23.634H16.8483V38.75ZM6.52258 12.1897H0.625C0.279844 12.1897 0 12.4695 0 12.8147V39.3748C0 39.72 0.279844 39.9998 0.625 39.9998H6.52258C6.86773 39.9998 7.14758 39.72 7.14758 39.3748V12.8147C7.14758 12.4695 6.86773 12.1897 6.52258 12.1897ZM5.89758 38.7498H1.25V13.4397H5.89758V38.7498ZM39.375 27.2277H33.4775C33.1323 27.2277 32.8525 27.5076 32.8525 27.8527V39.3748C32.8525 39.72 33.1323 39.9998 33.4775 39.9998H39.375C39.7202 39.9998 40 39.72 40 39.3748V27.8527C40 27.5075 39.7202 27.2277 39.375 27.2277ZM38.75 38.7498H34.1025V28.4777H38.75V38.7498ZM33.0564 22.0652C32.7127 22.0341 32.4591 21.7302 32.4903 21.3864C32.5214 21.0427 32.8262 20.7891 33.1691 20.8203L34.3632 20.9284L25.3528 13.9123L14.7171 17.3594C14.4927 17.4321 14.2466 17.3723 14.0806 17.2048L3.13 6.1607C2.88695 5.91555 2.88867 5.51984 3.13375 5.27688C3.37883 5.03391 3.77461 5.03547 4.01758 5.28063L14.6975 16.0518L25.2827 12.621C25.4798 12.5571 25.6958 12.5951 25.8594 12.7224L35.2514 20.0356L34.7544 18.4084C34.6535 18.0782 34.8394 17.7289 35.1695 17.628C35.4997 17.5271 35.849 17.713 35.9498 18.0432L37.0241 21.56C37.0848 21.759 37.0426 21.9752 36.9114 22.1366C36.7921 22.2834 36.6135 22.3676 36.4264 22.3676C36.4077 22.3676 36.3889 22.3667 36.37 22.365L33.0564 22.0652ZM18.3325 8.18023C18.4273 8.07063 18.4606 7.94789 18.4405 7.78242C18.4055 7.49352 18.2253 7.13891 17.1341 6.95984C15.397 6.67461 14.9909 5.76063 14.9563 5.04422C14.9089 4.07016 15.57 3.25469 16.6051 2.99813V2.73227C16.6051 2.38711 16.8849 2.10727 17.2301 2.10727C17.5752 2.10727 17.8551 2.38711 17.8551 2.73227V2.99102C18.5262 3.14937 19.1613 3.58172 19.4958 4.37844C19.6294 4.69672 19.4798 5.06305 19.1615 5.19664C18.843 5.33023 18.4769 5.18055 18.3433 4.86234C18.084 4.24492 17.4484 4.08656 16.9332 4.20328C16.8066 4.23203 16.1766 4.40453 16.2047 4.98352C16.2121 5.13711 16.2319 5.54484 17.3365 5.72625C18.7674 5.96109 19.5564 6.60219 19.6813 7.63172C19.744 8.14781 19.6045 8.62023 19.2778 8.99789C18.9517 9.37484 18.4408 9.6407 17.855 9.75141V9.99516C17.855 10.3403 17.5752 10.6202 17.23 10.6202C16.8848 10.6202 16.605 10.3403 16.605 9.99516V9.74109C15.6945 9.54258 14.9975 8.92055 14.7826 8.05852C14.6991 7.72359 14.9029 7.38437 15.2378 7.30086C15.573 7.21727 15.912 7.42117 15.9955 7.75609C16.148 8.36766 16.7878 8.57023 17.2901 8.55859C17.7269 8.5482 18.1458 8.39617 18.3325 8.18023ZM17.23 12.7274C20.739 12.7274 23.5938 9.87266 23.5938 6.36367C23.5938 2.85469 20.739 0 17.23 0C13.721 0 10.8663 2.85477 10.8663 6.36375C10.8663 9.87273 13.7211 12.7274 17.23 12.7274ZM17.23 1.25C20.0498 1.25 22.3438 3.54398 22.3438 6.36375C22.3438 9.18352 20.0498 11.4775 17.23 11.4775C14.4102 11.4775 12.1163 9.18352 12.1163 6.36375C12.1163 3.54398 14.4103 1.25 17.23 1.25Z" fill="#001D6E"/>
</svg>
