<svg width="17" height="12" viewBox="0 0 17 12" fill="none" xmlns="http://www.w3.org/2000/svg">
<path d="M0.676136 1.91193V0.818182H8.3125V1.91193H5.1108V11H3.87784V1.91193H0.676136ZM15.8979 3.02557H16.932C16.932 3.52936 16.8657 3.95194 16.7331 4.29332C16.6006 4.63139 16.3685 4.8866 16.0371 5.05895C15.7057 5.22798 15.2417 5.3125 14.6451 5.3125V4.49716C15.056 4.49716 15.3477 4.44744 15.5201 4.34801C15.6957 4.24526 15.8018 4.08617 15.8382 3.87074C15.878 3.65199 15.8979 3.37026 15.8979 3.02557ZM13.8297 7.87784V3.36364H15.003V11H13.8297V9.70739H13.7502C13.5712 10.0952 13.2928 10.425 12.915 10.6967C12.5371 10.9652 12.0598 11.0994 11.4831 11.0994C11.0059 11.0994 10.5816 10.995 10.2104 10.7862C9.83919 10.5741 9.54753 10.2559 9.3354 9.83168C9.12328 9.40412 9.01722 8.86553 9.01722 8.21591V3.36364H10.1905V8.13636C10.1905 8.69318 10.3463 9.13731 10.6578 9.46875C10.9727 9.80019 11.3738 9.96591 11.861 9.96591C12.1526 9.96591 12.4493 9.89134 12.7509 9.74219C13.0558 9.59304 13.311 9.36435 13.5165 9.05611C13.7253 8.74787 13.8297 8.35511 13.8297 7.87784ZM11.5229 2.32955L9.97177 0.0227269H11.3439L12.557 2.32955H11.5229Z" fill="#1E1E1E"/>
</svg>
