<svg width="14" height="16" viewBox="0 0 14 16" fill="none" xmlns="http://www.w3.org/2000/svg">
<path d="M11.9989 16H9.71337C9.08315 16 8.57062 15.4875 8.57062 14.8572V12.5718C8.57062 12.2569 8.31408 12.0004 7.99925 12.0004H5.71375C5.39892 12.0004 5.14237 12.2569 5.14237 12.5718V14.8572C5.14237 15.4875 4.62985 16 3.99962 16H1.71412C0.769071 16 0 15.2218 0 14.2647V5.5387C0 4.99189 0.262261 4.4708 0.70222 4.14511L5.84459 0.336329C6.13688 0.117979 6.49194 0 6.85678 0C7.22163 0 7.57669 0.117979 7.86897 0.336329L13.0056 4.14169C13.2247 4.30462 13.4027 4.51642 13.5254 4.76023C13.6482 5.00404 13.7125 5.27314 13.713 5.54613V14.2647C13.713 15.2218 12.9439 16 11.9989 16ZM5.71375 10.8576H7.99925C8.9443 10.8576 9.71337 11.6267 9.71337 12.5718V14.8572H11.9989C12.3137 14.8572 12.5702 14.5916 12.5702 14.2647V5.54613C12.5702 5.35529 12.4788 5.17359 12.3251 5.05931L7.18847 1.25453C7.09267 1.18276 6.9762 1.14397 6.8565 1.14397C6.7368 1.14397 6.62032 1.18276 6.52453 1.25453L1.38216 5.06388C1.30804 5.11906 1.24781 5.19075 1.20625 5.27327C1.16469 5.3558 1.14295 5.44687 1.14275 5.53927V14.2647C1.14275 14.5916 1.3993 14.8572 1.71412 14.8572H3.99962V12.5718C3.99962 11.6267 4.76869 10.8576 5.71375 10.8576Z" fill="white"/>
</svg>
