<svg width="24" height="24" viewBox="0 0 24 24" fill="none" xmlns="http://www.w3.org/2000/svg">
<path d="M8.57126 11.1426H2.57138C1.15369 11.1426 0 9.98895 0 8.57126V2.57138C0 1.15369 1.15369 0 2.57138 0H8.57126C9.98895 0 11.1426 1.15369 11.1426 2.57138V8.57126C11.1426 9.98895 9.98895 11.1426 8.57126 11.1426ZM2.57138 1.71425C2.0991 1.71425 1.71425 2.0991 1.71425 2.57138V8.57126C1.71425 9.04354 2.0991 9.42839 2.57138 9.42839H8.57126C9.04354 9.42839 9.42839 9.04354 9.42839 8.57126V2.57138C9.42839 2.0991 9.04354 1.71425 8.57126 1.71425H2.57138ZM8.57126 23.9995H2.57138C1.15369 23.9995 0 22.8458 0 21.4282V15.4283C0 14.0106 1.15369 12.8569 2.57138 12.8569H8.57126C9.98895 12.8569 11.1426 14.0106 11.1426 15.4283V21.4282C11.1426 22.8458 9.98895 23.9995 8.57126 23.9995ZM2.57138 14.5711C2.0991 14.5711 1.71425 14.956 1.71425 15.4283V21.4282C1.71425 21.9004 2.0991 22.2853 2.57138 22.2853H8.57126C9.04354 22.2853 9.42839 21.9004 9.42839 21.4282V15.4283C9.42839 14.956 9.04354 14.5711 8.57126 14.5711H2.57138ZM21.4282 11.1426H15.4283C14.0106 11.1426 12.8569 9.98895 12.8569 8.57126V2.57138C12.8569 1.15369 14.0106 0 15.4283 0H21.4282C22.8458 0 23.9995 1.15369 23.9995 2.57138V8.57126C23.9995 9.98895 22.8458 11.1426 21.4282 11.1426ZM15.4283 1.71425C14.956 1.71425 14.5711 2.0991 14.5711 2.57138V8.57126C14.5711 9.04354 14.956 9.42839 15.4283 9.42839H21.4282C21.9004 9.42839 22.2853 9.04354 22.2853 8.57126V2.57138C22.2853 2.0991 21.9004 1.71425 21.4282 1.71425H15.4283ZM5.99988 7.71414H5.14276C4.19735 7.71414 3.42851 6.94529 3.42851 5.99988V5.14276C3.42851 4.19735 4.19735 3.42851 5.14276 3.42851H5.99988C6.94529 3.42851 7.71414 4.19735 7.71414 5.14276V5.99988C7.71414 6.94529 6.94529 7.71414 5.99988 7.71414ZM5.14276 5.14276V5.99988H6.00074V5.14276H5.14276ZM5.99988 20.571H5.14276C4.19735 20.571 3.42851 19.8022 3.42851 18.8568V17.9997C3.42851 17.0542 4.19735 16.2854 5.14276 16.2854H5.99988C6.94529 16.2854 7.71414 17.0542 7.71414 17.9997V18.8568C7.71414 19.8022 6.94529 20.571 5.99988 20.571ZM5.14276 17.9997V18.8568H6.00074V17.9997H5.14276ZM18.8568 7.71414H17.9997C17.0542 7.71414 16.2854 6.94529 16.2854 5.99988V5.14276C16.2854 4.19735 17.0542 3.42851 17.9997 3.42851H18.8568C19.8022 3.42851 20.571 4.19735 20.571 5.14276V5.99988C20.571 6.94529 19.8022 7.71414 18.8568 7.71414ZM17.9997 5.14276V5.99988H18.8576V5.14276H17.9997Z" fill="#7E8590"/>
<circle cx="18.8569" cy="18.8572" r="5.1428" fill="white"/>
<path d="M18.8569 13.7144C16.0168 13.7144 13.7141 16.017 13.7141 18.8572C13.7141 21.6973 16.0168 24 18.8569 24C21.697 24 23.9997 21.6973 23.9997 18.8572C23.9997 16.017 21.697 13.7144 18.8569 13.7144ZM21.7313 17.8745L18.4913 21.1144C18.4108 21.195 18.3019 21.24 18.1883 21.24C18.0748 21.24 17.9655 21.195 17.8853 21.1144L16.4055 19.6346C16.2379 19.467 16.2379 19.1962 16.4055 19.0286C16.5731 18.861 16.8439 18.861 17.0115 19.0286L18.1883 20.2054L21.1253 17.2685C21.2929 17.1009 21.5637 17.1009 21.7313 17.2685C21.8989 17.436 21.8989 17.7069 21.7313 17.8745Z" fill="#2FB350"/>
</svg>
