<svg width="32" height="31" viewBox="0 0 32 31" fill="none" xmlns="http://www.w3.org/2000/svg">
<path d="M2.08305 12.06C2.53216 12.1316 2.95315 11.8229 3.02319 11.3739C3.90359 5.73721 8.69073 1.6459 14.4058 1.6459H18.2463C23.8322 1.6459 28.6011 5.62951 29.5859 11.118C29.6013 11.2032 29.6156 11.2886 29.629 11.3742C29.6925 11.7802 30.0427 12.07 30.441 12.07C30.4833 12.07 30.5262 12.0667 30.5693 12.06C31.0183 11.9897 31.3254 11.5687 31.2551 11.1197C31.2399 11.0221 31.2235 10.9246 31.2061 10.8273C30.0803 4.55354 24.63 0 18.2463 0H14.4058C7.87437 0 2.40344 4.67663 1.39699 11.12C1.32681 11.569 1.63407 11.9899 2.08305 12.06ZM0.964355 14.8131V20.2994C0.964355 20.9044 1.4566 21.3967 2.06162 21.3967H4.25615V13.7158H2.06162C1.4566 13.7158 0.964355 14.208 0.964355 14.8131ZM30.5905 13.7158H28.396V21.3967H30.5905C31.1955 21.3967 31.6878 20.9044 31.6878 20.2994V14.8131C31.6878 14.208 31.1955 13.7158 30.5905 13.7158Z" fill="white"/>
<path d="M15.5537 25.2844C15.6357 24.1305 16.788 23.5914 17.7651 23.5914H18.795C19.6179 23.5914 20.7152 23.8657 20.7152 24.963H25.1043C26.3163 24.963 27.2988 23.9804 27.2988 22.7684V10.9728C27.2988 9.76084 26.3163 8.77832 25.1043 8.77832H8.37099C7.05339 8.77832 5.35352 9.84249 5.35352 10.9728V24.14C5.35352 25.352 6.33604 26.3345 7.54804 26.3345H12.7305C13.0038 26.3345 13.2572 26.5213 13.3012 26.791C13.3572 27.1347 13.0933 27.4318 12.76 27.4318H10.841C10.6894 27.4318 10.5665 27.5549 10.5667 27.7065L10.5714 30.7984C10.5716 30.8997 10.6349 30.9512 10.6725 30.9729C10.7102 30.9946 10.7865 31.0234 10.8741 30.9725L14.8705 28.5449C15.2954 28.2912 15.5551 27.8323 15.5537 27.3374L15.5537 25.2844ZM18.795 13.1674C19.4 13.1674 19.8923 13.6596 19.8923 14.2646C19.8923 14.8696 19.4 15.3619 18.795 15.3619C18.19 15.3619 17.6977 14.8696 17.6977 14.2646C17.6977 13.6596 18.19 13.1674 18.795 13.1674ZM13.8573 13.1674C14.4623 13.1674 14.9546 13.6596 14.9546 14.2646C14.9546 14.8696 14.4623 15.3619 13.8573 15.3619C13.2523 15.3619 12.76 14.8696 12.76 14.2646C12.76 13.6596 13.2523 13.1674 13.8573 13.1674ZM10.5616 16.7802C10.5358 16.4783 10.7597 16.2127 11.0616 16.1869C11.3635 16.162 11.6292 16.385 11.655 16.6867C11.8543 19.0203 13.9062 20.8482 16.3261 20.8482C18.745 20.8482 20.7968 19.0212 20.9973 16.6888C21.0233 16.387 21.2887 16.1629 21.5908 16.1891C21.8927 16.2151 22.1164 16.4809 22.0905 16.7828C21.8417 19.6777 19.3096 21.9455 16.3261 21.9455C13.3412 21.9455 10.8092 19.6766 10.5616 16.7802Z" fill="white"/>
<path d="M28.3961 22.4819V23.3049C28.3961 24.5149 26.8126 26.0713 25.5184 26.0506H19.8355C19.9137 25.5019 19.6555 24.7391 18.9053 24.6884H17.6629C17.1586 24.7474 16.8299 24.9487 16.6835 25.4572C16.528 26.4649 16.8366 27.176 17.625 27.208H25.5345C27.6714 27.208 29.5141 25.1492 29.5141 23.3341V22.5111L28.3961 22.4819Z" fill="white"/>
</svg>
