<svg width="16" height="14" viewBox="0 0 16 14" fill="none" xmlns="http://www.w3.org/2000/svg">
<g id="Group">
<path id="Vector" d="M3.68421 0C3.38947 0 3.24211 0.147368 3.09474 0.294737L0.221053 3.16842C-0.0736842 3.46316 -0.0736842 3.90526 0.221053 4.2C0.368421 4.34737 0.51579 4.42105 0.736842 4.42105C0.957895 4.42105 1.10526 4.34737 1.25263 4.2L2.94737 2.50526V13.2632C2.94737 13.7053 3.24211 14 3.68421 14C4.12632 14 4.42105 13.7053 4.42105 13.2632V0.736842C4.42105 0.294737 4.12632 0 3.68421 0ZM11.7895 7.73684H7.36842C6.92632 7.73684 6.63158 8.03158 6.63158 8.47368C6.63158 8.91579 6.92632 9.21053 7.36842 9.21053H11.7895C12.2316 9.21053 12.5263 8.91579 12.5263 8.47368C12.5263 8.03158 12.2316 7.73684 11.7895 7.73684ZM10.3158 11.4211H7.36842C6.92632 11.4211 6.63158 11.7158 6.63158 12.1579C6.63158 12.6 6.92632 12.8947 7.36842 12.8947H10.3158C10.7579 12.8947 11.0526 12.6 11.0526 12.1579C11.0526 11.7158 10.7579 11.4211 10.3158 11.4211ZM13.2632 4.05263H7.36842C6.92632 4.05263 6.63158 4.34737 6.63158 4.78947C6.63158 5.23158 6.92632 5.52632 7.36842 5.52632H13.2632C13.7053 5.52632 14 5.23158 14 4.78947C14 4.34737 13.7053 4.05263 13.2632 4.05263ZM14.7368 0.368421H7.36842C6.92632 0.368421 6.63158 0.663158 6.63158 1.10526C6.63158 1.54737 6.92632 1.84211 7.36842 1.84211H14.7368C15.1789 1.84211 15.4737 1.54737 15.4737 1.10526C15.4737 0.663158 15.1789 0.368421 14.7368 0.368421Z" fill="#7A7A7A"/>
</g>
</svg>
