<svg width="19" height="20" viewBox="0 0 19 20" fill="none" xmlns="http://www.w3.org/2000/svg">
<g id="Group">
<path id="Vector" d="M6.864 10.7199C6.864 10.4765 6.66657 10.2793 6.42296 10.2793H4.88391C4.64059 10.2793 4.44312 10.4765 4.44312 10.7199V12.2587C4.44312 12.5025 4.64059 12.6997 4.88391 12.6997H6.42296C6.66657 12.6997 6.864 12.5025 6.864 12.2587V10.7199ZM10.7103 10.7199C10.7103 10.4765 10.5128 10.2793 10.2697 10.2793H8.73044C8.48712 10.2793 8.28965 10.4765 8.28965 10.7199V12.2587C8.28965 12.5025 8.48712 12.6997 8.73044 12.6997H10.2697C10.5128 12.6997 10.7103 12.5025 10.7103 12.2587V10.7199ZM14.5568 10.7199C14.5568 10.4765 14.3593 10.2793 14.116 10.2793H12.5769C12.3333 10.2793 12.1359 10.4765 12.1359 10.7199V12.2587C12.1359 12.5025 12.3333 12.6997 12.5769 12.6997H14.116C14.3593 12.6997 14.5568 12.5025 14.5568 12.2587V10.7199ZM6.864 14.5666C6.864 14.3228 6.66657 14.1257 6.42296 14.1257H4.88391C4.64059 14.1257 4.44312 14.3228 4.44312 14.5666V16.1052C4.44312 16.3487 4.64059 16.546 4.88391 16.546H6.42296C6.66657 16.546 6.864 16.3487 6.864 16.1052V14.5666ZM10.7103 14.5666C10.7103 14.3228 10.5128 14.1257 10.2697 14.1257H8.73044C8.48712 14.1257 8.28965 14.3228 8.28965 14.5666V16.1052C8.28965 16.3487 8.48712 16.546 8.73044 16.546H10.2697C10.5128 16.546 10.7103 16.3487 10.7103 16.1052V14.5666ZM14.5568 14.5666C14.5568 14.3228 14.3593 14.1257 14.1162 14.1257H12.5769C12.3333 14.1257 12.1359 14.3228 12.1359 14.5666V16.1052C12.1359 16.3487 12.3333 16.546 12.5769 16.546H14.1162C14.3593 16.546 14.5568 16.3487 14.5568 16.1052V14.5666Z" fill="#7A7A7A"/>
<path id="Vector_2" d="M17.3088 2.16371V4.51418C17.3088 5.57657 16.447 6.43269 15.3847 6.43269H14.171C13.1087 6.43269 12.2354 5.57657 12.2354 4.51418V2.15527H6.76462V4.51418C6.76462 5.57657 5.89138 6.43269 4.82923 6.43269H3.61523C2.55304 6.43269 1.69122 5.57657 1.69122 4.51418V2.16371C0.762858 2.19169 0 2.95989 0 3.9041V17.679C0 18.6409 0.779695 19.431 1.74166 19.431H17.2583C18.2189 19.431 19 18.6393 19 17.679V3.9041C19 2.95989 18.2372 2.19169 17.3088 2.16371ZM16.7451 16.8212C16.7451 17.2369 16.408 17.5742 15.9921 17.5742H2.97473C2.55885 17.5742 2.22178 17.2369 2.22178 16.8212V9.70596C2.22178 9.29008 2.55881 8.95281 2.97473 8.95281H15.9921C16.408 8.95281 16.745 9.29008 16.745 9.70596L16.7451 16.8212Z" fill="#7A7A7A"/>
<path id="Vector_3" d="M3.61105 5.17243H4.81165C5.17606 5.17243 5.47153 4.87739 5.47153 4.51298V0.659684C5.47153 0.295232 5.17606 0 4.81165 0H3.61105C3.2466 0 2.95117 0.295232 2.95117 0.659684V4.51298C2.95117 4.87739 3.2466 5.17243 3.61105 5.17243ZM14.1556 5.17243H15.3562C15.7204 5.17243 16.0158 4.87739 16.0158 4.51298V0.659684C16.0159 0.295232 15.7204 0 15.3562 0H14.1556C13.7912 0 13.4958 0.295232 13.4958 0.659684V4.51298C13.4958 4.87739 13.7912 5.17243 14.1556 5.17243Z" fill="#7A7A7A"/>
</g>
</svg>
