<svg width="16" height="16" viewBox="0 0 16 16" fill="none" xmlns="http://www.w3.org/2000/svg">
<path d="M7.99999 16C12.4183 16 16 12.4183 16 7.99999C16 3.58172 12.4183 0 7.99999 0C3.58172 0 0 3.58172 0 7.99999C0 12.4183 3.58172 16 7.99999 16Z" fill="#00BA00"/>
<path d="M5.49919 11.9042L2.58266 8.76088C2.38918 8.55357 2.28583 8.27798 2.29527 7.99456C2.30472 7.71114 2.4262 7.44304 2.63306 7.24907C2.84118 7.05639 3.11725 6.95414 3.40068 6.96477C3.68411 6.9754 3.95175 7.09803 4.14487 7.30577L6.39998 9.71836L9.97163 6.37978C10.0035 6.35047 10.0372 6.32313 10.0724 6.29789L11.748 4.72939C11.9553 4.53591 12.2309 4.43255 12.5143 4.442C12.7978 4.45145 13.0659 4.57293 13.2598 4.77978C13.4533 4.9871 13.5567 5.26269 13.5472 5.54611C13.5378 5.82953 13.4163 6.09762 13.2094 6.29159L8.07557 11.079L6.2929 12.7357L5.50549 11.8916L5.49919 11.9042Z" fill="white"/>
</svg>
