<svg width="20" height="21" viewBox="0 0 20 21" fill="none" xmlns="http://www.w3.org/2000/svg">
<path d="M7.62041 13.2205L7.31061 15.0921C7.28985 15.2175 7.30383 15.3462 7.35098 15.4639C7.39813 15.5816 7.47658 15.6836 7.57754 15.7586C7.67866 15.8333 7.79827 15.8778 7.92292 15.8871C8.04756 15.8964 8.17228 15.8701 8.28304 15.8112L9.93734 14.9328L11.5916 15.8114C11.6878 15.8622 11.7945 15.8889 11.9029 15.889C12.0419 15.889 12.1805 15.8448 12.2975 15.7587C12.3985 15.6839 12.4771 15.5819 12.5243 15.4642C12.5715 15.3464 12.5854 15.2176 12.5646 15.0923L12.2551 13.2206L13.5871 11.8915C13.6763 11.8025 13.7394 11.69 13.7692 11.5665C13.799 11.4431 13.7945 11.3136 13.756 11.1927C13.7174 11.0718 13.6463 10.9642 13.5508 10.8822C13.4553 10.8001 13.3392 10.7468 13.2155 10.7282L11.3697 10.4497L10.5383 8.75006C10.4828 8.63621 10.3971 8.54041 10.2908 8.47346C10.1846 8.4065 10.0621 8.37105 9.93718 8.37109C9.81222 8.37123 9.68976 8.40676 9.58353 8.47369C9.4773 8.54062 9.39148 8.63632 9.3357 8.75006L8.50515 10.4497L6.65931 10.728C6.53567 10.7466 6.41958 10.7999 6.32414 10.882C6.2287 10.964 6.1577 11.0716 6.11914 11.1925C6.08044 11.3134 6.07572 11.4429 6.10551 11.5664C6.13529 11.6899 6.1984 11.8024 6.28771 11.8914L7.62041 13.2205Z" fill="white"/>
<path d="M17.8706 2.18346H15.757V0.99094C15.757 0.860794 15.7318 0.731923 15.6828 0.611686C15.6339 0.491449 15.5621 0.382201 15.4716 0.290182C15.3811 0.198162 15.2737 0.125173 15.1555 0.0753836C15.0373 0.0255939 14.9106 -2.15981e-05 14.7826 1.36639e-08H14.6281C14.5002 1.18692e-08 14.3735 0.0256326 14.2553 0.0754341C14.1372 0.125236 14.0298 0.19823 13.9393 0.29025C13.8489 0.382269 13.7771 0.491511 13.7282 0.611736C13.6792 0.731962 13.6541 0.860816 13.6541 0.99094V2.18346H6.19677V0.99094C6.19677 0.728155 6.09415 0.476131 5.91149 0.290298C5.72883 0.104465 5.48108 4.36512e-05 5.22273 1.36639e-08H5.06807C4.94015 1.18692e-08 4.81347 0.0256326 4.69528 0.0754341C4.5771 0.125236 4.46971 0.19823 4.37926 0.29025C4.28881 0.382269 4.21707 0.491511 4.16813 0.611736C4.11918 0.731962 4.09401 0.860816 4.09403 0.99094V2.18346H2.00503C0.899628 2.18346 0 3.09821 0 4.22293V18.4991C0 19.6232 0.899628 20.5386 2.00503 20.5386H17.8707C18.976 20.5386 19.8758 19.6233 19.8758 18.4991V4.22293C19.8756 3.09821 18.9758 2.18346 17.8706 2.18346ZM17.609 18.233H2.26662V7.1199H17.609V18.233Z" fill="white"/>
</svg>
