<svg width="190" height="112" viewBox="0 0 190 112" fill="none" xmlns="http://www.w3.org/2000/svg">
<rect width="189.469" height="111.625" rx="8" fill="#E0E1E4"/>
<path d="M69.5161 76.1631H25.2999C22.6849 76.1631 20.5625 74.0407 20.5625 71.4257V68.2674C20.5625 53.4645 32.6051 41.4219 47.408 41.4219C62.2109 41.4219 74.2535 53.4645 74.2535 68.2674V71.4257C74.2535 74.0407 72.1311 76.1631 69.5161 76.1631Z" fill="white"/>
<path d="M47.4076 47.7392C38.7001 47.7392 31.6161 40.6551 31.6161 31.9477C31.6161 23.2403 38.7001 16.1562 47.4076 16.1562C56.115 16.1562 63.199 23.2403 63.199 31.9477C63.199 40.6551 56.115 47.7392 47.4076 47.7392Z" fill="white"/>
<path d="M69.5161 95.1126H25.2999C22.6849 95.1126 20.5625 92.9902 20.5625 90.3751C20.5625 87.7601 22.6849 85.6377 25.2999 85.6377H69.5161C72.1311 85.6377 74.2535 87.7601 74.2535 90.3751C74.2535 92.9902 72.1311 95.1126 69.5161 95.1126Z" fill="white"/>
<path d="M165.426 25.6311H114.894C112.279 25.6311 110.156 23.5088 110.156 20.8937C110.156 18.2786 112.279 16.1562 114.894 16.1562H165.426C168.041 16.1562 170.164 18.2786 170.164 20.8937C170.164 23.5088 168.041 25.6311 165.426 25.6311Z" fill="white"/>
<path d="M165.426 44.5794H114.894C112.279 44.5794 110.156 42.457 110.156 39.8419C110.156 37.2269 112.279 35.1045 114.894 35.1045H165.426C168.041 35.1045 170.164 37.2269 170.164 39.8419C170.164 42.457 168.041 44.5794 165.426 44.5794Z" fill="white"/>
<path d="M165.426 95.1114H140.159C137.544 95.1114 135.422 92.989 135.422 90.3739V65.1076C135.422 62.4925 137.544 60.3701 140.159 60.3701H165.426C168.041 60.3701 170.163 62.4925 170.163 65.1076V90.3739C170.163 92.989 168.041 95.1114 165.426 95.1114Z" fill="white"/>
</svg>
