<svg width="188" height="112" viewBox="0 0 188 112" fill="none" xmlns="http://www.w3.org/2000/svg">
<rect width="188" height="111.625" rx="8" fill="#E0E1E4"/>
<rect x="108.688" y="1.46875" width="30.8438" height="49.9375" fill="#E0E1E4"/>
<mask id="mask0_496_5791" style="mask-type:alpha" maskUnits="userSpaceOnUse" x="152" y="1" width="29" height="48">
<rect x="152.75" y="1.46875" width="27.9062" height="47" fill="#CBE3FC"/>
</mask>
<g mask="url(#mask0_496_5791)">
<rect x="152.75" y="1.46875" width="88.125" height="49.9375" fill="#E0E1E4"/>
</g>
<path d="M124.366 50.1615C126.875 47.3901 128.969 44.2692 130.582 40.8962C130.616 40.8246 130.663 40.7604 130.721 40.7072C130.779 40.6539 130.847 40.6128 130.921 40.586C130.996 40.5593 131.074 40.5476 131.153 40.5515C131.232 40.5555 131.309 40.575 131.38 40.6089C131.452 40.6429 131.515 40.6906 131.568 40.7494C131.621 40.8082 131.661 40.8768 131.687 40.9513C131.713 41.0258 131.724 41.1047 131.719 41.1834C131.714 41.2622 131.694 41.3392 131.659 41.41C129.997 44.8872 127.838 48.1045 125.251 50.9615C124.516 51.7745 123.742 52.585 122.949 53.3706C122.893 53.4261 122.827 53.4701 122.754 53.5C122.682 53.5299 122.604 53.5452 122.525 53.545C122.447 53.5448 122.369 53.5291 122.297 53.4988C122.224 53.4685 122.158 53.4241 122.103 53.3683C122.048 53.3125 122.004 53.2463 121.974 53.1736C121.945 53.1009 121.93 53.023 121.93 52.9444C121.931 52.8659 121.947 52.7882 121.977 52.7158C122.008 52.6435 122.053 52.5779 122.109 52.5228C122.886 51.7527 123.646 50.9577 124.366 50.1615Z" fill="white"/>
<path d="M129.642 47.2085C129.686 47.1427 129.742 47.0863 129.808 47.0424C129.873 46.9985 129.947 46.968 130.024 46.9527C130.102 46.9374 130.181 46.9376 130.259 46.9533C130.336 46.969 130.409 46.9999 130.475 47.0442C130.54 47.0884 130.596 47.1452 130.639 47.2112C130.682 47.2772 130.712 47.3511 130.726 47.4286C130.741 47.5061 130.74 47.5858 130.723 47.6629C130.707 47.7401 130.675 47.8131 130.63 47.878C129.743 49.1877 128.779 50.444 127.745 51.6405C127.641 51.7602 127.494 51.8338 127.336 51.8452C127.178 51.8566 127.023 51.8049 126.903 51.7013C126.783 51.5977 126.71 51.4509 126.698 51.293C126.687 51.1352 126.738 50.9793 126.842 50.8596C127.846 49.6985 128.781 48.4794 129.642 47.2085Z" fill="white"/>
<path d="M124.109 18.6545C122.189 17.7953 120.108 17.3507 118.005 17.3497C114.818 17.3495 111.717 18.3775 109.162 20.2809C108.215 20.9807 107.353 21.7893 106.595 22.69C106.545 22.7504 106.483 22.8003 106.413 22.8368C106.344 22.8733 106.267 22.8956 106.189 22.9025C106.111 22.9094 106.032 22.9008 105.957 22.8771C105.882 22.8534 105.812 22.8151 105.752 22.7644C105.692 22.7137 105.642 22.6517 105.606 22.5818C105.57 22.5119 105.548 22.4356 105.542 22.3572C105.535 22.2788 105.545 22.1999 105.569 22.125C105.593 22.0502 105.632 21.9808 105.683 21.921C106.501 20.9489 107.431 20.0763 108.453 19.321C110.402 17.8721 112.655 16.8851 115.042 16.4345C117.428 15.9839 119.886 16.0816 122.229 16.72C123.039 16.9401 123.83 17.2227 124.597 17.5652C124.738 17.6319 124.847 17.7513 124.901 17.8978C124.955 18.0442 124.95 18.206 124.886 18.3485C124.822 18.491 124.705 18.6028 124.56 18.66C124.415 18.7171 124.253 18.715 124.109 18.6542V18.6545Z" fill="white"/>
<path d="M130.615 23.2206C130.49 23.3175 130.331 23.3608 130.174 23.341C130.017 23.3211 129.875 23.2397 129.778 23.1146C128.736 21.7689 127.471 20.6122 126.038 19.6951C125.905 19.6097 125.811 19.4749 125.777 19.3203C125.743 19.1657 125.772 19.004 125.857 18.8707C125.9 18.8047 125.955 18.7477 126.019 18.7029C126.083 18.6581 126.156 18.6264 126.232 18.6096C126.387 18.5757 126.549 18.6045 126.682 18.6899C128.23 19.6805 129.596 20.9298 130.721 22.3833C130.769 22.4452 130.804 22.516 130.825 22.5916C130.845 22.6672 130.851 22.7461 130.841 22.8239C130.831 22.9016 130.806 22.9767 130.767 23.0447C130.729 23.1128 130.677 23.1725 130.615 23.2206Z" fill="white"/>
<path d="M130.622 28.6065C130.548 28.6319 130.469 28.6424 130.391 28.6374C130.313 28.6324 130.236 28.6121 130.166 28.5776C130.096 28.5431 130.033 28.495 129.981 28.4362C129.929 28.3774 129.89 28.309 129.864 28.2348C129.023 25.7568 127.427 23.6045 125.3 22.0802C123.172 20.5559 120.621 19.7363 118.004 19.7363C112.564 19.7363 107.641 23.3686 106.033 28.5685C106.029 28.5826 106.024 28.5966 106.018 28.6104C105.857 29.0065 105.668 29.3907 105.453 29.7601C105.414 29.828 105.362 29.8876 105.3 29.9355C105.238 29.9834 105.167 30.0185 105.091 30.039C105.015 30.0595 104.937 30.0649 104.859 30.0548C104.781 30.0448 104.706 30.0196 104.638 29.9805C104.57 29.9415 104.511 29.8895 104.463 29.8275C104.415 29.7654 104.38 29.6946 104.359 29.6189C104.339 29.5433 104.333 29.4644 104.343 29.3867C104.353 29.3089 104.379 29.234 104.418 29.166C104.6 28.8531 104.761 28.5281 104.9 28.1935C106.668 22.5105 112.054 18.543 118.004 18.543C120.87 18.5429 123.664 19.4405 125.994 21.1095C128.323 22.7786 130.072 25.1354 130.994 27.849C131.045 27.9987 131.034 28.1627 130.965 28.3047C130.895 28.4468 130.772 28.5554 130.622 28.6065Z" fill="white"/>
<path d="M122.595 48.5608C127.995 42.5856 129.792 36.6758 130.097 35.5519C130.553 33.885 130.657 32.1412 130.4 30.4321C130.388 30.3544 130.392 30.2752 130.41 30.199C130.429 30.1227 130.463 30.051 130.509 29.9877C130.556 29.9245 130.615 29.8711 130.682 29.8306C130.749 29.7901 130.824 29.7633 130.902 29.7517C130.979 29.7401 131.058 29.7439 131.135 29.763C131.211 29.782 131.282 29.8159 131.345 29.8627C131.409 29.9096 131.462 29.9684 131.502 30.0358C131.542 30.1032 131.569 30.1779 131.58 30.2556C131.861 32.1279 131.748 34.0383 131.249 35.8644C130.931 37.0347 129.062 43.1841 123.48 49.3613C123.199 49.6731 122.909 49.9867 122.619 50.2932C122.51 50.4082 122.36 50.4754 122.202 50.4799C122.044 50.4844 121.89 50.4258 121.775 50.3171C121.66 50.2083 121.593 50.0583 121.589 49.9001C121.584 49.7418 121.643 49.5883 121.751 49.4732C122.035 49.1733 122.319 48.8662 122.595 48.5608Z" fill="white"/>
<path d="M117.781 53.2985C118.541 52.6314 119.292 51.9376 120.013 51.2362C120.127 51.1259 120.279 51.0652 120.438 51.0674C120.596 51.0697 120.747 51.1347 120.857 51.2482C120.967 51.3616 121.028 51.5143 121.026 51.6725C121.024 51.8308 120.959 51.9816 120.845 52.0919C120.109 52.8074 119.343 53.5151 118.568 54.1953C118.509 54.2469 118.44 54.2865 118.366 54.3117C118.292 54.3369 118.214 54.3473 118.135 54.3422C118.057 54.3371 117.981 54.3167 117.91 54.282C117.84 54.2474 117.777 54.1992 117.726 54.1404C117.674 54.0815 117.634 54.013 117.609 53.9388C117.584 53.8646 117.574 53.7861 117.579 53.708C117.584 53.6298 117.604 53.5533 117.639 53.483C117.674 53.4128 117.722 53.35 117.781 53.2983V53.2985Z" fill="white"/>
<path d="M104.443 33.0407C104.594 32.8809 104.743 32.719 104.887 32.5594C106.414 30.8694 107.064 29.2244 107.157 28.9759C107.502 27.8399 108.025 26.7659 108.707 25.7942C108.752 25.7292 108.809 25.6737 108.875 25.6308C108.941 25.588 109.015 25.5587 109.093 25.5447C109.17 25.5306 109.25 25.5321 109.327 25.5491C109.404 25.566 109.477 25.598 109.542 25.6433C109.606 25.6886 109.661 25.7462 109.703 25.8128C109.745 25.8795 109.774 25.9538 109.787 26.0315C109.8 26.1093 109.798 26.1889 109.78 26.2657C109.763 26.3426 109.73 26.4152 109.684 26.4793C109.071 27.3522 108.602 28.3174 108.294 29.3383C108.29 29.3494 108.287 29.3604 108.283 29.3712C108.158 29.7113 107.451 31.5018 105.772 33.3595C105.623 33.5248 105.468 33.6926 105.313 33.8581C105.204 33.9734 105.055 34.0409 104.896 34.0458C104.738 34.0507 104.585 33.9925 104.469 33.8841C104.354 33.7757 104.287 33.626 104.282 33.4678C104.277 33.3096 104.335 33.156 104.443 33.0407H104.443Z" fill="white"/>
<path d="M120.664 22.4781C119.016 22.0295 117.282 22.0056 115.624 22.4088C113.965 22.812 112.435 23.6291 111.178 24.7837C111.06 24.8901 110.906 24.9457 110.748 24.9382C110.59 24.9307 110.441 24.8607 110.335 24.7436C110.228 24.6266 110.173 24.472 110.18 24.3139C110.188 24.1558 110.258 24.0072 110.375 23.9007C111.781 22.6112 113.49 21.6987 115.344 21.2486C117.198 20.7984 119.136 20.8252 120.976 21.3265C127.009 22.9651 130.584 29.2063 128.945 35.2392C128.648 36.2834 128.279 37.3058 127.841 38.2993C127.778 38.4445 127.661 38.5589 127.513 38.6173C127.366 38.6757 127.202 38.6732 127.057 38.6105C126.912 38.5477 126.797 38.4298 126.739 38.2827C126.68 38.1356 126.683 37.9714 126.746 37.8261C127.161 36.8847 127.511 35.9159 127.794 34.9264C129.259 29.5286 126.061 23.9442 120.664 22.4781Z" fill="white"/>
<path d="M114.538 52.9187C116.783 51.097 118.884 49.1056 120.824 46.9621C122.781 44.8026 124.453 42.4013 125.8 39.8168C125.836 39.7467 125.885 39.6843 125.945 39.6333C126.005 39.5823 126.074 39.5437 126.149 39.5197C126.224 39.4957 126.303 39.4867 126.382 39.4933C126.46 39.5 126.536 39.5221 126.606 39.5583C126.676 39.5946 126.738 39.6443 126.789 39.7047C126.839 39.765 126.877 39.8348 126.901 39.9099C126.924 39.985 126.933 40.0641 126.926 40.1425C126.918 40.2209 126.896 40.2971 126.859 40.3667C125.465 43.0416 123.735 45.527 121.71 47.7621C119.729 49.9511 117.582 51.9848 115.29 53.8451C115.167 53.9449 115.01 53.9917 114.852 53.9754C114.695 53.959 114.55 53.8808 114.451 53.758C114.351 53.6351 114.304 53.4777 114.32 53.3203C114.337 53.1628 114.415 53.0184 114.538 52.9186V52.9187Z" fill="white"/>
<path d="M110.555 30.1017C110.468 30.3543 109.641 32.6371 107.543 34.9589C106.884 35.6881 106.174 36.4127 105.434 37.1127C105.319 37.2215 105.165 37.28 105.007 37.2756C104.929 37.2734 104.852 37.2558 104.78 37.2238C104.709 37.1918 104.644 37.146 104.59 37.0891C104.537 37.0321 104.495 36.9651 104.467 36.8919C104.439 36.8187 104.425 36.7407 104.428 36.6624C104.43 36.5841 104.447 36.5069 104.479 36.4354C104.511 36.3639 104.557 36.2994 104.614 36.2455C105.332 35.5668 106.019 34.8648 106.658 34.1588C108.567 32.0462 109.325 30.0063 109.424 29.724C109.979 27.8778 111.112 26.2587 112.657 25.1052C114.202 23.9517 116.076 23.3246 118.004 23.3164C118.162 23.3164 118.314 23.3793 118.426 23.4912C118.538 23.6031 118.601 23.7548 118.601 23.9131C118.601 24.0713 118.538 24.2231 118.426 24.335C118.314 24.4469 118.162 24.5098 118.004 24.5098C116.331 24.5169 114.704 25.0618 113.365 26.064C112.025 27.0661 111.043 28.4724 110.564 30.0753C110.561 30.0841 110.558 30.0929 110.555 30.1017Z" fill="white"/>
<path d="M122.443 43.0369C122.398 43.1008 122.34 43.1552 122.274 43.197C122.208 43.2388 122.134 43.267 122.057 43.2802C121.979 43.2935 121.9 43.2913 121.824 43.274C121.748 43.2566 121.675 43.2244 121.611 43.1791C121.547 43.1338 121.493 43.0764 121.451 43.0101C121.409 42.9438 121.381 42.8699 121.368 42.7927C121.355 42.7154 121.357 42.6364 121.374 42.5599C121.392 42.4835 121.424 42.4113 121.469 42.3473C124.303 38.3436 125.316 34.9422 125.49 34.301C126.012 32.3696 125.769 30.3112 124.811 28.5548C123.853 26.7984 122.254 25.4794 120.348 24.8727C120.197 24.825 120.071 24.7193 119.998 24.5788C119.925 24.4384 119.911 24.2747 119.959 24.1238C120.006 23.9729 120.112 23.8472 120.253 23.7742C120.393 23.7013 120.557 23.6871 120.708 23.7348C122.908 24.4344 124.753 25.9563 125.859 27.9831C126.964 30.0098 127.245 32.3852 126.642 34.6138C126.384 35.5623 125.32 38.9733 122.443 43.0369Z" fill="white"/>
<path d="M111.907 51.9577C114.482 49.977 116.874 47.7693 119.054 45.3611C119.4 44.9781 119.741 44.5822 120.068 44.1843C120.118 44.1233 120.179 44.0727 120.248 44.0354C120.317 43.998 120.393 43.9748 120.471 43.9669C120.55 43.959 120.629 43.9666 120.704 43.9894C120.779 44.0121 120.849 44.0496 120.91 44.0995C120.971 44.1494 121.021 44.2108 121.058 44.2802C121.095 44.3496 121.118 44.4256 121.125 44.5039C121.133 44.5822 121.125 44.6612 121.101 44.7363C121.078 44.8114 121.041 44.8813 120.99 44.9417C120.652 45.3541 120.298 45.7643 119.939 46.1613C117.711 48.6232 115.265 50.8802 112.633 52.9049C112.571 52.9542 112.5 52.9906 112.423 53.012C112.347 53.0334 112.267 53.0394 112.189 53.0297C112.11 53.02 112.034 52.9947 111.966 52.9553C111.897 52.916 111.837 52.8633 111.788 52.8004C111.74 52.7375 111.705 52.6656 111.685 52.589C111.665 52.5124 111.66 52.4325 111.671 52.3541C111.682 52.2756 111.709 52.2002 111.749 52.1321C111.79 52.0641 111.844 52.0048 111.907 51.9577Z" fill="white"/>
<path d="M104.55 39.5059C105.925 38.3448 107.221 37.0933 108.429 35.76C108.858 35.2848 109.261 34.7866 109.636 34.2677C109.729 34.1402 109.869 34.0546 110.025 34.0299C110.181 34.0051 110.34 34.0431 110.468 34.1356C110.596 34.228 110.682 34.3674 110.707 34.5232C110.733 34.679 110.695 34.8385 110.603 34.9668C110.203 35.5208 109.772 36.0527 109.314 36.5601C108.07 37.933 106.736 39.2214 105.321 40.4169C105.2 40.5182 105.044 40.5675 104.887 40.5541C104.73 40.5406 104.584 40.4654 104.482 40.345C104.38 40.2246 104.33 40.0687 104.343 39.9115C104.356 39.7542 104.43 39.6084 104.55 39.5059H104.55Z" fill="white"/>
<path d="M119.413 27.0846C118.051 26.7145 116.599 26.895 115.37 27.5872C114.141 28.2794 113.233 29.4276 112.844 30.7836C112.842 30.7897 112.84 30.7959 112.838 30.8021C112.791 30.9492 112.523 31.7409 111.914 32.875C111.877 32.9441 111.827 33.0051 111.766 33.0547C111.705 33.1044 111.636 33.1415 111.56 33.1642C111.485 33.1868 111.407 33.1944 111.329 33.1866C111.251 33.1788 111.175 33.1557 111.106 33.1186C111.037 33.0816 110.976 33.0313 110.926 32.9706C110.877 32.91 110.839 32.8401 110.817 32.7651C110.794 32.69 110.787 32.6113 110.794 32.5333C110.802 32.4553 110.825 32.3797 110.862 32.3106C111.192 31.7124 111.472 31.088 111.7 30.4437C112.18 28.7795 113.299 27.3727 114.812 26.5298C116.325 25.6869 118.11 25.4763 119.778 25.944C121.446 26.4116 122.861 27.5196 123.715 29.0263C124.57 30.5331 124.794 32.3165 124.339 33.9878C124.096 34.8818 122.657 39.5931 118.168 44.5605C117.207 45.6232 116.185 46.6644 115.13 47.6553C115.015 47.7636 114.861 47.8217 114.703 47.8167C114.545 47.8117 114.395 47.7441 114.287 47.6287C114.179 47.5134 114.121 47.3597 114.126 47.2015C114.13 47.0434 114.198 46.8936 114.313 46.7853C115.345 45.8167 116.344 44.7989 117.283 43.7603C121.589 38.9943 122.957 34.5227 123.187 33.6748C123.559 32.3004 123.37 30.8347 122.663 29.5992C121.955 28.3638 120.786 27.4595 119.413 27.0846Z" fill="white"/>
<path d="M109.733 50.6083C110.656 49.9313 111.597 49.1837 112.529 48.3861C112.65 48.2858 112.805 48.2369 112.961 48.2502C113.117 48.2634 113.262 48.3377 113.364 48.4569C113.466 48.576 113.517 48.7306 113.506 48.887C113.495 49.0435 113.423 49.1893 113.305 49.2928C112.35 50.1097 111.386 50.8761 110.438 51.5708C110.31 51.6634 110.151 51.7016 109.995 51.6771C109.839 51.6527 109.7 51.5676 109.606 51.4404C109.513 51.3132 109.474 51.1543 109.498 50.9983C109.521 50.8424 109.606 50.7022 109.732 50.6083H109.733Z" fill="white"/>
<path d="M104.783 42.3904C106.73 40.8733 108.543 39.1902 110.199 37.3601C113 34.2614 113.93 31.3143 113.985 31.1322C114.285 30.0692 114.994 29.1681 115.956 28.6262C116.918 28.0843 118.056 27.9456 119.121 28.2405C120.185 28.5355 121.089 29.24 121.636 30.1999C122.182 31.1599 122.326 32.2971 122.035 33.3628C122.014 33.4412 121.966 33.609 121.887 33.8519C121.837 34.0015 121.73 34.1254 121.589 34.1964C121.449 34.2674 121.285 34.2797 121.135 34.2306C120.986 34.1816 120.861 34.0752 120.789 33.9347C120.718 33.7942 120.705 33.6311 120.753 33.4809C120.824 33.2632 120.865 33.1174 120.884 33.0499C121.092 32.288 120.99 31.4746 120.599 30.7882C120.208 30.1017 119.562 29.5981 118.8 29.3878C118.039 29.1775 117.225 29.2777 116.538 29.6664C115.85 30.055 115.345 30.7005 115.132 31.4612C115.131 31.4649 115.13 31.4687 115.129 31.4723C115.088 31.608 114.092 34.8326 111.085 38.1602C109.381 40.0423 107.517 41.7731 105.515 43.3334C105.453 43.3814 105.382 43.4168 105.306 43.4375C105.231 43.4581 105.152 43.4637 105.074 43.4539C104.996 43.4441 104.921 43.4191 104.853 43.3802C104.785 43.3414 104.725 43.2896 104.677 43.2277C104.629 43.1657 104.594 43.095 104.573 43.0194C104.553 42.9438 104.547 42.8649 104.557 42.7871C104.567 42.7094 104.592 42.6343 104.63 42.5663C104.669 42.4982 104.721 42.4384 104.783 42.3904Z" fill="white"/>
<path d="M107.942 48.9596C109.435 47.8966 112.403 45.5998 115.512 42.1597C117.284 40.2095 118.759 38.0091 119.89 35.6292C119.922 35.5576 119.969 35.4933 120.027 35.4398C120.085 35.3863 120.153 35.3449 120.227 35.3177C120.3 35.2906 120.379 35.2784 120.458 35.2818C120.536 35.2852 120.614 35.3041 120.685 35.3375C120.756 35.3709 120.82 35.4181 120.873 35.4763C120.926 35.5345 120.967 35.6027 120.994 35.6768C121.02 35.751 121.032 35.8296 121.028 35.9083C121.024 35.9869 121.004 36.064 120.97 36.135C119.789 38.622 118.249 40.9215 116.398 42.9596C113.213 46.4836 110.167 48.8403 108.634 49.9315C108.506 50.0233 108.345 50.0601 108.189 50.0339C108.033 50.0076 107.894 49.9205 107.802 49.7916C107.711 49.6627 107.674 49.5026 107.7 49.3465C107.726 49.1904 107.813 49.0512 107.942 48.9594L107.942 48.9596Z" fill="white"/>
<path d="M106.505 47.0561C107.919 46.0559 110.739 43.8822 113.741 40.5605C117.458 36.4476 118.537 32.5864 118.581 32.4241C118.623 32.2714 118.602 32.1085 118.523 31.9711C118.445 31.8338 118.315 31.7333 118.162 31.6917C118.009 31.6502 117.846 31.671 117.709 31.7496C117.572 31.8282 117.471 31.9582 117.429 32.1109C117.419 32.1482 116.357 35.8856 112.856 39.7602C112.558 40.0896 112.249 40.4212 111.938 40.7458C111.884 40.803 111.819 40.849 111.747 40.881C111.675 40.9131 111.597 40.9305 111.518 40.9325C111.44 40.9344 111.361 40.9207 111.288 40.8922C111.215 40.8637 111.148 40.8209 111.091 40.7664C111.034 40.7119 110.988 40.6466 110.957 40.5744C110.926 40.5022 110.909 40.4245 110.907 40.3458C110.906 40.267 110.92 40.1888 110.949 40.1156C110.978 40.0425 111.022 39.9757 111.077 39.9194C111.38 39.6033 111.681 39.2806 111.97 38.96C115.252 35.3284 116.27 31.8258 116.279 31.7941C116.341 31.5673 116.447 31.355 116.591 31.1692C116.735 30.9834 116.914 30.8277 117.118 30.7112C117.322 30.5946 117.547 30.5194 117.781 30.4898C118.014 30.4602 118.251 30.4769 118.477 30.5388C118.704 30.6007 118.916 30.7067 119.102 30.8507C119.288 30.9947 119.444 31.1739 119.56 31.3781C119.677 31.5822 119.752 31.8073 119.782 32.0405C119.811 32.2737 119.795 32.5105 119.733 32.7373C119.686 32.9109 118.533 37.0387 114.627 41.3609C111.548 44.7678 108.648 47.0021 107.194 48.0306C107.13 48.0768 107.058 48.1098 106.981 48.1278C106.904 48.1458 106.825 48.1484 106.747 48.1355C106.669 48.1225 106.595 48.0943 106.528 48.0524C106.461 48.0105 106.403 47.9558 106.358 47.8914C106.312 47.8271 106.28 47.7543 106.263 47.6774C106.245 47.6004 106.243 47.5208 106.257 47.4432C106.271 47.3655 106.3 47.2913 106.342 47.2249C106.385 47.1586 106.44 47.1012 106.505 47.0564V47.0561Z" fill="white"/>
<path d="M105.419 44.9C105.76 44.6519 106.118 44.3803 106.483 44.0926C107.453 43.3278 108.426 42.4891 109.374 41.5995C109.431 41.5451 109.499 41.5026 109.572 41.4743C109.646 41.446 109.724 41.4326 109.803 41.4348C109.882 41.437 109.959 41.4548 110.031 41.4871C110.103 41.5194 110.168 41.5656 110.221 41.6231C110.275 41.6805 110.317 41.7481 110.345 41.8219C110.373 41.8956 110.385 41.9741 110.383 42.0529C110.38 42.1316 110.361 42.209 110.328 42.2806C110.295 42.3521 110.249 42.4165 110.191 42.4699C109.218 43.3827 108.218 44.244 107.221 45.03C106.844 45.327 106.474 45.608 106.121 45.8653C106.057 45.9123 105.985 45.9462 105.909 45.9652C105.832 45.9842 105.753 45.9878 105.675 45.9759C105.597 45.964 105.522 45.9368 105.455 45.8958C105.387 45.8548 105.329 45.8009 105.283 45.7371C105.236 45.6734 105.203 45.6011 105.185 45.5244C105.166 45.4477 105.163 45.3682 105.176 45.2904C105.189 45.2126 105.217 45.138 105.258 45.0711C105.3 45.0041 105.354 44.9461 105.419 44.9003V44.9Z" fill="white"/>
<path d="M151.099 50.1615C148.59 47.3901 146.496 44.2692 144.883 40.8962C144.85 40.8246 144.803 40.7604 144.744 40.7072C144.686 40.6539 144.618 40.6128 144.544 40.586C144.47 40.5593 144.391 40.5476 144.312 40.5515C144.233 40.5555 144.156 40.575 144.085 40.6089C144.014 40.6429 143.95 40.6906 143.897 40.7494C143.845 40.8082 143.804 40.8768 143.778 40.9513C143.752 41.0258 143.741 41.1047 143.746 41.1834C143.751 41.2622 143.771 41.3392 143.806 41.41C145.469 44.8872 147.627 48.1045 150.214 50.9615C150.949 51.7745 151.723 52.585 152.517 53.3706C152.572 53.4261 152.638 53.4701 152.711 53.5C152.784 53.5299 152.861 53.5452 152.94 53.545C153.018 53.5448 153.096 53.5291 153.169 53.4988C153.241 53.4685 153.307 53.4241 153.362 53.3683C153.417 53.3125 153.461 53.2463 153.491 53.1736C153.52 53.1009 153.535 53.023 153.535 52.9444C153.534 52.8659 153.518 52.7882 153.488 52.7158C153.457 52.6435 153.413 52.5779 153.357 52.5228C152.579 51.7527 151.819 50.9577 151.099 50.1615Z" fill="white"/>
<path d="M145.823 47.2085C145.779 47.1427 145.723 47.0863 145.657 47.0424C145.592 46.9985 145.518 46.968 145.441 46.9527C145.363 46.9374 145.284 46.9376 145.206 46.9533C145.129 46.969 145.056 46.9999 144.99 47.0442C144.925 47.0884 144.869 47.1452 144.826 47.2112C144.783 47.2772 144.753 47.3511 144.739 47.4286C144.724 47.5061 144.725 47.5858 144.742 47.6629C144.758 47.7401 144.79 47.8131 144.835 47.878C145.722 49.1877 146.686 50.444 147.721 51.6405C147.824 51.7602 147.971 51.8338 148.129 51.8452C148.287 51.8566 148.443 51.8049 148.562 51.7013C148.682 51.5977 148.756 51.4509 148.767 51.293C148.778 51.1352 148.727 50.9793 148.623 50.8596C147.619 49.6985 146.684 48.4794 145.823 47.2085Z" fill="white"/>
<path d="M151.356 18.6545C153.277 17.7953 155.357 17.3507 157.461 17.3497C160.647 17.3495 163.748 18.3775 166.304 20.2809C167.25 20.9807 168.112 21.7893 168.87 22.69C168.92 22.7504 168.982 22.8003 169.052 22.8368C169.122 22.8733 169.198 22.8956 169.276 22.9025C169.354 22.9094 169.433 22.9008 169.508 22.8771C169.583 22.8534 169.653 22.8151 169.713 22.7644C169.773 22.7137 169.823 22.6517 169.859 22.5818C169.895 22.5119 169.917 22.4356 169.923 22.3572C169.93 22.2788 169.921 22.1999 169.897 22.125C169.872 22.0502 169.834 21.9808 169.783 21.921C168.964 20.9489 168.034 20.0763 167.012 19.321C165.063 17.8721 162.81 16.8851 160.424 16.4345C158.037 15.9839 155.579 16.0816 153.236 16.72C152.426 16.9401 151.635 17.2227 150.869 17.5652C150.727 17.6319 150.618 17.7513 150.564 17.8978C150.51 18.0442 150.515 18.206 150.579 18.3485C150.643 18.491 150.76 18.6028 150.905 18.66C151.05 18.7171 151.212 18.715 151.356 18.6542V18.6545Z" fill="white"/>
<path d="M144.851 23.2206C144.976 23.3175 145.134 23.3608 145.291 23.341C145.448 23.3211 145.591 23.2397 145.688 23.1146C146.729 21.7689 147.994 20.6122 149.427 19.6951C149.56 19.6097 149.654 19.4749 149.688 19.3203C149.722 19.1657 149.693 19.004 149.608 18.8707C149.566 18.8047 149.511 18.7477 149.446 18.7029C149.382 18.6581 149.31 18.6264 149.233 18.6096C149.079 18.5757 148.917 18.6045 148.784 18.6899C147.236 19.6805 145.869 20.9298 144.745 22.3833C144.697 22.4452 144.661 22.516 144.641 22.5916C144.62 22.6672 144.614 22.7461 144.624 22.8239C144.634 22.9016 144.659 22.9767 144.698 23.0447C144.737 23.1128 144.789 23.1725 144.851 23.2206Z" fill="white"/>
<path d="M144.843 28.6065C144.917 28.6319 144.996 28.6424 145.074 28.6374C145.152 28.6324 145.229 28.6121 145.299 28.5776C145.369 28.5431 145.432 28.495 145.484 28.4362C145.536 28.3774 145.575 28.309 145.601 28.2348C146.442 25.7568 148.038 23.6045 150.165 22.0802C152.293 20.5559 154.844 19.7363 157.461 19.7363C162.901 19.7363 167.824 23.3686 169.432 28.5685C169.436 28.5826 169.441 28.5966 169.447 28.6104C169.608 29.0065 169.797 29.3907 170.012 29.7601C170.051 29.828 170.103 29.8876 170.165 29.9355C170.227 29.9834 170.298 30.0185 170.374 30.039C170.45 30.0595 170.529 30.0649 170.606 30.0548C170.684 30.0448 170.759 30.0196 170.827 29.9805C170.895 29.9415 170.954 29.8895 171.002 29.8275C171.05 29.7654 171.085 29.6946 171.106 29.6189C171.126 29.5433 171.132 29.4644 171.122 29.3867C171.112 29.3089 171.086 29.234 171.047 29.166C170.865 28.8531 170.704 28.5281 170.566 28.1935C168.797 22.5105 163.412 18.543 157.461 18.543C154.595 18.5429 151.801 19.4405 149.471 21.1095C147.142 22.7786 145.393 25.1354 144.472 27.849C144.42 27.9987 144.431 28.1627 144.5 28.3047C144.57 28.4468 144.693 28.5554 144.843 28.6065Z" fill="white"/>
<path d="M152.87 48.5608C147.47 42.5856 145.674 36.6758 145.368 35.5519C144.912 33.885 144.809 32.1412 145.065 30.4321C145.077 30.3544 145.074 30.2752 145.055 30.199C145.036 30.1227 145.002 30.051 144.956 29.9877C144.909 29.9245 144.851 29.8711 144.783 29.8306C144.716 29.7901 144.641 29.7633 144.564 29.7517C144.486 29.7401 144.407 29.7439 144.331 29.763C144.255 29.782 144.183 29.8159 144.12 29.8627C144.057 29.9096 144.004 29.9684 143.963 30.0358C143.923 30.1032 143.896 30.1779 143.885 30.2556C143.604 32.1279 143.717 34.0383 144.217 35.8644C144.534 37.0347 146.403 43.1841 151.985 49.3613C152.267 49.6731 152.556 49.9867 152.846 50.2932C152.955 50.4082 153.105 50.4754 153.263 50.4799C153.421 50.4844 153.575 50.4258 153.69 50.3171C153.805 50.2083 153.872 50.0583 153.877 49.9001C153.881 49.7418 153.823 49.5883 153.714 49.4732C153.43 49.1733 153.146 48.8662 152.87 48.5608Z" fill="white"/>
<path d="M157.685 53.2985C156.925 52.6314 156.173 51.9376 155.452 51.2362C155.338 51.1259 155.186 51.0652 155.028 51.0674C154.869 51.0697 154.718 51.1347 154.608 51.2482C154.498 51.3616 154.437 51.5143 154.439 51.6725C154.442 51.8308 154.507 51.9816 154.62 52.0919C155.356 52.8074 156.122 53.5151 156.898 54.1953C156.956 54.2469 157.025 54.2865 157.099 54.3117C157.173 54.3369 157.252 54.3473 157.33 54.3422C157.408 54.3371 157.485 54.3167 157.555 54.282C157.625 54.2474 157.688 54.1992 157.74 54.1404C157.791 54.0815 157.831 54.013 157.856 53.9388C157.881 53.8646 157.892 53.7861 157.887 53.708C157.881 53.6298 157.861 53.5533 157.826 53.483C157.792 53.4128 157.744 53.35 157.685 53.2983V53.2985Z" fill="white"/>
<path d="M171.022 33.0407C170.872 32.8809 170.722 32.719 170.578 32.5594C169.051 30.8694 168.402 29.2244 168.309 28.9759C167.964 27.8399 167.44 26.7659 166.758 25.7942C166.714 25.7292 166.657 25.6737 166.59 25.6308C166.524 25.588 166.45 25.5587 166.373 25.5447C166.295 25.5306 166.215 25.5321 166.138 25.5491C166.061 25.566 165.988 25.598 165.924 25.6433C165.859 25.6886 165.804 25.7462 165.762 25.8128C165.72 25.8795 165.691 25.9538 165.678 26.0315C165.665 26.1093 165.667 26.1889 165.685 26.2657C165.703 26.3426 165.735 26.4152 165.781 26.4793C166.394 27.3522 166.863 28.3174 167.172 29.3383C167.175 29.3494 167.179 29.3604 167.183 29.3712C167.307 29.7113 168.014 31.5018 169.693 33.3595C169.842 33.5248 169.997 33.6926 170.153 33.8581C170.261 33.9734 170.411 34.0409 170.569 34.0458C170.727 34.0507 170.881 33.9925 170.996 33.8841C171.111 33.7757 171.179 33.626 171.184 33.4678C171.189 33.3096 171.13 33.156 171.022 33.0407H171.022Z" fill="white"/>
<path d="M154.802 22.4781C156.449 22.0295 158.183 22.0056 159.842 22.4088C161.5 22.812 163.03 23.6291 164.288 24.7837C164.405 24.8901 164.559 24.9457 164.717 24.9382C164.875 24.9307 165.024 24.8607 165.13 24.7436C165.237 24.6266 165.293 24.472 165.285 24.3139C165.278 24.1558 165.208 24.0072 165.09 23.9007C163.685 22.6112 161.975 21.6987 160.121 21.2486C158.267 20.7984 156.329 20.8252 154.489 21.3265C148.456 22.9651 144.881 29.2063 146.52 35.2392C146.817 36.2834 147.186 37.3058 147.624 38.2993C147.687 38.4445 147.805 38.5589 147.952 38.6173C148.099 38.6757 148.263 38.6732 148.408 38.6105C148.554 38.5477 148.668 38.4298 148.726 38.2827C148.785 38.1356 148.782 37.9714 148.719 37.8261C148.304 36.8847 147.954 35.9159 147.671 34.9264C146.206 29.5286 149.404 23.9442 154.802 22.4781Z" fill="white"/>
<path d="M160.927 52.9187C158.682 51.097 156.581 49.1056 154.641 46.9621C152.684 44.8026 151.012 42.4013 149.665 39.8168C149.629 39.7467 149.58 39.6843 149.52 39.6333C149.46 39.5823 149.391 39.5437 149.316 39.5197C149.241 39.4957 149.162 39.4867 149.083 39.4933C149.005 39.5 148.929 39.5221 148.859 39.5583C148.789 39.5946 148.727 39.6443 148.676 39.7047C148.626 39.765 148.588 39.8348 148.564 39.9099C148.541 39.985 148.532 40.0641 148.539 40.1425C148.547 40.2209 148.569 40.2971 148.606 40.3667C150 43.0416 151.73 45.527 153.755 47.7621C155.736 49.9511 157.883 51.9848 160.175 53.8451C160.298 53.9449 160.455 53.9917 160.613 53.9754C160.77 53.959 160.915 53.8808 161.014 53.758C161.114 53.6351 161.161 53.4777 161.145 53.3203C161.128 53.1628 161.05 53.0184 160.927 52.9186V52.9187Z" fill="white"/>
<path d="M164.91 30.1017C164.997 30.3543 165.824 32.6371 167.922 34.9589C168.581 35.6881 169.291 36.4127 170.031 37.1127C170.146 37.2215 170.3 37.28 170.458 37.2756C170.536 37.2734 170.613 37.2558 170.685 37.2238C170.756 37.1918 170.821 37.146 170.875 37.0891C170.928 37.0321 170.971 36.9651 170.998 36.8919C171.026 36.8187 171.04 36.7407 171.037 36.6624C171.035 36.5841 171.018 36.5069 170.986 36.4354C170.954 36.3639 170.908 36.2994 170.851 36.2455C170.133 35.5668 169.446 34.8648 168.807 34.1588C166.898 32.0462 166.141 30.0063 166.041 29.724C165.486 27.8778 164.353 26.2587 162.808 25.1052C161.263 23.9517 159.389 23.3246 157.461 23.3164C157.303 23.3164 157.151 23.3793 157.039 23.4912C156.927 23.6031 156.865 23.7548 156.865 23.9131C156.865 24.0713 156.927 24.2231 157.039 24.335C157.151 24.4469 157.303 24.5098 157.461 24.5098C159.134 24.5169 160.761 25.0618 162.1 26.064C163.44 27.0661 164.422 28.4724 164.901 30.0753C164.904 30.0841 164.907 30.0929 164.91 30.1017Z" fill="white"/>
<path d="M153.022 43.0369C153.068 43.1008 153.125 43.1552 153.191 43.197C153.258 43.2388 153.331 43.267 153.409 43.2802C153.486 43.2935 153.565 43.2913 153.641 43.274C153.718 43.2566 153.79 43.2244 153.854 43.1791C153.918 43.1338 153.972 43.0764 154.014 43.0101C154.056 42.9438 154.084 42.8699 154.097 42.7927C154.111 42.7154 154.108 42.6364 154.091 42.5599C154.074 42.4835 154.042 42.4113 153.996 42.3473C151.162 38.3436 150.149 34.9422 149.975 34.301C149.453 32.3696 149.696 30.3112 150.654 28.5548C151.612 26.7984 153.211 25.4794 155.118 24.8727C155.268 24.825 155.394 24.7193 155.467 24.5788C155.54 24.4384 155.554 24.2747 155.507 24.1238C155.459 23.9729 155.353 23.8472 155.213 23.7742C155.072 23.7013 154.909 23.6871 154.758 23.7348C152.558 24.4344 150.712 25.9563 149.607 27.9831C148.501 30.0098 148.22 32.3852 148.823 34.6138C149.081 35.5623 150.145 38.9733 153.022 43.0369Z" fill="white"/>
<path d="M163.558 51.9577C160.983 49.977 158.592 47.7693 156.412 45.3611C156.065 44.9781 155.724 44.5822 155.397 44.1843C155.348 44.1233 155.286 44.0727 155.217 44.0354C155.148 43.998 155.072 43.9748 154.994 43.9669C154.916 43.959 154.837 43.9666 154.761 43.9894C154.686 44.0121 154.616 44.0496 154.555 44.0995C154.495 44.1494 154.444 44.2108 154.407 44.2802C154.37 44.3496 154.348 44.4256 154.34 44.5039C154.333 44.5822 154.341 44.6612 154.364 44.7363C154.387 44.8114 154.425 44.8813 154.475 44.9417C154.814 45.3541 155.167 45.7643 155.526 46.1613C157.755 48.6232 160.2 50.8802 162.832 52.9049C162.894 52.9542 162.966 52.9906 163.042 53.012C163.118 53.0334 163.198 53.0394 163.277 53.0297C163.355 53.02 163.431 52.9947 163.5 52.9553C163.569 52.916 163.629 52.8633 163.677 52.8004C163.725 52.7375 163.76 52.6656 163.78 52.589C163.801 52.5124 163.805 52.4325 163.794 52.3541C163.783 52.2756 163.756 52.2002 163.716 52.1321C163.675 52.0641 163.622 52.0048 163.558 51.9577Z" fill="white"/>
<path d="M170.915 39.5059C169.54 38.3448 168.244 37.0933 167.036 35.76C166.607 35.2848 166.204 34.7866 165.829 34.2677C165.736 34.1402 165.596 34.0546 165.44 34.0299C165.284 34.0051 165.125 34.0431 164.997 34.1356C164.869 34.228 164.783 34.3674 164.758 34.5232C164.732 34.679 164.77 34.8385 164.862 34.9668C165.262 35.5208 165.693 36.0527 166.151 36.5601C167.395 37.933 168.729 39.2214 170.144 40.4169C170.265 40.5182 170.421 40.5675 170.578 40.5541C170.735 40.5406 170.881 40.4654 170.983 40.345C171.085 40.2246 171.135 40.0687 171.122 39.9115C171.109 39.7542 171.035 39.6084 170.915 39.5059H170.915Z" fill="white"/>
<path d="M156.052 27.0846C157.414 26.7145 158.866 26.895 160.095 27.5872C161.324 28.2794 162.232 29.4276 162.621 30.7836C162.623 30.7897 162.625 30.7959 162.627 30.8021C162.674 30.9492 162.942 31.7409 163.551 32.875C163.588 32.9441 163.638 33.0051 163.699 33.0547C163.76 33.1044 163.83 33.1415 163.905 33.1642C163.98 33.1868 164.058 33.1944 164.136 33.1866C164.214 33.1788 164.29 33.1557 164.359 33.1186C164.428 33.0816 164.489 33.0313 164.539 32.9706C164.588 32.91 164.626 32.8401 164.648 32.7651C164.671 32.69 164.678 32.6113 164.671 32.5333C164.663 32.4553 164.64 32.3797 164.603 32.3106C164.273 31.7124 163.993 31.088 163.765 30.4437C163.285 28.7795 162.166 27.3727 160.653 26.5298C159.14 25.6869 157.355 25.4763 155.687 25.944C154.019 26.4116 152.604 27.5196 151.75 29.0263C150.895 30.5331 150.671 32.3165 151.126 33.9878C151.369 34.8818 152.808 39.5931 157.297 44.5605C158.258 45.6232 159.28 46.6644 160.335 47.6553C160.45 47.7636 160.604 47.8217 160.762 47.8167C160.92 47.8117 161.07 47.7441 161.178 47.6287C161.286 47.5134 161.345 47.3597 161.34 47.2015C161.335 47.0434 161.267 46.8936 161.152 46.7853C160.12 45.8167 159.121 44.7989 158.183 43.7603C153.876 38.9943 152.508 34.5227 152.278 33.6748C151.906 32.3004 152.095 30.8347 152.802 29.5992C153.51 28.3638 154.679 27.4595 156.052 27.0846Z" fill="white"/>
<path d="M165.733 50.6083C164.809 49.9313 163.868 49.1837 162.936 48.3861C162.815 48.2858 162.66 48.2369 162.504 48.2502C162.348 48.2634 162.203 48.3377 162.101 48.4569C161.999 48.576 161.948 48.7306 161.959 48.887C161.97 49.0435 162.043 49.1893 162.16 49.2928C163.115 50.1097 164.079 50.8761 165.027 51.5708C165.155 51.6634 165.314 51.7016 165.47 51.6771C165.626 51.6527 165.766 51.5676 165.859 51.4404C165.952 51.3132 165.991 51.1543 165.967 50.9983C165.944 50.8424 165.859 50.7022 165.733 50.6083H165.733Z" fill="white"/>
<path d="M170.682 42.3904C168.735 40.8733 166.923 39.1902 165.266 37.3601C162.466 34.2614 161.536 31.3143 161.48 31.1322C161.18 30.0692 160.472 29.1681 159.509 28.6262C158.547 28.0843 157.409 27.9456 156.345 28.2405C155.28 28.5355 154.376 29.24 153.83 30.1999C153.284 31.1599 153.14 32.2971 153.43 33.3628C153.451 33.4412 153.499 33.609 153.578 33.8519C153.628 34.0015 153.735 34.1254 153.876 34.1964C154.017 34.2674 154.18 34.2797 154.33 34.2306C154.48 34.1816 154.604 34.0752 154.676 33.9347C154.748 33.7942 154.761 33.6311 154.712 33.4809C154.641 33.2632 154.6 33.1174 154.581 33.0499C154.373 32.288 154.476 31.4746 154.866 30.7882C155.257 30.1017 155.904 29.5981 156.665 29.3878C157.426 29.1775 158.24 29.2777 158.928 29.6664C159.615 30.055 160.121 30.7005 160.333 31.4612C160.334 31.4649 160.335 31.4687 160.336 31.4723C160.377 31.608 161.374 34.8326 164.381 38.1602C166.084 40.0423 167.948 41.7731 169.951 43.3334C170.013 43.3814 170.083 43.4168 170.159 43.4375C170.235 43.4581 170.314 43.4637 170.391 43.4539C170.469 43.4441 170.544 43.4191 170.612 43.3802C170.68 43.3414 170.74 43.2896 170.788 43.2277C170.836 43.1657 170.871 43.095 170.892 43.0194C170.913 42.9438 170.918 42.8649 170.909 42.7871C170.899 42.7094 170.874 42.6343 170.835 42.5663C170.796 42.4982 170.744 42.4384 170.682 42.3904Z" fill="white"/>
<path d="M167.523 48.9596C166.031 47.8966 163.062 45.5998 159.953 42.1597C158.181 40.2095 156.706 38.0091 155.576 35.6292C155.543 35.5576 155.496 35.4933 155.438 35.4398C155.381 35.3863 155.313 35.3449 155.239 35.3177C155.165 35.2906 155.086 35.2784 155.008 35.2818C154.929 35.2852 154.852 35.3041 154.78 35.3375C154.709 35.3709 154.645 35.4181 154.592 35.4763C154.539 35.5345 154.498 35.6027 154.472 35.6768C154.445 35.751 154.433 35.8296 154.437 35.9083C154.441 35.9869 154.461 36.064 154.495 36.135C155.676 38.622 157.217 40.9215 159.068 42.9596C162.252 46.4836 165.298 48.8403 166.831 49.9315C166.96 50.0233 167.12 50.0601 167.276 50.0339C167.432 50.0076 167.571 49.9205 167.663 49.7916C167.755 49.6627 167.792 49.5026 167.765 49.3465C167.739 49.1904 167.652 49.0512 167.523 48.9594L167.523 48.9596Z" fill="white"/>
<path d="M168.96 47.0561C167.546 46.0559 164.726 43.8822 161.724 40.5605C158.007 36.4476 156.928 32.5864 156.884 32.4241C156.842 32.2714 156.863 32.1085 156.942 31.9711C157.021 31.8338 157.15 31.7333 157.303 31.6917C157.456 31.6502 157.619 31.671 157.756 31.7496C157.894 31.8282 157.994 31.9582 158.036 32.1109C158.046 32.1482 159.108 35.8856 162.609 39.7602C162.907 40.0896 163.216 40.4212 163.527 40.7458C163.582 40.803 163.646 40.849 163.718 40.881C163.79 40.9131 163.868 40.9305 163.947 40.9325C164.025 40.9344 164.104 40.9207 164.177 40.8922C164.251 40.8637 164.318 40.8209 164.374 40.7664C164.431 40.7119 164.477 40.6466 164.508 40.5744C164.54 40.5022 164.556 40.4245 164.558 40.3458C164.559 40.267 164.545 40.1888 164.516 40.1156C164.487 40.0425 164.443 39.9757 164.388 39.9194C164.085 39.6033 163.784 39.2806 163.495 38.96C160.213 35.3284 159.195 31.8258 159.186 31.7941C159.124 31.5673 159.018 31.355 158.874 31.1692C158.73 30.9834 158.551 30.8277 158.347 30.7112C158.143 30.5946 157.918 30.5194 157.684 30.4898C157.451 30.4602 157.215 30.4769 156.988 30.5388C156.761 30.6007 156.549 30.7067 156.363 30.8507C156.177 30.9947 156.021 31.1739 155.905 31.3781C155.788 31.5822 155.713 31.8073 155.683 32.0405C155.654 32.2737 155.67 32.5105 155.732 32.7373C155.78 32.9109 156.932 37.0387 160.838 41.3609C163.917 44.7678 166.817 47.0021 168.271 48.0306C168.335 48.0768 168.407 48.1098 168.484 48.1278C168.561 48.1458 168.64 48.1484 168.718 48.1355C168.796 48.1225 168.87 48.0943 168.937 48.0524C169.004 48.0105 169.062 47.9558 169.107 47.8914C169.153 47.8271 169.185 47.7543 169.203 47.6774C169.22 47.6004 169.222 47.5208 169.208 47.4432C169.194 47.3655 169.165 47.2913 169.123 47.2249C169.08 47.1586 169.025 47.1012 168.96 47.0564V47.0561Z" fill="white"/>
<path d="M170.047 44.9C169.706 44.6519 169.348 44.3803 168.983 44.0926C168.012 43.3278 167.039 42.4891 166.091 41.5995C166.034 41.5451 165.967 41.5026 165.893 41.4743C165.819 41.446 165.741 41.4326 165.662 41.4348C165.584 41.437 165.506 41.4548 165.434 41.4871C165.362 41.5194 165.298 41.5656 165.244 41.6231C165.19 41.6805 165.148 41.7481 165.12 41.8219C165.093 41.8956 165.08 41.9741 165.083 42.0529C165.086 42.1316 165.104 42.209 165.137 42.2806C165.17 42.3521 165.217 42.4165 165.274 42.4699C166.248 43.3827 167.247 44.244 168.244 45.03C168.621 45.327 168.991 45.608 169.345 45.8653C169.408 45.9123 169.48 45.9462 169.556 45.9652C169.633 45.9842 169.712 45.9878 169.79 45.9759C169.868 45.964 169.943 45.9368 170.01 45.8958C170.078 45.8548 170.136 45.8009 170.183 45.7371C170.229 45.6734 170.262 45.6011 170.281 45.5244C170.299 45.4477 170.302 45.3682 170.289 45.2904C170.276 45.2126 170.249 45.138 170.207 45.0711C170.165 45.0041 170.111 44.9461 170.047 44.9003V44.9Z" fill="white"/>
<path d="M78.7702 25.6311H28.2374C25.6224 25.6311 23.5 23.5088 23.5 20.8937C23.5 18.2786 25.6224 16.1562 28.2374 16.1562H78.7702C81.3852 16.1562 83.5076 18.2786 83.5076 20.8937C83.5076 23.5088 81.3852 25.6311 78.7702 25.6311Z" fill="white"/>
<path d="M78.7702 44.5794H28.2374C25.6224 44.5794 23.5 42.457 23.5 39.8419C23.5 37.2269 25.6224 35.1045 28.2374 35.1045H78.7702C81.3852 35.1045 83.5076 37.2269 83.5076 39.8419C83.5076 42.457 81.3852 44.5794 78.7702 44.5794Z" fill="white"/>
<path d="M162.489 78.5061H111.956C109.341 78.5061 107.219 76.3838 107.219 73.7687C107.219 71.1536 109.341 69.0312 111.956 69.0312H162.489C165.104 69.0312 167.226 71.1536 167.226 73.7687C167.226 76.3838 165.104 78.5061 162.489 78.5061Z" fill="white"/>
<path d="M80.2381 65.1666L77.5543 63.2745L77.5171 59.9912C77.5149 59.7995 77.4556 59.6129 77.3466 59.4553C77.2376 59.2977 77.084 59.1762 76.9055 59.1065L73.8473 57.9123L73.0283 54.7329C72.9805 54.5473 72.8783 54.3803 72.7348 54.2532C72.5913 54.1261 72.4132 54.0448 72.2231 54.0197L68.969 53.5879L67.4156 50.6954C67.3246 50.5267 67.1855 50.3889 67.0158 50.2997C66.8461 50.2105 66.6537 50.1739 66.4632 50.1946L63.1991 50.5552L60.9951 48.1201C60.8664 47.9778 60.6981 47.8773 60.5117 47.8316C60.3254 47.7858 60.1296 47.7969 59.9496 47.8634L56.8689 48.9989L54.1467 47.1642C53.9879 47.0572 53.8008 47 53.6094 47C53.4179 47 53.2308 47.0572 53.0721 47.1642L50.3495 48.9989L47.2685 47.8633C47.0885 47.7969 46.8928 47.7859 46.7064 47.8316C46.5201 47.8774 46.3518 47.9779 46.223 48.1201L44.0197 50.5547L40.7557 50.1948C40.5651 50.1736 40.3725 50.21 40.2028 50.2993C40.0331 50.3885 39.8939 50.5265 39.8033 50.6955L38.2499 53.5881L34.9948 54.0198C34.8047 54.0449 34.6265 54.1262 34.4831 54.2534C34.3396 54.3805 34.2374 54.5476 34.1896 54.7332L33.3708 57.9126L30.3125 59.1067C30.134 59.1764 29.9804 59.2979 29.8715 59.4555C29.7625 59.6131 29.7031 59.7997 29.701 59.9913L29.6637 63.2746L26.9805 65.1667C26.8237 65.2772 26.7036 65.4321 26.6356 65.6115C26.5676 65.7908 26.5547 65.9864 26.5987 66.173L27.3522 69.3696L25.2032 71.8516C25.0778 71.9965 24.9986 72.1756 24.9756 72.3658C24.9527 72.556 24.9872 72.7487 25.0746 72.9193L26.572 75.8414L25.0746 78.763C24.9872 78.9335 24.9527 79.1262 24.9756 79.3164C24.9986 79.5067 25.0778 79.6857 25.2032 79.8306L27.3518 82.3136L26.5984 85.5101C26.5544 85.6968 26.5673 85.8924 26.6353 86.0717C26.7034 86.251 26.8235 86.4058 26.9803 86.5163L29.6641 88.4084L29.7013 91.6918C29.7035 91.8834 29.7628 92.07 29.8718 92.2276C29.9808 92.3853 30.1344 92.5068 30.3129 92.5765L33.3715 93.771L34.1905 96.9504C34.2383 97.136 34.3405 97.303 34.4839 97.4301C34.6274 97.5572 34.8056 97.6385 34.9956 97.6636L38.2502 98.0954L39.8037 100.988C39.8946 101.157 40.0338 101.294 40.2034 101.384C40.3731 101.473 40.5655 101.509 40.756 101.489L44.0201 101.129L46.2241 103.563C46.3529 103.705 46.5212 103.806 46.7075 103.852C46.8939 103.897 47.0896 103.886 47.2696 103.82L50.3503 102.684L53.0729 104.519C53.2317 104.626 53.4188 104.683 53.6102 104.683C53.8017 104.683 53.9887 104.626 54.1475 104.519L56.8701 102.684L59.9511 103.82C60.1311 103.886 60.3268 103.897 60.5131 103.851C60.6994 103.806 60.8677 103.705 60.9966 103.563L63.2005 101.129L66.4645 101.489C66.6551 101.51 66.8476 101.474 67.0173 101.384C67.187 101.295 67.3262 101.157 67.4169 100.988L68.9703 98.0958L72.2251 97.6641C72.4151 97.639 72.5933 97.5577 72.7368 97.4305C72.8802 97.3034 72.9824 97.1363 73.0302 96.9507L73.8491 93.7713L76.9073 92.5772C77.0858 92.5075 77.2394 92.386 77.3484 92.2284C77.4573 92.0708 77.5167 91.8842 77.5189 91.6926L77.5561 88.4093L80.2399 86.5172C80.3967 86.4067 80.5168 86.2518 80.5848 86.0724C80.6529 85.8931 80.6657 85.6975 80.6217 85.5109L79.8682 82.3143L82.0156 79.8311C82.141 79.6862 82.2202 79.5071 82.2431 79.3169C82.266 79.1267 82.2316 78.934 82.1442 78.7634L80.6467 75.8414L82.1442 72.9197C82.2316 72.7492 82.266 72.5565 82.2431 72.3663C82.2202 72.176 82.141 71.997 82.0156 71.8521L79.8669 69.3691L80.6204 66.1726C80.6643 65.9859 80.6513 65.7904 80.5832 65.6111C80.5151 65.4318 80.3949 65.277 80.2381 65.1666ZM80.1373 72.6199L78.711 75.403C78.6413 75.5387 78.6049 75.689 78.6049 75.8416C78.6049 75.9941 78.6413 76.1445 78.711 76.2802L80.1373 79.0633L78.0913 81.4272C77.9917 81.5422 77.9209 81.6792 77.8845 81.8269C77.8482 81.9746 77.8475 82.1289 77.8824 82.2769L78.5996 85.3192L76.0447 87.1204C75.9204 87.2081 75.8186 87.3241 75.7478 87.4588C75.677 87.5935 75.6392 87.743 75.6375 87.8952L75.6014 91.0213L72.6888 92.1586C72.5469 92.2141 72.4202 92.3024 72.3192 92.4165C72.2181 92.5305 72.1456 92.6669 72.1077 92.8144L71.3276 95.8427L68.228 96.2538C68.077 96.2738 67.9328 96.3294 67.8074 96.416C67.6821 96.5027 67.5791 96.6178 67.507 96.7521L66.0289 99.5056L62.9217 99.1628C62.7706 99.1463 62.6176 99.1658 62.4754 99.2197C62.3332 99.2737 62.2058 99.3606 62.1037 99.4733L60.0059 101.791L57.0725 100.709C56.9296 100.657 56.7762 100.639 56.625 100.657C56.4738 100.675 56.3291 100.729 56.2028 100.814L53.6094 102.562L51.0159 100.814C50.8897 100.729 50.7449 100.675 50.5937 100.657C50.4425 100.639 50.2892 100.657 50.1463 100.71L47.2131 101.791L45.1153 99.4737C45.0131 99.3611 44.8857 99.2742 44.7436 99.2202C44.6014 99.1663 44.4484 99.1468 44.2973 99.1633L41.19 99.5061L39.7108 96.7512C39.6387 96.617 39.5357 96.5018 39.4103 96.4152C39.285 96.3286 39.1408 96.273 38.9898 96.253L35.8903 95.8419L35.1101 92.8136C35.0721 92.6661 34.9996 92.5297 34.8986 92.4157C34.7975 92.3017 34.6709 92.2133 34.529 92.1579L31.6164 91.0206L31.5819 87.8946C31.5802 87.7424 31.5424 87.5928 31.4716 87.4581C31.4008 87.3234 31.299 87.2074 31.1746 87.1197L28.6198 85.3186L29.3368 82.2762C29.3718 82.1282 29.3711 81.9739 29.3347 81.8262C29.2984 81.6785 29.2276 81.5415 29.128 81.4266L27.0815 79.0628L28.5078 76.2797C28.5775 76.144 28.6138 75.9937 28.6138 75.8411C28.6138 75.6886 28.5775 75.5382 28.5078 75.4025L27.0815 72.6199L29.1275 70.256C29.2271 70.141 29.2979 70.004 29.3342 69.8563C29.3705 69.7086 29.3712 69.5543 29.3364 69.4063L28.6192 66.364L31.174 64.5627C31.2984 64.4751 31.4001 64.3591 31.4709 64.2244C31.5417 64.0897 31.5796 63.9402 31.5813 63.788L31.6173 60.6618L34.5299 59.5245C34.6718 59.4691 34.7985 59.3807 34.8996 59.2667C35.0006 59.1527 35.0731 59.0163 35.1111 58.8688L35.8911 55.8404L38.9907 55.4293C39.1418 55.4094 39.2859 55.3538 39.4113 55.2672C39.5367 55.1805 39.6397 55.0653 39.7117 54.9311L41.1899 52.1771L44.297 52.5198C44.4482 52.5363 44.6011 52.5168 44.7433 52.4628C44.8855 52.4089 45.0128 52.322 45.115 52.2094L47.2129 49.8919L50.1463 50.9735C50.2892 51.026 50.4425 51.0439 50.5937 51.0257C50.7449 51.0074 50.8896 50.9536 51.0159 50.8686L53.6094 49.1207L56.2028 50.8683C56.3291 50.9534 56.4738 51.0073 56.625 51.0255C56.7762 51.0437 56.9296 51.0258 57.0725 50.9731L60.0056 49.8916L62.1035 52.209C62.2057 52.3216 62.333 52.4084 62.4752 52.4624C62.6174 52.5163 62.7703 52.5359 62.9215 52.5194L66.0288 52.1766L67.508 54.9315C67.5801 55.0657 67.683 55.1809 67.8084 55.2675C67.9338 55.3541 68.0779 55.4097 68.229 55.4297L71.3285 55.8408L72.1086 58.8691C72.1466 59.0166 72.2191 59.153 72.3202 59.267C72.4212 59.381 72.5479 59.4694 72.6898 59.5248L75.6024 60.6621L75.6369 63.7881C75.6386 63.9403 75.6764 64.0899 75.7472 64.2246C75.818 64.3593 75.9198 64.4753 76.0441 64.563L78.599 66.3641L77.8819 69.4065C77.847 69.5546 77.8477 69.7088 77.884 69.8565C77.9203 70.0042 77.9912 70.1412 78.0908 70.2561L80.1373 72.6199Z" fill="white"/>
<path d="M70.9142 75.8411V75.8815H72.8369V75.8411C72.8369 75.1704 72.8023 74.5001 72.7333 73.833L70.8209 74.0315C70.883 74.6327 70.9141 75.2367 70.9142 75.8411Z" fill="white"/>
<path d="M37.7877 82.8613L36.0306 83.6424C36.3036 84.2559 36.6085 84.8546 36.9439 85.4362L38.6095 84.4756C38.3076 83.9522 38.0333 83.4134 37.7877 82.8613Z" fill="white"/>
<path d="M40.7245 90.1138C41.2225 90.5635 41.7435 90.9871 42.2855 91.3827L43.4189 89.8301C42.931 89.4738 42.4619 89.0924 42.0136 88.6875L40.7245 90.1138Z" fill="white"/>
<path d="M66.4719 64.2644C66.8763 64.7136 67.257 65.1834 67.6127 65.672L69.1675 64.5407C68.7725 63.9985 68.3497 63.4771 67.9009 62.9785L66.4719 64.2644Z" fill="white"/>
<path d="M47.6387 94.1238C48.2771 94.3319 48.9259 94.5064 49.5826 94.6466L49.9835 92.7661C49.3929 92.6401 48.8094 92.4831 48.2353 92.2959L47.6387 94.1238Z" fill="white"/>
<path d="M70.5397 72.2433L72.4209 71.8454C72.2818 71.1884 72.1084 70.5392 71.9013 69.9004L70.0729 70.4936C70.2591 71.0682 70.4149 71.6522 70.5397 72.2433Z" fill="white"/>
<path d="M69.4241 68.8038L71.1802 68.021C70.9068 67.4076 70.6014 66.809 70.2653 66.2275L68.601 67.1904C68.9033 67.7134 69.1781 68.252 69.4241 68.8038Z" fill="white"/>
<path d="M51.5696 94.9627C52.2366 95.0328 52.9068 95.0685 53.5775 95.0697L53.5807 93.1469C52.9763 93.146 52.3725 93.1139 51.7715 93.0508L51.5696 94.9627Z" fill="white"/>
<path d="M39.5948 85.9951L38.0387 87.1247C38.4329 87.6678 38.8552 88.19 39.3037 88.6891L40.7338 87.4039C40.33 86.9543 39.9498 86.4841 39.5948 85.9951Z" fill="white"/>
<path d="M66.4786 61.5546C65.9801 61.1053 65.4587 60.6822 64.9163 60.2871L63.7848 61.8417C64.2729 62.1973 64.7422 62.5781 65.1908 62.9826L66.4786 61.5546Z" fill="white"/>
<path d="M63.2303 59.1906C62.6495 58.8546 62.0515 58.5491 61.4388 58.2754L60.6549 60.0311C61.2062 60.2774 61.7443 60.5524 62.267 60.8548L63.2303 59.1906Z" fill="white"/>
<path d="M48.2711 59.3759L47.6787 57.5469C47.0398 57.7541 46.4123 57.9948 45.7987 58.2679L46.5805 60.0245C47.1323 59.7789 47.6966 59.5624 48.2711 59.3759Z" fill="white"/>
<path d="M51.8095 58.6285L51.6121 56.7158C50.9446 56.7849 50.281 56.8887 49.6243 57.0268L50.0208 58.9084C50.6117 58.7838 51.2088 58.6904 51.8095 58.6285Z" fill="white"/>
<path d="M55.6282 56.7189C54.961 56.6496 54.2907 56.6146 53.62 56.6143L53.619 58.537C54.2233 58.5374 54.8272 58.5689 55.4282 58.6313L55.6282 56.7189Z" fill="white"/>
<path d="M59.56 57.552C58.9215 57.3446 58.2726 57.1708 57.6159 57.0312L57.2167 58.9121C57.8074 59.0377 58.3911 59.1941 58.9654 59.3807L59.56 57.552Z" fill="white"/>
<path d="M67.5916 86.0394L69.1442 87.1738C69.5399 86.6319 69.9072 86.0698 70.2445 85.4897L68.5822 84.5234C68.2785 85.0456 67.9479 85.5516 67.5916 86.0394Z" fill="white"/>
<path d="M62.2351 90.8474L63.1952 92.5134C63.7766 92.1781 64.3402 91.8128 64.8837 91.4189L63.7553 89.8623C63.266 90.2168 62.7586 90.5456 62.2351 90.8474Z" fill="white"/>
<path d="M43.9702 92.4809C44.5507 92.8177 45.1483 93.1239 45.7608 93.3983L46.5466 91.6438C45.9955 91.397 45.4577 91.1214 44.9354 90.8184L43.9702 92.4809Z" fill="white"/>
<path d="M65.1644 88.7245L66.4488 90.1546C66.9481 89.7064 67.4237 89.2325 67.8738 88.735L66.4477 87.4453C66.0424 87.8937 65.6141 88.3206 65.1644 88.7245Z" fill="white"/>
<path d="M69.4081 82.9128L71.1626 83.6993C71.4372 83.0866 71.6794 82.46 71.8882 81.8219L70.0609 81.2246C69.8729 81.7984 69.655 82.3619 69.4081 82.9128Z" fill="white"/>
<path d="M58.9294 92.3122L59.5197 94.142C60.1589 93.9357 60.7867 93.6959 61.4007 93.4235L60.6207 91.666C60.0687 91.9109 59.5042 92.1266 58.9294 92.3122Z" fill="white"/>
<path d="M36.683 72.2245L34.8025 71.8252C34.6632 72.4817 34.5583 73.1451 34.4882 73.8126L36.4003 74.0133C36.4633 73.4125 36.5576 72.8154 36.683 72.2245Z" fill="white"/>
<path d="M36.3048 75.8415V75.8213H34.3821V75.8415C34.3821 76.5051 34.416 77.1683 34.4836 77.8285L36.3963 77.6318C36.3354 77.037 36.3048 76.4394 36.3048 75.8415Z" fill="white"/>
<path d="M55.3903 93.0562L55.5855 94.9691C56.2531 94.9007 56.9167 94.7976 57.5735 94.6602L57.1795 92.7783C56.5883 92.902 55.9911 92.9947 55.3903 93.0562Z" fill="white"/>
<path d="M37.8029 68.7875L36.0474 68.0029C35.7736 68.616 35.5322 69.2429 35.3241 69.8812L37.1523 70.4767C37.3395 69.9026 37.5566 69.3388 37.8029 68.7875Z" fill="white"/>
<path d="M36.6752 79.4199L34.7936 79.8156C34.9319 80.4728 35.1047 81.1223 35.311 81.7614L37.1407 81.1699C36.9549 80.5951 36.7996 80.011 36.6752 79.4199Z" fill="white"/>
<path d="M70.5317 79.4763L72.4121 79.8784C72.5522 79.2219 72.6579 78.5587 72.7287 77.8912L70.8167 77.6885C70.7529 78.289 70.6578 78.8857 70.5317 79.4763Z" fill="white"/>
<path d="M42.0401 62.9723L40.7542 61.543C40.2556 61.9919 39.7804 62.4663 39.3308 62.9644L40.7583 64.2524C41.1632 63.8039 41.5911 63.3766 42.0401 62.9723Z" fill="white"/>
<path d="M39.6161 65.6591L38.0622 64.5264C37.6671 65.0687 37.3004 65.6312 36.9636 66.2115L38.627 67.176C38.9301 66.6536 39.2602 66.1472 39.6161 65.6591Z" fill="white"/>
<path d="M44.9671 60.8458L44.0057 59.1807C43.4245 59.5167 42.8612 59.8826 42.318 60.2771L43.4483 61.8326C43.937 61.4774 44.444 61.148 44.9671 60.8458Z" fill="white"/>
<path d="M68.9915 75.842C68.9915 72.7997 68.0894 69.8257 66.3992 67.2962C64.709 64.7666 62.3067 62.7951 59.496 61.6309C56.6853 60.4666 53.5925 60.162 50.6087 60.7555C47.6248 61.349 44.884 62.814 42.7328 64.9652C40.5816 67.1165 39.1166 69.8573 38.5231 72.8411C37.9296 75.8249 38.2342 78.9177 39.3984 81.7284C40.5627 84.5391 42.5342 86.9414 45.0638 88.6316C47.5933 90.3218 50.5673 91.2239 53.6095 91.2239C57.6877 91.2193 61.5974 89.5972 64.4811 86.7135C67.3648 83.8299 68.9869 79.9201 68.9915 75.842ZM53.6095 89.3012C50.9475 89.3012 48.3453 88.5118 46.132 87.0329C43.9186 85.554 42.1935 83.4519 41.1748 80.9926C40.1561 78.5332 39.8896 75.827 40.4089 73.2162C40.9282 70.6054 42.2101 68.2071 44.0924 66.3248C45.9747 64.4425 48.3729 63.1607 50.9838 62.6413C53.5946 62.122 56.3008 62.3885 58.7602 63.4072C61.2195 64.4259 63.3216 66.151 64.8005 68.3644C66.2794 70.5778 67.0688 73.18 67.0688 75.842C67.0647 79.4103 65.6454 82.8314 63.1222 85.3546C60.599 87.8778 57.1779 89.2972 53.6095 89.3012Z" fill="white"/>
<path d="M62.3783 69.9565C61.8369 69.4165 61.1035 69.1133 60.3389 69.1133C59.5742 69.1133 58.8408 69.4165 58.2994 69.9565L49.7638 78.4923L47.9577 76.6862C47.4168 76.1453 46.6832 75.8414 45.9183 75.8414C45.1533 75.8414 44.4197 76.1453 43.8788 76.6862C43.3379 77.227 43.0341 77.9607 43.0341 78.7256C43.0341 79.4905 43.3379 80.2241 43.8788 80.765L47.7243 84.6105C47.9921 84.8784 48.3101 85.0908 48.66 85.2358C49.0099 85.3807 49.385 85.4553 49.7638 85.4553C50.1425 85.4553 50.5176 85.3807 50.8675 85.2358C51.2174 85.0908 51.5354 84.8784 51.8032 84.6105L62.3783 74.0354C62.6461 73.7676 62.8586 73.4496 63.0035 73.0997C63.1485 72.7498 63.2231 72.3747 63.2231 71.996C63.2231 71.6172 63.1485 71.2422 63.0035 70.8922C62.8586 70.5423 62.6461 70.2244 62.3783 69.9565ZM61.0186 72.6757L50.4434 83.2508C50.2632 83.431 50.0187 83.5323 49.7638 83.5323C49.5088 83.5323 49.2643 83.431 49.0841 83.2508L45.2386 79.4053C45.0616 79.2243 44.9632 78.9808 44.9646 78.7277C44.9661 78.4746 45.0673 78.2323 45.2462 78.0533C45.4252 77.8744 45.6676 77.7732 45.9207 77.7718C46.1738 77.7704 46.4172 77.8689 46.5982 78.0459L49.0842 80.5317C49.2645 80.7119 49.509 80.8132 49.7639 80.8132C50.0189 80.8132 50.2634 80.7119 50.4437 80.5317L59.6593 71.3163C59.748 71.2245 59.8541 71.1512 59.9714 71.1008C60.0887 71.0504 60.2148 71.0239 60.3425 71.0228C60.4701 71.0217 60.5967 71.046 60.7148 71.0944C60.833 71.1427 60.9403 71.2141 61.0306 71.3044C61.1209 71.3946 61.1923 71.502 61.2406 71.6201C61.2889 71.7383 61.3133 71.8649 61.3121 71.9925C61.311 72.1202 61.2845 72.2463 61.2341 72.3636C61.1837 72.4809 61.1105 72.587 61.0187 72.6757H61.0186Z" fill="white"/>
<path d="M53.6095 52.7686C40.887 52.7686 30.5365 63.1191 30.5365 75.8415C30.5365 88.564 40.887 98.9145 53.6095 98.9145C66.332 98.9145 76.6825 88.564 76.6825 75.8415C76.6825 63.1191 66.332 52.7686 53.6095 52.7686ZM53.6095 96.9918C41.9472 96.9918 32.4592 87.5039 32.4592 75.8415C32.4592 64.1792 41.9472 54.6913 53.6095 54.6913C65.2718 54.6913 74.7597 64.1792 74.7597 75.8415C74.7597 87.5039 65.2718 96.9918 53.6095 96.9918Z" fill="white"/>
</svg>
