<svg width="30" height="29" viewBox="0 0 30 29" fill="none" xmlns="http://www.w3.org/2000/svg">
<path fill-rule="evenodd" clip-rule="evenodd" d="M15.4106 0C13.8266 0 12.5425 1.42377 12.5425 3.18002V8.35183C12.5425 10.1081 13.8266 11.5318 15.4106 11.5318H18.8772V12.7955C18.8772 13.1252 19.0534 13.4235 19.326 13.5552C19.5985 13.687 19.9156 13.6271 20.1334 13.4028L21.9502 11.5318H26.4701C28.054 11.5318 29.3381 10.1081 29.3381 8.35183V3.18002C29.3381 1.42369 28.054 0 26.4701 0H15.4106ZM14.0375 3.18002C14.0375 2.33926 14.6523 1.65765 15.4106 1.65765H26.4701C27.2284 1.65765 27.8431 2.33921 27.8431 3.18002V8.35183C27.8431 9.19259 27.2283 9.8742 26.4701 9.8742H21.6567C21.4679 9.8742 21.2862 9.95333 21.148 10.0957L20.3723 10.8945V10.703C20.3723 10.2453 20.0376 9.8742 19.6247 9.8742H15.4106C14.6523 9.8742 14.0375 9.19259 14.0375 8.35183V3.18002ZM13.444 18.0133C17.843 18.0133 21.4546 21.7537 21.833 26.5223H16.2562C16.2595 26.4917 16.2623 26.461 16.2648 26.4302L17.1331 21.4245C17.1967 21.0583 17.1498 20.679 16.9998 20.3453C16.8497 20.0116 16.6047 19.7418 16.3028 19.5777C15.9974 19.4118 15.651 19.3633 15.318 19.4398C14.9852 19.5163 14.6849 19.7134 14.4642 20L11.3917 23.9884C10.9087 24.5513 10.6122 25.3129 10.6122 26.1515C10.6122 26.2768 10.6188 26.4006 10.6317 26.5223H5.05414C5.43247 21.7537 9.0441 18.0133 13.444 18.0133ZM14.7386 26.5223H12.1491C12.1217 26.4043 12.1072 26.2801 12.1072 26.1515C12.1072 25.3332 12.7056 24.6697 13.4444 24.6697C14.1821 24.6697 14.7808 25.333 14.7808 26.1515L14.7808 26.1524C14.7808 26.1985 14.7789 26.2445 14.7751 26.2902M11.6522 28.18H4.2739L4.2711 28.18H0.913524C0.714085 28.18 0.522915 28.0916 0.382538 27.9345C0.242161 27.7775 0.164219 27.5647 0.166047 27.3436C0.190656 24.3676 1.01078 21.6008 2.40084 19.2932C2.63013 18.9125 3.09431 18.81 3.43762 19.0643C3.78093 19.3185 3.87335 19.8332 3.64406 20.2138C2.54157 22.0441 1.84329 24.1984 1.69167 26.5223H3.55415C3.91795 21.1106 7.81509 16.7897 12.6966 16.3864V14.4062C10.5564 14.5608 8.57314 15.3469 6.89459 16.5978C6.55196 16.8532 6.08751 16.7522 5.85721 16.3723C5.62691 15.9924 5.71797 15.4774 6.0606 15.2221C8.18036 13.6423 10.7328 12.7204 13.4774 12.7204C20.7882 12.7204 26.7218 19.2546 26.7888 27.3436C26.7906 27.5647 26.7126 27.7775 26.5723 27.9345C26.4319 28.0916 26.2407 28.18 26.0413 28.18H22.616L22.6132 28.18H15.2358C15.2323 28.1801 15.2288 28.1801 15.2254 28.1801H11.6626C11.6591 28.1801 11.6556 28.1801 11.6522 28.18ZM15.2156 23.7022C14.882 23.4052 14.4864 23.1902 14.0538 23.085L15.6014 21.0762C15.6066 21.0694 15.6137 21.0647 15.6215 21.0629C15.6294 21.0611 15.6376 21.0623 15.6448 21.0662C15.6521 21.0702 15.6582 21.0768 15.6618 21.0849C15.6655 21.093 15.6666 21.1024 15.665 21.1113L15.2156 23.7022ZM22.3064 22.4124C20.7807 19.0533 17.7472 16.6803 14.1916 16.3865V14.4016C18.5273 14.6882 22.2333 17.5668 24.0667 21.6593L22.3064 22.4124ZM22.8758 23.9456L24.6455 23.1884C24.9757 24.2449 25.1875 25.3627 25.2631 26.5223H23.333C23.2729 25.6295 23.1167 24.7664 22.8758 23.9456ZM16.8033 2.62158C17.2161 2.62158 17.5508 2.99266 17.5508 3.45041V3.92234L18.555 2.8989C18.8589 2.58912 19.3318 2.6112 19.6112 2.94821C19.8906 3.28521 19.8706 3.80953 19.5667 4.1193L18.0279 5.68765L19.7288 7.50723C20.0259 7.82505 20.0344 8.34975 19.7477 8.67918C19.4611 9.0086 18.9879 9.018 18.6908 8.70018L17.5508 7.48067V8.1037C17.5508 8.56145 17.2161 8.93253 16.8033 8.93253C16.3904 8.93253 16.0558 8.56145 16.0558 8.1037V3.45041C16.0558 2.99266 16.3904 2.62158 16.8033 2.62158ZM20.312 3.45041C20.312 2.99266 20.6467 2.62158 21.0595 2.62158H22.2281C23.2761 2.62158 24.1831 3.55989 24.1831 4.76357C24.1831 5.96724 23.2761 6.90556 22.2281 6.90556C22.1257 6.90556 21.9708 6.90615 21.807 6.90695V8.1037C21.807 8.56145 21.4723 8.93253 21.0595 8.93253C20.6467 8.93253 20.312 8.56145 20.312 8.1037V3.45041ZM21.8112 5.24926C21.9723 5.24848 22.1252 5.2479 22.2281 5.2479C22.4882 5.2479 22.6881 5.01034 22.6881 4.76357C22.6881 4.51679 22.4882 4.27923 22.2281 4.27923H21.8092C21.8096 4.47729 21.8099 4.66112 21.8099 4.76357C21.8099 4.8807 21.8105 5.06001 21.8112 5.24926ZM25.3513 2.62158C25.7642 2.62158 26.0988 2.99266 26.0988 3.45041V8.1037C26.0988 8.56145 25.7642 8.93253 25.3513 8.93253C24.9385 8.93253 24.6038 8.56145 24.6038 8.1037V3.45041C24.6038 2.99266 24.9385 2.62158 25.3513 2.62158Z" fill="#7A7A7A"/>
</svg>
