<svg width="25" height="24" viewBox="0 0 25 24" fill="none" xmlns="http://www.w3.org/2000/svg">
<path d="M7.75 10.6285V8.90303C7.75 6.04735 8.61275 3.72656 12.9265 3.72656C17.2402 3.72656 18.1029 6.04735 18.1029 8.90303V10.6285" stroke="white" stroke-linecap="round" stroke-linejoin="round"/>
<path d="M12.9264 17.9622C14.1176 17.9622 15.0833 16.9965 15.0833 15.8053C15.0833 14.6141 14.1176 13.6484 12.9264 13.6484C11.7352 13.6484 10.7695 14.6141 10.7695 15.8053C10.7695 16.9965 11.7352 17.9622 12.9264 17.9622Z" stroke="white" stroke-linecap="round" stroke-linejoin="round"/>
<path d="M17.242 20.9779H8.61451C5.16353 20.9779 4.30078 20.1152 4.30078 16.6642V14.9387C4.30078 11.4877 5.16353 10.625 8.61451 10.625H17.242C20.6929 10.625 21.5557 11.4877 21.5557 14.9387V16.6642C21.5557 20.1152 20.6929 20.9779 17.242 20.9779Z" stroke="white" stroke-linecap="round" stroke-linejoin="round"/>
</svg>
