<svg width="24" height="24" viewBox="0 0 24 24" fill="none" xmlns="http://www.w3.org/2000/svg">
<path d="M7.17578 10.6285V8.90303C7.17578 6.04735 8.03853 3.72656 12.3523 3.72656C16.666 3.72656 17.5287 6.04735 17.5287 8.90303V10.6285" stroke="#001D6E" stroke-linecap="round" stroke-linejoin="round"/>
<path d="M12.3522 17.9622C13.5434 17.9622 14.509 16.9965 14.509 15.8053C14.509 14.6141 13.5434 13.6484 12.3522 13.6484C11.161 13.6484 10.1953 14.6141 10.1953 15.8053C10.1953 16.9965 11.161 17.9622 12.3522 17.9622Z" stroke="#001D6E" stroke-linecap="round" stroke-linejoin="round"/>
<path d="M16.6677 20.9779H8.04029C4.58931 20.9779 3.72656 20.1152 3.72656 16.6642V14.9387C3.72656 11.4877 4.58931 10.625 8.04029 10.625H16.6677C20.1187 10.625 20.9815 11.4877 20.9815 14.9387V16.6642C20.9815 20.1152 20.1187 20.9779 16.6677 20.9779Z" stroke="#001D6E" stroke-linecap="round" stroke-linejoin="round"/>
</svg>
