<svg width="22" height="25" viewBox="0 0 22 25" fill="none" xmlns="http://www.w3.org/2000/svg">
<path d="M11 24.0232C13.5277 24.0208 15.9775 23.1487 17.9382 21.5535C19.8989 19.9582 21.2511 17.7369 21.7676 15.2626C22.2842 12.7883 21.9336 10.2116 20.7749 7.96511C19.6162 5.71867 17.7198 3.9393 15.4043 2.92578C15.2837 2.87238 15.1537 2.84335 15.0218 2.84035C14.89 2.83734 14.7588 2.86043 14.6359 2.90828C14.513 2.95612 14.4008 3.02779 14.3056 3.11915C14.2105 3.21052 14.1344 3.31978 14.0816 3.44066C14.0289 3.56155 14.0005 3.69166 13.9982 3.82353C13.9959 3.95541 14.0197 4.08644 14.0682 4.20909C14.1167 4.33174 14.1889 4.44361 14.2808 4.53824C14.3727 4.63288 14.4823 4.70843 14.6035 4.76055C16.5004 5.58842 18.0543 7.04418 19.0041 8.88305C19.9539 10.7219 20.2415 12.8317 19.8187 14.8578C19.3958 16.8838 18.2883 18.7024 16.6822 20.0078C15.0762 21.3133 13.0697 22.0259 11 22.0259C8.93033 22.0259 6.92378 21.3133 5.31775 20.0078C3.71172 18.7024 2.60416 16.8838 2.18131 14.8578C1.75845 12.8317 2.0461 10.7219 2.99587 8.88305C3.94565 7.04418 5.49963 5.58842 7.39651 4.76055C7.51767 4.70843 7.62733 4.63288 7.7192 4.53824C7.81106 4.44361 7.88332 4.33174 7.93181 4.20909C7.9803 4.08644 8.00408 3.95541 8.00177 3.82353C7.99946 3.69166 7.97111 3.56155 7.91836 3.44066C7.8656 3.31978 7.78947 3.21052 7.69435 3.11915C7.59923 3.02779 7.48699 2.95612 7.36408 2.90828C7.24117 2.86043 7.11002 2.83734 6.97816 2.84035C6.8463 2.84335 6.71634 2.87238 6.59574 2.92578C4.28015 3.9393 2.38379 5.71867 1.22507 7.96511C0.0663513 10.2116 -0.284168 12.7883 0.23237 15.2626C0.748908 17.7369 2.10105 19.9582 4.06175 21.5535C6.02246 23.1487 8.47232 24.0208 11 24.0232Z" fill="#7A7A7A"/>
<path d="M11 10.0097C11.2655 10.0097 11.5201 9.90423 11.7078 9.71651C11.8955 9.5288 12.001 9.2742 12.001 9.00872V1.00097C12.001 0.735496 11.8955 0.480895 11.7078 0.293177C11.5201 0.105459 11.2655 0 11 0C10.7345 0 10.4799 0.105459 10.2922 0.293177C10.1045 0.480895 9.99902 0.735496 9.99902 1.00097V9.00872C9.99902 9.2742 10.1045 9.5288 10.2922 9.71651C10.4799 9.90423 10.7345 10.0097 11 10.0097Z" fill="#7A7A7A"/>
</svg>
