<svg width="20" height="20" viewBox="0 0 20 20" fill="none" xmlns="http://www.w3.org/2000/svg">
<path d="M15.625 0C13.2125 0 11.25 1.9625 11.25 4.375C11.25 6.62 14.76 10.5962 15.16 11.0425C15.2788 11.1737 15.4475 11.25 15.625 11.25C15.8025 11.25 15.9712 11.1737 16.09 11.0425C16.49 10.5962 20 6.62 20 4.375C20 1.9625 18.0375 0 15.625 0ZM15.625 6.25C14.59 6.25 13.75 5.41 13.75 4.375C13.75 3.34 14.59 2.5 15.625 2.5C16.66 2.5 17.5 3.34 17.5 4.375C17.5 5.41 16.66 6.25 15.625 6.25ZM0.3925 7.3425C0.276591 7.38922 0.177293 7.46953 0.107355 7.5731C0.0374175 7.67667 3.24196e-05 7.79878 0 7.92375L0 19.375C0 19.5825 0.10375 19.7762 0.275 19.8925C0.38 19.9625 0.50125 20 0.625 20C0.70375 20 0.7825 19.985 0.8575 19.955L6.25 17.7975V5L0.3925 7.3425Z" fill="#D45B7A"/>
<path d="M17.02 11.8775C16.665 12.2725 16.1562 12.5 15.625 12.5C15.0938 12.5 14.585 12.2725 14.23 11.8775C14.1025 11.7362 13.9387 11.55 13.75 11.3287V20L19.6075 17.6575C19.845 17.5638 20 17.3325 20 17.0775V7.88875C18.9762 9.6225 17.6075 11.2225 17.02 11.8775ZM10.3937 6.1575L7.5 5V17.7975L12.5 19.7975V9.76C11.7013 8.68375 10.8675 7.3875 10.3937 6.1575Z" fill="#D45B7A"/>
</svg>
