<svg width="83" height="83" viewBox="0 0 83 83" fill="none" xmlns="http://www.w3.org/2000/svg">
<path d="M14.0804 81.2733C18.5825 81.2733 22.2322 76.7378 22.2322 71.1429C22.2322 65.548 18.5825 61.0125 14.0804 61.0125C9.57827 61.0125 5.92859 65.548 5.92859 71.1429C5.92859 76.7378 9.57827 81.2733 14.0804 81.2733Z" fill="url(#paint0_linear_82_996)"/>
<path d="M14.0804 51.6305C18.5825 51.6305 22.2322 47.0949 22.2322 41.5C22.2322 35.9051 18.5825 31.3696 14.0804 31.3696C9.57827 31.3696 5.92859 35.9051 5.92859 41.5C5.92859 47.0949 9.57827 51.6305 14.0804 51.6305Z" fill="url(#paint1_linear_82_996)"/>
<path d="M14.0804 21.9876C18.5825 21.9876 22.2322 17.452 22.2322 11.8571C22.2322 6.26224 18.5825 1.72668 14.0804 1.72668C9.57827 1.72668 5.92859 6.26224 5.92859 11.8571C5.92859 17.452 9.57827 21.9876 14.0804 21.9876Z" fill="url(#paint2_linear_82_996)"/>
<path d="M0.25 11.8571C0.25 5.45896 5.45896 0.25 11.8571 0.25C18.2553 0.25 23.4643 5.45896 23.4643 11.8571C23.4643 18.2553 18.2553 23.4643 11.8571 23.4643C5.45896 23.4643 0.25 18.2553 0.25 11.8571ZM2.71429 11.8571C2.71429 16.9011 6.81318 21 11.8571 21C16.9011 21 21 16.9011 21 11.8571C21 6.81318 16.9011 2.71429 11.8571 2.71429C6.81318 2.71429 2.71429 6.81318 2.71429 11.8571ZM0.25 41.5C0.25 35.1018 5.45896 29.8929 11.8571 29.8929C18.2553 29.8929 23.4643 35.1018 23.4643 41.5C23.4643 47.8982 18.2553 53.1071 11.8571 53.1071C5.45896 53.1071 0.25 47.8982 0.25 41.5ZM2.71429 41.5C2.71429 46.544 6.81318 50.6429 11.8571 50.6429C16.9011 50.6429 21 46.544 21 41.5C21 36.456 16.9011 32.3571 11.8571 32.3571C6.81318 32.3571 2.71429 36.456 2.71429 41.5ZM0.25 71.1429C0.25 64.7447 5.45896 59.5357 11.8571 59.5357C18.2553 59.5357 23.4643 64.7447 23.4643 71.1429C23.4643 77.541 18.2553 82.75 11.8571 82.75C5.45896 82.75 0.25 77.541 0.25 71.1429ZM2.71429 71.1429C2.71429 76.1868 6.81318 80.2857 11.8571 80.2857C16.9011 80.2857 21 76.1868 21 71.1429C21 66.0989 16.9011 62 11.8571 62C6.81318 62 2.71429 66.0989 2.71429 71.1429ZM31.125 18.0357H59.2857C59.9628 18.0357 60.5179 18.5907 60.5179 19.2679C60.5179 19.945 59.9628 20.5 59.2857 20.5H31.125C30.4479 20.5 29.8929 19.945 29.8929 19.2679C29.8929 18.5907 30.4479 18.0357 31.125 18.0357ZM31.125 47.6786H59.2857C59.9628 47.6786 60.5179 48.2336 60.5179 48.9107C60.5179 49.5878 59.9628 50.1429 59.2857 50.1429H31.125C30.4479 50.1429 29.8929 49.5878 29.8929 48.9107C29.8929 48.2336 30.4479 47.6786 31.125 47.6786ZM31.125 77.3214H59.2857C59.9628 77.3214 60.5179 77.8765 60.5179 78.5536C60.5179 79.2307 59.9628 79.7857 59.2857 79.7857H31.125C30.4479 79.7857 29.8929 79.2307 29.8929 78.5536C29.8929 77.8765 30.4479 77.3214 31.125 77.3214ZM82.75 7.41071V10.375C82.75 12.6825 80.861 14.5714 78.5536 14.5714H34.0893C31.7818 14.5714 29.8929 12.6825 29.8929 10.375V7.41071C29.8929 5.10325 31.7818 3.21429 34.0893 3.21429H41.5C41.8268 3.21429 42.1402 3.3441 42.3713 3.57517C42.6023 3.80624 42.7321 4.11964 42.7321 4.44643C42.7321 4.77321 42.6023 5.08661 42.3713 5.31769C42.1402 5.54876 41.8268 5.67857 41.5 5.67857H34.0893C33.136 5.67857 32.3571 6.45746 32.3571 7.41071V10.375C32.3571 11.3282 33.136 12.1071 34.0893 12.1071H78.5536C79.5068 12.1071 80.2857 11.3282 80.2857 10.375V7.41071C80.2857 6.45746 79.5068 5.67857 78.5536 5.67857H54.8393C54.5125 5.67857 54.1991 5.54876 53.968 5.31768C53.737 5.08661 53.6071 4.77321 53.6071 4.44643C53.6071 4.11964 53.737 3.80624 53.968 3.57517C54.1991 3.3441 54.5125 3.21429 54.8393 3.21429H78.5536C80.861 3.21429 82.75 5.10325 82.75 7.41071Z" fill="#A8ADB4" stroke="white" stroke-width="0.5"/>
<path d="M50.1428 4.44638C50.1428 4.77316 50.013 5.08656 49.7819 5.31763C49.5509 5.5487 49.2375 5.67852 48.9107 5.67852H47.4285C47.1018 5.67852 46.7883 5.5487 46.5573 5.31763C46.3262 5.08656 46.1964 4.77316 46.1964 4.44638C46.1964 4.11959 46.3262 3.80619 46.5573 3.57512C46.7883 3.34405 47.1018 3.21423 47.4285 3.21423H48.9107C49.2375 3.21423 49.5509 3.34405 49.7819 3.57512C50.013 3.80619 50.1428 4.11959 50.1428 4.44638ZM82.75 37.0535V40.0178C82.75 42.3253 80.861 44.2142 78.5535 44.2142H72.625C72.2982 44.2142 71.9848 44.0844 71.7537 43.8533C71.5226 43.6223 71.3928 43.3089 71.3928 42.9821C71.3928 42.6553 71.5226 42.3419 71.7537 42.1108C71.9848 41.8798 72.2982 41.7499 72.625 41.7499H78.5535C79.5068 41.7499 80.2857 40.9711 80.2857 40.0178V37.0535C80.2857 36.1003 79.5068 35.3214 78.5535 35.3214H34.0893C33.136 35.3214 32.3571 36.1003 32.3571 37.0535V40.0178C32.3571 40.9711 33.136 41.7499 34.0893 41.7499H59.2857C59.6125 41.7499 59.9259 41.8798 60.1569 42.1108C60.388 42.3419 60.5178 42.6553 60.5178 42.9821C60.5178 43.3089 60.388 43.6223 60.1569 43.8533C59.9259 44.0844 59.6125 44.2142 59.2857 44.2142H34.0893C31.7818 44.2142 29.8928 42.3253 29.8928 40.0178V37.0535C29.8928 34.7461 31.7818 32.8571 34.0893 32.8571H78.5535C80.861 32.8571 82.75 34.7461 82.75 37.0535Z" fill="#A8ADB4" stroke="white" stroke-width="0.5"/>
<path d="M67.9285 42.9821C67.9285 43.3089 67.7987 43.6223 67.5676 43.8534C67.3366 44.0845 67.0232 44.2143 66.6964 44.2143H65.2142C64.8875 44.2143 64.5741 44.0845 64.343 43.8534C64.1119 43.6223 63.9821 43.3089 63.9821 42.9821C63.9821 42.6554 64.1119 42.342 64.343 42.1109C64.5741 41.8798 64.8875 41.75 65.2142 41.75H66.6964C67.0232 41.75 67.3366 41.8798 67.5676 42.1109C67.7987 42.342 67.9285 42.6554 67.9285 42.9821ZM82.75 66.6964V69.6607C82.75 71.9682 80.861 73.8571 78.5535 73.8571H34.0893C31.7818 73.8571 29.8928 71.9682 29.8928 69.6607V66.6964C29.8928 64.389 31.7818 62.5 34.0893 62.5H37.0535C37.3803 62.5 37.6937 62.6298 37.9248 62.8609C38.1559 63.092 38.2857 63.4054 38.2857 63.7321C38.2857 64.0589 38.1559 64.3723 37.9248 64.6034C37.6937 64.8345 37.3803 64.9643 37.0535 64.9643H34.0893C33.136 64.9643 32.3571 65.7432 32.3571 66.6964V69.6607C32.3571 70.614 33.136 71.3929 34.0893 71.3929H78.5535C79.5068 71.3929 80.2857 70.614 80.2857 69.6607V66.6964C80.2857 65.7432 79.5068 64.9643 78.5535 64.9643H50.3928C50.066 64.9643 49.7526 64.8345 49.5216 64.6034C49.2905 64.3723 49.1607 64.0589 49.1607 63.7321C49.1607 63.4054 49.2905 63.092 49.5216 62.8609C49.7526 62.6298 50.066 62.5 50.3928 62.5H78.5535C80.861 62.5 82.75 64.389 82.75 66.6964Z" fill="#A8ADB4" stroke="white" stroke-width="0.5"/>
<path d="M45.6964 63.7321C45.6964 64.0589 45.5666 64.3723 45.3355 64.6034C45.1045 64.8345 44.7911 64.9643 44.4643 64.9643H42.9821C42.6554 64.9643 42.342 64.8345 42.1109 64.6034C41.8798 64.3723 41.75 64.0589 41.75 63.7321C41.75 63.4054 41.8798 63.092 42.1109 62.8609C42.342 62.6298 42.6554 62.5 42.9821 62.5H44.4643C44.7911 62.5 45.1045 62.6298 45.3355 62.8609C45.5666 63.092 45.6964 63.4054 45.6964 63.7321Z" fill="#A8ADB4" stroke="white" stroke-width="0.5"/>
<defs>
<linearGradient id="paint0_linear_82_996" x1="14.4499" y1="79.0089" x2="14.4499" y2="61.6084" gradientUnits="userSpaceOnUse">
<stop stop-color="#FF9EB6"/>
<stop offset="1" stop-color="#E66A8C"/>
</linearGradient>
<linearGradient id="paint1_linear_82_996" x1="14.4499" y1="49.366" x2="14.4499" y2="31.9655" gradientUnits="userSpaceOnUse">
<stop stop-color="#FF9EB6"/>
<stop offset="1" stop-color="#E66A8C"/>
</linearGradient>
<linearGradient id="paint2_linear_82_996" x1="14.4499" y1="19.7231" x2="14.4499" y2="2.32259" gradientUnits="userSpaceOnUse">
<stop stop-color="#FF9EB6"/>
<stop offset="1" stop-color="#E66A8C"/>
</linearGradient>
</defs>
</svg>
