<svg width="26" height="26" viewBox="0 0 26 26" fill="none" xmlns="http://www.w3.org/2000/svg">
<path d="M23.9091 13.0501V9.67685C23.9091 8.53303 23.0219 7.60281 21.9009 7.51261L18.7683 2.04103C18.478 1.53498 18.0093 1.17329 17.4483 1.02311C16.8901 0.873943 16.3063 0.952284 15.8067 1.2431L5.06789 7.49502H3.18183C1.97854 7.49502 1 8.47351 1 9.67685V22.7677C1 23.971 1.97849 24.9496 3.18183 24.9496H21.7273C22.9306 24.9496 23.9091 23.9711 23.9091 22.7677V19.3945C24.5426 19.1686 25 18.5688 25 17.8587V14.5859C25 13.8758 24.5426 13.276 23.9091 13.0501ZM20.6333 7.49502H15.8791L19.4448 5.41909L20.6333 7.49502ZM18.9028 4.4724L13.711 7.49502H11.5575L18.3643 3.53196L18.9028 4.4724ZM16.3558 2.1859C16.6025 2.04154 16.8906 2.00319 17.166 2.07672C17.4446 2.15128 17.6769 2.33133 17.8212 2.58328L17.8224 2.58527L9.38947 7.49502H7.23607L16.3558 2.1859ZM22.8182 22.7677C22.8182 23.3691 22.3286 23.8586 21.7273 23.8586H3.18183C2.58047 23.8586 2.09094 23.3691 2.09094 22.7677V9.67685C2.09094 9.07549 2.58047 8.58596 3.18183 8.58596H21.7273C22.3286 8.58596 22.8182 9.07549 22.8182 9.67685V12.9496H19.5454C17.7407 12.9496 16.2727 14.4176 16.2727 16.2223C16.2727 18.027 17.7407 19.495 19.5454 19.495H22.8182V22.7677ZM23.9091 17.8587C23.9091 18.1596 23.6646 18.4041 23.3636 18.4041H19.5454C18.3422 18.4041 17.3636 17.4256 17.3636 16.2223C17.3636 15.019 18.3421 14.0405 19.5454 14.0405H23.3636C23.6646 14.0405 23.9091 14.2849 23.9091 14.5859V17.8587Z" fill="#7A7A7A" stroke="#7A7A7A" stroke-width="0.5"/>
</svg>
