<svg width="25" height="26" viewBox="0 0 25 26" fill="none" xmlns="http://www.w3.org/2000/svg">
<path d="M23.6591 13.2376V9.86435C23.6591 8.72053 22.7719 7.79031 21.6509 7.70011L18.5183 2.22853C18.228 1.72248 17.7593 1.36079 17.1983 1.21061C16.6401 1.06144 16.0563 1.13978 15.5567 1.4306L4.81789 7.68252H2.93183C1.72854 7.68252 0.75 8.66101 0.75 9.86435V22.9552C0.75 24.1585 1.72849 25.1371 2.93183 25.1371H21.4773C22.6806 25.1371 23.6591 24.1586 23.6591 22.9552V19.582C24.2926 19.3561 24.75 18.7563 24.75 18.0462V14.7734C24.75 14.0633 24.2926 13.4635 23.6591 13.2376ZM20.3833 7.68252H15.6291L19.1948 5.60659L20.3833 7.68252ZM18.6528 4.6599L13.461 7.68252H11.3075L18.1143 3.71946L18.6528 4.6599ZM16.1058 2.3734C16.3525 2.22904 16.6406 2.19069 16.916 2.26422C17.1946 2.33878 17.4269 2.51883 17.5712 2.77078L17.5724 2.77277L9.13947 7.68252H6.98607L16.1058 2.3734ZM22.5682 22.9552C22.5682 23.5566 22.0786 24.0461 21.4773 24.0461H2.93183C2.33047 24.0461 1.84094 23.5566 1.84094 22.9552V9.86435C1.84094 9.26299 2.33047 8.77346 2.93183 8.77346H21.4773C22.0786 8.77346 22.5682 9.26299 22.5682 9.86435V13.1371H19.2954C17.4907 13.1371 16.0227 14.6051 16.0227 16.4098C16.0227 18.2145 17.4907 19.6825 19.2954 19.6825H22.5682V22.9552ZM23.6591 18.0462C23.6591 18.3471 23.4146 18.5916 23.1136 18.5916H19.2954C18.0922 18.5916 17.1136 17.6131 17.1136 16.4098C17.1136 15.2065 18.0921 14.228 19.2954 14.228H23.1136C23.4146 14.228 23.6591 14.4724 23.6591 14.7734V18.0462Z" fill="#D45B7A" stroke="#D45B7A" stroke-width="0.5"/>
<path d="M19.2952 15.3203C18.6939 15.3203 18.2043 15.8098 18.2043 16.4112C18.2043 17.0126 18.6939 17.5021 19.2952 17.5021C19.8966 17.5021 20.3861 17.0126 20.3861 16.4112C20.3862 15.8098 19.8967 15.3203 19.2952 15.3203Z" fill="#D45B7A" stroke="#D45B7A" stroke-width="0.5"/>
</svg>
