<svg width="18" height="19" viewBox="0 0 18 19" fill="none" xmlns="http://www.w3.org/2000/svg">
<g clip-path="url(#clip0_6372_39003)">
<path d="M4.5 0.0625C3.88125 0.0625 3.375 0.56875 3.375 1.1875V16.9375C3.375 17.5562 3.88125 18.0625 4.5 18.0625H15.75C16.3687 18.0625 16.875 17.5562 16.875 16.9375V4.5625L12.375 0.0625H4.5Z" fill="#E2E5E7"/>
<path d="M13.5 4.5625H16.875L12.375 0.0625V3.4375C12.375 4.05625 12.8812 4.5625 13.5 4.5625Z" fill="#B0B7BD"/>
<path d="M16.875 7.9375L13.5 4.5625H16.875V7.9375Z" fill="#CAD1D8"/>
<path d="M14.625 14.6875C14.625 14.9969 14.3719 15.25 14.0625 15.25H1.6875C1.37812 15.25 1.125 14.9969 1.125 14.6875V9.0625C1.125 8.75312 1.37812 8.5 1.6875 8.5H14.0625C14.3719 8.5 14.625 8.75312 14.625 9.0625V14.6875Z" fill="#F15642"/>
<path d="M3.57812 10.7207C3.57812 10.5722 3.69512 10.4102 3.88356 10.4102H4.9225C5.5075 10.4102 6.034 10.8017 6.034 11.552C6.034 12.263 5.5075 12.659 4.9225 12.659H4.17156V13.253C4.17156 13.451 4.04556 13.563 3.88356 13.563C3.73506 13.563 3.57812 13.451 3.57812 13.253V10.7207ZM4.17156 10.9766V12.0971H4.9225C5.224 12.0971 5.4625 11.831 5.4625 11.552C5.4625 11.2376 5.224 10.9766 4.9225 10.9766H4.17156Z" fill="white"/>
<path d="M6.91597 13.5615C6.76747 13.5615 6.60547 13.4805 6.60547 13.2831V10.7282C6.60547 10.5668 6.76747 10.4492 6.91597 10.4492H7.94591C10.0013 10.4492 9.95628 13.5615 7.98641 13.5615H6.91597ZM7.19947 10.9982V13.0131H7.94591C9.16034 13.0131 9.21434 10.9982 7.94591 10.9982H7.19947Z" fill="white"/>
<path d="M10.686 11.0348V11.7497H11.833C11.995 11.7497 12.157 11.9117 12.157 12.0687C12.157 12.2172 11.995 12.3387 11.833 12.3387H10.686V13.2831C10.686 13.4406 10.5741 13.5615 10.4166 13.5615C10.2186 13.5615 10.0977 13.4406 10.0977 13.2831V10.7282C10.0977 10.5668 10.2192 10.4492 10.4166 10.4492H11.9955C12.1935 10.4492 12.3105 10.5668 12.3105 10.7282C12.3105 10.8722 12.1935 11.0342 11.9955 11.0342H10.686V11.0348Z" fill="white"/>
<path d="M14.0625 15.25H3.375V15.8125H14.0625C14.3719 15.8125 14.625 15.5594 14.625 15.25V14.6875C14.625 14.9969 14.3719 15.25 14.0625 15.25Z" fill="#CAD1D8"/>
</g>
<defs>
<clipPath id="clip0_6372_39003">
<rect width="18" height="18" fill="white" transform="translate(0 0.0625)"/>
</clipPath>
</defs>
</svg>
