<svg width="25" height="25" viewBox="0 0 25 25" fill="none" xmlns="http://www.w3.org/2000/svg">
<path fill-rule="evenodd" clip-rule="evenodd" d="M-5.31388e-07 12.1567C-4.94703e-07 12.996 0.680344 13.6763 1.51959 13.6763L10.6369 13.6763L10.6369 22.7939C10.6369 23.6331 11.3172 24.3135 12.1565 24.3135C12.9957 24.3135 13.6761 23.6331 13.6761 22.7939L13.6761 13.6763L22.7939 13.6763C23.6331 13.6763 24.3135 12.996 24.3135 12.1567C24.3135 11.3175 23.6331 10.6371 22.7939 10.6371L13.6761 10.6371L13.6761 1.51959C13.6761 0.680345 12.9957 1.33929e-06 12.1565 1.37597e-06C11.3172 1.41266e-06 10.6369 0.680347 10.6369 1.51959L10.6369 10.6371L1.51959 10.6371C0.680344 10.6371 -5.68073e-07 11.3175 -5.31388e-07 12.1567Z" fill="white"/>
</svg>
