<svg width="17" height="17" viewBox="0 0 17 17" fill="none" xmlns="http://www.w3.org/2000/svg">
<path d="M12.5 16.2355C12.4333 16.2355 12.3667 16.2222 12.304 16.1955C12.1493 16.1295 8.5 14.5402 8.5 11.2715V8.59286C8.50003 8.4884 8.53278 8.38658 8.59364 8.30169C8.6545 8.21679 8.74042 8.15309 8.83933 8.11953L12.3393 6.92886C12.4435 6.8935 12.5565 6.8935 12.6607 6.92886L16.1607 8.11953C16.2596 8.15309 16.3455 8.21679 16.4064 8.30169C16.4672 8.38658 16.5 8.4884 16.5 8.59286V11.2715C16.5 14.5402 12.8507 16.1295 12.696 16.1962C12.6339 16.2221 12.5673 16.2354 12.5 16.2355ZM9.5 8.95086V11.2709C9.5 13.4929 11.804 14.8289 12.5 15.1809C13.196 14.8289 15.5 13.4929 15.5 11.2709V8.95086L12.5 7.93019L9.5 8.95086Z" fill="#AFAFAF"/>
<path d="M12.3333 13.2344C12.2677 13.2345 12.2026 13.2217 12.142 13.1965C12.0813 13.1713 12.0263 13.1343 11.98 13.0877L10.6467 11.7544C10.6002 11.7079 10.5634 11.6528 10.5382 11.5921C10.5131 11.5314 10.5002 11.4664 10.5002 11.4007C10.5002 11.335 10.5131 11.27 10.5382 11.2093C10.5634 11.1486 10.6002 11.0935 10.6467 11.047C10.6931 11.0006 10.7482 10.9638 10.8089 10.9386C10.8696 10.9135 10.9347 10.9005 11.0003 10.9005C11.066 10.9005 11.1311 10.9135 11.1917 10.9386C11.2524 10.9638 11.3076 11.0006 11.354 11.047L12.28 11.973L13.9333 9.76771C13.9723 9.71403 14.0216 9.66864 14.0783 9.63419C14.135 9.59975 14.198 9.57693 14.2636 9.56707C14.3292 9.55722 14.3961 9.56052 14.4605 9.57678C14.5248 9.59305 14.5852 9.62195 14.6383 9.66181C14.6913 9.70166 14.7359 9.75168 14.7694 9.80894C14.8029 9.86619 14.8247 9.92955 14.8335 9.99531C14.8423 10.0611 14.8379 10.1279 14.8206 10.192C14.8033 10.256 14.7734 10.316 14.7327 10.3684L12.7327 13.035C12.6897 13.0924 12.6349 13.1397 12.5719 13.174C12.509 13.2083 12.4395 13.2287 12.368 13.2337L12.3333 13.2344ZM7.56 14.2344H2.33333C1.84721 14.234 1.3811 14.0408 1.03736 13.697C0.693621 13.3533 0.500353 12.8872 0.5 12.401L0.5 2.06771C0.500353 1.58159 0.693621 1.11548 1.03736 0.771736C1.3811 0.427996 1.84721 0.234728 2.33333 0.234375L10 0.234375C10.4861 0.234728 10.9522 0.427996 11.296 0.771736C11.6397 1.11548 11.833 1.58159 11.8333 2.06771V5.68771C11.8333 5.82032 11.7807 5.94749 11.6869 6.04126C11.5931 6.13503 11.4659 6.18771 11.3333 6.18771C11.2007 6.18771 11.0735 6.13503 10.9798 6.04126C10.886 5.94749 10.8333 5.82032 10.8333 5.68771V2.06771C10.8333 1.60838 10.4593 1.23438 10 1.23438H2.33333C1.874 1.23438 1.5 1.60838 1.5 2.06771V12.401C1.5 12.8604 1.874 13.2344 2.33333 13.2344H7.56C7.69261 13.2344 7.81979 13.2871 7.91355 13.3808C8.00732 13.4746 8.06 13.6018 8.06 13.7344C8.06 13.867 8.00732 13.9942 7.91355 14.0879C7.81979 14.1817 7.69261 14.2344 7.56 14.2344Z" fill="#AFAFAF"/>
<path d="M9.33333 6.56901H3C2.86739 6.56901 2.74021 6.51633 2.64645 6.42256C2.55268 6.3288 2.5 6.20162 2.5 6.06901C2.5 5.9364 2.55268 5.80923 2.64645 5.71546C2.74021 5.62169 2.86739 5.56901 3 5.56901H9.33333C9.46594 5.56901 9.59312 5.62169 9.68689 5.71546C9.78065 5.80923 9.83333 5.9364 9.83333 6.06901C9.83333 6.20162 9.78065 6.3288 9.68689 6.42256C9.59312 6.51633 9.46594 6.56901 9.33333 6.56901ZM6.66667 9.23568H3C2.86739 9.23568 2.74021 9.183 2.64645 9.08923C2.55268 8.99546 2.5 8.86829 2.5 8.73568C2.5 8.60307 2.55268 8.47589 2.64645 8.38212C2.74021 8.28836 2.86739 8.23568 3 8.23568H6.66667C6.79927 8.23568 6.92645 8.28836 7.02022 8.38212C7.11399 8.47589 7.16667 8.60307 7.16667 8.73568C7.16667 8.86829 7.11399 8.99546 7.02022 9.08923C6.92645 9.183 6.79927 9.23568 6.66667 9.23568ZM6 3.90234H3C2.86739 3.90234 2.74021 3.84967 2.64645 3.7559C2.55268 3.66213 2.5 3.53495 2.5 3.40234C2.5 3.26974 2.55268 3.14256 2.64645 3.04879C2.74021 2.95502 2.86739 2.90234 3 2.90234H6C6.13261 2.90234 6.25979 2.95502 6.35355 3.04879C6.44732 3.14256 6.5 3.26974 6.5 3.40234C6.5 3.53495 6.44732 3.66213 6.35355 3.7559C6.25979 3.84967 6.13261 3.90234 6 3.90234Z" fill="#AFAFAF"/>
</svg>
