<svg width="22" height="22" viewBox="0 0 22 22" fill="none" xmlns="http://www.w3.org/2000/svg">
<path d="M18.1328 4.25391V3.22266C18.1328 1.44568 16.6871 0 14.9102 0H7.00391C5.22693 0 3.78125 1.44568 3.78125 3.22266V4.25391H18.1328ZM5.07031 13.707V20.7109C5.07031 21.4228 5.64743 22 6.35938 22H15.5547C16.2666 22 16.8438 21.4228 16.8438 20.7109V13.707H5.07031ZM12.6758 19.207H9.23828C8.88233 19.207 8.59375 18.9185 8.59375 18.5625C8.59375 18.2065 8.88233 17.918 9.23828 17.918H12.6758C13.0317 17.918 13.3203 18.2065 13.3203 18.5625C13.3203 18.9185 13.0317 19.207 12.6758 19.207ZM12.6758 16.457H9.23828C8.88233 16.457 8.59375 16.1685 8.59375 15.8125C8.59375 15.4565 8.88233 15.168 9.23828 15.168H12.6758C13.0317 15.168 13.3203 15.4565 13.3203 15.8125C13.3203 16.1685 13.0317 16.457 12.6758 16.457Z" fill="white"/>
<path d="M18.7344 5.54297H3.22266C1.44568 5.54297 0 6.98865 0 8.76562V13.9219C0 15.6988 1.44568 17.1445 3.22266 17.1445H3.78125V13.707H3.39453C3.03858 13.707 2.75 13.4185 2.75 13.0625C2.75 12.7065 3.03858 12.418 3.39453 12.418H18.5195C18.8755 12.418 19.1641 12.7065 19.1641 13.0625C19.1641 13.4185 18.8755 13.707 18.5195 13.707H18.1328V17.1445H18.7344C20.5113 17.1445 21.957 15.6988 21.957 13.9219V8.76562C21.957 6.98865 20.5113 5.54297 18.7344 5.54297ZM5.45703 9.58203H3.39453C3.03858 9.58203 2.75 9.29345 2.75 8.9375C2.75 8.58155 3.03858 8.29297 3.39453 8.29297H5.45703C5.81298 8.29297 6.10156 8.58155 6.10156 8.9375C6.10156 9.29345 5.81298 9.58203 5.45703 9.58203Z" fill="white"/>
</svg>
