<svg width="106" height="32" viewBox="0 0 106 32" fill="none" xmlns="http://www.w3.org/2000/svg">
<path d="M106 0H12C5.37258 0 0 5.37258 0 12V32H74C91.6731 32 106 17.6731 106 0Z" fill="#FFE066"/>
<path d="M19.8457 13.5653C19.8002 13.1619 19.6127 12.8494 19.2832 12.6278C18.9537 12.4034 18.5389 12.2912 18.0389 12.2912C17.6809 12.2912 17.3713 12.348 17.1099 12.4616C16.8485 12.5724 16.6454 12.7259 16.5005 12.9219C16.3585 13.1151 16.2875 13.3352 16.2875 13.5824C16.2875 13.7898 16.3358 13.9687 16.4324 14.1193C16.5318 14.2699 16.661 14.3963 16.8201 14.4986C16.9821 14.598 17.1554 14.6818 17.34 14.75C17.5247 14.8153 17.7022 14.8693 17.8727 14.9119L18.725 15.1335C19.0034 15.2017 19.2889 15.294 19.5815 15.4105C19.8741 15.527 20.1454 15.6804 20.3954 15.8707C20.6454 16.0611 20.8471 16.2969 21.0005 16.5781C21.1568 16.8594 21.2349 17.196 21.2349 17.5881C21.2349 18.0824 21.1071 18.5213 20.8514 18.9048C20.5985 19.2884 20.2306 19.5909 19.7477 19.8125C19.2676 20.0341 18.6866 20.1449 18.0048 20.1449C17.3514 20.1449 16.786 20.0412 16.3088 19.8338C15.8315 19.6264 15.4579 19.3324 15.188 18.9517C14.9181 18.5682 14.769 18.1136 14.7406 17.5881H16.0616C16.0872 17.9034 16.1895 18.1662 16.3684 18.3764C16.5502 18.5838 16.7818 18.7386 17.063 18.8409C17.3471 18.9403 17.6582 18.9901 17.9963 18.9901C18.3684 18.9901 18.6994 18.9318 18.9892 18.8153C19.2818 18.696 19.5119 18.5312 19.6795 18.321C19.8471 18.108 19.9309 17.8594 19.9309 17.5753C19.9309 17.3168 19.8571 17.1051 19.7093 16.9403C19.5645 16.7756 19.367 16.6392 19.117 16.5312C18.8699 16.4233 18.59 16.3281 18.2775 16.2457L17.2463 15.9645C16.5474 15.7741 15.9934 15.4943 15.5843 15.125C15.1781 14.7557 14.975 14.267 14.975 13.6591C14.975 13.1562 15.1113 12.7173 15.3841 12.3423C15.6568 11.9673 16.0261 11.6761 16.492 11.4688C16.9579 11.2585 17.4835 11.1534 18.0687 11.1534C18.6596 11.1534 19.1809 11.2571 19.6326 11.4645C20.0872 11.6719 20.4451 11.9574 20.7065 12.321C20.9679 12.6818 21.1042 13.0966 21.1156 13.5653H19.8457ZM24.611 20.1449C24.1962 20.1449 23.8212 20.0682 23.486 19.9148C23.1507 19.7585 22.8851 19.5327 22.6891 19.2372C22.4959 18.9418 22.3993 18.5795 22.3993 18.1506C22.3993 17.7812 22.4703 17.4773 22.6124 17.2386C22.7544 17 22.9462 16.8111 23.1877 16.6719C23.4292 16.5327 23.699 16.4276 23.9973 16.3565C24.2956 16.2855 24.5996 16.2315 24.9093 16.1946C25.3013 16.1491 25.6195 16.1122 25.8638 16.0838C26.1081 16.0526 26.2857 16.0028 26.3965 15.9347C26.5073 15.8665 26.5627 15.7557 26.5627 15.6023V15.5724C26.5627 15.2003 26.4576 14.9119 26.2473 14.7074C26.04 14.5028 25.7303 14.4006 25.3184 14.4006C24.8894 14.4006 24.5513 14.4957 24.3042 14.6861C24.0598 14.8736 23.8908 15.0824 23.7971 15.3125L22.5996 15.0398C22.7417 14.642 22.949 14.321 23.2218 14.0767C23.4973 13.8295 23.8141 13.6506 24.1721 13.5398C24.53 13.4261 24.9064 13.3693 25.3013 13.3693C25.5627 13.3693 25.8397 13.4006 26.1323 13.4631C26.4277 13.5227 26.7033 13.6335 26.959 13.7955C27.2175 13.9574 27.4292 14.1889 27.5939 14.4901C27.7587 14.7884 27.8411 15.1761 27.8411 15.6534V20H26.5968V19.1051H26.5456C26.4632 19.2699 26.3397 19.4318 26.1749 19.5909C26.0101 19.75 25.7985 19.8821 25.54 19.9872C25.2814 20.0923 24.9718 20.1449 24.611 20.1449ZM24.888 19.1222C25.2402 19.1222 25.5414 19.0526 25.7914 18.9134C26.0442 18.7741 26.236 18.5923 26.3667 18.3679C26.5002 18.1406 26.5669 17.8977 26.5669 17.6392V16.7955C26.5215 16.8409 26.4334 16.8835 26.3027 16.9233C26.1749 16.9602 26.0286 16.9929 25.8638 17.0213C25.699 17.0469 25.5385 17.071 25.3823 17.0938C25.226 17.1136 25.0953 17.1307 24.9902 17.1449C24.7431 17.1761 24.5172 17.2287 24.3127 17.3026C24.111 17.3764 23.949 17.483 23.8269 17.6222C23.7076 17.7585 23.6479 17.9403 23.6479 18.1676C23.6479 18.483 23.7644 18.7216 23.9973 18.8835C24.2303 19.0426 24.5272 19.1222 24.888 19.1222ZM26.209 11.4347H27.236C27.236 11.8125 27.0655 12.1222 26.7246 12.3636C26.3837 12.6023 25.9206 12.7216 25.3354 12.7216C24.7502 12.7216 24.2871 12.6023 23.9462 12.3636C23.6081 12.1222 23.4391 11.8125 23.4391 11.4347H24.4618C24.4618 11.6108 24.5272 11.7656 24.6578 11.8991C24.7914 12.0327 25.0172 12.0994 25.3354 12.0994C25.6479 12.0994 25.8709 12.0327 26.0044 11.8991C26.1408 11.7656 26.209 11.6108 26.209 11.4347ZM24.9434 11.3452L25.6167 10.2116H26.6692L25.6806 11.3452H24.9434ZM29.5382 22.4545V13.4545H30.7825V14.5156H30.889C30.9629 14.3793 31.0694 14.2216 31.2086 14.0426C31.3478 13.8636 31.541 13.7074 31.7882 13.5739C32.0353 13.4375 32.362 13.3693 32.7683 13.3693C33.2967 13.3693 33.7683 13.5028 34.1831 13.7699C34.5978 14.0369 34.9231 14.4219 35.1589 14.9247C35.3976 15.4276 35.5169 16.0327 35.5169 16.7401C35.5169 17.4474 35.399 18.054 35.1632 18.5597C34.9274 19.0625 34.6035 19.4503 34.1916 19.723C33.7797 19.9929 33.3095 20.1278 32.7811 20.1278C32.3833 20.1278 32.0581 20.0611 31.8052 19.9276C31.5552 19.794 31.3592 19.6378 31.2172 19.4588C31.0751 19.2798 30.9657 19.1207 30.889 18.9815H30.8123V22.4545H29.5382ZM30.7868 16.7273C30.7868 17.1875 30.8535 17.5909 30.987 17.9375C31.1206 18.2841 31.3137 18.5554 31.5666 18.7514C31.8194 18.9446 32.1291 19.0412 32.4956 19.0412C32.8762 19.0412 33.1944 18.9403 33.4501 18.7386C33.7058 18.5341 33.899 18.2571 34.0297 17.9077C34.1632 17.5582 34.2299 17.1648 34.2299 16.7273C34.2299 16.2955 34.1646 15.9077 34.0339 15.5639C33.9061 15.2202 33.7129 14.9489 33.4544 14.75C33.1987 14.5511 32.8791 14.4517 32.4956 14.4517C32.1262 14.4517 31.8137 14.5469 31.5581 14.7372C31.3052 14.9276 31.1135 15.1932 30.9828 15.5341C30.8521 15.875 30.7868 16.2727 30.7868 16.7273ZM40.1202 20V13.4545H41.3432V14.5199H41.4242C41.5605 14.1591 41.7836 13.8778 42.0932 13.6761C42.4029 13.4716 42.7736 13.3693 43.2054 13.3693C43.6429 13.3693 44.0094 13.4716 44.3049 13.6761C44.6032 13.8807 44.8233 14.1619 44.9654 14.5199H45.0336C45.1898 14.1705 45.4384 13.892 45.7793 13.6847C46.1202 13.4744 46.5265 13.3693 46.998 13.3693C47.5918 13.3693 48.0762 13.5554 48.4512 13.9276C48.829 14.2997 49.0179 14.8608 49.0179 15.6108V20H47.7438V15.7301C47.7438 15.2869 47.623 14.9659 47.3816 14.767C47.1401 14.5682 46.8517 14.4688 46.5165 14.4688C46.1017 14.4688 45.7793 14.5966 45.5492 14.8523C45.3191 15.1051 45.204 15.4304 45.204 15.8281V20H43.9341V15.6491C43.9341 15.294 43.8233 15.0085 43.6017 14.7926C43.3801 14.5767 43.0918 14.4688 42.7367 14.4688C42.4952 14.4688 42.2722 14.5327 42.0676 14.6605C41.8659 14.7855 41.7026 14.9602 41.5776 15.1847C41.4554 15.4091 41.3944 15.669 41.3944 15.9645V20H40.1202ZM56.1973 12.9986H57.1816C57.1816 13.669 57.0297 14.1989 56.7257 14.5881C56.4245 14.9744 55.9103 15.1676 55.1831 15.1676V14.4517C55.4728 14.4517 55.6902 14.392 55.835 14.2727C55.9799 14.1506 56.0765 13.9815 56.1248 13.7656C56.1731 13.5469 56.1973 13.2912 56.1973 12.9986ZM53.4828 20.1321C52.8691 20.1321 52.3336 19.9915 51.8762 19.7102C51.4189 19.429 51.0637 19.0355 50.8109 18.5298C50.5581 18.0241 50.4316 17.4332 50.4316 16.7571C50.4316 16.0781 50.5581 15.4844 50.8109 14.9759C51.0637 14.4673 51.4189 14.0724 51.8762 13.7912C52.3336 13.5099 52.8691 13.3693 53.4828 13.3693C54.0964 13.3693 54.6319 13.5099 55.0893 13.7912C55.5467 14.0724 55.9018 14.4673 56.1547 14.9759C56.4075 15.4844 56.5339 16.0781 56.5339 16.7571C56.5339 17.4332 56.4075 18.0241 56.1547 18.5298C55.9018 19.0355 55.5467 19.429 55.0893 19.7102C54.6319 19.9915 54.0964 20.1321 53.4828 20.1321ZM53.487 19.0625C53.8848 19.0625 54.2143 18.9574 54.4757 18.7472C54.737 18.5369 54.9302 18.2571 55.0552 17.9077C55.1831 17.5582 55.247 17.1733 55.247 16.7528C55.247 16.3352 55.1831 15.9517 55.0552 15.6023C54.9302 15.25 54.737 14.9673 54.4757 14.7543C54.2143 14.5412 53.8848 14.4347 53.487 14.4347C53.0865 14.4347 52.7541 14.5412 52.4899 14.7543C52.2285 14.9673 52.0339 15.25 51.9061 15.6023C51.7811 15.9517 51.7186 16.3352 51.7186 16.7528C51.7186 17.1733 51.7811 17.5582 51.9061 17.9077C52.0339 18.2571 52.2285 18.5369 52.4899 18.7472C52.7541 18.9574 53.0865 19.0625 53.487 19.0625ZM54.0027 12.5511H52.997L52.9629 11.6818C53.264 11.6676 53.4771 11.6278 53.6021 11.5625C53.7271 11.4943 53.7882 11.3963 53.7853 11.2685C53.7882 11.1151 53.7015 11.0057 53.5254 10.9403C53.3521 10.875 53.1404 10.8423 52.8904 10.8423L52.9288 10.1392C53.5737 10.1392 54.0623 10.2415 54.3947 10.446C54.7299 10.6506 54.8961 10.9261 54.8933 11.2727C54.8961 11.554 54.8038 11.7614 54.6163 11.8949C54.4316 12.0256 54.2271 12.108 54.0027 12.142V12.5511ZM61.3162 20V11.2727H62.5904V14.5156H62.6671C62.7409 14.3793 62.8475 14.2216 62.9867 14.0426C63.1259 13.8636 63.3191 13.7074 63.5662 13.5739C63.8134 13.4375 64.1401 13.3693 64.5463 13.3693C65.0748 13.3693 65.5463 13.5028 65.9611 13.7699C66.3759 14.0369 66.7012 14.4219 66.937 14.9247C67.1756 15.4276 67.2949 16.0327 67.2949 16.7401C67.2949 17.4474 67.177 18.054 66.9412 18.5597C66.7054 19.0625 66.3816 19.4503 65.9696 19.723C65.5577 19.9929 65.0875 20.1278 64.5591 20.1278C64.1614 20.1278 63.8361 20.0611 63.5833 19.9276C63.3333 19.794 63.1373 19.6378 62.9952 19.4588C62.8532 19.2798 62.7438 19.1207 62.6671 18.9815H62.5605V20H61.3162ZM62.5648 16.7273C62.5648 17.1875 62.6316 17.5909 62.7651 17.9375C62.8986 18.2841 63.0918 18.5554 63.3446 18.7514C63.5975 18.9446 63.9071 19.0412 64.2736 19.0412C64.6543 19.0412 64.9725 18.9403 65.2282 18.7386C65.4838 18.5341 65.677 18.2571 65.8077 17.9077C65.9412 17.5582 66.008 17.1648 66.008 16.7273C66.008 16.2955 65.9426 15.9077 65.812 15.5639C65.6841 15.2202 65.4909 14.9489 65.2324 14.75C64.9767 14.5511 64.6571 14.4517 64.2736 14.4517C63.9043 14.4517 63.5918 14.5469 63.3361 14.7372C63.0833 14.9276 62.8915 15.1932 62.7608 15.5341C62.6301 15.875 62.5648 16.2727 62.5648 16.7273ZM70.6305 20.1449C70.2157 20.1449 69.8407 20.0682 69.5055 19.9148C69.1703 19.7585 68.9047 19.5327 68.7086 19.2372C68.5154 18.9418 68.4189 18.5795 68.4189 18.1506C68.4189 17.7812 68.4899 17.4773 68.6319 17.2386C68.774 17 68.9657 16.8111 69.2072 16.6719C69.4487 16.5327 69.7186 16.4276 70.0169 16.3565C70.3152 16.2855 70.6191 16.2315 70.9288 16.1946C71.3208 16.1491 71.639 16.1122 71.8833 16.0838C72.1277 16.0526 72.3052 16.0028 72.416 15.9347C72.5268 15.8665 72.5822 15.7557 72.5822 15.6023V15.5724C72.5822 15.2003 72.4771 14.9119 72.2669 14.7074C72.0595 14.5028 71.7498 14.4006 71.3379 14.4006C70.9089 14.4006 70.5708 14.4957 70.3237 14.6861C70.0794 14.8736 69.9103 15.0824 69.8166 15.3125L68.6191 15.0398C68.7612 14.642 68.9686 14.321 69.2413 14.0767C69.5169 13.8295 69.8336 13.6506 70.1916 13.5398C70.5495 13.4261 70.926 13.3693 71.3208 13.3693C71.5822 13.3693 71.8592 13.4006 72.1518 13.4631C72.4473 13.5227 72.7228 13.6335 72.9785 13.7955C73.237 13.9574 73.4487 14.1889 73.6135 14.4901C73.7782 14.7884 73.8606 15.1761 73.8606 15.6534V20H72.6163V19.1051H72.5652C72.4828 19.2699 72.3592 19.4318 72.1944 19.5909C72.0297 19.75 71.818 19.8821 71.5595 19.9872C71.301 20.0923 70.9913 20.1449 70.6305 20.1449ZM70.9075 19.1222C71.2598 19.1222 71.5609 19.0526 71.8109 18.9134C72.0637 18.7741 72.2555 18.5923 72.3862 18.3679C72.5197 18.1406 72.5865 17.8977 72.5865 17.6392V16.7955C72.541 16.8409 72.4529 16.8835 72.3223 16.9233C72.1944 16.9602 72.0481 16.9929 71.8833 17.0213C71.7186 17.0469 71.5581 17.071 71.4018 17.0938C71.2456 17.1136 71.1149 17.1307 71.0098 17.1449C70.7626 17.1761 70.5368 17.2287 70.3322 17.3026C70.1305 17.3764 69.9686 17.483 69.8464 17.6222C69.7271 17.7585 69.6674 17.9403 69.6674 18.1676C69.6674 18.483 69.7839 18.7216 70.0169 18.8835C70.2498 19.0426 70.5467 19.1222 70.9075 19.1222ZM70.8606 12.581L71.8578 10.6165H73.2001L71.8791 12.581H70.8606ZM76.8319 16.1136V20H75.5577V13.4545H76.7807V14.5199H76.8617C77.0123 14.1733 77.248 13.8949 77.5691 13.6847C77.8929 13.4744 78.3006 13.3693 78.7921 13.3693C79.2381 13.3693 79.6287 13.4631 79.964 13.6506C80.2992 13.8352 80.5591 14.1108 80.7438 14.4773C80.9284 14.8437 81.0208 15.2969 81.0208 15.8366V20H79.7466V15.9901C79.7466 15.5156 79.623 15.1449 79.3759 14.8778C79.1287 14.608 78.7892 14.473 78.3574 14.473C78.062 14.473 77.7992 14.5369 77.5691 14.6648C77.3418 14.7926 77.1614 14.9801 77.0279 15.2273C76.8972 15.4716 76.8319 15.767 76.8319 16.1136Z" fill="#475160"/>
</svg>
