<svg width="106" height="32" viewBox="0 0 106 32" fill="none" xmlns="http://www.w3.org/2000/svg">
<path d="M106 0H12C5.37258 0 0 5.37258 0 12V32H74C91.6731 32 106 17.6731 106 0Z" fill="#6639C8"/>
<path d="M13.8564 20H11.7001V18.8494H13.7839C14.4487 18.8494 15.0012 18.7244 15.4416 18.4744C15.8819 18.2216 16.2115 17.8565 16.4302 17.3793C16.649 16.8991 16.7583 16.3139 16.7583 15.6236C16.7583 14.9389 16.649 14.358 16.4302 13.8807C16.2143 13.4034 15.8919 13.0412 15.4629 12.794C15.0339 12.5469 14.5012 12.4233 13.8649 12.4233H11.6532V11.2727H13.9458C14.801 11.2727 15.5353 11.4474 16.149 11.7969C16.7626 12.1435 17.2328 12.642 17.5595 13.2926C17.889 13.9403 18.0538 14.7173 18.0538 15.6236C18.0538 16.5327 17.8876 17.3139 17.5552 17.9673C17.2257 18.6207 16.7484 19.1236 16.1234 19.4759C15.4984 19.8253 14.7427 20 13.8564 20ZM12.3478 11.2727V20H11.0311V11.2727H12.3478ZM9.7271 15.9048V15.027H13.6433V15.9048H9.7271ZM21.4938 20.1449C21.079 20.1449 20.704 20.0682 20.3688 19.9148C20.0336 19.7585 19.7679 19.5327 19.5719 19.2372C19.3787 18.9418 19.2821 18.5795 19.2821 18.1506C19.2821 17.7812 19.3532 17.4773 19.4952 17.2386C19.6373 17 19.829 16.8111 20.0705 16.6719C20.312 16.5327 20.5819 16.4276 20.8801 16.3565C21.1784 16.2855 21.4824 16.2315 21.7921 16.1946C22.1841 16.1491 22.5023 16.1122 22.7466 16.0838C22.9909 16.0526 23.1685 16.0028 23.2793 15.9347C23.3901 15.8665 23.4455 15.7557 23.4455 15.6023V15.5724C23.4455 15.2003 23.3404 14.9119 23.1301 14.7074C22.9228 14.5028 22.6131 14.4006 22.2012 14.4006C21.7722 14.4006 21.4341 14.4957 21.187 14.6861C20.9426 14.8736 20.7736 15.0824 20.6799 15.3125L19.4824 15.0398C19.6245 14.642 19.8319 14.321 20.1046 14.0767C20.3801 13.8295 20.6969 13.6506 21.0549 13.5398C21.4128 13.4261 21.7892 13.3693 22.1841 13.3693C22.4455 13.3693 22.7225 13.4006 23.0151 13.4631C23.3105 13.5227 23.5861 13.6335 23.8418 13.7955C24.1003 13.9574 24.312 14.1889 24.4767 14.4901C24.6415 14.7884 24.7239 15.1761 24.7239 15.6534V20H23.4796V19.1051H23.4284C23.3461 19.2699 23.2225 19.4318 23.0577 19.5909C22.8929 19.75 22.6813 19.8821 22.4228 19.9872C22.1642 20.0923 21.8546 20.1449 21.4938 20.1449ZM21.7708 19.1222C22.123 19.1222 22.4242 19.0526 22.6742 18.9134C22.927 18.7741 23.1188 18.5923 23.2495 18.3679C23.383 18.1406 23.4498 17.8977 23.4498 17.6392V16.7955C23.4043 16.8409 23.3162 16.8835 23.1855 16.9233C23.0577 16.9602 22.9114 16.9929 22.7466 17.0213C22.5819 17.0469 22.4213 17.071 22.2651 17.0938C22.1088 17.1136 21.9782 17.1307 21.873 17.1449C21.6259 17.1761 21.4 17.2287 21.1955 17.3026C20.9938 17.3764 20.8319 17.483 20.7097 17.6222C20.5904 17.7585 20.5307 17.9403 20.5307 18.1676C20.5307 18.483 20.6472 18.7216 20.8801 18.8835C21.1131 19.0426 21.41 19.1222 21.7708 19.1222ZM27.6951 16.1136V20H26.421V13.4545H27.644V14.5199H27.725C27.8755 14.1733 28.1113 13.8949 28.4324 13.6847C28.7562 13.4744 29.1639 13.3693 29.6554 13.3693C30.1014 13.3693 30.492 13.4631 30.8272 13.6506C31.1625 13.8352 31.4224 14.1108 31.6071 14.4773C31.7917 14.8437 31.8841 15.2969 31.8841 15.8366V20H30.6099V15.9901C30.6099 15.5156 30.4863 15.1449 30.2392 14.8778C29.992 14.608 29.6525 14.473 29.2207 14.473C28.9252 14.473 28.6625 14.5369 28.4324 14.6648C28.2051 14.7926 28.0247 14.9801 27.8912 15.2273C27.7605 15.4716 27.6951 15.767 27.6951 16.1136ZM36.3372 22.5909C35.8173 22.5909 35.3699 22.5227 34.9949 22.3864C34.6227 22.25 34.3187 22.0696 34.0829 21.8452C33.8471 21.6207 33.671 21.375 33.5545 21.108L34.6497 20.6562C34.7264 20.7812 34.8287 20.9134 34.9565 21.0526C35.0872 21.1946 35.2633 21.3153 35.4849 21.4148C35.7093 21.5142 35.9977 21.5639 36.35 21.5639C36.8329 21.5639 37.2321 21.446 37.5474 21.2102C37.8627 20.9773 38.0204 20.6051 38.0204 20.0938V18.8068H37.9395C37.8627 18.946 37.752 19.1009 37.6071 19.2713C37.465 19.4418 37.269 19.5895 37.019 19.7145C36.769 19.8395 36.4437 19.902 36.0431 19.902C35.5261 19.902 35.0602 19.7812 34.6454 19.5398C34.2335 19.2955 33.9068 18.9361 33.6653 18.4616C33.4267 17.9844 33.3074 17.3977 33.3074 16.7017C33.3074 16.0057 33.4252 15.4091 33.661 14.9119C33.8997 14.4148 34.2264 14.0341 34.6412 13.7699C35.0559 13.5028 35.5261 13.3693 36.0517 13.3693C36.4579 13.3693 36.786 13.4375 37.036 13.5739C37.286 13.7074 37.4806 13.8636 37.6199 14.0426C37.7619 14.2216 37.8713 14.3793 37.948 14.5156H38.0417V13.4545H39.2903V20.1449C39.2903 20.7074 39.1596 21.169 38.8983 21.5298C38.6369 21.8906 38.2832 22.1577 37.8372 22.331C37.394 22.5043 36.894 22.5909 36.3372 22.5909ZM36.3244 18.8452C36.6909 18.8452 37.0005 18.7599 37.2534 18.5895C37.5091 18.4162 37.7022 18.169 37.8329 17.848C37.9664 17.5241 38.0332 17.1364 38.0332 16.6847C38.0332 16.2443 37.9679 15.8565 37.8372 15.5213C37.7065 15.1861 37.5147 14.9247 37.2619 14.7372C37.0091 14.5469 36.6966 14.4517 36.3244 14.4517C35.9409 14.4517 35.6213 14.5511 35.3656 14.75C35.1099 14.946 34.9167 15.2131 34.786 15.5511C34.6582 15.8892 34.5943 16.267 34.5943 16.6847C34.5943 17.1136 34.6596 17.4901 34.7903 17.8139C34.921 18.1378 35.1142 18.3906 35.3699 18.5724C35.6284 18.7543 35.9466 18.8452 36.3244 18.8452ZM44.1749 20V13.4545H45.3979V14.5199H45.4789C45.6152 14.1591 45.8382 13.8778 46.1479 13.6761C46.4576 13.4716 46.8283 13.3693 47.2601 13.3693C47.6976 13.3693 48.0641 13.4716 48.3596 13.6761C48.6578 13.8807 48.878 14.1619 49.0201 14.5199H49.0882C49.2445 14.1705 49.4931 13.892 49.834 13.6847C50.1749 13.4744 50.5811 13.3693 51.0527 13.3693C51.6465 13.3693 52.1309 13.5554 52.5059 13.9276C52.8837 14.2997 53.0726 14.8608 53.0726 15.6108V20H51.7985V15.7301C51.7985 15.2869 51.6777 14.9659 51.4363 14.767C51.1948 14.5682 50.9064 14.4688 50.5712 14.4688C50.1564 14.4688 49.834 14.5966 49.6039 14.8523C49.3738 15.1051 49.2587 15.4304 49.2587 15.8281V20H47.9888V15.6491C47.9888 15.294 47.878 15.0085 47.6564 14.7926C47.4348 14.5767 47.1465 14.4688 46.7914 14.4688C46.5499 14.4688 46.3269 14.5327 46.1223 14.6605C45.9206 14.7855 45.7573 14.9602 45.6323 15.1847C45.5101 15.4091 45.449 15.669 45.449 15.9645V20H44.1749ZM60.252 12.9986H61.2363C61.2363 13.669 61.0843 14.1989 60.7804 14.5881C60.4792 14.9744 59.965 15.1676 59.2377 15.1676V14.4517C59.5275 14.4517 59.7449 14.392 59.8897 14.2727C60.0346 14.1506 60.1312 13.9815 60.1795 13.7656C60.2278 13.5469 60.252 13.2912 60.252 12.9986ZM57.5375 20.1321C56.9238 20.1321 56.3883 19.9915 55.9309 19.7102C55.4735 19.429 55.1184 19.0355 54.8656 18.5298C54.6127 18.0241 54.4863 17.4332 54.4863 16.7571C54.4863 16.0781 54.6127 15.4844 54.8656 14.9759C55.1184 14.4673 55.4735 14.0724 55.9309 13.7912C56.3883 13.5099 56.9238 13.3693 57.5375 13.3693C58.1511 13.3693 58.6866 13.5099 59.144 13.7912C59.6014 14.0724 59.9565 14.4673 60.2093 14.9759C60.4622 15.4844 60.5886 16.0781 60.5886 16.7571C60.5886 17.4332 60.4622 18.0241 60.2093 18.5298C59.9565 19.0355 59.6014 19.429 59.144 19.7102C58.6866 19.9915 58.1511 20.1321 57.5375 20.1321ZM57.5417 19.0625C57.9395 19.0625 58.269 18.9574 58.5304 18.7472C58.7917 18.5369 58.9849 18.2571 59.1099 17.9077C59.2377 17.5582 59.3017 17.1733 59.3017 16.7528C59.3017 16.3352 59.2377 15.9517 59.1099 15.6023C58.9849 15.25 58.7917 14.9673 58.5304 14.7543C58.269 14.5412 57.9395 14.4347 57.5417 14.4347C57.1412 14.4347 56.8088 14.5412 56.5446 14.7543C56.2832 14.9673 56.0886 15.25 55.9608 15.6023C55.8358 15.9517 55.7733 16.3352 55.7733 16.7528C55.7733 17.1733 55.8358 17.5582 55.9608 17.9077C56.0886 18.2571 56.2832 18.5369 56.5446 18.7472C56.8088 18.9574 57.1412 19.0625 57.5417 19.0625ZM58.0574 12.5511H57.0517L57.0176 11.6818C57.3187 11.6676 57.5318 11.6278 57.6568 11.5625C57.7818 11.4943 57.8429 11.3963 57.84 11.2685C57.8429 11.1151 57.7562 11.0057 57.5801 10.9403C57.4068 10.875 57.1951 10.8423 56.9451 10.8423L56.9835 10.1392C57.6284 10.1392 58.117 10.2415 58.4494 10.446C58.7846 10.6506 58.9508 10.9261 58.948 11.2727C58.9508 11.554 58.8585 11.7614 58.671 11.8949C58.4863 12.0256 58.2818 12.108 58.0574 12.142V12.5511ZM65.3709 20V11.2727H66.6451V14.5156H66.7218C66.7956 14.3793 66.9022 14.2216 67.0414 14.0426C67.1806 13.8636 67.3738 13.7074 67.6209 13.5739C67.8681 13.4375 68.1948 13.3693 68.601 13.3693C69.1294 13.3693 69.601 13.5028 70.0158 13.7699C70.4306 14.0369 70.7559 14.4219 70.9917 14.9247C71.2303 15.4276 71.3496 16.0327 71.3496 16.7401C71.3496 17.4474 71.2317 18.054 70.9959 18.5597C70.7601 19.0625 70.4363 19.4503 70.0243 19.723C69.6124 19.9929 69.1422 20.1278 68.6138 20.1278C68.2161 20.1278 67.8908 20.0611 67.638 19.9276C67.388 19.794 67.1919 19.6378 67.0499 19.4588C66.9078 19.2798 66.7985 19.1207 66.7218 18.9815H66.6152V20H65.3709ZM66.6195 16.7273C66.6195 17.1875 66.6863 17.5909 66.8198 17.9375C66.9533 18.2841 67.1465 18.5554 67.3993 18.7514C67.6522 18.9446 67.9618 19.0412 68.3283 19.0412C68.709 19.0412 69.0272 18.9403 69.2828 18.7386C69.5385 18.5341 69.7317 18.2571 69.8624 17.9077C69.9959 17.5582 70.0627 17.1648 70.0627 16.7273C70.0627 16.2955 69.9973 15.9077 69.8667 15.5639C69.7388 15.2202 69.5456 14.9489 69.2871 14.75C69.0314 14.5511 68.7118 14.4517 68.3283 14.4517C67.959 14.4517 67.6465 14.5469 67.3908 14.7372C67.138 14.9276 66.9462 15.1932 66.8155 15.5341C66.6848 15.875 66.6195 16.2727 66.6195 16.7273ZM74.6852 20.1449C74.2704 20.1449 73.8954 20.0682 73.5602 19.9148C73.225 19.7585 72.9593 19.5327 72.7633 19.2372C72.5701 18.9418 72.4735 18.5795 72.4735 18.1506C72.4735 17.7812 72.5446 17.4773 72.6866 17.2386C72.8287 17 73.0204 16.8111 73.2619 16.6719C73.5034 16.5327 73.7733 16.4276 74.0716 16.3565C74.3699 16.2855 74.6738 16.2315 74.9835 16.1946C75.3755 16.1491 75.6937 16.1122 75.938 16.0838C76.1824 16.0526 76.3599 16.0028 76.4707 15.9347C76.5815 15.8665 76.6369 15.7557 76.6369 15.6023V15.5724C76.6369 15.2003 76.5318 14.9119 76.3216 14.7074C76.1142 14.5028 75.8045 14.4006 75.3926 14.4006C74.9636 14.4006 74.6255 14.4957 74.3784 14.6861C74.1341 14.8736 73.965 15.0824 73.8713 15.3125L72.6738 15.0398C72.8159 14.642 73.0233 14.321 73.296 14.0767C73.5716 13.8295 73.8883 13.6506 74.2463 13.5398C74.6042 13.4261 74.9806 13.3693 75.3755 13.3693C75.6369 13.3693 75.9139 13.4006 76.2065 13.4631C76.502 13.5227 76.7775 13.6335 77.0332 13.7955C77.2917 13.9574 77.5034 14.1889 77.6681 14.4901C77.8329 14.7884 77.9153 15.1761 77.9153 15.6534V20H76.671V19.1051H76.6199C76.5375 19.2699 76.4139 19.4318 76.2491 19.5909C76.0843 19.75 75.8727 19.8821 75.6142 19.9872C75.3556 20.0923 75.046 20.1449 74.6852 20.1449ZM74.9622 19.1222C75.3145 19.1222 75.6156 19.0526 75.8656 18.9134C76.1184 18.7741 76.3102 18.5923 76.4409 18.3679C76.5744 18.1406 76.6412 17.8977 76.6412 17.6392V16.7955C76.5957 16.8409 76.5076 16.8835 76.377 16.9233C76.2491 16.9602 76.1028 16.9929 75.938 17.0213C75.7733 17.0469 75.6127 17.071 75.4565 17.0938C75.3002 17.1136 75.1696 17.1307 75.0645 17.1449C74.8173 17.1761 74.5914 17.2287 74.3869 17.3026C74.1852 17.3764 74.0233 17.483 73.9011 17.6222C73.7818 17.7585 73.7221 17.9403 73.7221 18.1676C73.7221 18.483 73.8386 18.7216 74.0716 18.8835C74.3045 19.0426 74.6014 19.1222 74.9622 19.1222ZM74.9153 12.581L75.9125 10.6165H77.2548L75.9338 12.581H74.9153ZM80.8865 16.1136V20H79.6124V13.4545H80.8354V14.5199H80.9164C81.0669 14.1733 81.3027 13.8949 81.6238 13.6847C81.9476 13.4744 82.3553 13.3693 82.8468 13.3693C83.2928 13.3693 83.6834 13.4631 84.0186 13.6506C84.3539 13.8352 84.6138 14.1108 84.7985 14.4773C84.9831 14.8437 85.0755 15.2969 85.0755 15.8366V20H83.8013V15.9901C83.8013 15.5156 83.6777 15.1449 83.4306 14.8778C83.1834 14.608 82.8439 14.473 82.4121 14.473C82.1167 14.473 81.8539 14.5369 81.6238 14.6648C81.3965 14.7926 81.2161 14.9801 81.0826 15.2273C80.9519 15.4716 80.8865 15.767 80.8865 16.1136Z" fill="white"/>
</svg>
