<svg width="31" height="31" viewBox="0 0 31 31" fill="none" xmlns="http://www.w3.org/2000/svg">
<path d="M12.0231 4.86923H14.2077V7.05384H12.0231V4.86923ZM12.0231 9.63846H14.2077V11.8231H12.0231V9.63846ZM12.0231 14.4077H14.2077V16.5923H12.0231V14.4077ZM12.0231 19.1769H14.2077V21.3615H12.0231V19.1769ZM16.7923 4.86923H18.9769V7.05384H16.7923V4.86923ZM16.7923 9.63846H18.9769V11.8231H16.7923V9.63846ZM16.7923 14.4077H18.9769V16.5923H16.7923V14.4077ZM16.7923 19.1769H18.9769V21.3615H16.7923V19.1769Z" fill="#7A7A7A" stroke="white" stroke-width="0.2"/>
<path d="M23.7462 28.6154V28.7154H23.8462H29.8077C30.0974 28.7154 30.3752 28.8305 30.5801 29.0353C30.7849 29.2402 30.9 29.518 30.9 29.8077C30.9 30.0974 30.7849 30.3752 30.5801 30.5801C30.3752 30.7849 30.0974 30.9 29.8077 30.9H1.19231C0.902609 30.9 0.624777 30.7849 0.41993 30.5801C0.215082 30.3752 0.1 30.0974 0.1 29.8077C0.1 29.518 0.215082 29.2402 0.419929 29.0353C0.624777 28.8305 0.902609 28.7154 1.19231 28.7154H2.38462H2.48462V28.6154V5.96154C2.48462 5.67184 2.5997 5.39401 2.80455 5.18916C3.00939 4.98431 3.28723 4.86923 3.57692 4.86923H7.15385H7.25385V4.76923V1.19231C7.25385 0.90261 7.36893 0.624777 7.57378 0.41993C7.77862 0.215082 8.05646 0.1 8.34615 0.1H22.6538C22.9435 0.1 23.2214 0.215082 23.4262 0.419929C23.6311 0.624777 23.7462 0.902609 23.7462 1.19231V4.76923V4.86923H23.8462H27.4231C27.7128 4.86923 27.9906 4.98431 28.1955 5.18916C28.4003 5.39401 28.5154 5.67184 28.5154 5.96154V25.0385C28.5154 25.3282 28.4003 25.606 28.1955 25.8108C27.9906 26.0157 27.7128 26.1308 27.4231 26.1308C27.1334 26.1308 26.8555 26.0157 26.6507 25.8108C26.4459 25.606 26.3308 25.3282 26.3308 25.0385V7.15385V7.05385H26.2308H23.8462H23.7462V7.15385V28.6154ZM4.76923 7.05385H4.66923V7.15385V28.6154V28.7154H4.76923H11.9231H12.0231V28.6154V25.0385C12.0231 24.7488 12.1382 24.4709 12.343 24.2661C12.5479 24.0612 12.8257 23.9462 13.1154 23.9462H17.8846C18.1743 23.9462 18.4521 24.0612 18.657 24.2661C18.8618 24.4709 18.9769 24.7488 18.9769 25.0385V28.6154V28.7154H19.0769H21.4615H21.5615V28.6154V2.38462V2.28462H21.4615H9.53846H9.43846V2.38462V25.0385C9.43846 25.3282 9.32338 25.606 9.11853 25.8108C8.91368 26.0157 8.63585 26.1308 8.34615 26.1308C8.05646 26.1308 7.77862 26.0157 7.57378 25.8108C7.36893 25.606 7.25385 25.3282 7.25385 25.0385V7.15385V7.05385H7.15385H4.76923ZM16.6923 28.7154H16.7923V28.6154V26.2308V26.1308H16.6923H14.3077H14.2077V26.2308V28.6154V28.7154H14.3077H16.6923Z" fill="#7A7A7A" stroke="white" stroke-width="0.2"/>
</svg>
