<svg width="18" height="11" viewBox="0 0 18 11" fill="none" xmlns="http://www.w3.org/2000/svg">
<path d="M17.0938 10.2531L16.7529 6.9716C16.7135 6.61136 16.2718 6.45647 16.0184 6.70985L15.2135 7.51479L10.1448 2.44609C9.82693 2.12795 9.26674 2.12795 8.94887 2.44609L6.15709 5.23787L1.44027 0.518349C1.27674 0.355095 1.06006 0.270635 0.843379 0.270635C0.626697 0.270635 0.410014 0.355095 0.24703 0.518079C0.0888248 0.676929 0 0.89199 0 1.11618C0 1.34037 0.0888248 1.55543 0.24703 1.71428L5.5602 7.02773C5.87835 7.34587 6.43854 7.34587 6.75371 7.02773L9.54819 4.23595L14.0203 8.70803L13.0774 9.65085C12.8214 9.90693 12.9762 10.3487 13.3365 10.3854L16.6178 10.7259C16.6817 10.733 16.7464 10.7256 16.8071 10.7044C16.8679 10.6832 16.9231 10.6487 16.9687 10.6033C17.0143 10.558 17.0492 10.503 17.0708 10.4424C17.0924 10.3818 17.1004 10.3171 17.0938 10.2531Z" fill="#D6465F"/>
</svg>
