<svg width="20" height="17" viewBox="0 0 20 17" fill="none" xmlns="http://www.w3.org/2000/svg">
<path d="M13.9586 11.2387C13.8341 11.2382 13.711 11.213 13.5963 11.1646C13.4817 11.1161 13.3778 11.0454 13.2906 10.9565C13.1154 10.7802 13.0171 10.5418 13.0171 10.2932C13.0171 10.0447 13.1154 9.80625 13.2906 9.62998L16.4235 6.53479H6.89327C5.77046 6.53479 4.69364 6.98082 3.8997 7.77477C3.10575 8.56871 2.65972 9.64553 2.65972 10.7683C2.65972 11.8911 3.10575 12.968 3.8997 13.7619C4.69364 14.5559 5.77046 15.0019 6.89327 15.0019H9.25465C9.50416 15.0019 9.74345 15.101 9.91989 15.2774C10.0963 15.4539 10.1954 15.6932 10.1954 15.9427C10.1954 16.1922 10.0963 16.4315 9.91989 16.6079C9.74345 16.7843 9.50416 16.8835 9.25465 16.8835H6.89327C5.27144 16.8835 3.71603 16.2392 2.56922 15.0924C1.42241 13.9456 0.77814 12.3902 0.77814 10.7683C0.77814 9.14651 1.42241 7.5911 2.56922 6.44429C3.71603 5.29748 5.27144 4.65321 6.89327 4.65321H16.4329L13.3 1.55802C13.1445 1.37915 13.0623 1.14819 13.0697 0.911299C13.0772 0.674412 13.1737 0.449057 13.3401 0.280286C13.5065 0.111515 13.7305 0.0117644 13.9672 0.00097599C14.204 -0.00981239 14.4361 0.0691563 14.6171 0.222095L19.3869 4.92604C19.4741 5.01395 19.5431 5.1182 19.5899 5.23283C19.6368 5.34745 19.6605 5.47019 19.6598 5.594C19.6593 5.71847 19.634 5.84161 19.5856 5.95627C19.5372 6.07092 19.4664 6.17483 19.3775 6.26196L14.6171 10.9659C14.4419 11.1397 14.2054 11.2377 13.9586 11.2387Z" fill="white"/>
</svg>
