<svg width="25" height="24" viewBox="0 0 25 24" fill="none" xmlns="http://www.w3.org/2000/svg">
<path d="M22.9131 20.871V20.8813H23.0631C23.7085 20.8813 24.2325 21.4052 24.2325 22.0506C24.2325 22.696 23.7085 23.22 23.0632 23.22H5.28767C2.45052 23.22 0.15 20.9194 0.15 18.0823V1.31937C0.15 0.673975 0.673975 0.15 1.31937 0.15C1.96476 0.15 2.48874 0.674019 2.48874 1.31937L2.48874 18.0823L2.48874 18.083C2.49523 19.625 3.74553 20.871 5.28767 20.871H22.9131Z" fill="#7A7A7A" stroke="white" stroke-width="0.3"/>
<path d="M7.75934 14.6449V14.6317L7.61222 14.6288C7.3654 14.6241 7.12648 14.541 6.93004 14.3915L6.92997 14.3914C6.41592 14.0006 6.3154 13.2663 6.70598 12.7525L6.70608 12.7525L6.70966 12.7474L10.4783 7.33439C10.4816 7.3304 10.4847 7.32627 10.4876 7.322C10.8763 6.80991 11.6071 6.70811 12.1216 7.09505L16.458 10.3576L16.5822 10.4511L16.6712 10.3236L19.738 5.92786C20.1264 5.41093 20.8596 5.30638 21.3778 5.6941C21.8964 6.08213 22.0017 6.81654 21.6136 7.33531L21.6135 7.33527L21.6111 7.3387L17.7707 12.7826C17.7671 12.7869 17.7637 12.7914 17.7605 12.7962C17.3717 13.3077 16.6413 13.4093 16.1271 13.0225C16.127 13.0225 16.127 13.0225 16.127 13.0225L11.7906 9.75993L11.6663 9.66646L11.5774 9.79397L8.51047 14.1898C8.40493 14.331 8.26891 14.4465 8.11254 14.5278C8.0015 14.5856 7.88223 14.625 7.75934 14.6449Z" fill="#7A7A7A" stroke="white" stroke-width="0.3"/>
</svg>
