<svg width="20" height="20" viewBox="0 0 20 20" fill="none" xmlns="http://www.w3.org/2000/svg">
<path d="M13.0233 9.06977V10.9302C13.0233 11.6087 13.2928 12.2594 13.7725 12.7391C14.2523 13.2189 14.9029 13.4884 15.5814 13.4884H17.4419C18.1203 13.4884 18.771 13.2189 19.2507 12.7391C19.7305 12.2594 20 11.6087 20 10.9302V9.06977C20 8.39131 19.7305 7.74063 19.2507 7.26089C18.771 6.78115 18.1203 6.51163 17.4419 6.51163H15.5814C14.9029 6.51163 14.2523 6.78115 13.7725 7.26089C13.2928 7.74063 13.0233 8.39131 13.0233 9.06977ZM0 2.55814V4.4186C0 5.09707 0.269518 5.74774 0.749262 6.22748C1.22901 6.70723 1.87968 6.97674 2.55814 6.97674H4.4186C5.09707 6.97674 5.74774 6.70723 6.22748 6.22748C6.70723 5.74774 6.97674 5.09707 6.97674 4.4186V2.55814C6.97674 1.87968 6.70723 1.22901 6.22748 0.749262C5.74774 0.269518 5.09707 0 4.4186 0H2.55814C1.87968 0 1.22901 0.269518 0.749262 0.749262C0.269518 1.22901 0 1.87968 0 2.55814ZM0 15.5814V17.4419C0 18.1203 0.269518 18.771 0.749262 19.2507C1.22901 19.7305 1.87968 20 2.55814 20H4.4186C5.09707 20 5.74774 19.7305 6.22748 19.2507C6.70723 18.771 6.97674 18.1203 6.97674 17.4419V15.5814C6.97674 14.9029 6.70723 14.2523 6.22748 13.7725C5.74774 13.2928 5.09707 13.0233 4.4186 13.0233H2.55814C1.87968 13.0233 1.22901 13.2928 0.749262 13.7725C0.269518 14.2523 0 14.9029 0 15.5814Z" fill="#D6465F"/>
<path d="M3.45217 14.416L3.48845 14.417L3.51821 14.4132C3.65217 14.3946 4.18612 14.2812 4.18612 13.7072V12.7891C4.18612 12.234 4.40663 11.7016 4.79915 11.3091C5.19167 10.9166 5.72404 10.696 6.27914 10.696H13.721C13.906 10.696 14.0835 10.6225 14.2143 10.4917C14.3452 10.3609 14.4187 10.1834 14.4187 9.99836C14.4187 9.81333 14.3452 9.63587 14.2143 9.50503C14.0835 9.3742 13.906 9.30069 13.721 9.30069H6.27914C5.35412 9.30118 4.46713 9.66887 3.81304 10.323C3.15895 10.977 2.79126 11.864 2.79077 12.7891V13.7193C2.79077 13.7677 2.79542 13.8151 2.80566 13.8607C2.8366 14.0118 2.9169 14.1484 3.03393 14.2489C3.15096 14.3495 3.29809 14.4082 3.45217 14.416ZM16.4754 7.90441L16.5117 7.90534L16.5415 7.90162C16.6754 7.88302 17.2094 7.76953 17.2094 7.19557V6.27743C17.2089 5.35241 16.8412 4.46542 16.1871 3.81133C15.533 3.15724 14.646 2.78956 13.721 2.78906H6.27914C6.09411 2.78906 5.91665 2.86257 5.78581 2.99341C5.65497 3.12425 5.58147 3.3017 5.58147 3.48674C5.58147 3.67177 5.65497 3.84923 5.78581 3.98007C5.91665 4.11091 6.09411 4.18441 6.27914 4.18441H13.721C14.2761 4.18441 14.8085 4.40493 15.201 4.79744C15.5935 5.18996 15.814 5.72233 15.814 6.27743V7.20767C15.814 7.25604 15.8187 7.30348 15.8289 7.34906C15.8599 7.50021 15.9402 7.63678 16.0572 7.73731C16.1742 7.83783 16.3213 7.89662 16.4754 7.90441ZM6.27914 17.2077H12.7908C12.9287 17.2075 13.0634 17.1666 13.1781 17.0899C13.2927 17.0132 13.382 16.9043 13.4348 16.7769C13.4875 16.6495 13.5013 16.5093 13.4745 16.3741C13.4476 16.2388 13.3812 16.1145 13.2838 16.017L11.4233 14.1565C11.3586 14.0918 11.2817 14.0404 11.1971 14.0054C11.1125 13.9703 11.0219 13.9523 10.9303 13.9523C10.8387 13.9523 10.7481 13.9703 10.6635 14.0054C10.5789 14.0404 10.502 14.0918 10.4373 14.1565C10.3725 14.2212 10.3212 14.2981 10.2861 14.3827C10.2511 14.4673 10.2331 14.558 10.2331 14.6495C10.2331 14.7411 10.2511 14.8318 10.2861 14.9164C10.3212 15.0009 10.3725 15.0778 10.4373 15.1426L11.1061 15.8123H6.27914C6.09411 15.8123 5.91665 15.8858 5.78581 16.0167C5.65497 16.1475 5.58147 16.325 5.58147 16.51C5.58147 16.695 5.65497 16.8725 5.78581 17.0033C5.91665 17.1342 6.09411 17.2077 6.27914 17.2077Z" fill="#D6465F"/>
<path d="M12.2976 16.0167L10.4371 17.8772C10.3724 17.9419 10.321 18.0188 10.286 18.1034C10.2509 18.188 10.2329 18.2786 10.2329 18.3702C10.2329 18.4618 10.2509 18.5524 10.286 18.637C10.321 18.7216 10.3724 18.7985 10.4371 18.8632C10.5019 18.928 10.5787 18.9793 10.6633 19.0144C10.7479 19.0494 10.8386 19.0674 10.9302 19.0674C11.0217 19.0674 11.1124 19.0494 11.197 19.0144C11.2816 18.9793 11.3584 18.928 11.4232 18.8632L13.2836 17.0028C13.3484 16.938 13.3997 16.8612 13.4348 16.7766C13.4698 16.692 13.4879 16.6013 13.4879 16.5097C13.4879 16.4182 13.4698 16.3275 13.4348 16.2429C13.3997 16.1583 13.3484 16.0815 13.2836 16.0167C13.2189 15.952 13.142 15.9006 13.0574 15.8656C12.9728 15.8305 12.8822 15.8125 12.7906 15.8125C12.6991 15.8125 12.6084 15.8305 12.5238 15.8656C12.4392 15.9006 12.3623 15.952 12.2976 16.0167Z" fill="#D6465F"/>
</svg>
