<svg width="36" height="34" viewBox="0 0 36 34" fill="none" xmlns="http://www.w3.org/2000/svg">
<path fill-rule="evenodd" clip-rule="evenodd" d="M34.6757 4.1816C34.6514 4.49105 34.8826 4.76161 35.192 4.78587C35.5015 4.81012 35.772 4.57894 35.7963 4.26949L35.9979 1.79892H35.9977C36.0004 1.7637 35.9999 1.7277 35.9957 1.69127C35.9606 1.38302 35.6821 1.16168 35.3739 1.19691L32.9122 1.4873C32.6039 1.52245 32.3826 1.80089 32.4178 2.10914C32.4529 2.41739 32.7314 2.63873 33.0396 2.60351L33.9462 2.49656L27.5238 9.17456L20.8018 5.85891C20.5995 5.74148 20.3367 5.75906 20.1504 5.9212L15.7967 9.71323C15.8804 9.25134 15.9242 8.77582 15.9242 8.29017C15.9242 3.89993 12.3525 0.328125 7.96219 0.328125C3.57187 0.328125 0 3.89986 0 8.2901C0 12.6803 3.57173 16.2521 7.96198 16.2521C11.09 16.2521 13.8021 14.4386 15.1033 11.808L20.6073 7.01421L27.3952 10.3624C27.6249 10.4757 27.8947 10.4173 28.0587 10.2368L34.7492 3.27998L34.6757 4.1816ZM7.96205 15.1271C4.1921 15.1271 1.125 12.06 1.125 8.2901C1.125 4.52016 4.1921 1.45305 7.96198 1.45305C11.7319 1.45305 14.799 4.52016 14.799 8.2901C14.799 12.06 11.732 15.1271 7.96205 15.1271ZM17.6907 16.004H14.5074C13.8096 16.004 13.2418 16.5718 13.2418 17.2696V32.4111C13.2418 33.1089 13.8096 33.6767 14.5074 33.6767H17.6907C18.3885 33.6767 18.9563 33.1089 18.9563 32.4111V17.2697C18.9563 16.5718 18.3885 16.004 17.6907 16.004ZM17.8313 32.4112C17.8313 32.4874 17.7669 32.5518 17.6907 32.5518H14.5074C14.4312 32.5518 14.3668 32.4874 14.3668 32.4112V17.2697C14.3668 17.1935 14.4312 17.1291 14.5074 17.1291H17.6907C17.7669 17.1291 17.8313 17.1935 17.8313 17.2697V32.4112ZM26.2126 19.134H23.0294C22.3315 19.134 21.7638 19.7018 21.7638 20.3997V32.4112C21.7638 33.109 22.3315 33.6768 23.0294 33.6768H26.2126C26.9105 33.6768 27.4783 33.109 27.4783 32.4112V20.3997C27.4783 19.7018 26.9105 19.134 26.2126 19.134ZM26.3533 32.4112C26.3533 32.4874 26.2889 32.5518 26.2126 32.5518H23.0294C22.9532 32.5518 22.8888 32.4874 22.8888 32.4112V20.3997C22.8888 20.3235 22.9532 20.259 23.0294 20.259H26.2126C26.2889 20.259 26.3533 20.3235 26.3533 20.3997V32.4112ZM34.7344 9.98379H31.5511C30.8533 9.98379 30.2855 10.5516 30.2855 11.2494V32.4111C30.2855 33.1089 30.8533 33.6767 31.5511 33.6767H34.7344C35.4322 33.6767 36 33.1089 36 32.4111V11.2494C36 10.5516 35.4322 9.98379 34.7344 9.98379ZM34.875 32.4111C34.875 32.4873 34.8106 32.5517 34.7344 32.5517H31.5511C31.4749 32.5517 31.4105 32.4873 31.4105 32.4111V11.2494C31.4105 11.1732 31.4749 11.1088 31.5511 11.1088H34.7344C34.8106 11.1088 34.875 11.1732 34.875 11.2494V32.4111ZM9.16882 23.7471H5.98563C5.28778 23.7471 4.72001 24.3149 4.72001 25.0127V32.4111C4.72001 33.1089 5.28778 33.6767 5.98563 33.6767H9.16882C9.86667 33.6767 10.4344 33.1089 10.4344 32.4111V25.0127C10.4344 24.3149 9.86667 23.7471 9.16882 23.7471ZM9.30945 32.4111C9.30945 32.4873 9.24504 32.5517 9.16882 32.5517H5.98563C5.90941 32.5517 5.84501 32.4873 5.84501 32.4111V25.0127C5.84501 24.9365 5.90941 24.8721 5.98563 24.8721H9.16882C9.24504 24.8721 9.30945 24.9365 9.30945 25.0127V32.4111ZM10.8636 9.95841C10.9486 10.6487 10.7066 11.3656 10.0716 11.8474C9.63436 12.1792 9.07242 12.3747 8.52455 12.4509V12.9725C8.52455 13.2831 8.27269 13.535 7.96205 13.535C7.65141 13.535 7.39955 13.2831 7.39955 12.9725V12.4405C6.94491 12.3668 6.51002 12.2059 6.13772 11.958C5.61403 11.6091 5.21283 11.0947 5.0433 10.4145C4.96927 10.1136 5.15327 9.80962 5.45421 9.73559C5.75515 9.66155 6.05911 9.84555 6.13315 10.1465C6.22884 10.5304 6.45778 10.8224 6.75738 11.022C7.49419 11.5127 8.68268 11.4957 9.39487 10.9553C10.023 10.4787 9.79263 9.59981 9.18352 9.23208C8.81409 9.00905 8.33084 8.89134 7.87873 8.81716C7.33015 8.72709 6.73594 8.56397 6.25366 8.24911C5.00998 7.43721 4.97278 5.65085 6.1084 4.72751C6.45736 4.4438 6.89084 4.24903 7.35279 4.15601L7.39962 4.14694V3.60764C7.39962 3.297 7.65148 3.04514 7.96212 3.04514C8.27276 3.04514 8.52462 3.297 8.52462 3.60764V4.13836C8.60034 4.15144 8.67565 4.16747 8.75025 4.18631C9.54977 4.38902 10.2771 4.91468 10.6591 5.82459C10.7792 6.11098 10.6445 6.44053 10.3581 6.5607C10.0717 6.68079 9.74215 6.54607 9.62198 6.25969C9.34854 5.60789 8.67691 5.2211 7.97513 5.22075C7.22707 5.22033 6.354 5.66977 6.39541 6.52322C6.43549 7.34869 7.39645 7.6009 8.05894 7.70967C8.62791 7.80305 9.24813 7.95844 9.76359 8.26964C10.3951 8.65095 10.7815 9.29226 10.8636 9.95841Z" fill="#DA5264"/>
</svg>
