<svg width="40" height="39" viewBox="0 0 40 39" fill="none" xmlns="http://www.w3.org/2000/svg">
<g clip-path="url(#clip0_8186_292526)">
<path d="M20.5205 20.3991C20.4465 20.3831 20.3706 20.3802 20.2956 20.3914C19.5444 20.304 18.9776 19.6684 18.9764 18.9123C18.9764 18.55 18.6826 18.2562 18.3202 18.2562C17.9579 18.2562 17.6641 18.55 17.6641 18.9123C17.6661 20.1749 18.5105 21.2808 19.7279 21.6149V22.271C19.7279 22.6334 20.0217 22.9272 20.3841 22.9272C20.7464 22.9272 21.0402 22.6334 21.0402 22.271V21.6547C22.4453 21.3606 23.4003 20.0519 23.2526 18.624C23.1046 17.1961 21.9016 16.111 20.4661 16.1107C19.6434 16.1107 18.9764 15.4437 18.9764 14.621C18.9764 13.7983 19.6434 13.1312 20.4661 13.1312C21.2888 13.1312 21.9558 13.7983 21.9558 14.621C21.9558 14.9833 22.2496 15.2771 22.6119 15.2771C22.9742 15.2771 23.268 14.9833 23.268 14.621C23.2661 13.2953 22.3374 12.1519 21.0402 11.8783V11.2811C21.0402 10.9188 20.7464 10.625 20.3841 10.625C20.0217 10.625 19.7279 10.9188 19.7279 11.2811V11.9183C18.3741 12.288 17.5027 13.6025 17.6891 14.9935C17.8756 16.3846 19.0625 17.4229 20.4661 17.4226C21.2779 17.4226 21.9401 18.0726 21.9548 18.8841C21.9699 19.6956 21.3317 20.3697 20.5205 20.3991Z" fill="#49A299"/>
<path d="M10.9531 16.819C10.9531 22.0737 15.2127 26.3333 20.4674 26.3333C25.7221 26.3333 29.9818 22.0737 29.9818 16.819C29.9818 11.5643 25.7221 7.30469 20.4674 7.30469C15.2153 7.31045 10.9592 11.5669 10.9531 16.819ZM20.4674 8.61692C24.9975 8.61692 28.6695 12.289 28.6695 16.819C28.6695 21.349 24.9975 25.0211 20.4674 25.0211C15.9374 25.0211 12.2654 21.349 12.2654 16.819C12.2705 12.2912 15.9397 8.62204 20.4674 8.61692Z" fill="#49A299"/>
<path d="M33.2165 27.9501L28.0769 30.3785C27.3673 29.0586 26.006 28.2185 24.508 28.1763L19.7633 28.0459C19.012 28.0244 18.2749 27.8341 17.6069 27.4891L17.1241 27.2389C14.6521 25.9503 11.7057 25.9535 9.2363 27.2472L9.26641 26.1535C9.27635 25.7911 8.9909 25.4893 8.62856 25.4794L3.42577 25.3362C3.06343 25.3263 2.76196 25.6117 2.75203 25.974L2.43775 37.3914C2.42782 37.7537 2.71327 38.0555 3.07561 38.0654L8.2784 38.2086H8.29634C8.65195 38.2086 8.94284 37.9257 8.95245 37.5704L8.96751 37.0242L10.3191 36.3005C10.8497 36.015 11.4699 35.9471 12.0495 36.1112L20.1208 38.3765C20.1349 38.3806 20.149 38.3839 20.1634 38.3871C20.7468 38.5091 21.3414 38.5703 21.9373 38.57C23.1996 38.5706 24.4471 38.2986 25.5943 37.7719C25.6225 37.7591 25.6498 37.7441 25.6757 37.7271L37.3785 30.1574C37.67 29.9687 37.7642 29.5859 37.5934 29.2835C36.7246 27.7418 34.7976 27.1546 33.2165 27.9501ZM3.7676 36.7718L4.04568 26.666L7.93656 26.773L7.65848 36.8791L3.7676 36.7718ZM25.0033 36.6C23.5779 37.2433 21.986 37.4208 20.454 37.1078L12.4044 34.8483C11.4984 34.5923 10.5287 34.6983 9.69987 35.144L9.00916 35.514L9.19401 28.7949C11.3828 27.3391 14.1898 27.1895 16.5208 28.404L17.0036 28.6542C17.8475 29.09 18.7782 29.3302 19.7274 29.3578L24.4724 29.4882C25.8051 29.5266 26.937 30.4755 27.2074 31.7814L20.1397 31.5863C19.7774 31.5763 19.4759 31.8621 19.4657 32.2241C19.4557 32.5865 19.7415 32.8882 20.1035 32.8982L27.9032 33.1128H27.9215C28.2768 33.1125 28.5674 32.8296 28.577 32.4746C28.585 32.1895 28.5638 31.9041 28.5135 31.6234L33.7852 29.1326C33.7903 29.1303 33.7955 29.1278 33.8006 29.1252C34.5483 28.7468 35.4524 28.8734 36.0675 29.4427L25.0033 36.6Z" fill="#49A299"/>
<path d="M21.1247 5.45953V-0.773572C21.1247 -1.13591 20.831 -1.42969 20.4686 -1.42969C20.1063 -1.42969 19.8125 -1.13591 19.8125 -0.773572V5.45953C19.8125 5.82186 20.1063 6.11564 20.4686 6.11564C20.831 6.11564 21.1247 5.82186 21.1247 5.45953Z" fill="#49A299"/>
<path d="M26.0466 5.4602V2.50768C26.0466 2.14534 25.7528 1.85156 25.3905 1.85156C25.0282 1.85156 24.7344 2.14534 24.7344 2.50768V5.4602C24.7344 5.82254 25.0282 6.11631 25.3905 6.11631C25.7528 6.11631 26.0466 5.82254 26.0466 5.4602Z" fill="#49A299"/>
<path d="M16.2029 5.4602V2.50768C16.2029 2.14534 15.9091 1.85156 15.5467 1.85156C15.1844 1.85156 14.8906 2.14534 14.8906 2.50768V5.4602C14.8906 5.82254 15.1844 6.11631 15.5467 6.11631C15.9091 6.11631 16.2029 5.82254 16.2029 5.4602Z" fill="#49A299"/>
</g>
<defs>
<clipPath id="clip0_8186_292526">
<rect width="40" height="40" fill="white" transform="translate(0 -1.42969)"/>
</clipPath>
</defs>
</svg>
