<svg width="26" height="25" viewBox="0 0 26 25" fill="none" xmlns="http://www.w3.org/2000/svg">
<path d="M10.0633 20.116C12.2981 20.116 14.4691 19.3704 16.2322 17.9971L22.8841 24.6489C23.381 25.1288 24.1728 25.115 24.6527 24.6181C25.1208 24.1334 25.1208 23.3649 24.6527 22.8803L18.0009 16.2284C21.4086 11.8418 20.615 5.52323 16.2284 2.11551C11.8417 -1.2922 5.52323 -0.498665 2.11551 3.88799C-1.2922 8.27464 -0.498665 14.5932 3.88799 18.0009C5.65402 19.3729 7.82693 20.1171 10.0633 20.116ZM4.71858 4.71474C7.67039 1.76287 12.4562 1.76282 15.4081 4.71463C18.36 7.66644 18.36 12.4523 15.4082 15.4041C12.4564 18.356 7.67056 18.3561 4.71869 15.4042L4.71858 15.4041C1.76677 12.4738 1.74938 7.70545 4.67968 4.75363L4.71858 4.71474Z" fill="white"/>
</svg>
