<svg width="26" height="25" viewBox="0 0 26 25" fill="none" xmlns="http://www.w3.org/2000/svg">
<path d="M24.8479 20.2523H22.0401C21.5836 18.733 20.1876 17.6164 18.5217 17.6164C16.8559 17.6164 15.4609 18.733 15.0034 20.2523H1.652C1.06999 20.2523 0.597656 20.7247 0.597656 21.3067C0.597656 21.8887 1.06999 22.361 1.652 22.361H15.0033C15.4598 23.8803 16.8558 24.9969 18.5217 24.9969C20.1876 24.9969 21.5825 23.8803 22.0401 22.361H24.8478C25.4309 22.361 25.9022 21.8887 25.9022 21.3067C25.9022 20.7247 25.4309 20.2523 24.8479 20.2523ZM18.5217 22.8882C17.6498 22.8882 16.9402 22.1786 16.9402 21.3067C16.9402 20.4347 17.6498 19.7251 18.5217 19.7251C19.3937 19.7251 20.1033 20.4347 20.1033 21.3067C20.1033 22.1786 19.3937 22.8882 18.5217 22.8882ZM24.8479 3.38258H22.0401C21.5825 1.86327 20.1876 0.746704 18.5217 0.746704C16.8559 0.746704 15.4609 1.86327 15.0033 3.38258H1.652C1.06999 3.38258 0.597656 3.85492 0.597656 4.43692C0.597656 5.01893 1.06999 5.49126 1.652 5.49126H15.0033C15.4609 7.01063 16.8558 8.12719 18.5217 8.12719C20.1877 8.12719 21.5826 7.01063 22.0401 5.49131H24.8479C25.4309 5.49131 25.9022 5.01898 25.9022 4.43697C25.9022 3.85497 25.4309 3.38258 24.8479 3.38258ZM18.5217 6.01846C17.6498 6.01846 16.9402 5.30889 16.9402 4.43692C16.9402 3.56495 17.6498 2.85539 18.5217 2.85539C19.3937 2.85539 20.1033 3.56495 20.1033 4.43692C20.1033 5.30889 19.3937 6.01846 18.5217 6.01846ZM24.8479 11.8175H11.4966C11.039 10.2981 9.64404 9.18158 7.97819 9.18158C6.31234 9.18158 4.91738 10.2981 4.45982 11.8175H1.652C1.06999 11.8175 0.597656 12.2898 0.597656 12.8718C0.597656 13.4538 1.06999 13.9261 1.652 13.9261H4.45977C4.91738 15.4455 6.31229 16.562 7.97814 16.562C9.64399 16.562 11.039 15.4455 11.4965 13.9261H24.8478C25.4309 13.9261 25.9022 13.4538 25.9022 12.8718C25.9022 12.2898 25.4309 11.8175 24.8479 11.8175ZM7.97814 14.4533C7.10617 14.4533 6.39661 13.7438 6.39661 12.8718C6.39661 11.9998 7.10617 11.2903 7.97814 11.2903C8.85011 11.2903 9.55968 11.9998 9.55968 12.8718C9.55968 13.7438 8.85011 14.4533 7.97814 14.4533Z" fill="#D45B7A"/>
</svg>
