<svg width="26" height="25" viewBox="0 0 26 25" fill="none" xmlns="http://www.w3.org/2000/svg">
<path d="M24.2502 19.5056H21.4425C20.9859 17.9863 19.5899 16.8697 17.9241 16.8697C16.2582 16.8697 14.8633 17.9863 14.4057 19.5056H1.05434C0.472336 19.5056 0 19.978 0 20.56C0 21.142 0.472336 21.6143 1.05434 21.6143H14.4057C14.8622 23.1336 16.2582 24.2502 17.924 24.2502C19.5899 24.2502 20.9849 23.1336 21.4424 21.6143H24.2502C24.8332 21.6143 25.3045 21.142 25.3045 20.56C25.3045 19.978 24.8333 19.5056 24.2502 19.5056ZM17.9241 22.1415C17.0521 22.1415 16.3426 21.4319 16.3426 20.56C16.3426 19.688 17.0521 18.9784 17.9241 18.9784C18.7961 18.9784 19.5056 19.688 19.5056 20.56C19.5056 21.4319 18.796 22.1415 17.9241 22.1415ZM24.2502 2.63588H21.4425C20.9849 1.11656 19.5899 0 17.9241 0C16.2582 0 14.8633 1.11656 14.4057 2.63588H1.05434C0.472336 2.63588 0 3.10821 0 3.69022C0 4.27222 0.472336 4.74456 1.05434 4.74456H14.4057C14.8633 6.26392 16.2582 7.38049 17.9241 7.38049C19.59 7.38049 20.9849 6.26392 21.4425 4.74461H24.2502C24.8333 4.74461 25.3046 4.27227 25.3046 3.69027C25.3046 3.10826 24.8333 2.63588 24.2502 2.63588ZM17.9241 5.27175C17.0521 5.27175 16.3426 4.56219 16.3426 3.69022C16.3426 2.81825 17.0521 2.10868 17.9241 2.10868C18.7961 2.10868 19.5056 2.81825 19.5056 3.69022C19.5056 4.56219 18.796 5.27175 17.9241 5.27175ZM24.2502 11.0708H10.8989C10.4413 9.55144 9.04639 8.43488 7.38054 8.43488C5.71468 8.43488 4.31972 9.55144 3.86216 11.0708H1.05434C0.472336 11.0708 0 11.5431 0 12.1251C0 12.7071 0.472336 13.1794 1.05434 13.1794H3.86211C4.31972 14.6987 5.71463 15.8153 7.38049 15.8153C9.04634 15.8153 10.4413 14.6987 10.8989 13.1794H24.2502C24.8332 13.1794 25.3045 12.7071 25.3045 12.1251C25.3046 11.5431 24.8333 11.0708 24.2502 11.0708ZM7.38049 13.7066C6.50852 13.7066 5.79895 12.9971 5.79895 12.1251C5.79895 11.2531 6.50852 10.5436 7.38049 10.5436C8.25246 10.5436 8.96202 11.2531 8.96202 12.1251C8.96202 12.9971 8.25246 13.7066 7.38049 13.7066Z" fill="#7A7A7A"/>
</svg>
