<svg width="27" height="27" viewBox="0 0 27 27" fill="none" xmlns="http://www.w3.org/2000/svg">
<path d="M13.3408 26.6817C9.80263 26.6817 6.40933 25.2762 3.90744 22.7743C1.40555 20.2724 0 16.8791 0 13.3409C0 9.8027 1.40555 6.4094 3.90744 3.90751C6.40933 1.40562 9.80263 7.16684e-05 13.3408 7.16157e-05C15.4199 -0.00681076 17.4705 0.482455 19.3225 1.42723C19.4317 1.48264 19.5289 1.55902 19.6086 1.65199C19.6882 1.74497 19.7488 1.85273 19.7868 1.96912C19.8249 2.08551 19.8396 2.20825 19.8302 2.33034C19.8208 2.45242 19.7874 2.57146 19.732 2.68065C19.6766 2.78984 19.6002 2.88705 19.5073 2.96672C19.4143 3.0464 19.3065 3.10698 19.1901 3.14501C19.0737 3.18303 18.951 3.19777 18.8289 3.18836C18.7068 3.17895 18.5878 3.14559 18.4786 3.09018C16.89 2.27141 15.128 1.84582 13.3408 1.84917C11.071 1.84917 8.85205 2.52211 6.96456 3.78293C5.07706 5.04375 3.60572 6.83584 2.73652 8.93269C1.86731 11.0295 1.63926 13.337 2.08118 15.5634C2.52311 17.7899 3.61518 19.8353 5.21935 21.4412C6.82352 23.0471 8.86778 24.1414 11.0937 24.5857C13.3197 25.0301 15.6274 24.8045 17.7252 23.9376C19.823 23.0706 21.6167 21.6012 22.8795 19.7151C24.1424 17.829 24.8177 15.6108 24.8202 13.3409C24.8266 13.2376 24.8266 13.134 24.8202 13.0307C24.7971 12.7838 24.8731 12.5379 25.0313 12.3471C25.1896 12.1562 25.4172 12.0361 25.664 12.013C25.9109 11.99 26.1568 12.066 26.3476 12.2242C26.5385 12.3825 26.6586 12.6101 26.6817 12.8569V13.3409C26.6784 16.8781 25.2718 20.2695 22.7706 22.7707C20.2694 25.2719 16.878 26.6785 13.3408 26.6817Z" fill="#20BF55"/>
<path d="M13.1176 17.5726C12.997 17.5744 12.8773 17.551 12.7662 17.504C12.6551 17.457 12.555 17.3874 12.4723 17.2995L6.47826 11.4172C6.30396 11.2426 6.20605 11.0061 6.20605 10.7594C6.20605 10.5128 6.30396 10.2762 6.47826 10.1017C6.65642 9.92957 6.89447 9.83337 7.1422 9.83337C7.38992 9.83337 7.62797 9.92957 7.80614 10.1017L13.1301 15.3512L25.1058 3.57399C25.284 3.40187 25.522 3.30566 25.7697 3.30566C26.0175 3.30566 26.2555 3.40187 26.4337 3.57399C26.608 3.74851 26.7059 3.98507 26.7059 4.23173C26.7059 4.47838 26.608 4.71494 26.4337 4.88946L13.8002 17.2995C13.7114 17.3896 13.6049 17.4603 13.4874 17.5073C13.37 17.5543 13.2441 17.5765 13.1176 17.5726Z" fill="#20BF55"/>
</svg>
