<svg width="35" height="25" viewBox="0 0 35 25" fill="none" xmlns="http://www.w3.org/2000/svg">
<path fill-rule="evenodd" clip-rule="evenodd" d="M13.5387 12.6824C12.5899 11.7579 12 10.4791 12 9.05719V6.43237V5.80756C12 2.95722 14.3705 0.682373 17.25 0.682373C20.1295 0.682373 22.5 2.95722 22.5 5.80756V6.43237V9.05719C22.5 10.4791 21.9101 11.7579 20.9613 12.6824H21.4715H21.75H24.7105C24.2648 12.0889 24 11.3571 24 10.5574V9.30738C24 7.27558 25.7093 5.68237 27.75 5.68237C29.7907 5.68237 31.5 7.27558 31.5 9.30738V10.5574C31.5 11.3933 31.2107 12.1549 30.728 12.762C32.8481 13.1498 34.5 14.912 34.5 17.0999V19.4324C34.5 19.8466 34.1642 20.1824 33.75 20.1824H28.5V23.4324C28.5 23.8466 28.1642 24.1824 27.75 24.1824H17.25H14.692C14.2778 24.1824 13.942 23.8466 13.942 23.4324C13.942 23.0182 14.2778 22.6824 14.692 22.6824H16.0901L12.2866 14.2303C9.57222 14.5842 7.5 16.8529 7.5 19.5693V22.6824H8.63468C9.0489 22.6824 9.38468 23.0182 9.38468 23.4324C9.38468 23.8466 9.0489 24.1824 8.63468 24.1824H6.75C6.33579 24.1824 6 23.8466 6 23.4324V20.1824H0.75C0.335786 20.1824 0 19.8466 0 19.4324V17.0999C0 14.912 1.65191 13.1498 3.77201 12.762C3.28932 12.1549 3 11.3933 3 10.5574V9.30738C3 7.27558 4.70933 5.68237 6.75 5.68237C8.79067 5.68237 10.5 7.27558 10.5 9.30738V10.5574C10.5 11.3571 10.2352 12.0889 9.78951 12.6824H12.75H13.0285H13.5387ZM17.5 14.1824H20.5901L17.25 21.6047L13.9099 14.1824H16V15.4324C16 15.8466 16.3358 16.1824 16.75 16.1824C17.1642 16.1824 17.5 15.8466 17.5 15.4324V14.1824ZM27 19.5693C27 16.8529 24.9278 14.5841 22.2134 14.2303L18.41 22.6824H27V19.5693ZM21 9.05719C21 11.0396 19.3411 12.6824 17.25 12.6824C15.1589 12.6824 13.5 11.0396 13.5 9.05719V7.18221C14.8139 7.17401 16.1054 6.86582 17.25 6.28502C18.3946 6.86583 19.6861 7.17402 21 7.18221V9.05719ZM8.64949 14.1824H6.75H4.65219C2.8668 14.1824 1.5 15.5317 1.5 17.0999V18.6824H6.0576C6.29603 16.8614 7.25882 15.2684 8.64949 14.1824ZM25.8505 14.1824C27.2412 15.2684 28.204 16.8614 28.4424 18.6824H33V17.0999C33 15.5317 31.6332 14.1824 29.8478 14.1824H27.75H25.8505ZM17.6249 4.78279C18.6219 5.35819 19.793 5.67269 20.9978 5.68215C20.9296 3.75634 19.2969 2.18237 17.25 2.18237C15.2031 2.18237 13.5704 3.75634 13.5022 5.68215C14.707 5.67269 15.8781 5.35819 16.8752 4.78278C17.1072 4.6489 17.3929 4.6489 17.6249 4.78279ZM4.5 10.5574C4.5 11.7012 5.47696 12.6824 6.75 12.6824C8.02304 12.6824 9 11.7012 9 10.5574V9.30738C9 8.16353 8.02304 7.18237 6.75 7.18237C5.47696 7.18237 4.5 8.16353 4.5 9.30738V10.5574ZM30 10.5574C30 11.7012 29.023 12.6824 27.75 12.6824C26.477 12.6824 25.5 11.7012 25.5 10.5574V9.30738C25.5 8.16353 26.477 7.18237 27.75 7.18237C29.023 7.18237 30 8.16353 30 9.30738V10.5574Z" fill="#D45B7A"/>
</svg>
