<svg width="20" height="24" viewBox="0 0 20 24" fill="none" xmlns="http://www.w3.org/2000/svg">
<path d="M17.4537 6.54512C17.1643 6.54512 16.8869 6.66005 16.6823 6.86463C16.4777 7.0692 16.3628 7.34666 16.3628 7.63598V19.8437C16.3315 20.3953 16.0835 20.9123 15.6728 21.2819C15.2622 21.6515 14.7221 21.8439 14.1702 21.8171H5.46518C4.91331 21.8439 4.37321 21.6515 3.96253 21.2819C3.55185 20.9123 3.30385 20.3953 3.27256 19.8437V7.63598C3.27256 7.34666 3.15763 7.0692 2.95306 6.86463C2.74848 6.66005 2.47102 6.54512 2.18171 6.54512C1.8924 6.54512 1.61493 6.66005 1.41036 6.86463C1.20578 7.0692 1.09085 7.34666 1.09085 7.63598V19.8437C1.12199 20.9741 1.59983 22.0461 2.41971 22.8248C3.23959 23.6036 4.3347 24.0258 5.46518 23.9988H14.1702C15.3007 24.0258 16.3958 23.6036 17.2157 22.8248C18.0355 22.0461 18.5134 20.9741 18.5445 19.8437V7.63598C18.5445 7.34666 18.4296 7.0692 18.225 6.86463C18.0204 6.66005 17.743 6.54512 17.4537 6.54512ZM18.5445 3.27256H14.1811V1.09085C14.1811 0.801541 14.0662 0.524078 13.8616 0.319504C13.657 0.114929 13.3796 0 13.0902 0H6.54512C6.25581 0 5.97835 0.114929 5.77377 0.319504C5.5692 0.524078 5.45427 0.801541 5.45427 1.09085V3.27256H1.09085C0.801541 3.27256 0.524078 3.38749 0.319504 3.59206C0.114929 3.79664 0 4.0741 0 4.36341C0 4.65273 0.114929 4.93019 0.319504 5.13476C0.524078 5.33934 0.801541 5.45427 1.09085 5.45427H18.5445C18.8338 5.45427 19.1113 5.33934 19.3159 5.13476C19.5204 4.93019 19.6354 4.65273 19.6354 4.36341C19.6354 4.0741 19.5204 3.79664 19.3159 3.59206C19.1113 3.38749 18.8338 3.27256 18.5445 3.27256ZM7.63598 3.27256V2.18171H11.9994V3.27256H7.63598Z" fill="#7A7A7A"/>
<path d="M8.72663 17.4536V9.81766C8.72663 9.52835 8.6117 9.25089 8.40713 9.04631C8.20255 8.84174 7.92509 8.72681 7.63578 8.72681C7.34646 8.72681 7.069 8.84174 6.86443 9.04631C6.65985 9.25089 6.54492 9.52835 6.54492 9.81766V17.4536C6.54492 17.7429 6.65985 18.0204 6.86443 18.225C7.069 18.4296 7.34646 18.5445 7.63578 18.5445C7.92509 18.5445 8.20255 18.4296 8.40713 18.225C8.6117 18.0204 8.72663 17.7429 8.72663 17.4536ZM13.09 17.4536V9.81766C13.09 9.52835 12.9751 9.25089 12.7705 9.04631C12.566 8.84174 12.2885 8.72681 11.9992 8.72681C11.7099 8.72681 11.4324 8.84174 11.2278 9.04631C11.0233 9.25089 10.9083 9.52835 10.9083 9.81766V17.4536C10.9083 17.7429 11.0233 18.0204 11.2278 18.225C11.4324 18.4296 11.7099 18.5445 11.9992 18.5445C12.2885 18.5445 12.566 18.4296 12.7705 18.225C12.9751 18.0204 13.09 17.7429 13.09 17.4536Z" fill="#7A7A7A"/>
</svg>
