<svg width="20" height="17" viewBox="0 0 20 17" fill="none" xmlns="http://www.w3.org/2000/svg">
<path d="M6.59768 11.2387C6.72215 11.2382 6.84529 11.213 6.95995 11.1646C7.07461 11.1161 7.17851 11.0454 7.26564 10.9565C7.44086 10.7802 7.53922 10.5418 7.53922 10.2932C7.53922 10.0447 7.44086 9.80625 7.26564 9.62998L4.13281 6.53479H13.663C14.7858 6.53479 15.8626 6.98082 16.6566 7.77477C17.4505 8.56871 17.8966 9.64553 17.8966 10.7683C17.8966 11.8911 17.4505 12.968 16.6566 13.7619C15.8626 14.5559 14.7858 15.0019 13.663 15.0019H11.3016C11.0521 15.0019 10.8128 15.101 10.6364 15.2774C10.46 15.4539 10.3608 15.6932 10.3608 15.9427C10.3608 16.1922 10.46 16.4315 10.6364 16.6079C10.8128 16.7843 11.0521 16.8835 11.3016 16.8835H13.663C15.2848 16.8835 16.8402 16.2392 17.9871 15.0924C19.1339 13.9456 19.7781 12.3902 19.7781 10.7683C19.7781 9.14651 19.1339 7.5911 17.9871 6.44429C16.8402 5.29748 15.2848 4.65321 13.663 4.65321H4.12341L7.25623 1.55802C7.41172 1.37915 7.49398 1.14819 7.48655 0.911299C7.47912 0.674412 7.38256 0.449057 7.21616 0.280286C7.04977 0.111515 6.8258 0.0117644 6.58905 0.00097599C6.35229 -0.00981239 6.12018 0.0691563 5.93913 0.222095L1.16933 4.92604C1.08214 5.01395 1.01315 5.1182 0.966334 5.23283C0.919516 5.34745 0.895784 5.47019 0.8965 5.594C0.897017 5.71847 0.922229 5.84161 0.970677 5.95627C1.01912 6.07092 1.08984 6.17483 1.17874 6.26196L5.93913 10.9659C6.11436 11.1397 6.35087 11.2377 6.59768 11.2387Z" fill="white"/>
</svg>
