<svg width="61" height="61" viewBox="0 0 61 61" fill="none" xmlns="http://www.w3.org/2000/svg">
<path d="M60.4765 17.3431L43.6569 0.523504C43.3218 0.188347 42.8673 3.80255e-05 42.3933 0L18.6067 0C18.1327 3.80255e-05 17.6782 0.188347 17.3431 0.523504L0.523504 17.3431C0.188347 17.6782 3.80255e-05 18.1327 0 18.6067L0 42.3932C3.80255e-05 42.8672 0.188347 43.3217 0.523504 43.6568L17.3431 60.4764C17.6782 60.8115 18.1327 60.9998 18.6067 60.9999H42.3932C42.8672 60.9998 43.3217 60.8115 43.6568 60.4764L60.4764 43.6568C60.8115 43.3217 60.9998 42.8672 60.9999 42.3932V18.6067C60.9999 18.372 60.9537 18.1396 60.8639 17.9228C60.7741 17.706 60.6425 17.509 60.4765 17.3431Z" fill="#F25A3C"/>
<path d="M61 18.6062V42.3938C61 42.8668 60.8118 43.3219 60.477 43.6567L43.6567 60.477C43.3217 60.8117 42.8674 60.9999 42.3938 61H30.5V0H42.3938C42.8668 0 43.3219 0.188242 43.6567 0.523027L60.477 17.3433C60.8118 17.6781 61 18.1332 61 18.6062Z" fill="#E43539"/>
<path d="M28.257 12.6289H32.7436C33.7834 12.6289 34.6037 13.5132 34.5257 14.5502L33.0015 34.8041C32.9313 35.7365 32.1544 36.457 31.2194 36.457H29.781C28.846 36.457 28.0691 35.7364 27.9989 34.8041L26.4749 14.5502C26.3969 13.5132 27.2171 12.6289 28.257 12.6289Z" fill="#E9F3FB"/>
<path d="M34.5258 14.5506L33.0008 34.8046C32.9317 35.7362 32.1537 36.457 31.2196 36.457H30.5V12.6289H32.7434C33.7835 12.6289 34.6032 13.5129 34.5258 14.5506Z" fill="#D6E9F8"/>
<path d="M26.9316 44.7909V44.8028C26.9316 46.7735 28.5292 48.3711 30.4999 48.3711C32.4706 48.3711 34.0682 46.7735 34.0682 44.8028V44.7909C34.0682 42.8202 32.4706 41.2227 30.4999 41.2227C28.5292 41.2227 26.9316 42.8202 26.9316 44.7909Z" fill="#E9F3FB"/>
<path d="M34.0683 44.7909V44.8028C34.0683 45.7881 33.6691 46.6805 33.0234 47.3262C32.3777 47.972 31.4853 48.3711 30.5 48.3711V41.2227C32.4706 41.2227 34.0683 42.8203 34.0683 44.7909Z" fill="#D6E9F8"/>
</svg>
