<svg width="19" height="19" viewBox="0 0 19 19" fill="none" xmlns="http://www.w3.org/2000/svg">
<path d="M5.55637 5.07503C4.60992 4.34055 4.45546 2.5195 5.36777 1.60806C6.43549 0.541365 8.24975 0.934443 8.77924 2.34719C9.03565 3.0035 9.96439 3.0035 10.2208 2.34719C10.7503 0.934443 12.5645 0.541401 13.6323 1.60806C14.5378 2.51274 14.3923 4.31904 13.4646 5.0586M16.0751 8.56983H2.92488C1.96591 8.56983 1.18848 7.79244 1.18848 6.83342C1.18848 5.87444 1.96587 5.09701 2.92488 5.09701H16.0751C17.0341 5.09701 17.8115 5.87441 17.8115 6.83342C17.8115 7.79244 17.0341 8.56983 16.0751 8.56983Z" stroke="#AFAFAF" stroke-width="1.2" stroke-miterlimit="10" stroke-linecap="round" stroke-linejoin="round"/>
<path d="M15.9691 12.4032V8.57043H3.03088V16.0446C3.03088 17.2546 4.01177 18.2354 5.22175 18.2354H13.7782C14.9849 18.2354 15.9636 17.26 15.9691 16.0547M7.47305 5.09766H11.5269V8.57043H7.47305V5.09766Z" stroke="#AFAFAF" stroke-width="1.2" stroke-miterlimit="10" stroke-linecap="round" stroke-linejoin="round"/>
<path d="M11.7952 15.4861C11.7952 17.1267 10.7676 18.2355 9.50007 18.2355C8.23251 18.2355 7.20496 17.1267 7.20496 15.4861C7.20496 13.8456 8.23251 11.7129 9.50007 11.7129C10.7676 11.7129 11.7952 13.8456 11.7952 15.4861Z" stroke="#AFAFAF" stroke-width="1.2" stroke-miterlimit="10" stroke-linecap="round" stroke-linejoin="round"/>
<path d="M7.30103 14.6348C7.99079 14.9517 8.74091 15.1157 9.5 15.1157C10.2591 15.1157 11.0092 14.9517 11.699 14.6348" stroke="#AFAFAF" stroke-width="1.2" stroke-miterlimit="10" stroke-linecap="round" stroke-linejoin="round"/>
</svg>
