<svg width="522" height="411" viewBox="0 0 522 411" fill="none" xmlns="http://www.w3.org/2000/svg">
<path d="M261.002 410.635C405.147 410.635 522 405.218 522 398.536C522 391.853 405.147 386.437 261.002 386.437C116.856 386.437 0.00341797 391.853 0.00341797 398.536C0.00341797 405.218 116.856 410.635 261.002 410.635Z" fill="#69B3C9"/>
<path d="M169.054 148.35L157.12 153.961V158.826L169.644 156.249L169.054 148.35Z" fill="#DB7F74"/>
<path d="M157.12 158.826V190.347H172.198L169.644 156.25L157.12 158.826Z" fill="#E39D89"/>
<path d="M60.4695 149.909L66.9214 136.427C72.5809 124.599 83.0749 115.776 95.7167 112.223L112.277 107.568H131.809L141.573 108.768C151.566 109.997 160.098 116.564 163.828 125.902L172.203 146.868L157.122 153.958V219.071H82.359L83.9028 157.579L60.4695 149.909Z" fill="#65A8E0"/>
<path d="M83.9028 157.582L67.4665 152.2L67.2573 162.702L83.7202 164.887L83.9028 157.582Z" fill="#DB7F74"/>
<path d="M122.04 180.571L83.1518 187.538L83.7204 164.887L67.2575 162.702L66.7685 187.444C66.5682 197.564 76.0664 205.098 85.8975 202.619L134.552 190.347L122.04 180.571Z" fill="#E39D89"/>
<path d="M83.9028 157.582L86.1684 133.957L75.5801 154.858L83.9028 157.582Z" fill="#3D6DC8"/>
<path d="M157.119 153.961L156.412 133.957L163.271 151.067L157.119 153.961Z" fill="#3D6DC8"/>
<path d="M124.551 390.695H119.304H73.6507L72.7581 395.374H118.414H124.551H170.203V390.695H124.551Z" fill="white"/>
<path d="M117.58 365.465L116.192 374.279H122.432H146.54H149.418L150.806 365.465H149.666H118.414H117.58Z" fill="#E69E2E"/>
<path d="M124.55 390.695H170.203L159.515 386.275C153.893 383.952 149.292 379.696 146.54 374.279H122.429L119.686 388.684L113.862 386.275C108.241 383.952 103.639 379.696 100.887 374.279H76.7762L73.6504 390.695H119.303H124.55Z" fill="#65A8E0"/>
<path d="M103.766 374.279L105.153 365.465H104.013H72.758H71.9272L70.5396 374.279H76.7765H100.887H103.766Z" fill="#E69E2E"/>
<path d="M115.244 293.768L118.373 273.793L118.287 228.038H125.95L132.476 281.945L129.27 300.982L118.414 365.465H149.666L160.9 293.768L164.028 273.793L157.12 219.074H144.36H124.692H118.269H110.727H82.3594L86.8228 281.945L83.6174 300.982L72.7581 365.465H104.013L115.244 293.768Z" fill="#E9B233"/>
<path d="M116.64 107.224C115.002 106.071 113.597 104.648 112.274 103.139V98.854H131.807V105.851C130.071 107.55 128.106 108.986 125.764 109.5C122.612 110.194 119.28 109.08 116.64 107.224Z" fill="#B7625C"/>
<path d="M116.64 107.224C119.277 109.08 122.612 110.194 125.764 109.5C128.106 108.983 130.071 107.551 131.807 105.851V109.818C131.807 115.226 127.529 119.838 122.114 119.876C121.808 119.879 121.504 119.867 121.198 119.844C116.092 119.453 112.274 114.959 112.274 109.847V103.142C113.597 104.645 115.002 106.071 116.64 107.224Z" fill="#E39D89"/>
<path d="M142.678 81.4729C144.973 79.5495 145.912 76.4056 145.965 73.4147C146.018 70.4238 145.308 67.4799 144.867 64.5213C144.486 61.9862 144.274 59.3364 142.99 57.116C141.705 54.8956 138.93 53.2692 136.553 54.2339C134.479 48.0432 128.869 43.2906 122.335 43.0053C115.803 42.7201 109.292 46.7815 106.688 52.7693C103.474 51.0812 98.9132 52.6016 96.5917 55.3897C94.2701 58.1777 93.5454 61.9862 93.6043 65.6094C93.6603 69.2356 94.4086 72.8118 94.6679 76.4292C94.8328 78.7202 94.7739 81.1258 93.6956 83.1551C92.6174 85.1814 90.2517 86.6842 88.0273 86.1078C88.3838 89.4193 90.8615 92.5191 93.7457 94.1983C96.627 95.8776 100.074 96.4011 103.403 96.1982C106.732 95.9982 109.982 95.11 113.166 94.1189C123.139 91.0192 134.673 88.1812 142.678 81.4729Z" fill="#182232"/>
<path d="M142.127 79.6875H142.08C140.462 79.6875 139.154 80.9962 139.154 82.6079V90.716H142.127C145.179 90.716 147.651 88.2456 147.651 85.2018C147.651 82.1579 145.179 79.6875 142.127 79.6875Z" fill="#DB7F74"/>
<path d="M107.206 74.3647C111.022 74.7235 114.896 72.0208 115.868 68.3211C116.646 65.3654 115.824 62.0098 114.551 59.2277C116.08 61.204 117.789 63.0421 119.651 64.7125C120.976 65.9036 122.417 67.03 124.105 67.6064C126.707 68.4946 129.759 67.9035 131.836 66.1065C133.913 64.3096 134.938 61.3775 134.428 58.6836C135.28 62.1451 138.173 65.6625 141.107 67.6946L143.647 78.9114C143.647 92.9426 134.652 104.315 123.554 104.315C115.774 104.315 109.039 98.7098 105.701 90.5281C108.081 86.0961 108.294 79.0555 107.206 74.3647Z" fill="#E39D89"/>
<path d="M103.07 79.4116H103.117C104.735 79.4116 106.043 80.7203 106.043 82.332V90.4402H103.07C100.018 90.4402 97.5464 87.9698 97.5464 84.9259C97.5434 81.8791 100.018 79.4116 103.07 79.4116Z" fill="#E39D89"/>
<path d="M120.809 78.7969C120.809 79.5733 120.178 80.2027 119.401 80.2027C118.623 80.2027 117.992 79.5733 117.992 78.7969C117.992 78.0205 118.623 77.3911 119.401 77.3911C120.178 77.3911 120.809 78.0205 120.809 78.7969Z" fill="#182232"/>
<path d="M136.411 78.7969C136.411 79.5733 135.781 80.2027 135.003 80.2027C134.225 80.2027 133.595 79.5733 133.595 78.7969C133.595 78.0205 134.225 77.3911 135.003 77.3911C135.778 77.3911 136.411 78.0205 136.411 78.7969Z" fill="#182232"/>
<path d="M115.344 75.7679C117.48 74.2592 119.954 73.9651 122.388 74.918C123.711 75.4356 124.276 73.3122 122.971 72.8005C120.055 71.6594 116.787 72.0652 114.233 73.871C113.084 74.6827 114.183 76.5884 115.344 75.7679Z" fill="#182232"/>
<path d="M132.116 75.1557C133.769 74.0882 135.775 74.0293 137.357 75.2792C138.456 76.1468 140.023 74.6058 138.913 73.7264C136.564 71.8736 133.556 71.6119 131.005 73.2588C129.818 74.0264 130.92 75.9262 132.116 75.1557Z" fill="#182232"/>
<path d="M126.1 86.5876C127.682 86.57 129.261 86.5494 130.843 86.5317C130.319 87.4699 129.65 88.3257 128.607 88.5933C128.042 88.7404 127.411 88.6198 126.937 88.2757C126.462 87.9316 126.135 87.1699 126.1 86.5876Z" fill="#DB7F74"/>
<path d="M131.933 92.1162C127.782 93.5278 122.974 92.8455 119.377 90.3398C118.917 92.1897 119.748 94.6072 121.091 95.957C122.435 97.3069 124.506 97.8951 126.362 97.4481C128.869 96.8452 130.601 94.3189 131.933 92.1162Z" fill="white"/>
<path d="M137.799 118.655C136.078 120.77 133.772 122.87 130.955 124.461C128.15 126.058 124.848 127.137 121.477 127.355C118.107 127.563 114.693 126.911 111.708 125.681C108.709 124.461 106.158 122.67 104.181 120.79C105.645 123.084 108.008 125.405 111.078 127.019C114.127 128.646 117.866 129.557 121.604 129.322C125.34 129.084 128.934 127.705 131.754 125.708C134.591 123.714 136.641 121.117 137.799 118.655Z" fill="#3D6DC8"/>
<path d="M145.818 135.081C138.353 138.998 128.981 144.63 119.1 149C114.162 151.185 109.095 153.044 104.196 154.403C99.2992 155.773 94.5736 156.623 90.3843 157.111C94.5648 157.638 99.526 157.543 104.699 156.629C109.876 155.729 115.244 154.038 120.334 151.782C130.551 147.256 139.531 140.648 145.818 135.081Z" fill="#3D6DC8"/>
<path d="M147.406 151.335C143.971 152.82 140.014 154.429 135.719 155.852C131.423 157.282 126.792 158.526 122.093 159.437C117.391 160.34 112.63 160.914 108.111 161.187C103.592 161.467 99.3197 161.446 95.5781 161.349C99.1842 162.337 103.491 163.043 108.134 163.21C112.775 163.387 117.745 163.022 122.606 162.087C127.467 161.143 132.213 159.631 136.452 157.74C140.698 155.855 144.43 153.594 147.406 151.335Z" fill="#3D6DC8"/>
<path d="M342.603 205.381C381.22 206.707 419.838 208.033 458.455 209.36C459.059 206.475 459.46 203.357 459.707 200.09C420.371 199.231 381.035 198.372 341.698 197.514C341.896 200.199 342.193 202.828 342.603 205.381Z" fill="#E69E2E"/>
<path d="M452.369 117.112C444.09 109.4 433.956 103.86 422.867 101.107L400.703 95.6016C400.703 95.6016 389.688 98.3719 378.704 101.142C366.516 104.216 355.489 110.65 346.833 119.644C382.016 120.494 417.21 118.985 452.369 117.112Z" fill="#E9B233"/>
<path d="M341.695 197.511C381.032 198.37 420.368 199.229 459.704 200.087C460.04 195.658 460.073 190.935 459.875 186.041C420.442 184.347 381.008 182.653 341.574 180.959C341.292 186.594 341.295 192.164 341.695 197.511Z" fill="#E9B233"/>
<path d="M344.977 215.519H456.747C457.436 213.61 457.999 211.546 458.455 209.36C419.838 208.034 381.22 206.708 342.603 205.381C343.171 208.925 343.949 212.325 344.977 215.519Z" fill="#E9B233"/>
<path d="M457.165 160.249C419.387 160.031 381.612 159.814 343.834 159.593C343.162 163.931 342.594 168.346 342.173 172.775C381.164 173.71 420.156 174.642 459.148 175.577C458.653 170.487 457.966 165.334 457.165 160.249Z" fill="#E9B233"/>
<path d="M456.237 154.643L479.414 149.623L474.559 143.588C425.748 147.318 376.633 147.05 327.867 142.8L322.378 149.626L344.68 154.458C344.382 156.152 344.105 157.873 343.837 159.599C381.615 159.817 419.39 160.034 457.168 160.255C456.868 158.37 456.561 156.496 456.237 154.643Z" fill="#E69E2E"/>
<path d="M342.173 172.775C341.914 175.507 341.71 178.239 341.575 180.96C381.008 182.654 420.442 184.348 459.875 186.042C459.737 182.615 459.493 179.116 459.148 175.578C420.156 174.645 381.164 173.71 342.173 172.775Z" fill="#E69E2E"/>
<path d="M474.559 143.589L463.426 129.746C421.83 131.834 380.124 131.763 338.537 129.528L327.864 142.801C376.633 147.048 425.748 147.318 474.559 143.589Z" fill="#E9B233"/>
<path d="M463.425 129.746L458.903 124.123C456.888 121.617 454.696 119.285 452.366 117.112C417.207 118.985 382.013 120.491 346.833 119.641C345.463 121.064 344.147 122.547 342.903 124.097L338.537 129.526C380.124 131.764 421.829 131.834 463.425 129.746Z" fill="#E69E2E"/>
<path d="M471.032 151.438L449.644 156.073L451.426 163.573L473.257 159.235L471.032 151.438Z" fill="#DB7F74"/>
<path d="M473.257 159.235L451.426 163.573L454.484 176.442L423.686 190.647L426.031 192.532C434.925 199.688 446.715 202.152 457.737 199.161L463.623 197.564C474.129 194.714 480.277 183.845 477.296 173.393L473.257 159.235Z" fill="#E39D89"/>
<path d="M330.754 151.438L352.145 156.073L350.363 163.573L328.529 159.235L330.754 151.438Z" fill="#DB7F74"/>
<path d="M328.529 159.235L350.36 163.573L347.302 176.442L378.1 190.647L375.755 192.532C366.861 199.688 355.071 202.152 344.049 199.161L338.163 197.564C327.657 194.714 321.509 183.845 324.49 173.393L328.529 159.235Z" fill="#E39D89"/>
<path d="M412.909 101.807C413.112 100.919 413.23 99.9951 413.23 99.0452V92.4692H388.556V99.0452C388.556 99.9716 388.668 100.872 388.863 101.739C396.469 104.809 405.287 104.851 412.909 101.807Z" fill="#B7625C"/>
<path d="M388.863 101.736C390.094 107.242 395.008 111.359 400.894 111.359C406.754 111.359 411.651 107.274 412.909 101.804C405.287 104.851 396.469 104.81 388.863 101.736Z" fill="#E39D89"/>
<path d="M374.712 67.7627C371.321 67.7627 368.573 70.5066 368.573 73.8916V77.6355C368.573 81.0205 371.321 83.7644 374.712 83.7644H378.103V67.7598H374.712V67.7627Z" fill="#DB7F74"/>
<path d="M427.076 67.7627C430.467 67.7627 433.216 70.5066 433.216 73.8916V77.6355C433.216 81.0205 430.467 83.7644 427.076 83.7644H423.685V67.7598H427.076V67.7627Z" fill="#DB7F74"/>
<path d="M374.524 69.2387L373.154 54.3016C372.302 45.0141 378.642 36.5913 387.816 34.8267L401.044 32.2798C406.951 31.1417 413.068 31.9475 418.477 34.5708C425.356 37.9088 429.407 45.1906 428.611 52.7841L426.885 69.2387H374.524Z" fill="#182232"/>
<path d="M426.334 64.5182C426.101 62.5213 424.781 60.8303 422.911 60.0891C417.454 57.9334 412.375 54.916 407.847 51.0869H407.544C399.486 56.1483 391.01 59.1598 380.879 58.7598C378.006 58.6481 375.514 60.7126 375.184 63.5624L374.058 73.2352C372.52 86.4694 382.882 98.0832 396.228 98.0832H405.175C418.521 98.0832 428.882 86.4694 427.344 73.2352L426.334 64.5182Z" fill="#E39D89"/>
<path d="M391.655 72.4417C391.655 73.4064 390.872 74.1857 389.908 74.1857C388.942 74.1857 388.161 73.4034 388.161 72.4417C388.161 71.4771 388.945 70.6978 389.908 70.6978C390.874 70.6978 391.655 71.4771 391.655 72.4417Z" fill="#182232"/>
<path d="M411.662 72.4417C411.662 73.4064 410.879 74.1857 409.915 74.1857C408.949 74.1857 408.168 73.4034 408.168 72.4417C408.168 71.4771 408.952 70.6978 409.915 70.6978C410.882 70.6978 411.662 71.4771 411.662 72.4417Z" fill="#182232"/>
<path d="M402.853 81.2231C400.983 81.182 399.109 81.1408 397.238 81.0996C397.294 82.2936 398.523 83.3112 399.716 83.3818C400.909 83.4524 402.453 82.3466 402.853 81.2231Z" fill="#DB7F74"/>
<path d="M409.123 84.9141C403.463 86.9404 396.944 87.3462 390.969 86.0434C391.988 87.7285 393.093 89.3637 394.902 90.5342C396.711 91.7047 399.109 92.3782 401.378 92.0047C403.304 91.687 404.963 90.6518 406.174 89.3961C407.382 88.1432 408.369 86.3875 409.123 84.9141Z" fill="white"/>
<path d="M384.873 68.0419C387.095 66.3185 389.953 66.1244 392.51 67.1449C394.304 67.8596 395.076 64.9686 393.305 64.2628C389.678 62.8159 385.79 63.5746 382.755 65.9303C381.232 67.1096 383.368 69.2095 384.873 68.0419Z" fill="#182232"/>
<path d="M407.782 67.2977C410.366 66.4125 413.12 66.8095 415.227 68.6006C416.688 69.8446 418.818 67.7389 417.345 66.486C414.449 64.0245 410.616 63.1716 406.987 64.4156C405.169 65.0332 405.95 67.9242 407.782 67.2977Z" fill="#182232"/>
<path d="M374.739 380.591H364.757C363.8 380.591 363.025 379.817 363.025 378.862C363.025 377.906 362.25 377.132 361.293 377.132H350.746L342.388 383.199C340.493 384.576 338.21 385.314 335.868 385.314C331.711 385.314 327.905 387.637 326.007 391.328L325.515 392.287H377.782L374.739 380.591Z" fill="#101C2B"/>
<path d="M325.515 392.287L324.078 395.087H378.513L377.785 392.287H325.515Z" fill="white"/>
<path d="M363.025 378.861C363.025 379.817 363.8 380.591 364.757 380.591H374.739L374.158 378.367C373.946 377.553 373.893 376.703 373.999 375.868L375.413 364.804H350.218L350.743 377.132H361.29C362.25 377.132 363.025 377.906 363.025 378.861Z" fill="white"/>
<path d="M383.736 299.759H347.446L347.879 309.914H382.437L383.736 299.759Z" fill="#DB7F74"/>
<path d="M382.437 309.914H347.879L350.221 364.804H375.416L382.437 309.914Z" fill="#E39D89"/>
<path d="M422.227 380.591H432.208C433.166 380.591 433.941 379.817 433.941 378.862C433.941 377.906 434.716 377.132 435.673 377.132H446.22L454.578 383.199C456.472 384.576 458.756 385.314 461.095 385.314C465.252 385.314 469.058 387.637 470.956 391.328L471.448 392.287H419.181L422.227 380.591Z" fill="#101C2B"/>
<path d="M471.451 392.287L472.891 395.087H418.453L419.184 392.287H471.451Z" fill="white"/>
<path d="M433.941 378.861C433.941 379.817 433.166 380.591 432.209 380.591H422.227L422.808 378.367C423.02 377.553 423.073 376.703 422.967 375.868L421.552 364.804H446.751L446.226 377.132H435.679C434.719 377.132 433.941 377.906 433.941 378.861Z" fill="white"/>
<path d="M413.23 299.759H449.52L449.087 309.914H414.529L413.23 299.759Z" fill="#DB7F74"/>
<path d="M414.529 309.914H449.087L446.748 364.804H421.553L414.529 309.914Z" fill="#E39D89"/>
<path d="M344.977 215.519V290.589H390.969L396.843 248.792C397.07 247.187 398.446 245.993 400.069 245.993C401.672 245.993 403.036 247.157 403.287 248.737L409.915 290.589H454.119L456.747 215.519H344.977Z" fill="#2F2D82"/>
<path d="M393.27 290.589H342.514V299.762H393.27V290.589Z" fill="#25235E"/>
<path d="M456.747 290.589H407.514V299.762H456.747V290.589Z" fill="#25235E"/>
<path d="M352.145 156.073L360.883 127.787C351.25 139.292 346.833 154.923 346.833 154.923L352.145 156.073Z" fill="#C84100"/>
<path d="M449.644 156.073L440.906 127.787C450.539 139.292 454.955 154.923 454.955 154.923L449.644 156.073Z" fill="#C84100"/>
<path d="M441.551 168.125C435.709 167.946 429.071 167.425 422.145 166.169C415.221 164.928 408.024 162.967 401.089 160.293C394.163 157.602 387.516 154.212 381.565 150.474C375.602 146.745 370.346 142.662 365.906 138.866C369.3 143.604 373.982 148.612 379.75 153.062C385.501 157.523 392.318 161.411 399.566 164.223C406.819 167.019 414.479 168.731 421.741 169.302C429.003 169.896 435.841 169.343 441.551 168.125Z" fill="#C84100"/>
<path d="M434.866 151.63C427.895 152.288 418.892 152.882 409.901 152.459C400.906 152.088 391.991 150.7 385.106 149.43C388.303 150.853 392.15 152.171 396.372 153.147C400.591 154.129 405.178 154.773 409.789 154.979C414.399 155.179 419.025 154.944 423.314 154.338C427.607 153.738 431.554 152.765 434.866 151.63Z" fill="#C84100"/>
<path d="M410.967 185.157C404.795 184.215 396.894 182.739 389.243 180.327C381.58 177.96 374.241 174.681 368.632 171.946C371.036 173.931 374.032 175.975 377.438 177.801C380.837 179.633 384.644 181.245 388.571 182.474C392.501 183.698 396.549 184.536 400.388 184.962C404.229 185.398 407.859 185.418 410.967 185.157Z" fill="#C84100"/>
<path d="M418.053 104.901C416.691 107.548 414.505 110.183 411.589 112.124C408.696 114.071 405.093 115.32 401.466 115.291C397.839 115.25 394.26 113.926 391.408 111.921C388.533 109.921 386.4 107.242 385.092 104.568C385.71 107.474 387.501 110.715 390.412 113.194C393.288 115.679 397.274 117.397 401.442 117.444C405.611 117.482 409.633 115.844 412.558 113.418C415.519 110.997 417.372 107.792 418.053 104.901Z" fill="#C84100"/>
<path d="M278.31 386.317C276.074 388.431 273.11 389.608 270.031 389.608H266.284L256.529 395.087H273.06L285.413 387.89V395.087H288.474L290.745 385.846C291.603 382.352 291.196 378.726 289.708 375.544L278.31 386.317Z" fill="#101C2B"/>
<path d="M299.764 306.347H277.762L277.217 353.184H290.869L299.764 306.347Z" fill="#DB7F74"/>
<path d="M278.31 386.317L289.708 375.541C289.093 374.221 288.312 372.971 287.328 371.847L290.872 353.184H277.217L277.049 367.689C277.017 370.536 276.215 373.321 274.733 375.753L266.287 389.605H270.034C273.113 389.608 276.074 388.431 278.31 386.317Z" fill="#E39D89"/>
<path d="M328.995 386.317C331.231 388.431 334.195 389.608 337.273 389.608H341.021L350.775 395.087H334.245L321.892 387.89V395.087H318.831L316.559 385.846C315.702 382.352 316.109 378.726 317.596 375.544L328.995 386.317Z" fill="#101C2B"/>
<path d="M307.544 306.347H329.543L330.091 353.184H316.436L307.544 306.347Z" fill="#DB7F74"/>
<path d="M328.995 386.317L317.597 375.541C318.212 374.221 318.993 372.971 319.977 371.847L316.433 353.184H330.088L330.256 367.689C330.288 370.536 331.09 373.321 332.572 375.753L341.018 389.605H337.271C334.195 389.608 331.231 388.431 328.995 386.317Z" fill="#E39D89"/>
<path d="M331.104 193.521H303.688H276.271C266.976 209.025 263.017 227.135 264.994 245.096L276.271 347.514H303.688H331.104L342.382 245.096C344.359 227.135 340.399 209.025 331.104 193.521Z" fill="#101C2B"/>
<path d="M326.311 133.957C328.079 115.218 329.846 96.4779 331.614 77.7382C331.979 73.8532 332.344 69.9241 331.738 66.0656C331.131 62.2071 329.443 58.3691 326.323 55.8193C323.2 53.2725 317.481 52.002 313.811 53.7813C307.12 50.4168 298.821 50.0639 291.836 52.8431C284.85 55.6223 279.315 61.4807 277.176 68.3566C275.222 74.6384 276.024 81.3526 276.84 87.8521C278.705 102.677 280.57 117.506 282.435 132.331L326.311 133.957Z" fill="#182232"/>
<path d="M338.316 181.142C338.54 184.124 337.612 187.03 335.777 189.465L335.809 190.647H350.092L335.671 145.692L338.316 181.142Z" fill="#25235E"/>
<path d="M356.844 174.149L337.097 130.579C335.176 126.341 331.325 123.288 326.753 122.385L315.44 120.144C318.495 126.991 311.542 135.652 303.652 139.21C295.769 135.652 288.819 126.999 291.856 120.159L280.643 122.379C276.059 123.288 272.2 126.355 270.285 130.611L250.693 174.149C249.7 176.34 249.509 178.813 250.157 181.13L252.82 190.65H257.446L271.652 146.371L269.053 181.145C268.824 184.218 269.808 187.209 271.755 189.689C272.927 191.183 274.451 192.494 276.268 193.524H303.464H303.906H331.101C333.004 192.444 334.581 191.056 335.774 189.471C337.609 187.033 338.537 184.13 338.313 181.148L335.665 145.698L350.086 190.653H354.711L357.375 181.133C358.029 178.81 357.837 176.34 356.844 174.149Z" fill="#2F2D82"/>
<path d="M269.059 181.142L271.658 146.369L257.452 190.647H271.734L271.761 189.686C269.814 187.207 268.83 184.216 269.059 181.142Z" fill="#25235E"/>
<path d="M303.652 139.21C311.542 135.648 318.498 126.987 315.44 120.144L303.685 117.814L291.856 120.158C288.819 126.999 295.769 135.651 303.652 139.21Z" fill="#DF5700"/>
<path d="M296.505 115.183V121.8C296.505 123.826 297.15 125.802 298.349 127.44L303.652 134.684L308.955 127.44C310.154 125.802 310.799 123.829 310.799 121.8V115.08C308.828 116.765 306.283 117.791 303.685 117.815C301.077 117.838 298.508 116.844 296.505 115.183Z" fill="#E39D89"/>
<path d="M296.505 101.622V115.182C298.508 116.844 301.077 117.838 303.688 117.814C306.286 117.791 308.828 116.764 310.802 115.079V101.622H296.505Z" fill="#B7625C"/>
<path d="M310.243 70.3833C303.428 77.5533 294.022 82.1706 284.202 83.344C283.866 86.035 283.89 88.8289 284.326 91.6287C286.15 103.348 294.788 111.362 303.912 111.362C313.033 111.362 321.674 103.351 323.497 91.6287C323.762 89.9288 323.871 88.2319 323.845 86.5555C317.979 82.5823 313.38 76.7563 310.243 70.3833Z" fill="#E39D89"/>
<path d="M289.859 85.6347C292.605 84.0966 295.766 84.0378 298.559 85.5024C299.814 86.1612 300.924 84.2672 299.669 83.6055C296.178 81.7703 292.195 81.8086 288.751 83.7378C287.514 84.4319 288.621 86.3288 289.859 85.6347Z" fill="#182232"/>
<path d="M293.63 89.417C294.478 88.3612 295.877 88.173 296.909 89.1052C297.433 89.5787 298.214 88.8053 297.686 88.3288C296.249 87.0289 294.089 87.1024 292.852 88.6406C292.413 89.1876 293.185 89.9699 293.63 89.417Z" fill="#182232"/>
<path d="M319.069 83.7411C315.625 81.8118 311.642 81.7765 308.151 83.6088C306.896 84.2675 308.007 86.1644 309.262 85.5057C312.052 84.0411 315.216 84.0999 317.961 85.638C319.199 86.3291 320.307 84.4322 319.069 83.7411Z" fill="#182232"/>
<path d="M314.968 88.6435C313.731 87.1054 311.571 87.0319 310.134 88.3317C309.606 88.8082 310.387 89.5816 310.911 89.1082C311.945 88.1759 313.342 88.3641 314.19 89.4199C314.635 89.9698 315.407 89.1876 314.968 88.6435Z" fill="#182232"/>
<path d="M306.513 95.805C304.795 95.7373 303.075 95.6697 301.357 95.6021C301.799 96.5843 302.724 97.5607 303.794 97.7195C304.86 97.8783 306.301 96.8608 306.513 95.805Z" fill="#DB7F74"/>
<path d="M308.967 101.348C305.644 102.457 301.761 102.295 298.582 100.913C299.015 101.981 299.598 103.163 300.373 104.083C301.148 105.004 302.312 105.754 303.641 105.86C304.943 105.966 306.242 105.433 307.135 104.625C308.03 103.819 308.64 102.419 308.967 101.348Z" fill="white"/>
<path d="M331.505 164.188C328.353 166.352 324.048 167.081 319.585 166.767C315.113 166.499 310.367 165.167 305.27 164.79C302.722 164.585 300.094 164.779 297.66 165.179C295.212 165.57 292.885 166.105 290.643 166.508C288.404 166.917 286.229 167.187 284.144 167.178C282.061 167.173 280.072 166.873 278.281 166.24C279.866 167.284 281.866 168.017 284.04 168.37C286.218 168.731 288.554 168.734 290.911 168.54C295.636 168.146 300.382 167.084 305.079 167.517C309.822 167.852 314.727 168.987 319.562 168.817C321.957 168.737 324.293 168.346 326.37 167.558C328.45 166.796 330.232 165.587 331.505 164.188Z" fill="#25235E"/>
<path d="M329.177 174.481C315.575 173.334 293.618 174.134 280.134 176.266C293.739 177.413 315.696 176.613 329.177 174.481Z" fill="#25235E"/>
<path d="M327.928 185.335C323.939 183.4 318.392 181.542 312.682 180.433C306.976 179.304 301.136 178.936 296.711 179.221C301.08 180.001 306.749 180.892 312.376 182.003C318.003 183.094 323.586 184.409 327.928 185.335Z" fill="#25235E"/>
<path d="M159.732 142.097L167.778 143.909L159.732 142.097Z" fill="#DF5700"/>
<path d="M250.581 114.808C247.877 106.997 240.848 101.574 232.722 100.818C232.077 100.759 231.426 100.718 230.769 100.718H229.652H223.2C223.2 105.985 220.402 110.591 216.218 113.17C215.255 113.764 214.221 114.255 213.125 114.614C211.681 115.091 210.14 115.355 208.535 115.355H201.594C199.988 115.355 198.45 115.088 197.004 114.614C195.908 114.252 194.877 113.764 193.91 113.17C189.727 110.591 186.928 105.988 186.928 100.718H180.476H179.183C178.585 100.718 177.992 100.748 177.406 100.798C169.157 101.495 162.016 107.003 159.326 114.935L150.794 140.089L159.721 142.1L165.639 118.811L167.766 143.912L171.579 190.349H180.411H183.484H194.941H198.014H212.099H215.172H226.63H229.702H238.255L242.061 143.974L243.425 120.09L249.282 142.347L242.061 143.974L259.32 140.089L250.581 114.808Z" fill="#F6F6F6"/>
<path d="M159.732 142.097L167.778 143.909L165.651 118.808L159.732 142.097Z" fill="#E5E5E5"/>
<path d="M243.44 120.09L242.076 143.974L249.297 142.347L243.44 120.09Z" fill="#C84100"/>
<path d="M213.499 96.4419C210.944 98.0094 208.087 98.8858 205.067 98.8858C202.05 98.8858 199.189 98.0065 196.635 96.4419C196.635 98.8035 194.717 100.718 192.351 100.718H186.934C186.934 108.803 193.498 115.355 201.596 115.355H208.537C216.636 115.355 223.2 108.803 223.2 100.718H217.779C215.417 100.715 213.499 98.8035 213.499 96.4419Z" fill="#E39D89"/>
<path d="M196.638 79.311V96.442C199.192 98.0096 202.05 98.886 205.07 98.886C208.09 98.886 210.947 98.0066 213.502 96.442V79.311H196.638Z" fill="#B7625C"/>
<path d="M257.133 140.583L242.076 143.974L242.789 153.158L257.852 150.485L257.133 140.583Z" fill="#25235E"/>
<path d="M242.789 153.158L245.685 190.346H260.751L257.852 150.485L242.789 153.158Z" fill="#2F2D82"/>
<path d="M159.732 173.334L165.48 152.315L150.57 148.827L145.238 166.878C143.903 171.398 144.881 176.283 147.854 179.942L156.303 190.347H174.814L159.732 173.334Z" fill="#2F2D82"/>
<path d="M167.778 143.909L153.004 140.583L150.57 148.826L165.48 152.314L167.778 143.909Z" fill="#25235E"/>
<path d="M235.777 164.575C230.819 164.001 225.221 163.043 219.453 161.39C213.684 159.752 207.76 157.428 202.15 154.49C196.547 151.535 191.276 147.976 186.657 144.159C182.025 140.347 178.066 136.283 174.784 132.53C177.064 136.951 180.438 141.744 184.833 146.15C189.211 150.564 194.594 154.579 200.471 157.672C206.354 160.754 212.715 162.91 218.84 164.016C224.968 165.137 230.837 165.201 235.777 164.575Z" fill="#E5E5E5"/>
<path d="M238.505 148.523C235.274 148.95 231.579 149.388 227.64 149.632C223.701 149.882 219.521 149.941 215.349 149.747C211.177 149.547 207.02 149.097 203.123 148.479C199.222 147.868 195.587 147.085 192.411 146.356C195.318 147.821 198.854 149.188 202.763 150.203C206.67 151.223 210.942 151.888 215.24 152.091C219.538 152.291 223.854 152.029 227.838 151.379C231.824 150.738 235.474 149.706 238.505 148.523Z" fill="#E5E5E5"/>
<path d="M215.429 125.399C211.669 125.711 206.814 125.831 202.015 125.208C197.213 124.62 192.54 123.293 188.979 122.058C192.137 124.111 196.88 125.952 201.844 126.558C206.802 127.205 211.858 126.602 215.429 125.399Z" fill="#E5E5E5"/>
<path d="M186.056 70.3623C185.252 69.5712 184.288 68.9065 183.195 68.6154C182.102 68.3242 180.871 68.4448 179.946 69.0948C178.364 70.2094 178.122 72.568 178.876 74.3502C179.63 76.1295 181.133 77.4676 182.588 78.7411C183.342 79.4028 184.12 80.0762 185.051 80.4439C185.985 80.8144 187.125 80.8262 187.924 80.2233C188.849 79.5234 189.076 78.2264 189.028 77.0677C188.928 74.5679 187.841 72.121 186.056 70.3623Z" fill="#DB7F74"/>
<path d="M224.081 70.3623C224.886 69.5712 225.849 68.9065 226.942 68.6154C228.035 68.3242 229.266 68.4448 230.189 69.0948C231.771 70.2094 232.012 72.568 231.258 74.3502C230.504 76.1295 229.001 77.4676 227.546 78.7411C226.792 79.4028 226.014 80.0762 225.083 80.4439C224.149 80.8144 223.009 80.8262 222.21 80.2233C221.285 79.5234 221.059 78.2264 221.106 77.0677C221.209 74.5679 222.296 72.121 224.081 70.3623Z" fill="#DB7F74"/>
<path d="M218.713 78.8292C223.415 76.647 226.367 71.8062 227.902 66.8596C229.968 60.2071 229.9 52.7901 227.051 46.4318C224.205 40.0735 218.436 34.9297 211.613 33.471C204.79 32.0123 196.679 34.7415 192.602 40.394C189.07 39.0765 184.916 40.8087 182.579 43.7643C180.243 46.717 179.445 50.6197 179.359 54.3811C179.165 62.9305 182.417 71.5063 188.233 77.7852C198.223 78.1116 208.726 78.5028 218.713 78.8292Z" fill="#182232"/>
<path d="M196.255 53.8662C195.039 59.1864 190.687 64.0036 185.57 66.2564C185.49 67.1799 185.446 68.118 185.446 69.0709C185.446 83.0168 194.231 94.3189 205.07 94.3189C215.909 94.3189 224.694 83.0139 224.694 69.0709C224.694 68.2445 224.662 67.4269 224.6 66.6181C214.165 65.3035 204.127 60.8362 196.255 53.8662Z" fill="#E39D89"/>
<path d="M197.098 73.1792C197.098 73.9556 196.467 74.585 195.69 74.585C194.912 74.585 194.281 73.9556 194.281 73.1792C194.281 72.4028 194.912 71.7734 195.69 71.7734C196.467 71.7705 197.098 72.4028 197.098 73.1792Z" fill="#182232"/>
<path d="M215.858 73.1792C215.858 73.9556 215.228 74.585 214.45 74.585C213.672 74.585 213.042 73.9556 213.042 73.1792C213.042 72.4028 213.672 71.7734 214.45 71.7734C215.228 71.7705 215.858 72.4028 215.858 73.1792Z" fill="#182232"/>
<path d="M195.687 80.3642C190.861 80.3642 186.934 76.444 186.934 71.6267C186.934 66.8094 190.861 62.8892 195.687 62.8892C200.512 62.8892 204.44 66.8094 204.44 71.6267C204.44 76.444 200.515 80.3642 195.687 80.3642ZM195.687 65.086C192.075 65.086 189.135 68.0211 189.135 71.6267C189.135 75.2323 192.075 78.1674 195.687 78.1674C199.299 78.1674 202.239 75.2323 202.239 71.6267C202.242 68.0211 199.302 65.086 195.687 65.086Z" fill="#182232"/>
<path opacity="0.2" d="M215.935 77.9989C219.458 77.1764 221.647 73.6583 220.823 70.141C219.999 66.6237 216.475 64.4391 212.951 65.2617C209.428 66.0842 207.239 69.6023 208.063 73.1196C208.887 76.6369 212.411 78.8215 215.935 77.9989Z" fill="#182232"/>
<path d="M214.451 80.3642C209.625 80.3642 205.698 76.444 205.698 71.6267C205.698 66.8094 209.625 62.8892 214.451 62.8892C219.276 62.8892 223.204 66.8094 223.204 71.6267C223.201 76.444 219.276 80.3642 214.451 80.3642ZM214.451 65.086C210.839 65.086 207.898 68.0211 207.898 71.6267C207.898 75.2323 210.839 78.1674 214.451 78.1674C218.063 78.1674 221.003 75.2323 221.003 71.6267C221.003 68.0211 218.063 65.086 214.451 65.086Z" fill="#182232"/>
<path opacity="0.2" d="M195.687 78.1677C199.305 78.1677 202.239 75.2394 202.239 71.6271C202.239 68.0148 199.305 65.0864 195.687 65.0864C192.068 65.0864 189.135 68.0148 189.135 71.6271C189.135 75.2394 192.068 78.1677 195.687 78.1677Z" fill="#182232"/>
<path d="M207.094 80.3874C205.65 80.3727 204.207 80.355 202.763 80.3403C202.74 81.4373 203.706 82.3961 204.799 82.5196C205.892 82.6372 206.876 81.4638 207.094 80.3874Z" fill="#DB7F74"/>
<path d="M211.428 83.3462C207.215 85.649 201.826 85.646 197.613 83.3403C198.78 85.946 201.514 87.7047 204.372 87.7547C207.229 87.8047 210.17 85.9107 211.428 83.3462Z" fill="white"/>
<path d="M171.59 190.347L164.154 269.94L154.102 377.341H173.897L188.286 272.843L201.72 210.66H205.88L206.313 377.341H226.135L238.27 190.347H171.59Z" fill="#2F2D82"/>
<path d="M171.331 377.341H154.102L151.342 381.893C150.04 384.046 148.083 385.725 145.756 386.693C142.916 387.875 140.671 390.107 139.454 392.89H173.255L171.331 377.341Z" fill="#182232"/>
<path d="M139.457 392.89C139.26 393.34 139.083 393.801 138.945 394.278L138.706 395.084H173.529L173.258 392.887H139.457V392.89Z" fill="#182232"/>
<path d="M208.24 377.341H225.469L228.229 381.893C229.531 384.046 231.491 385.725 233.815 386.693C236.655 387.875 238.9 390.107 240.117 392.89H206.313L208.24 377.341Z" fill="#182232"/>
<path d="M240.114 392.89C240.311 393.34 240.488 393.801 240.627 394.278L240.865 395.084H206.042L206.313 392.887H240.114V392.89Z" fill="#182232"/>
<path d="M280.104 168.298L265.474 162.187C265.165 177.986 256.647 190.649 246.18 190.649C235.639 190.649 227.077 177.809 226.88 161.86L211.463 168.301C203.644 171.565 199.354 180.012 201.337 188.238L215.249 245.995H245.782H276.319L290.23 188.238C292.213 180.009 287.923 171.563 280.104 168.298Z" fill="#E9B233"/>
<path d="M246.18 190.647C256.647 190.647 265.165 177.983 265.474 162.184L245.785 153.958L226.883 161.855C227.08 177.807 235.642 190.647 246.18 190.647Z" fill="#DB7A00"/>
<path d="M227.378 158.052C224.47 152.147 223.247 145.135 224.066 138.604C221.262 137.163 219.541 133.239 219.677 130.095C219.812 126.949 221.515 123.996 223.887 121.92C226.258 119.843 229.249 118.573 232.31 117.811C242.762 115.211 254.5 118.655 261.883 126.484C264.378 125.378 267.545 126.784 269.416 128.769C271.284 130.754 272.141 133.492 272.542 136.189C273.455 142.333 269.928 152.244 265.992 157.734L227.378 158.052Z" fill="#182232"/>
<path d="M229.246 163.272C228.969 161.864 228.621 160.446 227.893 159.208C227.163 157.973 225.993 156.929 224.582 156.658C223.171 156.385 221.547 157.046 220.979 158.364C220.504 159.464 220.817 160.74 221.288 161.84C221.992 163.481 223.038 164.975 224.343 166.198C224.9 166.719 225.522 167.201 226.246 167.445C226.971 167.687 227.82 167.66 228.444 167.222C229.028 166.813 229.343 166.101 229.422 165.396C229.505 164.687 229.384 163.972 229.246 163.272Z" fill="#DB7F74"/>
<path d="M264.11 163.272C264.387 161.864 264.734 160.446 265.462 159.208C266.193 157.973 267.362 156.929 268.773 156.658C270.185 156.385 271.808 157.046 272.376 158.364C272.851 159.464 272.538 160.74 272.067 161.84C271.363 163.481 270.317 164.975 269.012 166.198C268.455 166.719 267.834 167.201 267.109 167.445C266.384 167.687 265.536 167.66 264.911 167.222C264.328 166.813 264.012 166.101 263.933 165.396C263.847 164.687 263.971 163.972 264.11 163.272Z" fill="#DB7F74"/>
<path d="M262.678 146.127C260.616 145.315 258.709 143.177 258.179 141.027C256.795 142.348 254.868 143.083 252.953 143.021C251.038 142.959 249.149 141.495 247.853 140.086C245.202 143.942 240.665 146.438 235.983 146.615C234.336 146.677 232.454 146.085 231.611 144.671C230.683 149.265 229.26 153.755 227.378 158.049C228.317 170.686 236.596 180.571 246.678 180.571C256.842 180.571 265.173 170.519 265.995 157.732C264.272 154.058 263.12 150.065 262.678 146.127Z" fill="#E39D89"/>
<path d="M239.769 157.582C239.769 158.44 239.071 159.14 238.208 159.14C237.344 159.14 236.646 158.443 236.646 157.582C236.646 156.723 237.344 156.023 238.208 156.023C239.071 156.023 239.769 156.723 239.769 157.582Z" fill="#182232"/>
<path d="M254.85 157.582C254.85 158.44 254.152 159.14 253.289 159.14C252.426 159.14 251.727 158.443 251.727 157.582C251.727 156.723 252.426 156.023 253.289 156.023C254.152 156.023 254.85 156.723 254.85 157.582Z" fill="#182232"/>
<path d="M248.292 165.422C246.622 165.384 244.948 165.349 243.278 165.311C243.328 166.375 244.424 167.284 245.49 167.349C246.557 167.413 247.936 166.428 248.292 165.422Z" fill="#DB7F74"/>
<path d="M252.873 167.672C248.766 169.481 244.038 169.842 239.704 168.681C240.444 170.186 241.245 171.645 242.559 172.692C243.87 173.736 245.611 174.339 247.255 174.007C248.651 173.724 249.856 172.801 250.734 171.677C251.609 170.554 252.328 168.986 252.873 167.672Z" fill="white"/>
<path d="M233.712 153.655C235.698 152.117 238.246 151.944 240.529 152.855C242.132 153.493 242.821 150.911 241.239 150.282C238.001 148.991 234.528 149.667 231.821 151.77C230.462 152.823 232.368 154.696 233.712 153.655Z" fill="#182232"/>
<path d="M251.386 152.988C253.692 152.2 256.152 152.553 258.032 154.152C259.337 155.261 261.237 153.382 259.923 152.264C257.34 150.068 253.916 149.306 250.673 150.415C249.052 150.97 249.747 153.55 251.386 152.988Z" fill="#182232"/>
<path d="M276.318 245.992H245.785H215.252L184.842 294.668C178.906 304.173 178.929 316.228 184.907 325.706L215.252 373.838H238.496L203.662 309.917L235.898 271.64C238.352 268.726 241.973 267.043 245.785 267.043C249.6 267.043 253.218 268.726 255.672 271.64L287.905 309.914L253.071 373.835H276.316L306.66 325.703C312.638 316.225 312.662 304.167 306.725 294.665L276.318 245.992Z" fill="#DF5700"/>
<path d="M225.489 381.97C225.074 382.546 225.489 383.349 226.199 383.349H234.952L231.823 377.132H219.093L220.952 380.59H224.779C225.489 380.59 225.904 381.393 225.489 381.97Z" fill="white"/>
<path d="M230.165 373.838H217.323L219.093 377.132H231.82L230.165 373.838Z" fill="#DB7F74"/>
<path d="M234.952 383.349H226.199C225.489 383.349 225.074 382.546 225.489 381.97C225.904 381.393 225.489 380.59 224.779 380.59H220.952L214.264 386.346C212.405 387.946 210.031 388.828 207.574 388.828H204.324C201.337 388.828 198.562 390.128 196.65 392.286H239.451L234.952 383.349Z" fill="#DF5700"/>
<path d="M196.65 392.287C195.925 393.104 195.318 394.042 194.879 395.086H240.859L239.451 392.287H196.65Z" fill="white"/>
<path d="M266.081 381.97C266.496 382.546 266.081 383.349 265.371 383.349H256.618L259.746 377.132H272.477L270.618 380.59H266.791C266.078 380.59 265.665 381.393 266.081 381.97Z" fill="white"/>
<path d="M261.405 373.838H274.247L272.477 377.132H259.747L261.405 373.838Z" fill="#DB7F74"/>
<path d="M256.618 383.349H265.371C266.081 383.349 266.496 382.546 266.081 381.97C265.665 381.393 266.081 380.59 266.791 380.59H270.618L277.305 386.346C279.164 387.946 281.539 388.828 283.996 388.828H287.246C290.233 388.828 293.008 390.128 294.92 392.286H252.119L256.618 383.349Z" fill="#DF5700"/>
<path d="M294.917 392.287C295.642 393.104 296.249 394.042 296.688 395.086H250.708L252.116 392.287H294.917Z" fill="white"/>
<path d="M218.395 187.541C218.395 189.802 216.557 191.637 214.291 191.637C212.026 191.637 210.187 189.802 210.187 187.541C210.187 185.279 212.026 183.444 214.291 183.444C216.557 183.444 218.395 185.276 218.395 187.541Z" fill="#DB7F74"/>
<path d="M206.658 195.881H200.206C197.33 195.881 194.876 193.802 194.408 190.967L193.536 185.679C193.135 183.253 195.012 181.044 197.478 181.044H209.386C211.852 181.044 213.725 183.25 213.328 185.679L212.456 190.967C211.987 193.802 209.536 195.881 206.658 195.881Z" fill="#E39D89"/>
<path d="M274.96 187.541C274.96 189.802 276.799 191.637 279.064 191.637C281.33 191.637 283.168 189.802 283.168 187.541C283.168 185.279 281.33 183.444 279.064 183.444C276.799 183.444 274.96 185.276 274.96 187.541Z" fill="#DB7F74"/>
<path d="M286.698 195.881H293.15C296.025 195.881 298.479 193.802 298.948 190.967L299.82 185.679C300.22 183.253 298.344 181.044 295.878 181.044H283.97C281.504 181.044 279.63 183.25 280.028 185.679L280.9 190.967C281.365 193.802 283.819 195.881 286.698 195.881Z" fill="#E39D89"/>
<path d="M332.062 189.014C332.062 190.876 333.573 192.387 335.441 192.387C337.306 192.387 338.82 190.878 338.82 189.014C338.82 187.149 337.309 185.641 335.441 185.641C333.576 185.641 332.062 187.152 332.062 189.014Z" fill="#DB7F74"/>
<path d="M341.725 195.881H347.037C349.406 195.881 351.427 194.17 351.81 191.837L352.528 187.482C352.858 185.482 351.312 183.667 349.285 183.667H339.48C337.45 183.667 335.907 185.485 336.236 187.482L336.955 191.837C337.335 194.17 339.356 195.881 341.725 195.881Z" fill="#E39D89"/>
<path d="M166.626 182.93H164.016C159.912 182.93 156.586 186.25 156.586 190.347H166.626V182.93Z" fill="#DB7F74"/>
<path d="M186.551 189.423C186.551 191.685 184.712 193.52 182.447 193.52C180.181 193.52 178.343 191.685 178.343 189.423C178.343 187.161 180.181 185.326 182.447 185.326C184.715 185.326 186.551 187.161 186.551 189.423Z" fill="#DB7F74"/>
<path d="M174.816 197.767H168.364C165.489 197.767 163.035 195.687 162.566 192.852L161.694 187.565C161.294 185.138 163.17 182.93 165.636 182.93H177.544C180.01 182.93 181.884 185.135 181.486 187.565L180.614 192.852C180.146 195.687 177.692 197.767 174.816 197.767Z" fill="#E39D89"/>
<path d="M405.096 193.52H413.934V186.964H405.096C403.281 186.964 401.811 188.432 401.811 190.244C401.811 192.052 403.281 193.52 405.096 193.52Z" fill="#DB7F74"/>
<path d="M436.248 187.238L419.107 182.091C416.963 181.447 414.638 182.024 413.044 183.594L408.319 188.253C407.081 189.473 406.681 191.305 407.296 192.929L409.017 197.467C409.698 199.266 411.356 200.513 413.277 200.672L425.291 201.672C427.592 201.863 429.422 199.772 428.921 197.522L428.556 195.884C432.807 195.884 436.254 192.443 436.254 188.2V187.238H436.248Z" fill="#E39D89"/>
<path d="M392.039 193.52H383.2V186.964H392.039C393.853 186.964 395.323 188.432 395.323 190.244C395.32 192.052 393.85 193.52 392.039 193.52Z" fill="#DB7F74"/>
<path d="M360.884 187.238L378.024 182.091C380.169 181.447 382.493 182.024 384.087 183.594L388.813 188.253C390.05 189.473 390.451 191.305 389.835 192.929L388.114 197.467C387.434 199.266 385.775 200.513 383.854 200.672L371.84 201.672C369.539 201.863 367.71 199.772 368.211 197.522L368.576 195.884C364.325 195.884 360.878 192.443 360.878 188.2V187.238H360.884Z" fill="#E39D89"/>
<path d="M122.04 180.571L143.649 182.356C147.88 182.706 151.825 184.626 154.703 187.738L154.721 187.758C156.262 189.423 157.119 191.608 157.119 193.876V194.831C157.119 196.452 155.802 197.767 154.179 197.767H140.073C138.205 197.767 136.549 196.561 135.981 194.787L134.555 190.349L124.108 186.641L122.04 180.571Z" fill="#E39D89"/>
<path d="M323.88 20.7866C323.88 20.7866 293.621 53.4781 293.503 53.8222C292.743 56.0426 299.787 60.4511 309.232 63.6656C318.677 66.88 326.95 67.6917 327.71 65.4713C327.828 65.1272 323.88 20.7866 323.88 20.7866Z" fill="#DF5700"/>
<path d="M311.192 42.5173C314.503 44.0289 318.415 42.5761 319.93 39.2705C321.444 35.9649 319.989 32.0593 316.677 30.5477C316.218 30.3388 315.749 30.1889 315.275 30.0889C312.886 32.674 310.228 35.5531 307.612 38.3911C308.134 40.1557 309.386 41.6938 311.192 42.5173Z" fill="white"/>
<path d="M322.917 48.8117C324.304 48.3036 325.015 46.7694 324.507 45.3848C323.998 44.0003 322.461 43.2897 321.074 43.7978C319.687 44.3059 318.975 45.8402 319.484 47.2247C319.993 48.6093 321.53 49.3198 322.917 48.8117Z" fill="#E9B233"/>
<path d="M318.114 53.9127C318.286 51.02 316.076 48.5361 313.178 48.3649C310.28 48.1936 307.792 50.3998 307.62 53.2926C307.449 56.1853 309.659 58.6691 312.557 58.8403C315.455 59.0116 317.943 56.8054 318.114 53.9127Z" fill="#E9B233"/>
<path d="M321.497 54.0662C320.595 56.0367 321.461 58.3629 323.432 59.2629C324.702 59.8422 326.122 59.6893 327.212 58.9805C327.044 56.9807 326.844 54.6338 326.626 52.0987C324.673 51.2547 322.39 52.1193 321.497 54.0662Z" fill="white"/>
<path d="M305.046 47.9197C305.809 46.2551 305.075 44.2906 303.408 43.5289C303.278 43.4701 303.146 43.423 303.013 43.3818C301.558 44.9611 300.185 46.4551 298.956 47.7933C299.266 48.5461 299.846 49.1873 300.644 49.5549C302.312 50.3166 304.283 49.5843 305.046 47.9197Z" fill="white"/>
<path d="M320.949 27.2538C320.165 28.9625 320.92 30.98 322.628 31.7623C323.359 32.0975 324.146 32.1475 324.87 31.9681C324.643 29.4095 324.443 27.1156 324.278 25.2804C322.905 25.1863 321.556 25.9304 320.949 27.2538Z" fill="#E9B233"/>
<path d="M323.88 20.7867C324.546 19.3692 326.217 18.8515 327.784 18.928C329.348 19.0045 330.883 19.5044 332.451 19.4456C334.448 19.3692 336.387 18.3192 337.539 16.687C339.032 17.4458 340.063 19.0309 340.119 20.7014C338.328 22.0689 336.063 22.9277 333.838 22.563C332.218 22.2954 330.715 21.5572 329.139 21.0955C327.56 20.6308 325.295 19.9515 323.88 20.7867Z" fill="#E9B233"/>
<path d="M323.88 20.7862C325.286 19.9775 327.151 20.8333 328.538 21.6715C329.926 22.5096 331.199 23.6154 332.772 24.0183C334.366 24.4271 336.145 24.0125 337.394 22.9449C338.434 24.3595 338.608 26.4593 337.91 28.071C336.254 28.815 334.159 28.368 332.604 27.4328C331.048 26.4976 329.82 25.1241 328.541 23.8389C327.26 22.5508 325.601 21.3568 323.88 20.7862Z" fill="white"/>
<path d="M223.398 0C223.398 0 188.975 39.3057 188.849 39.7116C188.03 42.3378 196.432 47.2815 207.609 50.7489C218.79 54.2163 228.515 54.8986 229.334 52.2694C229.461 51.8635 223.398 0 223.398 0Z" fill="#DF5700"/>
<path d="M189.052 39.4468C188.925 39.6026 188.854 39.6938 188.849 39.7115C188.03 42.3377 196.432 47.2814 207.609 50.7488C208.263 50.9517 208.915 51.1458 209.56 51.3282C216.138 50.9782 222.664 49.6695 228.848 47.4197C228.618 45.311 228.318 42.6348 227.976 39.6321C215.366 43.3906 201.614 43.37 189.052 39.4468Z" fill="#E9B233"/>
<path d="M195.848 31.5503C206.045 34.0266 216.845 34.0295 227.062 31.6179C226.753 28.9152 226.432 26.1301 226.117 23.3862C218.463 24.7361 210.57 24.7597 202.916 23.4333C200.388 26.3301 197.958 29.124 195.848 31.5503Z" fill="#E9B233"/>
<path d="M217.817 6.37585C215.646 8.85506 213.015 11.8666 210.228 15.0546C215.181 15.5663 220.192 15.5281 225.136 14.9428C224.758 11.6784 224.411 8.70508 224.128 6.28174C222.03 6.41114 219.921 6.44349 217.817 6.37585Z" fill="#E9B233"/>
</svg>
