<svg width="32" height="25" viewBox="0 0 32 25" fill="none" xmlns="http://www.w3.org/2000/svg">
<mask id="path-1-inside-1_486_1893" fill="white">
<path fill-rule="evenodd" clip-rule="evenodd" d="M16.3013 2.91288C17.3479 2.91288 18.3516 3.32865 19.0917 4.06872C19.8318 4.8088 20.2475 5.81255 20.2475 6.85917C20.2475 7.90579 19.8318 8.90954 19.0917 9.64962C18.3516 10.3897 17.3479 10.8055 16.3013 10.8055C15.2546 10.8055 14.2509 10.3897 13.5108 9.64962C12.7707 8.90954 12.355 7.90579 12.355 6.85917C12.355 5.81255 12.7707 4.8088 13.5108 4.06872C14.2509 3.32865 15.2546 2.91288 16.3013 2.91288ZM22.4794 6.85917C22.4794 6.04802 22.3197 5.24482 22.0092 4.49541C21.6988 3.74601 21.2439 3.06508 20.6703 2.49152C20.0967 1.91795 19.4158 1.46297 18.6664 1.15255C17.917 0.842141 17.1138 0.682373 16.3026 0.682373C15.4915 0.682373 14.6883 0.842141 13.9389 1.15255C13.1895 1.46297 12.5085 1.91795 11.935 2.49152C11.3614 3.06508 10.9064 3.74601 10.596 4.49541C10.2856 5.24482 10.1258 6.04802 10.1258 6.85917C10.1258 8.49736 10.7766 10.0685 11.935 11.2268C13.0933 12.3852 14.6644 13.036 16.3026 13.036C17.9408 13.036 19.5119 12.3852 20.6703 11.2268C21.8287 10.0685 22.4794 8.49736 22.4794 6.85917ZM23.0765 18.0556C18.6961 16.4911 13.9092 16.4911 9.52874 18.0556C9.24463 18.1568 8.99881 18.3435 8.82505 18.59C8.65129 18.8365 8.5581 19.1308 8.5583 19.4324V21.0974C8.5583 21.9209 9.28853 22.5537 10.1039 22.4371L10.6008 22.3671C14.3828 21.8269 18.2224 21.8269 22.0045 22.3671L22.5 22.4371C22.692 22.4644 22.8876 22.4501 23.0736 22.3954C23.2596 22.3406 23.4316 22.2465 23.5782 22.1195C23.7247 21.9925 23.8422 21.8355 23.9229 21.6592C24.0035 21.4829 24.0454 21.2913 24.0456 21.0974V19.4324C24.0456 18.8147 23.6571 18.2643 23.0765 18.0556ZM8.77792 15.9555C13.6434 14.2178 18.9605 14.2178 23.826 15.9555C24.543 16.2117 25.1633 16.6833 25.602 17.3057C26.0406 17.9281 26.276 18.6709 26.2761 19.4324V21.0974C26.2761 23.2785 24.3448 24.9544 22.1857 24.6456L21.6888 24.5742C18.1162 24.0638 14.4891 24.0638 10.9165 24.5742L10.4196 24.6456C9.91126 24.7182 9.39328 24.6807 8.90072 24.5356C8.40816 24.3906 7.95252 24.1414 7.56465 23.8049C7.17678 23.4685 6.86573 23.0526 6.65257 22.5855C6.43941 22.1183 6.32912 21.6108 6.32916 21.0974V19.4324C6.32911 18.6711 6.56437 17.9284 7.00273 17.306C7.44109 16.6836 8.06112 16.2119 8.77792 15.9555ZM23.8946 5.22163C24.6536 5.22163 25.3816 5.52316 25.9183 6.05987C26.455 6.59658 26.7565 7.32452 26.7565 8.08355C26.7565 8.84258 26.455 9.57052 25.9183 10.1072C25.3816 10.6439 24.6536 10.9455 23.8946 10.9455C23.6056 10.9556 23.3318 11.0775 23.1309 11.2856C22.9301 11.4936 22.8178 11.7715 22.8178 12.0607C22.8178 12.3499 22.9301 12.6278 23.1309 12.8359C23.3318 13.0439 23.6056 13.1658 23.8946 13.176C24.5633 13.176 25.2255 13.0443 25.8434 12.7883C26.4612 12.5324 27.0226 12.1573 27.4955 11.6844C27.9684 11.2116 28.3435 10.6502 28.5994 10.0323C28.8553 9.41449 28.987 8.7523 28.987 8.08355C28.987 7.4148 28.8553 6.7526 28.5994 6.13476C28.3435 5.51692 27.9684 4.95554 27.4955 4.48266C27.0226 4.00978 26.4612 3.63468 25.8434 3.37876C25.2255 3.12284 24.5633 2.99112 23.8946 2.99112C23.6056 3.00126 23.3318 3.1232 23.1309 3.33125C22.9301 3.53929 22.8178 3.81719 22.8178 4.10638C22.8178 4.39557 22.9301 4.67347 23.1309 4.88151C23.3318 5.08955 23.6056 5.21149 23.8946 5.22163ZM25.9645 15.1745C25.9922 15.0307 26.0479 14.8938 26.1284 14.7716C26.209 14.6494 26.3129 14.5442 26.4341 14.4621C26.5553 14.38 26.6915 14.3226 26.8349 14.2932C26.9783 14.2637 27.1261 14.2628 27.2699 14.2905C28.1552 14.4607 29.0296 14.6996 29.8875 15.0057C30.4973 15.2234 31.0249 15.6244 31.3979 16.1537C31.7709 16.683 31.9712 17.3148 31.9711 17.9623V19.2704C31.9711 21.1303 30.324 22.5578 28.4833 22.2957L28.0934 22.2408C27.8004 22.1989 27.536 22.0423 27.3584 21.8055C27.1807 21.5687 27.1045 21.271 27.1463 20.978C27.1882 20.6849 27.3448 20.4205 27.5816 20.2429C27.8184 20.0652 28.1161 19.989 28.4092 20.0308L28.799 20.0871C28.916 20.1038 29.0352 20.0952 29.1486 20.0618C29.262 20.0285 29.3669 19.9711 29.4562 19.8937C29.5455 19.8162 29.6171 19.7205 29.6661 19.613C29.7152 19.5054 29.7406 19.3886 29.7406 19.2704V17.9623C29.7406 17.578 29.499 17.2348 29.1366 17.1072C28.3909 16.8406 27.626 16.6314 26.8485 16.4812C26.7046 16.4536 26.5675 16.3979 26.4452 16.3172C26.3229 16.2365 26.2176 16.1326 26.1355 16.0112C26.0534 15.8898 25.9961 15.7534 25.9667 15.6099C25.9374 15.4663 25.9366 15.3184 25.9645 15.1745ZM8.07651 5.22163C7.31748 5.22163 6.58954 5.52316 6.05283 6.05987C5.51611 6.59658 5.21459 7.32452 5.21459 8.08355C5.21459 8.84258 5.51611 9.57052 6.05283 10.1072C6.58954 10.6439 7.31748 10.9455 8.07651 10.9455C8.36552 10.9556 8.63931 11.0775 8.84018 11.2856C9.04105 11.4936 9.15332 11.7715 9.15332 12.0607C9.15332 12.3499 9.04105 12.6278 8.84018 12.8359C8.63931 13.0439 8.36552 13.1658 8.07651 13.176C6.72591 13.176 5.43063 12.6395 4.47562 11.6844C3.5206 10.7294 2.98408 9.43414 2.98408 8.08355C2.98408 6.73295 3.5206 5.43767 4.47562 4.48266C5.43063 3.52764 6.72591 2.99112 8.07651 2.99112C8.36552 3.00126 8.63931 3.1232 8.84018 3.33125C9.04105 3.53929 9.15332 3.81719 9.15332 4.10638C9.15332 4.39557 9.04105 4.67347 8.84018 4.88151C8.63931 5.08955 8.36552 5.21149 8.07651 5.22163ZM6.00659 15.1745C5.97895 15.0307 5.92325 14.8938 5.84268 14.7716C5.76211 14.6494 5.65825 14.5442 5.53703 14.4621C5.41581 14.38 5.27961 14.3226 5.1362 14.2932C4.99279 14.2637 4.84499 14.2628 4.70123 14.2905C3.81589 14.4607 2.94153 14.6996 2.08364 15.0057C1.4738 15.2234 0.946211 15.6244 0.573186 16.1537C0.200162 16.683 -4.65263e-05 17.3148 8.11015e-09 17.9623V19.2704C8.11015e-09 21.1303 1.64715 22.5578 3.48783 22.2957L3.87766 22.2408C4.17071 22.1989 4.43513 22.0423 4.61275 21.8055C4.79037 21.5687 4.86663 21.271 4.82477 20.978C4.7829 20.6849 4.62634 20.4205 4.38951 20.2429C4.15269 20.0652 3.85501 19.989 3.56195 20.0308L3.1735 20.0871C3.05639 20.1041 2.937 20.0956 2.82345 20.0623C2.70989 20.029 2.60483 19.9717 2.51538 19.8943C2.42593 19.8168 2.3542 19.721 2.30505 19.6133C2.25589 19.5057 2.23047 19.3887 2.23051 19.2704V17.9623C2.23051 17.578 2.47209 17.2348 2.83446 17.1072C3.58061 16.8406 4.34601 16.6314 5.124 16.4812C5.2679 16.4536 5.40494 16.3979 5.52728 16.3172C5.64962 16.2365 5.75485 16.1326 5.83696 16.0112C5.91906 15.8898 5.97643 15.7534 6.00577 15.6099C6.03511 15.4663 6.03449 15.3184 6.00659 15.1745Z"/>
</mask>
<path fill-rule="evenodd" clip-rule="evenodd" d="M16.3013 2.91288C17.3479 2.91288 18.3516 3.32865 19.0917 4.06872C19.8318 4.8088 20.2475 5.81255 20.2475 6.85917C20.2475 7.90579 19.8318 8.90954 19.0917 9.64962C18.3516 10.3897 17.3479 10.8055 16.3013 10.8055C15.2546 10.8055 14.2509 10.3897 13.5108 9.64962C12.7707 8.90954 12.355 7.90579 12.355 6.85917C12.355 5.81255 12.7707 4.8088 13.5108 4.06872C14.2509 3.32865 15.2546 2.91288 16.3013 2.91288ZM22.4794 6.85917C22.4794 6.04802 22.3197 5.24482 22.0092 4.49541C21.6988 3.74601 21.2439 3.06508 20.6703 2.49152C20.0967 1.91795 19.4158 1.46297 18.6664 1.15255C17.917 0.842141 17.1138 0.682373 16.3026 0.682373C15.4915 0.682373 14.6883 0.842141 13.9389 1.15255C13.1895 1.46297 12.5085 1.91795 11.935 2.49152C11.3614 3.06508 10.9064 3.74601 10.596 4.49541C10.2856 5.24482 10.1258 6.04802 10.1258 6.85917C10.1258 8.49736 10.7766 10.0685 11.935 11.2268C13.0933 12.3852 14.6644 13.036 16.3026 13.036C17.9408 13.036 19.5119 12.3852 20.6703 11.2268C21.8287 10.0685 22.4794 8.49736 22.4794 6.85917ZM23.0765 18.0556C18.6961 16.4911 13.9092 16.4911 9.52874 18.0556C9.24463 18.1568 8.99881 18.3435 8.82505 18.59C8.65129 18.8365 8.5581 19.1308 8.5583 19.4324V21.0974C8.5583 21.9209 9.28853 22.5537 10.1039 22.4371L10.6008 22.3671C14.3828 21.8269 18.2224 21.8269 22.0045 22.3671L22.5 22.4371C22.692 22.4644 22.8876 22.4501 23.0736 22.3954C23.2596 22.3406 23.4316 22.2465 23.5782 22.1195C23.7247 21.9925 23.8422 21.8355 23.9229 21.6592C24.0035 21.4829 24.0454 21.2913 24.0456 21.0974V19.4324C24.0456 18.8147 23.6571 18.2643 23.0765 18.0556ZM8.77792 15.9555C13.6434 14.2178 18.9605 14.2178 23.826 15.9555C24.543 16.2117 25.1633 16.6833 25.602 17.3057C26.0406 17.9281 26.276 18.6709 26.2761 19.4324V21.0974C26.2761 23.2785 24.3448 24.9544 22.1857 24.6456L21.6888 24.5742C18.1162 24.0638 14.4891 24.0638 10.9165 24.5742L10.4196 24.6456C9.91126 24.7182 9.39328 24.6807 8.90072 24.5356C8.40816 24.3906 7.95252 24.1414 7.56465 23.8049C7.17678 23.4685 6.86573 23.0526 6.65257 22.5855C6.43941 22.1183 6.32912 21.6108 6.32916 21.0974V19.4324C6.32911 18.6711 6.56437 17.9284 7.00273 17.306C7.44109 16.6836 8.06112 16.2119 8.77792 15.9555ZM23.8946 5.22163C24.6536 5.22163 25.3816 5.52316 25.9183 6.05987C26.455 6.59658 26.7565 7.32452 26.7565 8.08355C26.7565 8.84258 26.455 9.57052 25.9183 10.1072C25.3816 10.6439 24.6536 10.9455 23.8946 10.9455C23.6056 10.9556 23.3318 11.0775 23.1309 11.2856C22.9301 11.4936 22.8178 11.7715 22.8178 12.0607C22.8178 12.3499 22.9301 12.6278 23.1309 12.8359C23.3318 13.0439 23.6056 13.1658 23.8946 13.176C24.5633 13.176 25.2255 13.0443 25.8434 12.7883C26.4612 12.5324 27.0226 12.1573 27.4955 11.6844C27.9684 11.2116 28.3435 10.6502 28.5994 10.0323C28.8553 9.41449 28.987 8.7523 28.987 8.08355C28.987 7.4148 28.8553 6.7526 28.5994 6.13476C28.3435 5.51692 27.9684 4.95554 27.4955 4.48266C27.0226 4.00978 26.4612 3.63468 25.8434 3.37876C25.2255 3.12284 24.5633 2.99112 23.8946 2.99112C23.6056 3.00126 23.3318 3.1232 23.1309 3.33125C22.9301 3.53929 22.8178 3.81719 22.8178 4.10638C22.8178 4.39557 22.9301 4.67347 23.1309 4.88151C23.3318 5.08955 23.6056 5.21149 23.8946 5.22163ZM25.9645 15.1745C25.9922 15.0307 26.0479 14.8938 26.1284 14.7716C26.209 14.6494 26.3129 14.5442 26.4341 14.4621C26.5553 14.38 26.6915 14.3226 26.8349 14.2932C26.9783 14.2637 27.1261 14.2628 27.2699 14.2905C28.1552 14.4607 29.0296 14.6996 29.8875 15.0057C30.4973 15.2234 31.0249 15.6244 31.3979 16.1537C31.7709 16.683 31.9712 17.3148 31.9711 17.9623V19.2704C31.9711 21.1303 30.324 22.5578 28.4833 22.2957L28.0934 22.2408C27.8004 22.1989 27.536 22.0423 27.3584 21.8055C27.1807 21.5687 27.1045 21.271 27.1463 20.978C27.1882 20.6849 27.3448 20.4205 27.5816 20.2429C27.8184 20.0652 28.1161 19.989 28.4092 20.0308L28.799 20.0871C28.916 20.1038 29.0352 20.0952 29.1486 20.0618C29.262 20.0285 29.3669 19.9711 29.4562 19.8937C29.5455 19.8162 29.6171 19.7205 29.6661 19.613C29.7152 19.5054 29.7406 19.3886 29.7406 19.2704V17.9623C29.7406 17.578 29.499 17.2348 29.1366 17.1072C28.3909 16.8406 27.626 16.6314 26.8485 16.4812C26.7046 16.4536 26.5675 16.3979 26.4452 16.3172C26.3229 16.2365 26.2176 16.1326 26.1355 16.0112C26.0534 15.8898 25.9961 15.7534 25.9667 15.6099C25.9374 15.4663 25.9366 15.3184 25.9645 15.1745ZM8.07651 5.22163C7.31748 5.22163 6.58954 5.52316 6.05283 6.05987C5.51611 6.59658 5.21459 7.32452 5.21459 8.08355C5.21459 8.84258 5.51611 9.57052 6.05283 10.1072C6.58954 10.6439 7.31748 10.9455 8.07651 10.9455C8.36552 10.9556 8.63931 11.0775 8.84018 11.2856C9.04105 11.4936 9.15332 11.7715 9.15332 12.0607C9.15332 12.3499 9.04105 12.6278 8.84018 12.8359C8.63931 13.0439 8.36552 13.1658 8.07651 13.176C6.72591 13.176 5.43063 12.6395 4.47562 11.6844C3.5206 10.7294 2.98408 9.43414 2.98408 8.08355C2.98408 6.73295 3.5206 5.43767 4.47562 4.48266C5.43063 3.52764 6.72591 2.99112 8.07651 2.99112C8.36552 3.00126 8.63931 3.1232 8.84018 3.33125C9.04105 3.53929 9.15332 3.81719 9.15332 4.10638C9.15332 4.39557 9.04105 4.67347 8.84018 4.88151C8.63931 5.08955 8.36552 5.21149 8.07651 5.22163ZM6.00659 15.1745C5.97895 15.0307 5.92325 14.8938 5.84268 14.7716C5.76211 14.6494 5.65825 14.5442 5.53703 14.4621C5.41581 14.38 5.27961 14.3226 5.1362 14.2932C4.99279 14.2637 4.84499 14.2628 4.70123 14.2905C3.81589 14.4607 2.94153 14.6996 2.08364 15.0057C1.4738 15.2234 0.946211 15.6244 0.573186 16.1537C0.200162 16.683 -4.65263e-05 17.3148 8.11015e-09 17.9623V19.2704C8.11015e-09 21.1303 1.64715 22.5578 3.48783 22.2957L3.87766 22.2408C4.17071 22.1989 4.43513 22.0423 4.61275 21.8055C4.79037 21.5687 4.86663 21.271 4.82477 20.978C4.7829 20.6849 4.62634 20.4205 4.38951 20.2429C4.15269 20.0652 3.85501 19.989 3.56195 20.0308L3.1735 20.0871C3.05639 20.1041 2.937 20.0956 2.82345 20.0623C2.70989 20.029 2.60483 19.9717 2.51538 19.8943C2.42593 19.8168 2.3542 19.721 2.30505 19.6133C2.25589 19.5057 2.23047 19.3887 2.23051 19.2704V17.9623C2.23051 17.578 2.47209 17.2348 2.83446 17.1072C3.58061 16.8406 4.34601 16.6314 5.124 16.4812C5.2679 16.4536 5.40494 16.3979 5.52728 16.3172C5.64962 16.2365 5.75485 16.1326 5.83696 16.0112C5.91906 15.8898 5.97643 15.7534 6.00577 15.6099C6.03511 15.4663 6.03449 15.3184 6.00659 15.1745Z" fill="#7A7A7A" stroke="white" stroke-width="0.6" mask="url(#path-1-inside-1_486_1893)"/>
</svg>
