<svg width="64" height="63" viewBox="0 0 64 63" fill="none" xmlns="http://www.w3.org/2000/svg">
<g opacity="0.7">
<path d="M24.125 26.25C27.0245 26.25 29.375 23.8995 29.375 21C29.375 18.1005 27.0245 15.75 24.125 15.75C21.2255 15.75 18.875 18.1005 18.875 21C18.875 23.8995 21.2255 26.25 24.125 26.25Z" stroke="#C1C1C1" stroke-width="3" stroke-linecap="round" stroke-linejoin="round"/>
<path d="M34.625 5.25H24.125C11 5.25 5.75 10.5 5.75 23.625V39.375C5.75 52.5 11 57.75 24.125 57.75H39.875C53 57.75 58.25 52.5 58.25 39.375V26.25" stroke="#C1C1C1" stroke-width="3" stroke-linecap="round" stroke-linejoin="round"/>
<path d="M41.8438 13.125H56.2812" stroke="#C1C1C1" stroke-width="3" stroke-linecap="round"/>
<path d="M49.0625 20.3438V5.90625" stroke="#C1C1C1" stroke-width="3" stroke-linecap="round"/>
<path d="M7.51562 49.7425L20.4569 41.0538C22.5306 39.6625 25.5231 39.82 27.3869 41.4212L28.2531 42.1825C30.3006 43.9412 33.6081 43.9412 35.6556 42.1825L46.5756 32.8112C48.6231 31.0525 51.9306 31.0525 53.9781 32.8112L58.2569 36.4862" stroke="#C1C1C1" stroke-width="3" stroke-linecap="round" stroke-linejoin="round"/>
</g>
</svg>
