<svg width="25" height="17" viewBox="0 0 25 17" fill="none" xmlns="http://www.w3.org/2000/svg">
<path d="M2.22834 15.4001C2.72598 15.8996 3.30611 16.2926 3.95267 16.5682C4.62474 16.8548 5.33567 17 6.06585 17H18.8727C19.6212 17 20.3496 16.851 21.0376 16.5573C21.7 16.2746 22.2939 15.8712 22.8029 15.3587C23.3058 14.8521 23.7001 14.2645 23.9747 13.6119C24.2617 12.9302 24.4045 12.2091 24.3992 11.4687C24.3948 10.8645 24.2925 10.2705 24.0951 9.70341C23.9042 9.15497 23.6272 8.64043 23.2744 8.17911C22.9259 7.7225 22.5081 7.32328 22.0361 6.99599C21.8149 6.84249 21.5828 6.70549 21.3416 6.58609C21.3475 6.47529 21.3505 6.36437 21.3505 6.25349C21.3505 5.41003 21.1849 4.59085 20.8583 3.81885C20.5433 3.07399 20.0926 2.40538 19.5189 1.83161C18.9451 1.25784 18.2765 0.80714 17.5316 0.492113C16.7595 0.165554 15.9404 0 15.097 0C14.0407 0 12.996 0.268903 12.0758 0.777646C11.4804 1.10683 10.9409 1.53372 10.482 2.03536C9.81072 1.75097 9.08913 1.60449 8.36012 1.60463C7.63358 1.60459 6.92543 1.74814 6.25525 2.0314C5.61151 2.30348 5.03166 2.69182 4.53174 3.18569C4.0308 3.68055 3.6351 4.25668 3.35568 4.89807C3.06415 5.56738 2.91303 6.27694 2.90656 7.00697C2.90581 7.09047 2.90699 7.1741 2.91009 7.25764C2.33276 7.67017 1.8426 8.19268 1.46775 8.79516C0.942889 9.63894 0.663514 10.6119 0.659827 11.6088C0.65716 12.3309 0.798828 13.034 1.08099 13.6986C1.35075 14.3343 1.73677 14.9067 2.22834 15.4001ZM4.32806 8.35396C4.55963 8.23335 4.69106 7.97818 4.64521 7.72116C4.60412 7.49036 4.58451 7.25625 4.58665 7.02184C4.60485 4.96251 6.31303 3.28473 8.35981 3.28492C8.39667 3.28492 8.43397 3.28547 8.47108 3.28657C9.17335 3.30669 9.85582 3.5238 10.4406 3.91314C10.5403 3.97964 10.6574 4.01516 10.7772 4.01523C10.9691 4.01523 11.1566 3.92373 11.2696 3.75123C12.0862 2.5043 13.4951 1.68029 15.097 1.68029C17.6227 1.68029 19.6702 3.72777 19.6702 6.25356C19.6702 6.56593 19.6384 6.87076 19.5785 7.16539C19.5169 7.46732 19.6973 7.76787 19.9927 7.85541C21.5605 8.31999 22.7067 9.76519 22.719 11.4809C22.7342 13.5922 20.9842 15.3199 18.8728 15.3199H6.06589C4.02829 15.3199 2.33247 13.6528 2.34008 11.6152C2.34533 10.1968 3.15059 8.96727 4.32806 8.35396Z" fill="white"/>
<path fill-rule="evenodd" clip-rule="evenodd" d="M7.40548 10.7044C7.49779 10.7619 7.60437 10.7924 7.71313 10.7924C7.85898 10.7924 8.00458 10.7377 8.11538 10.6317C8.28776 11.3046 8.61065 11.9315 9.06163 12.4641C9.59516 13.0943 10.2883 13.5693 11.0685 13.8395C12.0334 14.176 13.0828 14.1816 14.0512 13.8554C15.0197 13.5292 15.852 12.8898 16.4168 12.0381C16.5021 11.9093 16.5328 11.7518 16.502 11.6004C16.4713 11.4489 16.3816 11.3159 16.2528 11.2305C16.124 11.1452 15.9665 11.1145 15.8151 11.1453C15.6636 11.176 15.5306 11.2656 15.4453 11.3944C15.0235 12.0304 14.402 12.5078 13.6788 12.7513C12.9556 12.9948 12.1715 12.9905 11.451 12.7391C10.857 12.5332 10.3309 12.1684 9.92985 11.6843C9.62934 11.3216 9.40767 10.9023 9.27678 10.4533C9.39261 10.5288 9.53205 10.561 9.67016 10.543C9.82337 10.5231 9.96238 10.4431 10.0566 10.3207C10.1509 10.1982 10.1926 10.0434 10.1727 9.89017C10.1527 9.73696 10.0727 9.59794 9.95031 9.50371L8.98954 8.76418C8.87281 8.67424 8.71983 8.59424 8.55603 8.57856C8.38138 8.56184 8.20219 8.62063 8.07046 8.79235L7.25216 9.85493C7.18579 9.94104 7.14486 10.044 7.13401 10.1522C7.12316 10.2604 7.14284 10.3695 7.19082 10.4671C7.2388 10.5647 7.31316 10.6469 7.40548 10.7044ZM16.3358 11.6955C16.3348 11.6755 16.3323 11.6555 16.3283 11.6356C16.3069 11.5303 16.2445 11.4377 16.1549 11.3783C16.0653 11.319 15.9557 11.2976 15.8503 11.319C15.745 11.3404 15.6524 11.4028 15.593 11.4924C15.1495 12.1612 14.4959 12.6633 13.7354 12.9193C12.9748 13.1754 12.1507 13.1709 11.3929 12.9066C10.7683 12.6901 10.2151 12.3065 9.79332 11.7974C9.42817 11.3567 9.17372 10.8365 9.04933 10.2804C9.03016 10.1947 9.01408 10.1082 9.00116 10.0209L9.00101 10.0208C9.09758 10.6748 9.37165 11.2897 9.79339 11.7988C10.2151 12.3078 10.7684 12.6915 11.393 12.908C12.1507 13.1723 12.9749 13.1768 13.7354 12.9207C14.496 12.6646 15.1496 12.1626 15.5931 11.4938C15.6525 11.4041 15.745 11.3418 15.8504 11.3204C15.9558 11.299 16.0653 11.3203 16.155 11.3797C16.2446 11.4391 16.307 11.5316 16.3284 11.637C16.3323 11.6564 16.3348 11.6759 16.3358 11.6955ZM9.99975 9.94531C9.9992 9.93501 9.99826 9.92471 9.99692 9.91441C9.98306 9.80783 9.92742 9.71113 9.84225 9.64557L8.88147 8.90604C8.68008 8.75084 8.39359 8.66372 8.21124 8.90159L7.39269 9.96448C7.34651 10.0244 7.31803 10.096 7.31049 10.1713C7.30845 10.1916 7.30796 10.212 7.30899 10.2323C7.30786 10.2116 7.30833 10.1907 7.31041 10.1699C7.31796 10.0946 7.34644 10.023 7.39262 9.96311L8.21117 8.90022C8.39351 8.66235 8.68 8.74947 8.8814 8.90467L9.84217 9.6442C9.92734 9.70975 9.98298 9.80646 9.99685 9.91304C9.99825 9.92379 9.99921 9.93456 9.99975 9.94531ZM8.65082 7.37192C8.68148 7.52328 8.77093 7.65631 8.89953 7.74182C9.16754 7.91991 9.52915 7.84552 9.70745 7.57838C10.1294 6.94264 10.751 6.46541 11.4742 6.22192C12.1973 5.97843 12.9812 5.9826 13.7018 6.23362C14.2957 6.4395 14.8219 6.80433 15.2229 7.28842C15.5234 7.65114 15.7451 8.0704 15.876 8.51945C15.8248 8.48606 15.7686 8.46089 15.7094 8.44493C15.6355 8.42502 15.5585 8.41985 15.4826 8.42973C15.4068 8.4396 15.3336 8.46431 15.2673 8.50246C15.201 8.54061 15.1428 8.59145 15.0962 8.65207C15.0495 8.7127 15.0152 8.78191 14.9953 8.85578C14.9754 8.92964 14.9703 9.0067 14.9801 9.08257C14.99 9.15843 15.0147 9.2316 15.0529 9.29791C15.091 9.36422 15.1418 9.42236 15.2025 9.46902L16.1633 10.2086C16.2805 10.2987 16.4328 10.3804 16.5967 10.3964C16.7728 10.4136 16.9503 10.3525 17.0823 10.1804L17.9007 9.11775C17.9473 9.05715 17.9815 8.98797 18.0014 8.91414C18.0213 8.84031 18.0265 8.76328 18.0166 8.68746C18.0067 8.61163 17.982 8.5385 17.9439 8.47223C17.9057 8.40595 17.8549 8.34784 17.7943 8.30121C17.7337 8.25457 17.6645 8.22033 17.5907 8.20044C17.5169 8.18055 17.4399 8.17539 17.364 8.18526C17.2882 8.19513 17.2151 8.21985 17.1488 8.25798C17.1084 8.28123 17.071 8.3092 17.0375 8.34121C16.8651 7.66825 16.5422 7.0413 16.0912 6.5086C15.5576 5.87845 14.8644 5.40339 14.0842 5.13317C13.1194 4.79699 12.0701 4.79149 11.1018 5.11754C10.1334 5.44361 9.30093 6.08298 8.73594 6.93437C8.65076 7.0632 8.62015 7.22055 8.65082 7.37192ZM16.1517 8.95319L15.805 8.68626C15.7628 8.6538 15.7147 8.62996 15.6633 8.61611C15.6119 8.60226 15.5583 8.59867 15.5055 8.60553C15.4527 8.6124 15.4018 8.62959 15.3557 8.65613C15.3096 8.68267 15.2691 8.71804 15.2367 8.76021C15.2042 8.80238 15.1804 8.85054 15.1665 8.90192C15.1554 8.94309 15.1509 8.98569 15.1531 9.02814C15.1511 8.98614 15.1556 8.94402 15.1666 8.90329C15.1804 8.85191 15.2043 8.80376 15.2367 8.76158C15.2692 8.71941 15.3096 8.68405 15.3558 8.65751C15.4019 8.63097 15.4528 8.61377 15.5056 8.6069C15.5583 8.60004 15.612 8.60363 15.6633 8.61748C15.7147 8.63133 15.7629 8.65517 15.805 8.68763L16.1519 8.95467C16.1518 8.95418 16.1518 8.95368 16.1517 8.95319ZM17.8437 8.74325C17.8432 8.73227 17.8422 8.72129 17.8408 8.71035C17.8339 8.65762 17.8167 8.60675 17.7902 8.56065C17.7637 8.51456 17.7284 8.47414 17.6862 8.44171C17.6441 8.40928 17.5959 8.38546 17.5446 8.37162C17.4932 8.35779 17.4397 8.3542 17.3869 8.36107C17.3342 8.36793 17.2833 8.38512 17.2372 8.41165C17.1911 8.43817 17.1507 8.47352 17.1183 8.51566L16.942 8.74461C16.9289 8.66695 16.9137 8.58977 16.8965 8.51317C16.7402 7.81767 16.418 7.16896 15.9558 6.62316C15.4428 6.01724 14.7763 5.56045 14.0261 5.30065C13.0983 4.97736 12.0894 4.97205 11.1583 5.28556C10.2273 5.59907 9.42705 6.21357 8.88383 7.03215C8.8355 7.10524 8.81241 7.19152 8.81708 7.27799C8.81273 7.19198 8.83583 7.10623 8.8839 7.03353C9.42712 6.21494 10.2274 5.60044 11.1584 5.28693C12.0895 4.97342 13.0984 4.97873 14.0261 5.30202C14.7764 5.56183 15.4429 6.01862 15.9559 6.62453C16.4689 7.23045 16.8096 7.96319 16.9421 8.74598L17.1184 8.51703C17.1508 8.47489 17.1912 8.43954 17.2373 8.41302C17.2834 8.38649 17.3343 8.3693 17.387 8.36244C17.4397 8.35557 17.4933 8.35916 17.5447 8.37299C17.596 8.38683 17.6441 8.41065 17.6863 8.44308C17.7284 8.47551 17.7638 8.51593 17.7903 8.56203C17.8168 8.60812 17.834 8.65899 17.8409 8.71172C17.8422 8.72221 17.8432 8.73272 17.8437 8.74325Z" fill="white"/>
</svg>
