<svg width="19" height="20" viewBox="0 0 19 20" fill="none" xmlns="http://www.w3.org/2000/svg">
<path d="M6.86403 10.7199C6.86403 10.4765 6.6666 10.2793 6.42299 10.2793H4.88394C4.64062 10.2793 4.44315 10.4765 4.44315 10.7199V12.2587C4.44315 12.5025 4.64062 12.6997 4.88394 12.6997H6.42299C6.6666 12.6997 6.86403 12.5025 6.86403 12.2587V10.7199ZM10.7103 10.7199C10.7103 10.4765 10.5129 10.2793 10.2697 10.2793H8.73048C8.48715 10.2793 8.28968 10.4765 8.28968 10.7199V12.2587C8.28968 12.5025 8.48715 12.6997 8.73048 12.6997H10.2697C10.5129 12.6997 10.7103 12.5025 10.7103 12.2587V10.7199ZM14.5568 10.7199C14.5568 10.4765 14.3593 10.2793 14.116 10.2793H12.577C12.3334 10.2793 12.1359 10.4765 12.1359 10.7199V12.2587C12.1359 12.5025 12.3334 12.6997 12.577 12.6997H14.116C14.3593 12.6997 14.5568 12.5025 14.5568 12.2587V10.7199ZM6.86403 14.5666C6.86403 14.3228 6.6666 14.1257 6.42299 14.1257H4.88394C4.64062 14.1257 4.44315 14.3228 4.44315 14.5666V16.1052C4.44315 16.3487 4.64062 16.546 4.88394 16.546H6.42299C6.6666 16.546 6.86403 16.3487 6.86403 16.1052V14.5666ZM10.7103 14.5666C10.7103 14.3228 10.5129 14.1257 10.2697 14.1257H8.73048C8.48715 14.1257 8.28968 14.3228 8.28968 14.5666V16.1052C8.28968 16.3487 8.48715 16.546 8.73048 16.546H10.2697C10.5129 16.546 10.7103 16.3487 10.7103 16.1052V14.5666ZM14.5568 14.5666C14.5568 14.3228 14.3593 14.1257 14.1162 14.1257H12.577C12.3334 14.1257 12.1359 14.3228 12.1359 14.5666V16.1052C12.1359 16.3487 12.3334 16.546 12.577 16.546H14.1162C14.3593 16.546 14.5568 16.3487 14.5568 16.1052V14.5666Z" fill="#7A7A7A"/>
<path d="M17.3088 2.16371V4.51418C17.3088 5.57657 16.447 6.43269 15.3847 6.43269H14.171C13.1087 6.43269 12.2354 5.57657 12.2354 4.51418V2.15527H6.76462V4.51418C6.76462 5.57657 5.89138 6.43269 4.82923 6.43269H3.61523C2.55304 6.43269 1.69122 5.57657 1.69122 4.51418V2.16371C0.762858 2.19169 0 2.95989 0 3.9041V17.679C0 18.6409 0.779695 19.431 1.74166 19.431H17.2583C18.2189 19.431 19 18.6393 19 17.679V3.9041C19 2.95989 18.2372 2.19169 17.3088 2.16371ZM16.7451 16.8212C16.7451 17.2369 16.408 17.5742 15.9921 17.5742H2.97473C2.55885 17.5742 2.22178 17.2369 2.22178 16.8212V9.70596C2.22178 9.29008 2.55881 8.95281 2.97473 8.95281H15.9921C16.408 8.95281 16.745 9.29008 16.745 9.70596L16.7451 16.8212Z" fill="#7A7A7A"/>
<path d="M3.61099 5.17243H4.81158C5.17599 5.17243 5.47146 4.87739 5.47146 4.51298V0.659684C5.47146 0.295232 5.17599 0 4.81158 0H3.61099C3.24653 0 2.9511 0.295232 2.9511 0.659684V4.51298C2.9511 4.87739 3.24653 5.17243 3.61099 5.17243ZM14.1555 5.17243H15.3561C15.7203 5.17243 16.0158 4.87739 16.0158 4.51298V0.659684C16.0158 0.295232 15.7203 0 15.3561 0H14.1555C13.7912 0 13.4957 0.295232 13.4957 0.659684V4.51298C13.4957 4.87739 13.7912 5.17243 14.1555 5.17243Z" fill="#7A7A7A"/>
</svg>
