<svg width="18" height="18" viewBox="0 0 18 18" fill="none" xmlns="http://www.w3.org/2000/svg">
<path fill-rule="evenodd" clip-rule="evenodd" d="M8.99985 0C4.03778 0 0 4.03752 0 8.99959C0 13.9622 4.03709 18 8.99985 18C13.9626 18 17.9997 13.9622 17.9997 8.99959C17.9997 4.03752 13.9619 0 8.99985 0ZM12.1914 10.9778H5.0382L5.9246 11.8642C6.17626 12.1159 6.17639 12.5241 5.9246 12.7757C5.86481 12.8357 5.79375 12.8833 5.71551 12.9157C5.63727 12.9482 5.55339 12.9648 5.46869 12.9648C5.384 12.9648 5.30014 12.9482 5.22191 12.9157C5.14368 12.8833 5.07264 12.8357 5.01287 12.7757L3.02591 10.7889C2.77412 10.5372 2.77425 10.1292 3.02591 9.87738L5.01287 7.88939C5.2644 7.63773 5.6732 7.63714 5.92456 7.88935C6.17626 8.14191 6.17703 8.55016 5.9246 8.80237L5.03816 9.68817H12.1914C13.119 9.68817 13.8733 8.93294 13.8733 8.0056C13.8733 7.07908 13.1177 6.32509 12.1914 6.32509H10.3939C10.0372 6.32509 9.74917 6.03579 9.74917 5.67937C9.74917 5.32372 10.0384 5.03571 10.3939 5.03571H12.1915C13.8292 5.03571 15.1627 6.36765 15.1627 8.00564C15.1626 9.64441 13.8305 10.9778 12.1914 10.9778Z" fill="#FF7A00"/>
</svg>
