<svg width="27" height="26" viewBox="0 0 27 26" fill="none" xmlns="http://www.w3.org/2000/svg">
<path d="M22.5028 25.5644H4.49719C3.30514 25.5621 2.16256 25.0876 1.31966 24.2447C0.476756 23.4018 0.00223021 22.2592 0 21.0672L0 10.2756C-2.09272e-06 9.08212 0.473538 7.93737 1.31668 7.09264C2.15983 6.24791 3.30368 5.77223 4.49719 5.76999H22.5028C23.6963 5.77223 24.8402 6.24791 25.6833 7.09264C26.5265 7.93737 27 9.08212 27 10.2756V21.0672C26.9978 22.2592 26.5232 23.4018 25.6803 24.2447C24.8374 25.0876 23.6949 25.5621 22.5028 25.5644ZM4.49719 7.57562C3.7811 7.57562 3.09435 7.86008 2.588 8.36643C2.08165 8.87278 1.79719 9.55954 1.79719 10.2756V21.0672C1.79719 21.7833 2.08165 22.47 2.588 22.9764C3.09435 23.4827 3.7811 23.7672 4.49719 23.7672H22.5028C23.2189 23.7672 23.9057 23.4827 24.412 22.9764C24.9183 22.47 25.2028 21.7833 25.2028 21.0672V10.2756C25.2028 9.55954 24.9183 8.87278 24.412 8.36643C23.9057 7.86008 23.2189 7.57562 22.5028 7.57562H4.49719ZM17.9972 4.86718C17.8786 4.86718 17.7612 4.84383 17.6517 4.79846C17.5422 4.75309 17.4426 4.68659 17.3588 4.60275C17.275 4.51892 17.2085 4.4194 17.1631 4.30986C17.1177 4.20033 17.0944 4.08293 17.0944 3.96437V3.06999C17.0944 2.83201 17.0004 2.60364 16.8329 2.43457C16.6654 2.26551 16.438 2.16941 16.2 2.16718H10.8C10.6814 2.16718 10.564 2.19053 10.4545 2.2359C10.345 2.28128 10.2454 2.34778 10.1616 2.43161C10.0778 2.51544 10.0113 2.61497 9.96591 2.7245C9.92054 2.83404 9.89719 2.95144 9.89719 3.06999V3.96437C9.90934 4.08969 9.89515 4.21617 9.85553 4.33568C9.8159 4.45519 9.75171 4.5651 9.66709 4.65833C9.58247 4.75156 9.47928 4.82606 9.36415 4.87704C9.24902 4.92802 9.1245 4.95436 8.99859 4.95436C8.87268 4.95436 8.74817 4.92802 8.63304 4.87704C8.51791 4.82606 8.41472 4.75156 8.3301 4.65833C8.24547 4.5651 8.18129 4.45519 8.14166 4.33568C8.10203 4.21617 8.08784 4.08969 8.1 3.96437V3.06999C8.1 2.35391 8.38446 1.66716 8.89081 1.16081C9.39716 0.654459 10.0839 0.369995 10.8 0.369995H16.2C16.9161 0.369995 17.6028 0.654459 18.1092 1.16081C18.6155 1.66716 18.9 2.35391 18.9 3.06999V3.96437C18.9 4.08293 18.8766 4.20033 18.8313 4.30986C18.7859 4.4194 18.7194 4.51892 18.6356 4.60275C18.5517 4.68659 18.4522 4.75309 18.3427 4.79846C18.2331 4.84383 18.1157 4.86718 17.9972 4.86718Z" fill="#7A7A7A"/>
<path d="M13.5001 16.0553C12.6269 16.047 11.7649 15.8574 10.9689 15.4984L5.06261 12.8912C4.83884 12.7938 4.66289 12.6116 4.57349 12.3845C4.48409 12.1575 4.48855 11.9042 4.58589 11.6804C4.68324 11.4566 4.86549 11.2807 5.09255 11.1913C5.31962 11.1019 5.5729 11.1063 5.79668 11.2037L11.7029 13.8278C12.2781 14.0829 12.9004 14.2147 13.5296 14.2147C14.1589 14.2147 14.7812 14.0829 15.3564 13.8278L21.2626 11.2037C21.3734 11.1555 21.4926 11.1296 21.6134 11.1275C21.7343 11.1253 21.8543 11.147 21.9667 11.1913C22.0792 11.2356 22.1818 11.3015 22.2687 11.3855C22.3556 11.4694 22.4252 11.5696 22.4734 11.6804C22.5216 11.7912 22.5475 11.9104 22.5496 12.0312C22.5518 12.1521 22.5301 12.2721 22.4858 12.3845C22.4415 12.497 22.3755 12.5996 22.2916 12.6865C22.2077 12.7734 22.1075 12.843 21.9967 12.8912L16.0314 15.4984C15.2353 15.8574 14.3733 16.047 13.5001 16.0553Z" fill="#7A7A7A"/>
</svg>
