<svg width="28" height="28" viewBox="0 0 28 28" fill="none" xmlns="http://www.w3.org/2000/svg">
<path d="M14.2502 21.7163C13.8426 21.7163 13.5117 21.3855 13.5117 20.9778V18.1484C13.5117 17.7408 13.8426 17.4099 14.2502 17.4099C14.6579 17.4099 14.9887 17.7408 14.9887 18.1484V20.9778C14.9887 21.3855 14.6579 21.7163 14.2502 21.7163ZM14.2502 13.4474C13.8426 13.4474 13.5117 13.1165 13.5117 12.7089V6.92542C13.5117 6.51776 13.8426 6.1869 14.2502 6.1869C14.6579 6.1869 14.9887 6.51776 14.9887 6.92542V12.7089C14.9887 13.1165 14.6579 13.4474 14.2502 13.4474Z" fill="#7A7A7A"/>
<path d="M23.8024 13.4474C23.3947 13.4474 23.0639 13.1165 23.0639 12.7088V11.5893C23.0639 11.0191 22.6001 10.5553 22.03 10.5553H6.47041C5.90028 10.5553 5.4365 11.0191 5.4365 11.5893V12.7088C5.4365 13.1165 5.10564 13.4474 4.69798 13.4474C4.29033 13.4474 3.95947 13.1165 3.95947 12.7088V11.5893C3.95947 10.205 5.08615 9.07832 6.47041 9.07832H22.0306C23.4148 9.07832 24.5415 10.205 24.5415 11.5893V12.7088C24.5415 13.1165 24.2107 13.4474 23.803 13.4474H23.8024Z" fill="#7A7A7A"/>
<path d="M15.6863 27.7467H12.8132C11.4289 27.7467 10.3022 26.62 10.3022 25.2358V22.7502C10.3022 21.366 11.4289 20.2393 12.8132 20.2393H15.6863C17.0706 20.2393 18.1972 21.366 18.1972 22.7502V25.2358C18.1972 26.62 17.0706 27.7467 15.6863 27.7467ZM12.8132 21.7163C12.2431 21.7163 11.7793 22.1801 11.7793 22.7502V25.2358C11.7793 25.8059 12.2431 26.2697 12.8132 26.2697H15.6863C16.2564 26.2697 16.7202 25.8059 16.7202 25.2358V22.7502C16.7202 22.1801 16.2564 21.7163 15.6863 21.7163H12.8132Z" fill="#7A7A7A"/>
<path d="M18.6409 7.66331H9.85909C8.47482 7.66331 7.34814 6.53664 7.34814 5.15237V3.25765C7.34814 1.87338 8.47482 0.746704 9.85909 0.746704H18.6409C20.0251 0.746704 21.1518 1.87338 21.1518 3.25765V5.15237C21.1518 6.53664 20.0251 7.66331 18.6409 7.66331ZM9.85909 2.22373C9.28895 2.22373 8.82517 2.68751 8.82517 3.25765V5.15237C8.82517 5.7225 9.28895 6.18629 9.85909 6.18629H18.6409C19.211 6.18629 19.6748 5.7225 19.6748 5.15237V3.25765C19.6748 2.68751 19.211 2.22373 18.6409 2.22373H9.85909Z" fill="#7A7A7A"/>
<path d="M6.13405 18.8869H3.26094C1.87667 18.8869 0.75 17.7602 0.75 16.376V14.4813C0.75 13.097 1.87667 11.9703 3.26094 11.9703H6.13405C7.51831 11.9703 8.64499 13.097 8.64499 14.4813V16.376C8.64499 17.7602 7.51831 18.8869 6.13405 18.8869ZM3.26094 13.4473C2.69081 13.4473 2.22702 13.9111 2.22702 14.4813V16.376C2.22702 16.9461 2.69081 17.4099 3.26094 17.4099H6.13405C6.70418 17.4099 7.16797 16.9461 7.16797 16.376V14.4813C7.16797 13.9111 6.70418 13.4473 6.13405 13.4473H3.26094Z" fill="#7A7A7A"/>
<path d="M15.6863 18.8869H12.8132C11.4289 18.8869 10.3022 17.7602 10.3022 16.376V14.4813C10.3022 13.097 11.4289 11.9703 12.8132 11.9703H15.6863C17.0706 11.9703 18.1972 13.097 18.1972 14.4813V16.376C18.1972 17.7602 17.0706 18.8869 15.6863 18.8869ZM12.8132 13.4473C12.2431 13.4473 11.7793 13.9111 11.7793 14.4813V16.376C11.7793 16.9461 12.2431 17.4099 12.8132 17.4099H15.6863C16.2564 17.4099 16.7202 16.9461 16.7202 16.376V14.4813C16.7202 13.9111 16.2564 13.4473 15.6863 13.4473H12.8132Z" fill="#7A7A7A"/>
<path d="M25.239 18.8869H22.3659C20.9817 18.8869 19.855 17.7602 19.855 16.376V14.4813C19.855 13.097 20.9817 11.9703 22.3659 11.9703H25.239C26.6233 11.9703 27.75 13.097 27.75 14.4813V16.376C27.75 17.7602 26.6233 18.8869 25.239 18.8869ZM22.3659 13.4473C21.7958 13.4473 21.332 13.9111 21.332 14.4813V16.376C21.332 16.9461 21.7958 17.4099 22.3659 17.4099H25.239C25.8092 17.4099 26.2729 16.9461 26.2729 16.376V14.4813C26.2729 13.9111 25.8092 13.4473 25.239 13.4473H22.3659Z" fill="#7A7A7A"/>
</svg>
