<svg width="24" height="24" viewBox="0 0 24 24" fill="none" xmlns="http://www.w3.org/2000/svg">
<path d="M12 24C18.6274 24 24 18.6274 24 12C24 5.37258 18.6274 0 12 0C5.37258 0 0 5.37258 0 12C0 18.6274 5.37258 24 12 24Z" fill="#00BA00"/>
<path d="M8.24867 17.8582L3.87387 13.1433C3.58365 12.8323 3.42862 12.4189 3.44279 11.9938C3.45696 11.5687 3.63917 11.1665 3.94946 10.8756C4.26165 10.5865 4.67576 10.4332 5.1009 10.4491C5.52605 10.465 5.92751 10.649 6.21718 10.9606L9.59985 14.5795L14.9573 9.57163C15.0052 9.52766 15.0557 9.48664 15.1085 9.44879L17.6219 7.09604C17.9329 6.80581 18.3463 6.65078 18.7714 6.66496C19.1965 6.67913 19.5987 6.86134 19.8896 7.17163C20.1798 7.4826 20.3349 7.89599 20.3207 8.32112C20.3065 8.74624 20.1243 9.14839 19.814 9.43934L12.1132 16.6204L9.43922 19.1055L8.25812 17.8393L8.24867 17.8582Z" fill="white"/>
</svg>
