<svg width="20" height="20" viewBox="0 0 20 20" fill="none" xmlns="http://www.w3.org/2000/svg">
<circle cx="10" cy="10" r="10" fill="#D45B7A"/>
<path fill-rule="evenodd" clip-rule="evenodd" d="M3.33301 9.99723C3.33301 10.2138 3.50858 10.3894 3.72516 10.3894L9.6077 10.3894L9.6077 16.2719C9.6077 16.4885 9.78327 16.6641 9.99986 16.6641C10.2164 16.6641 10.392 16.4885 10.392 16.2719L10.392 10.3894L16.2742 10.3894C16.4908 10.3894 16.6663 10.2138 16.6663 9.99723C16.6663 9.78065 16.4908 9.60508 16.2742 9.60508L10.392 9.60508L10.392 3.72288C10.392 3.5063 10.2164 3.33073 9.99985 3.33073C9.78327 3.33073 9.6077 3.5063 9.6077 3.72288L9.6077 9.60508L3.72516 9.60508C3.50858 9.60508 3.33301 9.78065 3.33301 9.99723Z" fill="white"/>
</svg>
