<svg width="16" height="16" viewBox="0 0 16 16" fill="none" xmlns="http://www.w3.org/2000/svg">
<path d="M13.2384 0H5.9616C5.22944 0.00084692 4.52751 0.292072 4.00979 0.809789C3.49207 1.32751 3.20085 2.02944 3.2 2.7616V3.2H2.7616C2.02944 3.20085 1.32751 3.49207 0.809789 4.00979C0.292072 4.52751 0.00084692 5.22944 0 5.9616V13.2384C0.00084692 13.9706 0.292072 14.6725 0.809789 15.1902C1.32751 15.7079 2.02944 15.9992 2.7616 16H10.0384C11.4368 16 12.584 14.9504 12.7632 13.6H13.2384C13.9706 13.5992 14.6725 13.3079 15.1902 12.7902C15.7079 12.2725 15.9992 11.5706 16 10.8384V2.7616C15.9992 2.02944 15.7079 1.32751 15.1902 0.809789C14.6725 0.292072 13.9706 0.00084692 13.2384 0ZM14.4 10.8384C14.4 11.4784 13.8792 12 13.2384 12H12.8V5.9616C12.7992 5.22944 12.5079 4.52751 11.9902 4.00979C11.4725 3.49207 10.7706 3.20085 10.0384 3.2H4.8V2.7616C4.8 2.1216 5.3208 1.6 5.9616 1.6H13.2384C13.8784 1.6 14.4 2.1208 14.4 2.7616V10.8384Z" fill="#D6465F"/>
</svg>
