<svg width="25" height="25" viewBox="0 0 25 25" fill="none" xmlns="http://www.w3.org/2000/svg">
<path fill-rule="evenodd" clip-rule="evenodd" d="M0 12.5C0 5.60723 5.60723 0 12.5 0C19.3928 0 25 5.60723 25 12.5C25 19.3928 19.3928 25 12.5 25C5.60723 25 0 19.3928 0 12.5ZM13.5416 13.5416H17.9687C18.5438 13.5416 19.0103 13.0751 19.0103 12.5C19.0103 11.925 18.5438 11.4584 17.9687 11.4584H13.5416V7.03126C13.5416 6.45621 13.075 5.98965 12.5 5.98965C11.9249 5.98965 11.4584 6.45621 11.4584 7.03126V11.4584H7.03123C6.45618 11.4584 5.98962 11.925 5.98962 12.5C5.98962 13.0751 6.45618 13.5416 7.03123 13.5416H11.4584V17.9688C11.4584 18.5438 11.9249 19.0104 12.5 19.0104C13.075 19.0104 13.5416 18.5438 13.5416 17.9688V13.5416Z" fill="#FAFAFA"/>
</svg>
