<svg width="21" height="21" viewBox="0 0 21 21" fill="none" xmlns="http://www.w3.org/2000/svg">
<path d="M12.4684 0H2.40619C1.07622 0 0 1.07625 0 2.40625V15.9687C0 17.2987 1.07622 18.375 2.40619 18.375H8.86352L9.05601 17.2987C9.14351 16.8087 9.37101 16.3712 9.721 16.0125L14.8746 10.8675V2.40625C14.8746 1.07625 13.7984 0 12.4684 0ZM3.49991 3.5H6.99982C7.48106 3.5 7.87479 3.89375 7.87479 4.375C7.87479 4.85625 7.48106 5.25 6.99982 5.25H3.49991C3.01867 5.25 2.62493 4.85625 2.62493 4.375C2.62493 3.89375 3.01867 3.5 3.49991 3.5ZM7.87479 12.25H3.49991C3.01867 12.25 2.62493 11.8562 2.62493 11.375C2.62493 10.8937 3.01867 10.5 3.49991 10.5H7.87479C8.35603 10.5 8.74977 10.8937 8.74977 11.375C8.74977 11.8562 8.35603 12.25 7.87479 12.25ZM11.3747 8.75H3.49991C3.01867 8.75 2.62493 8.35625 2.62493 7.875C2.62493 7.39375 3.01867 7 3.49991 7H11.3747C11.8559 7 12.2497 7.39375 12.2497 7.875C12.2497 8.35625 11.8559 8.75 11.3747 8.75ZM10.9617 21C10.8658 21.0002 10.7709 20.9794 10.684 20.9389C10.597 20.8984 10.5199 20.8393 10.4583 20.7658C10.3967 20.6922 10.352 20.606 10.3274 20.5133C10.3028 20.4206 10.2989 20.3235 10.316 20.2291L10.7797 17.5997C10.8032 17.4672 10.8667 17.3451 10.9617 17.2497L17.4584 10.7537C18.2564 9.954 19.0404 10.1701 19.4691 10.5989L20.5515 11.6812C20.6937 11.8234 20.8065 11.9923 20.8834 12.178C20.9604 12.3638 21 12.563 21 12.7641C21 12.9652 20.9604 13.1643 20.8834 13.3501C20.8065 13.5359 20.6937 13.7047 20.5515 13.8469L14.0548 20.3437C13.9599 20.4394 13.8375 20.503 13.7048 20.5257L11.0755 20.9895C11.0379 20.9965 10.9999 21 10.9617 21Z" fill="white"/>
</svg>
