<svg width="20" height="20" viewBox="0 0 20 20" fill="none" xmlns="http://www.w3.org/2000/svg">
<path d="M15.0244 6.36096L12.9796 4.31617C12.3535 3.69007 11.5076 3.34375 10.6217 3.34375H7.33809C5.33993 3.34375 4.00781 4.67586 4.00781 6.67403V13.3346C4.00781 15.3328 5.33993 16.6649 7.33809 16.6649H12.6665C14.6647 16.6649 15.9968 15.3328 15.9968 13.3346V8.71883C15.9968 7.82631 15.6438 6.9804 15.0244 6.36096Z" stroke="#001D6E" stroke-linecap="round" stroke-linejoin="round"/>
<path d="M7.32697 16.6384L7.32031 14.6602C7.32031 13.9209 7.9131 13.3281 8.65242 13.3281H11.3233C12.056 13.3281 12.6488 13.9209 12.6554 14.6536L12.6754 16.6451" stroke="#001D6E" stroke-linecap="round" stroke-linejoin="round"/>
<path d="M11.3167 7.1875H7.32031" stroke="#001D6E" stroke-linecap="round" stroke-linejoin="round"/>
</svg>
