<svg width="47" height="46" viewBox="0 0 47 46" fill="none" xmlns="http://www.w3.org/2000/svg">
<path d="M46.1956 21.1957C45.1993 21.1137 42.7018 20.8809 39.0776 21.8438C38.6195 18.106 37.5896 15.2007 36.3157 12.1017C31.2408 13.8821 26.6891 16.8526 23.3182 20.1769C19.9492 16.8545 15.3975 13.8821 10.3207 12.1017C9.04497 15.2007 8.01694 18.106 7.5588 21.8438C3.66643 20.8232 1.43903 21.1137 0.440797 21.1957C-0.631932 26.8331 0.187514 33.2396 3.62546 37.9272C8.49371 44.561 16.2151 45.0676 20.2006 45.6468C18.53 44.0265 14.7401 39.7691 13.9356 38.7187C13.9337 38.7169 13.9207 38.702 13.9207 38.702H13.9225C10.3486 34.0367 9.22376 29.1536 9.48449 23.4547C9.5385 22.2833 9.75081 21.1007 9.92215 20.2347L9.92587 20.2365C10.2797 18.3909 10.8124 16.5639 11.494 14.7705C13.4122 15.5918 17.9564 17.8006 21.9158 21.7209C20.4408 23.397 19.2117 25.1867 18.247 27.064C18.247 27.064 15.459 24.5517 11.088 23.0171C11.0116 23.7471 10.9874 24.5181 11.0098 25.2482C17.3865 28.012 21.6514 32.8001 23.2866 35.562C24.6517 33.7779 25.5549 32.3774 27.6147 30.4684C27.9946 31.5039 28.2963 32.5692 28.5142 33.6494C27.8773 34.6699 25.7933 37.8509 23.3182 39.9014C20.8431 37.8509 18.761 34.6699 18.1222 33.6494C18.2358 33.0888 18.3345 32.5859 18.4909 32.0365C18.0011 31.5505 17.3865 31.0309 16.7682 30.5429C16.3585 31.7833 16.1443 32.856 15.9264 34.0386C18.4109 38.5772 21.1597 40.8176 23.2828 42.5348C25.5289 40.7487 28.6446 38.1284 30.7044 34.0386C29.7583 28.6582 26.5904 24.0321 25.6983 22.8997C25.1899 23.3933 24.6759 23.9203 24.2401 24.4232C25.2271 25.7063 26.0652 27.0472 26.745 28.4384C25.4823 29.5484 24.3481 30.7459 23.3145 32.0589C22.2809 30.7459 21.1485 29.5484 19.884 28.4384C21.5322 25.0582 24.4859 21.7078 25.8864 20.6221C29.5348 17.3815 33.4067 15.5098 35.1368 14.7686C36.1332 17.3927 36.772 19.9702 37.0421 22.4546C34.2634 23.4063 31.7995 24.6839 29.5087 26.2799C29.8496 26.8573 30.168 27.5315 30.4399 28.1777C32.483 26.7213 35.5037 25.0936 38.1893 24.2742C40.6439 23.5255 43.2456 23.1754 44.4003 23.1754C44.6499 25.3935 44.9646 31.7255 41.3218 36.6925C39.2415 39.527 36.1891 41.4862 32.2166 42.5441C35.1573 39.5196 39.1912 33.8505 39.275 25.4735C38.5729 25.6728 37.8336 25.9037 37.1761 26.1514C36.9806 31.6157 35.04 35.657 32.7064 38.702H32.7083C32.55 38.8808 28.9668 43.1866 26.4284 45.6468C30.4139 45.0676 38.1353 44.561 43.0035 37.9272C46.4489 33.2396 47.2684 26.8349 46.1956 21.1957ZM14.4142 42.5441C10.4418 41.4862 7.38932 39.527 5.30905 36.6925C1.66624 31.7274 1.98098 25.3953 2.23054 23.1772C2.24544 23.1772 2.26034 23.1772 2.27524 23.1772C3.78748 23.1772 5.53812 23.4435 7.38187 23.9557C6.95352 33.1689 11.3003 39.3408 14.4142 42.5441Z" fill="white"/>
<path fill-rule="evenodd" clip-rule="evenodd" d="M26.2781 7.18018C27.5858 9.56469 28.3266 12.081 28.3593 14.4728C29.0029 14.0362 29.6794 13.6038 30.3786 13.1905C30.146 10.8409 29.3588 8.44314 28.1136 6.17246C27.05 4.23312 25.6476 2.37933 23.9685 0.723229L23.2351 0H23.2351L22.5018 0.723229C20.8226 2.37933 19.4205 4.23296 18.3568 6.17231C17.1178 8.43159 16.3322 10.8167 16.0952 13.155C16.76 13.5167 17.4382 13.911 18.1136 14.3365C18.172 11.9855 18.9092 9.51933 20.1921 7.18002C21.0026 5.70222 22.028 4.27971 23.2351 2.97225C24.4422 4.27971 25.4677 5.70222 26.2781 7.18018Z" fill="white"/>
</svg>
