<svg width="30" height="30" viewBox="0 0 30 30" fill="none" xmlns="http://www.w3.org/2000/svg">
<path d="M12 13.5C12 14.8807 11.015 16 9.8 16H3.2C1.985 16 1 14.8807 1 13.5V3.5C1 2.11931 1.985 1 3.2 1H9.8C11.015 1 12 2.11931 12 3.5V13.5Z" stroke="#7A7A7A" stroke-width="2" stroke-miterlimit="10"/>
<path d="M29 26.5C29 27.8807 28.015 29 26.8 29H20.2C18.985 29 18 27.8807 18 26.5V16.5C18 15.1193 18.985 14 20.2 14H26.8C28.015 14 29 15.1193 29 16.5V26.5Z" stroke="#7A7A7A" stroke-width="2" stroke-miterlimit="10"/>
<path d="M12 26.75C12 27.9926 11.015 29 9.8 29H3.2C1.985 29 1 27.9926 1 26.75V22.25C1 21.0074 1.985 20 3.2 20H9.8C11.015 20 12 21.0074 12 22.25V26.75Z" stroke="#7A7A7A" stroke-width="2" stroke-miterlimit="10"/>
<path d="M29 7.75C29 8.99262 28.015 10 26.8 10H20.2C18.985 10 18 8.99262 18 7.75V3.25C18 2.00738 18.985 1 20.2 1H26.8C28.015 1 29 2.00738 29 3.25V7.75Z" stroke="#7A7A7A" stroke-width="2" stroke-miterlimit="10"/>
</svg>
