<svg width="31" height="30" viewBox="0 0 31 30" fill="none" xmlns="http://www.w3.org/2000/svg">
<path d="M12.25 13.5C12.25 14.8807 11.265 16 10.05 16H3.45C2.235 16 1.25 14.8807 1.25 13.5V3.5C1.25 2.11931 2.235 1 3.45 1H10.05C11.265 1 12.25 2.11931 12.25 3.5V13.5Z" stroke="#D45B7A" stroke-width="2" stroke-miterlimit="10"/>
<path d="M29.25 26.5C29.25 27.8807 28.265 29 27.05 29H20.45C19.235 29 18.25 27.8807 18.25 26.5V16.5C18.25 15.1193 19.235 14 20.45 14H27.05C28.265 14 29.25 15.1193 29.25 16.5V26.5Z" stroke="#D45B7A" stroke-width="2" stroke-miterlimit="10"/>
<path d="M12.25 26.75C12.25 27.9926 11.265 29 10.05 29H3.45C2.235 29 1.25 27.9926 1.25 26.75V22.25C1.25 21.0074 2.235 20 3.45 20H10.05C11.265 20 12.25 21.0074 12.25 22.25V26.75Z" stroke="#D45B7A" stroke-width="2" stroke-miterlimit="10"/>
<path d="M29.25 7.75C29.25 8.99262 28.265 10 27.05 10H20.45C19.235 10 18.25 8.99262 18.25 7.75V3.25C18.25 2.00738 19.235 1 20.45 1H27.05C28.265 1 29.25 2.00738 29.25 3.25V7.75Z" stroke="#D45B7A" stroke-width="2" stroke-miterlimit="10"/>
</svg>
