<svg width="18" height="18" viewBox="0 0 18 18" fill="none" xmlns="http://www.w3.org/2000/svg">
<g clip-path="url(#clip0_7422_463215)">
<path d="M16.0781 18H1.9207C0.860702 18 0 17.1393 0 16.0781V1.9207C0 0.860702 0.860702 0 1.9207 0H16.0781C17.1393 0 17.9988 0.860702 17.9988 1.9207V16.0781C18 17.1393 17.1393 18 16.0781 18Z" fill="white"/>
<path d="M17.1212 2.60886C17.1212 1.651 16.3452 0.875 15.3874 0.875H2.60886C1.651 0.875 0.875 1.651 0.875 2.60886V11.2682H17.1212V2.60886Z" fill="#37C1F0"/>
<path d="M0.875 11.2695V12.5724C0.875 13.5303 1.651 14.3063 2.60886 14.3063H15.3874C16.3452 14.3063 17.1212 13.5303 17.1212 12.5724V11.2695H0.875Z" fill="#57B847"/>
<path d="M7.38281 11.2715L11.9803 5.90049C12.126 5.73109 12.3876 5.73109 12.5333 5.90049L17.132 11.2715H7.38281Z" fill="#3B8E43"/>
<path d="M0.875 11.2715L5.47371 5.90049C5.61945 5.73109 5.88102 5.73109 6.02675 5.90049L10.6255 11.2715H0.875Z" fill="#47A447"/>
<path d="M4.88694 7.81247L5.66668 7.29804L6.41528 7.78133L7.06922 7.12739C7.06922 7.12739 7.07171 7.1249 7.0742 7.11992L6.02915 5.90049C5.88342 5.73109 5.62184 5.73109 5.47611 5.90049L4.28906 7.28683L4.88694 7.81247Z" fill="white"/>
<path d="M11.5824 7.66424L12.1852 7.06885L12.7296 7.36655L13.0721 6.79357L13.4794 7.00408L12.534 5.90049C12.3883 5.73109 12.1267 5.73109 11.981 5.90049L10.8438 7.22953L11.5824 7.66424Z" fill="white"/>
<path d="M4.23787 3.48C4.20175 3.48 4.16563 3.48249 4.13075 3.48747C3.99125 3.22092 3.71348 3.03906 3.39212 3.03906C2.9599 3.03906 2.60491 3.3679 2.56256 3.79015C2.22625 3.81756 1.96094 4.09906 1.96094 4.4416C1.96094 4.80282 2.25365 5.09553 2.61487 5.09553H4.23787C4.68379 5.09553 5.04626 4.73431 5.04626 4.28714C5.04501 3.84122 4.68379 3.48 4.23787 3.48Z" fill="white"/>
<path d="M8.4491 4.72931C8.47277 4.72931 8.49519 4.73055 8.51886 4.73429C8.60854 4.5624 8.7879 4.44531 8.99467 4.44531C9.27368 4.44531 9.50162 4.65706 9.52903 4.9286C9.74576 4.94604 9.91641 5.12665 9.91641 5.34836C9.91641 5.58129 9.72832 5.76937 9.4954 5.76937H8.45035C8.16262 5.76937 7.92969 5.53645 7.92969 5.24872C7.92845 4.96223 8.16137 4.72931 8.4491 4.72931Z" fill="white"/>
<path d="M14.9647 4.17071C14.9884 4.17071 15.0108 4.17196 15.0345 4.1757C15.1242 4.0038 15.3035 3.88672 15.5103 3.88672C15.7893 3.88672 16.0173 4.09847 16.0447 4.37001C16.2614 4.38745 16.432 4.56806 16.432 4.78977C16.432 5.0227 16.2439 5.21078 16.011 5.21078H14.966C14.6782 5.21078 14.4453 4.97785 14.4453 4.69012C14.4441 4.40364 14.677 4.17071 14.9647 4.17071Z" fill="white"/>
<path d="M14.0111 4.26803C14.3857 3.89348 14.3857 3.28621 14.0111 2.91166C13.6366 2.53711 13.0293 2.53711 12.6547 2.91166C12.2802 3.28621 12.2802 3.89348 12.6547 4.26803C13.0293 4.64257 13.6366 4.64257 14.0111 4.26803Z" fill="#FCD900"/>
<path d="M13.3323 2.44223C13.3037 2.44223 13.2812 2.41857 13.2812 2.39116V1.53544C13.2812 1.5068 13.3049 1.48438 13.3323 1.48438C13.361 1.48438 13.3834 1.50804 13.3834 1.53544V2.39116C13.3834 2.41981 13.3597 2.44223 13.3323 2.44223Z" fill="#FCD900"/>
<path d="M13.3323 5.70005C13.3037 5.70005 13.2812 5.67638 13.2812 5.64898V4.79326C13.2812 4.76461 13.3049 4.74219 13.3323 4.74219C13.361 4.74219 13.3834 4.76585 13.3834 4.79326V5.64898C13.3834 5.67762 13.3597 5.70005 13.3323 5.70005Z" fill="#FCD900"/>
<path d="M14.1839 2.79468C14.1702 2.79468 14.1577 2.78969 14.1478 2.77973C14.1278 2.7598 14.1278 2.72742 14.1478 2.70624L14.7531 2.10088C14.773 2.08096 14.8054 2.08096 14.8266 2.10088C14.8465 2.12081 14.8465 2.1532 14.8266 2.17437L14.2212 2.77973C14.21 2.78969 14.1963 2.79468 14.1839 2.79468Z" fill="#FCD900"/>
<path d="M11.8792 5.09936C11.8655 5.09936 11.853 5.09438 11.8431 5.08442C11.8231 5.06449 11.8231 5.0321 11.8431 5.01093L12.4484 4.40557C12.4684 4.38564 12.5007 4.38564 12.5219 4.40557C12.5418 4.4255 12.5418 4.45789 12.5219 4.47906L11.9166 5.08442C11.9066 5.09438 11.8929 5.09936 11.8792 5.09936Z" fill="#FCD900"/>
<path d="M15.3912 3.6412H14.5354C14.5068 3.6412 14.4844 3.61753 14.4844 3.59013C14.4844 3.56148 14.508 3.53906 14.5354 3.53906H15.3912C15.4198 3.53906 15.4422 3.56273 15.4422 3.59013C15.4435 3.61753 15.4198 3.6412 15.3912 3.6412Z" fill="#FCD900"/>
<path d="M12.1334 3.6412H11.2776C11.249 3.6412 11.2266 3.61753 11.2266 3.59013C11.2266 3.56148 11.2502 3.53906 11.2776 3.53906H12.1334C12.162 3.53906 12.1844 3.56273 12.1844 3.59013C12.1844 3.61753 12.162 3.6412 12.1334 3.6412Z" fill="#FCD900"/>
<path d="M14.7892 5.09936C14.7755 5.09936 14.7631 5.09438 14.7531 5.08442L14.1478 4.47906C14.1278 4.45913 14.1278 4.42675 14.1478 4.40557C14.1677 4.38564 14.2001 4.38564 14.2212 4.40557L14.8254 5.01093C14.8453 5.03086 14.8453 5.06324 14.8254 5.08442C14.8154 5.09438 14.8017 5.09936 14.7892 5.09936Z" fill="#FCD900"/>
<path d="M12.4846 2.79468C12.4708 2.79468 12.4584 2.78969 12.4484 2.77973L11.8431 2.17437C11.8231 2.15444 11.8231 2.12206 11.8431 2.10088C11.863 2.08096 11.8954 2.08096 11.9166 2.10088L12.5219 2.70624C12.5418 2.72617 12.5418 2.75856 12.5219 2.77973C12.5107 2.78969 12.4983 2.79468 12.4846 2.79468Z" fill="#FCD900"/>
<path opacity="0.4" d="M0 6.58169C2.30932 8.61075 7.49471 10.7482 18 10.4717V1.9207C18 0.860702 17.1393 0 16.0781 0H1.9207C0.860702 0 0 0.860702 0 1.9207V6.58169Z" fill="url(#paint0_linear_7422_463215)"/>
<path d="M16.0781 0H1.9207C0.860702 0 0 0.860702 0 1.9207V2.32302C0 1.26303 0.860702 0.210504 1.9207 0.210504H16.0781C17.1393 0.210504 17.9988 1.26178 17.9988 2.32302V1.9207C18 0.860702 17.1393 0 16.0781 0Z" fill="url(#paint1_linear_7422_463215)"/>
<path opacity="0.4" d="M1.9207 18H16.0781C17.1393 18 17.9988 17.1393 17.9988 16.0794V15.677C17.9988 16.7383 17.1381 17.7895 16.0781 17.7895H1.9207C0.860702 17.7883 0 16.737 0 15.6758V16.0781C0 17.1393 0.860702 18 1.9207 18Z" fill="#231F20"/>
</g>
<defs>
<linearGradient id="paint0_linear_7422_463215" x1="8.99976" y1="-0.278713" x2="8.99976" y2="10.726" gradientUnits="userSpaceOnUse">
<stop stop-color="white" stop-opacity="0.1"/>
<stop offset="1" stop-color="white" stop-opacity="0.7"/>
</linearGradient>
<linearGradient id="paint1_linear_7422_463215" x1="0" y1="1.16177" x2="17.9995" y2="1.16177" gradientUnits="userSpaceOnUse">
<stop stop-color="white" stop-opacity="0"/>
<stop offset="0.5332" stop-color="white" stop-opacity="0.7"/>
<stop offset="1" stop-color="white" stop-opacity="0"/>
</linearGradient>
<clipPath id="clip0_7422_463215">
<rect width="18" height="18" fill="white"/>
</clipPath>
</defs>
</svg>
