<svg width="32" height="32" viewBox="0 0 32 32" fill="none" xmlns="http://www.w3.org/2000/svg">
<circle cx="16" cy="16" r="16" fill="white" fill-opacity="0.2"/>
<path fill-rule="evenodd" clip-rule="evenodd" d="M8.36757 8.63243C7.85894 9.14106 7.85894 9.96571 8.36757 10.4743L13.8938 16.0005L8.3681 21.5262C7.85947 22.0348 7.85947 22.8595 8.3681 23.3681C8.87673 23.8767 9.70139 23.8767 10.21 23.3681L15.7357 17.8424L21.261 23.3678C21.7696 23.8764 22.5943 23.8764 23.1029 23.3678C23.6116 22.8591 23.6116 22.0345 23.1029 21.5259L17.5776 16.0005L23.1035 10.4747C23.6121 9.96604 23.6121 9.14138 23.1035 8.63275C22.5948 8.12412 21.7702 8.12412 21.2615 8.63275L15.7357 14.1586L10.2095 8.63243C9.70086 8.12379 8.87621 8.12379 8.36757 8.63243Z" fill="white"/>
</svg>
