<svg width="14" height="16" viewBox="0 0 14 16" fill="none" xmlns="http://www.w3.org/2000/svg">
<path d="M11.6358 4.36341C11.4429 4.36341 11.2579 4.44003 11.1215 4.57642C10.9852 4.7128 10.9085 4.89778 10.9085 5.09065V13.2291C10.8877 13.5969 10.7223 13.9415 10.4486 14.1879C10.1748 14.4343 9.8147 14.5626 9.44679 14.5447H3.64345C3.27554 14.5626 2.91548 14.4343 2.64169 14.1879C2.3679 13.9415 2.20257 13.5969 2.18171 13.2291V5.09065C2.18171 4.89778 2.10509 4.7128 1.9687 4.57642C1.83232 4.44003 1.64735 4.36341 1.45447 4.36341C1.2616 4.36341 1.07662 4.44003 0.940238 4.57642C0.803855 4.7128 0.727236 4.89778 0.727236 5.09065V13.2291C0.747994 13.9827 1.06655 14.6974 1.61314 15.2166C2.15973 15.7358 2.8898 16.0172 3.64345 15.9992H9.44679C10.2004 16.0172 10.9305 15.7358 11.4771 15.2166C12.0237 14.6974 12.3422 13.9827 12.363 13.2291V5.09065C12.363 4.89778 12.2864 4.7128 12.15 4.57642C12.0136 4.44003 11.8286 4.36341 11.6358 4.36341ZM12.363 2.18171H9.45407V0.727236C9.45407 0.534361 9.37745 0.349386 9.24106 0.213002C9.10468 0.0766192 8.9197 0 8.72683 0H4.36341C4.17054 0 3.98556 0.0766192 3.84918 0.213002C3.7128 0.349386 3.63618 0.534361 3.63618 0.727236V2.18171H0.727236C0.534361 2.18171 0.349386 2.25833 0.213002 2.39471C0.0766192 2.53109 0 2.71607 0 2.90894C0 3.10182 0.0766192 3.28679 0.213002 3.42318C0.349386 3.55956 0.534361 3.63618 0.727236 3.63618H12.363C12.5559 3.63618 12.7409 3.55956 12.8772 3.42318C13.0136 3.28679 13.0902 3.10182 13.0902 2.90894C13.0902 2.71607 13.0136 2.53109 12.8772 2.39471C12.7409 2.25833 12.5559 2.18171 12.363 2.18171ZM5.09065 2.18171V1.45447H7.99959V2.18171H5.09065Z" fill="#1E1E1E"/>
<path d="M5.81787 11.6362V6.5456C5.81787 6.35272 5.74126 6.16775 5.60487 6.03136C5.46849 5.89498 5.28351 5.81836 5.09064 5.81836C4.89776 5.81836 4.71279 5.89498 4.57641 6.03136C4.44002 6.16775 4.3634 6.35272 4.3634 6.5456V11.6362C4.3634 11.8291 4.44002 12.0141 4.57641 12.1505C4.71279 12.2869 4.89776 12.3635 5.09064 12.3635C5.28351 12.3635 5.46849 12.2869 5.60487 12.1505C5.74126 12.0141 5.81787 11.8291 5.81787 11.6362ZM8.72682 11.6362V6.5456C8.72682 6.35272 8.6502 6.16775 8.51382 6.03136C8.37743 5.89498 8.19246 5.81836 7.99958 5.81836C7.80671 5.81836 7.62173 5.89498 7.48535 6.03136C7.34897 6.16775 7.27235 6.35272 7.27235 6.5456V11.6362C7.27235 11.8291 7.34897 12.0141 7.48535 12.1505C7.62173 12.2869 7.80671 12.3635 7.99958 12.3635C8.19246 12.3635 8.37743 12.2869 8.51382 12.1505C8.6502 12.0141 8.72682 11.8291 8.72682 11.6362Z" fill="#1E1E1E"/>
</svg>
