<svg width="18" height="19" viewBox="0 0 18 19" fill="none" xmlns="http://www.w3.org/2000/svg">
<g clip-path="url(#clip0_6372_38988)">
<path d="M4.5 0.0625C3.88125 0.0625 3.375 0.56875 3.375 1.1875V16.9375C3.375 17.5562 3.88125 18.0625 4.5 18.0625H15.75C16.3687 18.0625 16.875 17.5562 16.875 16.9375V4.5625L12.375 0.0625H4.5Z" fill="#E2E5E7"/>
<path d="M13.5 4.5625H16.875L12.375 0.0625V3.4375C12.375 4.05625 12.8812 4.5625 13.5 4.5625Z" fill="#B0B7BD"/>
<path d="M16.875 7.9375L13.5 4.5625H16.875V7.9375Z" fill="#CAD1D8"/>
<path d="M14.625 14.6875C14.625 14.9969 14.3719 15.25 14.0625 15.25H1.6875C1.37812 15.25 1.125 14.9969 1.125 14.6875V9.0625C1.125 8.75312 1.37812 8.5 1.6875 8.5H14.0625C14.3719 8.5 14.625 8.75312 14.625 9.0625V14.6875Z" fill="#50BEE8"/>
<path d="M3.25581 13.5615C3.10731 13.5615 2.94531 13.48 2.94531 13.2825V10.7282C2.94531 10.5662 3.10731 10.4492 3.25581 10.4492H4.28575C6.34112 10.4492 6.29556 13.5615 4.32569 13.5615H3.25581ZM3.53931 10.9977V13.0125H4.28575C5.50019 13.0125 5.55362 10.9977 4.28575 10.9977H3.53931Z" fill="white"/>
<path d="M8.01625 13.6057C7.18431 13.6417 6.32031 13.0882 6.32031 11.9863C6.32031 10.8799 7.18375 10.3359 8.01625 10.3359C8.80319 10.3759 9.62612 10.9204 9.62612 11.9863C9.62612 13.0528 8.80319 13.6057 8.01625 13.6057ZM7.96675 10.9209C7.46275 10.9209 6.91431 11.2764 6.91431 11.9869C6.91431 12.6934 7.46331 13.0534 7.96675 13.0534C8.48425 13.0534 9.03719 12.6934 9.03719 11.9869C9.03719 11.2759 8.48425 10.9209 7.96675 10.9209Z" fill="white"/>
<path d="M10.1562 11.9816C10.1562 11.1136 10.7008 10.3672 11.7352 10.3672C12.1267 10.3672 12.4372 10.4842 12.7651 10.7677C12.8866 10.8796 12.9001 11.0776 12.7786 11.2036C12.6571 11.3111 12.4726 11.2981 12.3646 11.1901C12.1807 10.9966 11.9917 10.9432 11.7352 10.9432C11.0428 10.9432 10.7103 11.4337 10.7103 11.9821C10.7103 12.5401 11.0383 13.0526 11.7352 13.0526C11.9917 13.0526 12.2302 12.9485 12.4372 12.7646C12.5761 12.6566 12.7696 12.71 12.8506 12.8186C12.9226 12.9176 12.9581 13.0841 12.8011 13.241C12.4861 13.5341 12.1087 13.5926 11.7346 13.5926C10.6467 13.5926 10.1562 12.8495 10.1562 11.9816Z" fill="white"/>
<path d="M14.0625 15.25H3.375V15.8125H14.0625C14.3719 15.8125 14.625 15.5594 14.625 15.25V14.6875C14.625 14.9969 14.3719 15.25 14.0625 15.25Z" fill="#CAD1D8"/>
</g>
<defs>
<clipPath id="clip0_6372_38988">
<rect width="18" height="18" fill="white" transform="translate(0 0.0625)"/>
</clipPath>
</defs>
</svg>
