<svg width="24" height="24" viewBox="0 0 24 24" fill="none" xmlns="http://www.w3.org/2000/svg">
<path d="M11.2 4H9.6C5.6 4 4 5.6 4 9.6V14.4C4 18.4 5.6 20 9.6 20H14.4C18.4 20 20 18.4 20 14.4V12.8" stroke="white" stroke-linecap="round" stroke-linejoin="round"/>
<path d="M14.6886 5.08723L7.9501 11.8267C7.69356 12.0832 7.43702 12.5878 7.38571 12.9556L7.018 15.5299C6.88118 16.4621 7.53963 17.1121 8.47173 16.9839L11.0457 16.6161C11.4048 16.5648 11.9094 16.3082 12.1745 16.0516L18.9129 9.3122C20.0759 8.14905 20.6232 6.79774 18.9129 5.08723C17.2027 3.37671 15.8515 3.92408 14.6886 5.08723Z" stroke="white" stroke-miterlimit="10" stroke-linecap="round" stroke-linejoin="round"/>
<path d="M14 6C14.5425 7.93522 16.0567 9.44939 18 10" stroke="white" stroke-miterlimit="10" stroke-linecap="round" stroke-linejoin="round"/>
</svg>
