<svg width="16" height="17" viewBox="0 0 16 17" fill="none" xmlns="http://www.w3.org/2000/svg">
<path d="M12.6671 8.9269C12.2984 8.9269 12.0004 9.22495 12.0004 9.59203V14.9135C12.0004 15.28 11.7017 15.5786 11.3338 15.5786H2.00007C1.63202 15.5786 1.33342 15.28 1.33342 14.9135V5.60099C1.33342 5.2345 1.63202 4.93586 2.00007 4.93586H7.33362C7.70229 4.93586 8.00027 4.63784 8.00027 4.27073C8.00027 3.90352 7.70229 3.60547 7.33362 3.60547H2.00007C0.897374 3.60547 0 4.5008 0 5.60099V14.9135C0 16.0137 0.897374 16.909 2.00007 16.909H11.3338C12.4365 16.909 13.3338 16.0137 13.3338 14.9135V9.59203C13.3338 9.22423 13.0357 8.9269 12.6671 8.9269Z" fill="#1E1E1E"/>
<path d="M6.25065 8.32091C6.20432 8.36735 6.17258 8.42628 6.15934 8.49047L5.68801 10.8426C5.66604 10.9516 5.70069 11.064 5.77932 11.1432C5.81035 11.1741 5.84717 11.1985 5.88768 11.2152C5.92818 11.2318 5.97158 11.2404 6.01539 11.2403C6.03664 11.2403 6.05874 11.2383 6.08071 11.2337L8.43747 10.7635C8.50279 10.7501 8.5621 10.7189 8.60814 10.6722L13.883 5.40935L11.5262 3.05806L6.25065 8.32091ZM15.5123 1.43174C14.8624 0.783169 13.805 0.783169 13.1555 1.43174L12.2329 2.35227L14.5897 4.70368L15.5123 3.78303C15.827 3.46976 16.0004 3.05198 16.0004 2.60767C16.0004 2.16335 15.827 1.7456 15.5123 1.43174Z" fill="#1E1E1E"/>
</svg>
