<svg width="18" height="18" viewBox="0 0 18 18" fill="none" xmlns="http://www.w3.org/2000/svg">
<path d="M7.77422 1H6.17422C2.17422 1 0.574219 2.6 0.574219 6.6V11.4C0.574219 15.4 2.17422 17 6.17422 17H10.9742C14.9742 17 16.5742 15.4 16.5742 11.4V9.8" stroke="#001D6E" stroke-linecap="round" stroke-linejoin="round"/>
<path d="M11.2628 2.08723L4.52432 8.82665C4.26778 9.08323 4.01124 9.58783 3.95993 9.95559L3.59222 12.5299C3.4554 13.4621 4.11385 14.1121 5.04595 13.9839L7.61991 13.6161C7.97906 13.5648 8.48359 13.3082 8.74868 13.0516L15.4871 6.3122C16.6501 5.14905 17.1974 3.79774 15.4871 2.08723C13.7769 0.376714 12.4258 0.924078 11.2628 2.08723Z" stroke="#001D6E" stroke-miterlimit="10" stroke-linecap="round" stroke-linejoin="round"/>
<path d="M10.5742 3C11.1167 4.93522 12.6309 6.44939 14.5742 7" stroke="#001D6E" stroke-miterlimit="10" stroke-linecap="round" stroke-linejoin="round"/>
</svg>
