<svg width="16" height="16" viewBox="0 0 16 16" fill="none" xmlns="http://www.w3.org/2000/svg">
<path d="M12.6671 7.99966C12.2984 7.99966 12.0004 8.29839 12.0004 8.66631V13.9999C12.0004 14.3672 11.7017 14.6665 11.3338 14.6665H2.00007C1.63202 14.6665 1.33342 14.3672 1.33342 13.9999V4.66617C1.33342 4.29885 1.63202 3.99953 2.00007 3.99953H7.33362C7.70229 3.99953 8.00027 3.70083 8.00027 3.33288C8.00027 2.96484 7.70229 2.66611 7.33362 2.66611H2.00007C0.897374 2.66611 0 3.56348 0 4.66617V13.9999C0 15.1026 0.897374 15.9999 2.00007 15.9999H11.3338C12.4364 15.9999 13.3338 15.1026 13.3338 13.9999V8.66631C13.3338 8.29767 13.0357 7.99966 12.6671 7.99966Z" fill="#D45B7A"/>
<path d="M6.25077 7.3924C6.20444 7.43895 6.1727 7.49801 6.15946 7.56234L5.68813 9.91986C5.66616 10.0291 5.70082 10.1418 5.77944 10.2211C5.81047 10.252 5.84729 10.2766 5.8878 10.2933C5.9283 10.31 5.9717 10.3185 6.01551 10.3184C6.03677 10.3184 6.05886 10.3165 6.08083 10.3118L8.4376 9.84051C8.50291 9.82707 8.56222 9.79582 8.60826 9.74907L13.8831 4.47421L11.5263 2.11756L6.25077 7.3924ZM15.5124 0.48754C14.8625 -0.162513 13.8051 -0.162513 13.1557 0.48754L12.233 1.41016L14.5898 3.76693L15.5124 2.84418C15.8271 2.5302 16.0005 2.11147 16.0005 1.66614C16.0005 1.22081 15.8271 0.802113 15.5124 0.48754Z" fill="#D45B7A"/>
</svg>
