<svg width="22" height="20" viewBox="0 0 22 20" fill="none" xmlns="http://www.w3.org/2000/svg">
<path d="M11.7591 0.152531C11.6836 0.0904777 11.5954 0.0456771 11.5008 0.0212634C11.4061 -0.00315024 11.3072 -0.00658745 11.2111 0.0111922L0.544023 2.01127C0.391084 2.03953 0.252892 2.12052 0.153494 2.24014C0.0540951 2.35976 -0.000219436 2.51044 6.66331e-07 2.66597V17.3332C6.66331e-07 17.6532 0.22801 17.9292 0.544023 17.9879L11.2111 19.988C11.2515 19.996 11.2926 20 11.3338 20C11.4871 20 11.6391 19.9467 11.7591 19.8467C11.8346 19.7841 11.8954 19.7057 11.9371 19.6169C11.9788 19.5282 12.0005 19.4314 12.0005 19.3333V0.665885C12.0005 0.467211 11.9125 0.279203 11.7591 0.152531ZM10.6671 18.5293L1.33339 16.7799V3.21932L10.6671 1.46992V18.5293Z" fill="#D6465F"/>
<path d="M20.6674 2.66797H11.3337C10.9657 2.66797 10.667 2.96665 10.667 3.33466C10.667 3.70268 10.9657 4.00136 11.3337 4.00136H20.0007V16.0018H11.3337C10.9657 16.0018 10.667 16.3005 10.667 16.6685C10.667 17.0365 10.9657 17.3352 11.3337 17.3352H20.6674C21.0354 17.3352 21.3341 17.0365 21.3341 16.6685V3.33466C21.3341 2.96665 21.0354 2.66797 20.6674 2.66797Z" fill="#D6465F"/>
<path d="M14.0009 5.33203H11.3341C10.9661 5.33203 10.6674 5.63071 10.6674 5.99872C10.6674 6.36674 10.9661 6.66542 11.3341 6.66542H14.0009C14.3689 6.66542 14.6676 6.36674 14.6676 5.99872C14.6676 5.63071 14.3689 5.33203 14.0009 5.33203ZM14.0009 7.99881H11.3341C10.9661 7.99881 10.6674 8.29748 10.6674 8.6655C10.6674 9.03351 10.9661 9.33219 11.3341 9.33219H14.0009C14.3689 9.33219 14.6676 9.03351 14.6676 8.6655C14.6676 8.29748 14.3689 7.99881 14.0009 7.99881ZM14.0009 10.6656H11.3341C10.9661 10.6656 10.6674 10.9643 10.6674 11.3323C10.6674 11.7003 10.9661 11.999 11.3341 11.999H14.0009C14.3689 11.999 14.6676 11.7003 14.6676 11.3323C14.6676 10.9643 14.3689 10.6656 14.0009 10.6656ZM14.0009 13.3324H11.3341C10.9661 13.3324 10.6674 13.631 10.6674 13.999C10.6674 14.3671 10.9661 14.6657 11.3341 14.6657H14.0009C14.3689 14.6657 14.6676 14.3671 14.6676 13.999C14.6676 13.631 14.3689 13.3324 14.0009 13.3324ZM18.0011 5.33203H16.6677C16.2997 5.33203 16.001 5.63071 16.001 5.99872C16.001 6.36674 16.2997 6.66542 16.6677 6.66542H18.0011C18.3691 6.66542 18.6678 6.36674 18.6678 5.99872C18.6678 5.63071 18.3691 5.33203 18.0011 5.33203ZM18.0011 7.99881H16.6677C16.2997 7.99881 16.001 8.29748 16.001 8.6655C16.001 9.03351 16.2997 9.33219 16.6677 9.33219H18.0011C18.3691 9.33219 18.6678 9.03351 18.6678 8.6655C18.6678 8.29748 18.3691 7.99881 18.0011 7.99881ZM18.0011 10.6656H16.6677C16.2997 10.6656 16.001 10.9643 16.001 11.3323C16.001 11.7003 16.2997 11.999 16.6677 11.999H18.0011C18.3691 11.999 18.6678 11.7003 18.6678 11.3323C18.6678 10.9643 18.3691 10.6656 18.0011 10.6656ZM18.0011 13.3324H16.6677C16.2997 13.3324 16.001 13.631 16.001 13.999C16.001 14.3671 16.2997 14.6657 16.6677 14.6657H18.0011C18.3691 14.6657 18.6678 14.3671 18.6678 13.999C18.6678 13.631 18.3691 13.3324 18.0011 13.3324ZM9.17003 12.227L4.50318 6.89343C4.25784 6.61475 3.83782 6.58808 3.56181 6.83076C3.28446 7.07343 3.25646 7.49479 3.49914 7.7708L8.16599 13.1043C8.22841 13.176 8.30546 13.2334 8.39194 13.2727C8.47843 13.3121 8.57234 13.3324 8.66735 13.3324C8.82335 13.3324 8.97936 13.2777 9.10736 13.167C9.38471 12.9243 9.41271 12.5043 9.17003 12.227Z" fill="#D6465F"/>
<path d="M9.07691 6.14126C8.78623 5.91325 8.36754 5.96792 8.14087 6.25726L3.47401 12.2575C3.24867 12.5482 3.30067 12.9682 3.59135 13.1935C3.70847 13.2844 3.85249 13.3336 4.0007 13.3335C4.19804 13.3335 4.39538 13.2455 4.52605 13.0775L9.19291 7.07729C9.41959 6.78528 9.36758 6.3666 9.07691 6.14126Z" fill="#D6465F"/>
</svg>
