<svg width="25" height="24" viewBox="0 0 25 24" fill="none" xmlns="http://www.w3.org/2000/svg">
<path d="M13.5242 0.175426C13.4373 0.104058 13.3359 0.0525333 13.227 0.0244551C13.1182 -0.00362309 13.0045 -0.00757623 12.8939 0.0128722L0.625681 2.31317C0.449785 2.34567 0.290852 2.43881 0.176533 2.57638C0.0622148 2.71396 -0.000252374 2.88726 7.66348e-07 3.06613V19.9349C7.66348e-07 20.303 0.262234 20.6204 0.625681 20.6879L12.8939 22.9882C12.9404 22.9974 12.9876 23.002 13.035 23.002C13.2114 23.002 13.3862 22.9407 13.5242 22.8257C13.611 22.7537 13.6809 22.6635 13.7289 22.5614C13.7769 22.4594 13.8017 22.348 13.8018 22.2352V0.765835C13.8018 0.537339 13.7006 0.321112 13.5242 0.175426ZM12.2682 21.3105L1.53353 19.2985V3.70254L12.2682 1.69055V21.3105Z" fill="white"/>
<path d="M23.7697 3.06592H13.035C12.6117 3.06592 12.2682 3.40943 12.2682 3.83268C12.2682 4.25594 12.6117 4.59945 13.035 4.59945H23.0029V18.4012H13.035C12.6117 18.4012 12.2682 18.7447 12.2682 19.168C12.2682 19.5912 12.6117 19.9347 13.035 19.9347H23.7697C24.193 19.9347 24.5365 19.5912 24.5365 19.168V3.83268C24.5365 3.40943 24.193 3.06592 23.7697 3.06592Z" fill="white"/>
<path d="M16.1021 6.1333H13.035C12.6117 6.1333 12.2682 6.47681 12.2682 6.90007C12.2682 7.32332 12.6117 7.66683 13.035 7.66683H16.1021C16.5253 7.66683 16.8688 7.32332 16.8688 6.90007C16.8688 6.47681 16.5253 6.1333 16.1021 6.1333ZM16.1021 9.20036H13.035C12.6117 9.20036 12.2682 9.54387 12.2682 9.96712C12.2682 10.3904 12.6117 10.7339 13.035 10.7339H16.1021C16.5253 10.7339 16.8688 10.3904 16.8688 9.96712C16.8688 9.54387 16.5253 9.20036 16.1021 9.20036ZM16.1021 12.2674H13.035C12.6117 12.2674 12.2682 12.6109 12.2682 13.0342C12.2682 13.4574 12.6117 13.8009 13.035 13.8009H16.1021C16.5253 13.8009 16.8688 13.4574 16.8688 13.0342C16.8688 12.6109 16.5253 12.2674 16.1021 12.2674ZM16.1021 15.3345H13.035C12.6117 15.3345 12.2682 15.678 12.2682 16.1012C12.2682 16.5245 12.6117 16.868 13.035 16.868H16.1021C16.5253 16.868 16.8688 16.5245 16.8688 16.1012C16.8688 15.678 16.5253 15.3345 16.1021 15.3345ZM20.7026 6.1333H19.1691C18.7459 6.1333 18.4024 6.47681 18.4024 6.90007C18.4024 7.32332 18.7459 7.66683 19.1691 7.66683H20.7026C21.1259 7.66683 21.4694 7.32332 21.4694 6.90007C21.4694 6.47681 21.1259 6.1333 20.7026 6.1333ZM20.7026 9.20036H19.1691C18.7459 9.20036 18.4024 9.54387 18.4024 9.96712C18.4024 10.3904 18.7459 10.7339 19.1691 10.7339H20.7026C21.1259 10.7339 21.4694 10.3904 21.4694 9.96712C21.4694 9.54387 21.1259 9.20036 20.7026 9.20036ZM20.7026 12.2674H19.1691C18.7459 12.2674 18.4024 12.6109 18.4024 13.0342C18.4024 13.4574 18.7459 13.8009 19.1691 13.8009H20.7026C21.1259 13.8009 21.4694 13.4574 21.4694 13.0342C21.4694 12.6109 21.1259 12.2674 20.7026 12.2674ZM20.7026 15.3345H19.1691C18.7459 15.3345 18.4024 15.678 18.4024 16.1012C18.4024 16.5245 18.7459 16.868 19.1691 16.868H20.7026C21.1259 16.868 21.4694 16.5245 21.4694 16.1012C21.4694 15.678 21.1259 15.3345 20.7026 15.3345ZM10.5461 14.0632L5.17873 7.92906C4.89656 7.60856 4.4135 7.57788 4.09606 7.85699C3.77708 8.13609 3.74488 8.62069 4.02398 8.93813L9.39133 15.0722C9.46312 15.1546 9.55173 15.2207 9.6512 15.2659C9.75066 15.3111 9.85867 15.3345 9.96794 15.3345C10.1474 15.3345 10.3268 15.2716 10.474 15.1443C10.793 14.8652 10.8252 14.3822 10.5461 14.0632Z" fill="white"/>
<path d="M10.4387 7.06236C10.1044 6.80013 9.6229 6.863 9.3622 7.19578L3.99485 14.0967C3.73568 14.431 3.79549 14.914 4.1298 15.1732C4.26449 15.2777 4.43013 15.3343 4.60059 15.3342C4.82755 15.3342 5.05452 15.233 5.2048 15.0398L10.5722 8.1389C10.8329 7.80306 10.773 7.32153 10.4387 7.06236Z" fill="white"/>
</svg>
