<svg width="25" height="25" viewBox="0 0 25 25" fill="none" xmlns="http://www.w3.org/2000/svg">
<path d="M0.757014 4.28219H12.2828C12.6302 5.86336 14.0422 7.05041 15.7262 7.05041C17.4101 7.05041 18.8222 5.86341 19.1695 4.28219H23.4674C23.8855 4.28219 24.2245 3.94324 24.2245 3.52518C24.2245 3.10712 23.8855 2.76816 23.4674 2.76816H19.1692C18.8211 1.1878 17.4072 0 15.7262 0C14.0443 0 12.631 1.18761 12.2831 2.76816H0.757014C0.338953 2.76816 0 3.10712 0 3.52518C0 3.94324 0.338953 4.28219 0.757014 4.28219ZM13.7151 3.52717L13.7151 3.51903C13.7184 2.41346 14.6205 1.51408 15.7262 1.51408C16.8302 1.51408 17.7324 2.41223 17.7372 3.51728L17.7373 3.5284C17.7356 4.63586 16.8341 5.53642 15.7262 5.53642C14.6188 5.53642 13.7175 4.63676 13.715 3.52996L13.7151 3.52717ZM23.4674 19.9657H19.1692C18.8211 18.3854 17.4072 17.1975 15.7262 17.1975C14.0443 17.1975 12.631 18.3852 12.2831 19.9657H0.757014C0.338953 19.9657 0 20.3046 0 20.7227C0 21.1408 0.338953 21.4797 0.757014 21.4797H12.2828C12.6302 23.0609 14.0422 24.2479 15.7262 24.2479C17.4101 24.2479 18.8222 23.0609 19.1695 21.4797H23.4674C23.8855 21.4797 24.2245 21.1408 24.2245 20.7227C24.2245 20.3046 23.8855 19.9657 23.4674 19.9657ZM15.7262 22.7339C14.6188 22.7339 13.7175 21.8342 13.715 20.7274L13.7151 20.7247L13.7151 20.7165C13.7184 19.611 14.6205 18.7115 15.7262 18.7115C16.8302 18.7115 17.7324 19.6097 17.7372 20.7147L17.7373 20.7258C17.7357 21.8334 16.8342 22.7339 15.7262 22.7339ZM23.4674 11.3669H11.9417C11.5943 9.78578 10.1823 8.59878 8.49829 8.59878C6.81431 8.59878 5.40229 9.78578 5.05492 11.3669H0.757014C0.338953 11.3669 0 11.7059 0 12.124C0 12.5421 0.338953 12.881 0.757014 12.881H5.05529C5.40338 14.4613 6.81729 15.6491 8.49829 15.6491C10.1802 15.6491 11.5935 14.4615 11.9414 12.881H23.4674C23.8855 12.881 24.2245 12.5421 24.2245 12.124C24.2245 11.7059 23.8855 11.3669 23.4674 11.3669ZM10.5094 12.122L10.5093 12.1301C10.506 13.2357 9.60391 14.1351 8.49829 14.1351C7.39423 14.1351 6.49206 13.2369 6.48728 12.1319L6.48714 12.1208C6.4888 11.0132 7.39035 10.1128 8.49829 10.1128C9.60571 10.1128 10.5069 11.0124 10.5094 12.1193L10.5094 12.122Z" fill="#1E1E1E"/>
</svg>
