<svg width="20" height="20" viewBox="0 0 20 20" fill="none" xmlns="http://www.w3.org/2000/svg">
<path d="M20 9.99973C20 12.6519 18.9464 15.1954 17.0711 17.0708C15.1957 18.9462 12.6522 19.9997 10 19.9997C7.34784 19.9997 4.8043 18.9462 2.92893 17.0708C1.05357 15.1954 0 12.6519 0 9.99973C0 9.81029 0.0752549 9.62861 0.209209 9.49466C0.343164 9.3607 0.524845 9.28545 0.714286 9.28545C0.903726 9.28545 1.08541 9.3607 1.21936 9.49466C1.35332 9.62861 1.42857 9.81029 1.42857 9.99973C1.42563 11.9126 2.0617 13.7717 3.23581 15.2819C4.40992 16.792 6.05479 17.8668 7.90936 18.3355C9.76394 18.8042 11.7219 18.6401 13.4726 17.8691C15.2232 17.0982 16.6662 15.7646 17.5725 14.08C18.4788 12.3955 18.7965 10.4564 18.4751 8.57074C18.1538 6.68504 17.2118 4.9607 15.7986 3.67142C14.3855 2.38214 12.5823 1.60178 10.6751 1.45421C8.76789 1.30664 6.86605 1.80032 5.27143 2.85688H5.71429C5.90373 2.85688 6.08541 2.93213 6.21936 3.06608C6.35332 3.20004 6.42857 3.38172 6.42857 3.57116C6.42857 3.7606 6.35332 3.94228 6.21936 4.07624C6.08541 4.21019 5.90373 4.28545 5.71429 4.28545H3.57143C3.38199 4.28545 3.20031 4.21019 3.06635 4.07624C2.9324 3.94228 2.85714 3.7606 2.85714 3.57116V1.4283C2.85714 1.23886 2.9324 1.05718 3.06635 0.923228C3.20031 0.789273 3.38199 0.714018 3.57143 0.714018C3.76087 0.714018 3.94255 0.789273 4.0765 0.923228C4.21046 1.05718 4.28571 1.23886 4.28571 1.4283V1.79545C5.78486 0.750663 7.54167 0.136714 9.36525 0.0203098C11.1888 -0.0960943 13.0094 0.289498 14.6293 1.13519C16.2491 1.98088 17.6062 3.25433 18.553 4.81716C19.4999 6.37999 20.0003 8.17244 20 9.99973ZM16.4286 9.99973C16.4286 11.2712 16.0515 12.5141 15.3452 13.5713C14.6388 14.6284 13.6348 15.4524 12.4601 15.939C11.2854 16.4255 9.99287 16.5528 8.74585 16.3048C7.49883 16.0567 6.35337 15.4445 5.45431 14.5454C4.55526 13.6464 3.943 12.5009 3.69495 11.2539C3.4469 10.0069 3.57421 8.71429 4.06077 7.53962C4.54734 6.36496 5.3713 5.36095 6.42848 4.65457C7.48565 3.94819 8.72855 3.57116 10 3.57116C11.7044 3.57305 13.3384 4.25095 14.5436 5.45613C15.7488 6.66132 16.4267 8.29535 16.4286 9.99973ZM12.5393 10.834L10.7143 9.61759V6.4283C10.7143 6.23886 10.639 6.05718 10.5051 5.92323C10.3711 5.78927 10.1894 5.71402 10 5.71402C9.81056 5.71402 9.62888 5.78927 9.49492 5.92323C9.36097 6.05718 9.28571 6.23886 9.28571 6.4283V9.99973C9.2857 10.1173 9.3147 10.2331 9.37015 10.3367C9.42559 10.4404 9.50577 10.5288 9.60357 10.594L11.7464 12.0226C11.904 12.1277 12.097 12.166 12.2828 12.1288C12.4686 12.0917 12.632 11.9823 12.7371 11.8247C12.8423 11.6671 12.8805 11.4742 12.8434 11.2884C12.8063 11.1026 12.6969 10.9392 12.5393 10.834Z" fill="#007AFF"/>
</svg>
