<svg width="28" height="28" viewBox="0 0 28 28" fill="none" xmlns="http://www.w3.org/2000/svg">
<path d="M13.9987 13.9974C16.2999 13.9974 18.1654 12.1319 18.1654 9.83073C18.1654 7.52954 16.2999 5.66406 13.9987 5.66406C11.6975 5.66406 9.83203 7.52954 9.83203 9.83073C9.83203 12.1319 11.6975 13.9974 13.9987 13.9974Z" stroke="#001D6E" stroke-linecap="round" stroke-linejoin="round"/>
<path d="M6.83984 22.3333C6.83984 19.1083 10.0482 16.5 13.9982 16.5C14.7982 16.5 15.5732 16.6083 16.2982 16.8083" stroke="#001D6E" stroke-linecap="round" stroke-linejoin="round"/>
<path d="M22.3346 18.9974C22.3346 19.2641 22.3013 19.5224 22.2346 19.7724C22.1596 20.1057 22.0263 20.4307 21.8513 20.7141C21.2763 21.6807 20.218 22.3307 19.0013 22.3307C18.143 22.3307 17.368 22.0057 16.7846 21.4724C16.5346 21.2557 16.318 20.9974 16.1513 20.7141C15.843 20.2141 15.668 19.6224 15.668 18.9974C15.668 18.0974 16.0263 17.2724 16.6096 16.6724C17.218 16.0474 18.068 15.6641 19.0013 15.6641C19.9846 15.6641 20.8763 16.0891 21.4763 16.7724C22.0096 17.3641 22.3346 18.1474 22.3346 18.9974Z" stroke="#001D6E" stroke-miterlimit="10" stroke-linecap="round" stroke-linejoin="round"/>
<path d="M20.2411 18.9844H17.7578" stroke="#001D6E" stroke-miterlimit="10" stroke-linecap="round" stroke-linejoin="round"/>
<path d="M19 17.7656V20.2573" stroke="#001D6E" stroke-miterlimit="10" stroke-linecap="round" stroke-linejoin="round"/>
<rect x="0.5" y="0.5" width="27" height="27" rx="13.5" stroke="#001D6E" stroke-dasharray="2 2"/>
</svg>
