<svg width="139" height="44" viewBox="0 0 139 44" fill="none" xmlns="http://www.w3.org/2000/svg">
<path d="M56.5324 43.7062C55.5012 43.7062 54.589 43.5825 53.7957 43.3351C53.0184 43.0877 52.352 42.6342 51.7968 41.9744C51.2574 41.3147 50.8449 40.3746 50.5593 39.1541C50.2896 37.9171 50.1548 36.3173 50.1548 34.3547C50.1548 32.458 50.2976 30.9076 50.5831 29.7036C50.8846 28.4831 51.3129 27.543 51.8682 26.8833C52.4234 26.2071 53.0977 25.7371 53.8909 25.4732C54.6841 25.2093 55.5805 25.0773 56.58 25.0773C57.3732 25.0773 58.1109 25.1268 58.7931 25.2258C59.4911 25.3082 60.1178 25.4154 60.673 25.5474C61.2283 25.6628 61.6963 25.7948 62.0771 25.9432V28.7883C61.7915 28.7223 61.4028 28.6563 60.911 28.5903C60.4351 28.5244 59.8877 28.4749 59.269 28.4419C58.6503 28.3924 57.9999 28.3677 57.3177 28.3677C56.6514 28.3677 56.0802 28.4502 55.6043 28.6151C55.1442 28.7635 54.7714 29.0521 54.4858 29.481C54.2161 29.8933 54.0099 30.4953 53.8671 31.287C53.7402 32.0786 53.6767 33.1094 53.6767 34.3794C53.6767 35.5999 53.7323 36.606 53.8433 37.3976C53.9702 38.1893 54.1685 38.8078 54.4382 39.2531C54.7079 39.6819 55.0728 39.987 55.5329 40.1684C56.0088 40.3334 56.6038 40.4158 57.3177 40.4158C58.5234 40.4158 59.4991 40.3911 60.2447 40.3416C61.0062 40.2921 61.617 40.2344 62.0771 40.1684V42.9888C61.6487 43.1372 61.1569 43.2691 60.6017 43.3846C60.0464 43.4835 59.4356 43.5578 58.7693 43.6072C58.103 43.6732 57.3573 43.7062 56.5324 43.7062Z" fill="white"/>
<path d="M68.2886 43.5578V28.5409H63.4578V25.2505H76.6651V28.5409H71.8105V43.5578H68.2886Z" fill="white"/>
<path d="M83.0139 43.5621C82.102 43.5621 81.3261 43.4261 80.6862 43.1539C80.0623 42.8658 79.5903 42.4176 79.2704 41.8093C78.9664 41.185 78.8145 40.3686 78.8145 39.3602V25.7938H82.366V38.7839C82.366 39.1681 82.4299 39.4802 82.5579 39.7203C82.7019 39.9604 82.8939 40.1285 83.1338 40.2246C83.3738 40.3046 83.6458 40.3446 83.9497 40.3446H89.5649V43.5621H83.0139Z" fill="white"/>
<path d="M97.0576 43.6822C96.0018 43.6822 95.0979 43.5781 94.346 43.37C93.5941 43.1459 92.9782 42.7778 92.4983 42.2655C92.0343 41.7533 91.6904 41.073 91.4664 40.2246C91.2585 39.3762 91.1545 38.3277 91.1545 37.0791C91.1545 35.7665 91.2585 34.686 91.4664 33.8376C91.6904 32.9732 92.0343 32.3009 92.4983 31.8206C92.9782 31.3244 93.5941 30.9802 94.346 30.7882C95.1139 30.5801 96.0178 30.476 97.0576 30.476C98.1295 30.476 99.0414 30.5801 99.7933 30.7882C100.545 30.9963 101.153 31.3484 101.617 31.8447C102.097 32.3249 102.441 32.9972 102.649 33.8616C102.873 34.71 102.985 35.7825 102.985 37.0791C102.985 38.3597 102.881 39.4322 102.673 40.2966C102.465 41.145 102.129 41.8173 101.665 42.3135C101.201 42.8098 100.585 43.1619 99.8173 43.37C99.0654 43.5781 98.1455 43.6822 97.0576 43.6822ZM97.0576 40.8489C97.4896 40.8489 97.8495 40.8088 98.1375 40.7288C98.4415 40.6488 98.6814 40.4887 98.8574 40.2486C99.0494 39.9925 99.1933 39.6083 99.2893 39.096C99.3853 38.5838 99.4333 37.9115 99.4333 37.0791C99.4333 36.2307 99.3853 35.5584 99.2893 35.0622C99.1933 34.5499 99.0494 34.1737 98.8574 33.9336C98.6814 33.6775 98.4415 33.5094 98.1375 33.4294C97.8495 33.3494 97.4896 33.3093 97.0576 33.3093C96.6417 33.3093 96.2818 33.3494 95.9778 33.4294C95.6898 33.5094 95.4499 33.6775 95.2579 33.9336C95.0659 34.1737 94.9219 34.5499 94.826 35.0622C94.746 35.5584 94.706 36.2307 94.706 37.0791C94.706 37.9115 94.746 38.5838 94.826 39.096C94.9219 39.6083 95.0659 39.9925 95.2579 40.2486C95.4499 40.4887 95.6898 40.6488 95.9778 40.7288C96.2818 40.8088 96.6417 40.8489 97.0576 40.8489Z" fill="white"/>
<path d="M110.286 43.5621C109.295 43.5621 108.487 43.4181 107.863 43.1299C107.255 42.8418 106.815 42.3616 106.543 41.6893C106.271 41.0169 106.151 40.1125 106.183 38.976L106.303 33.5254H104.287V31.2444L106.423 30.6681L106.903 27.0664H109.711V30.6681H112.734V33.5254H109.711V38.952C109.711 39.3041 109.743 39.5923 109.807 39.8164C109.871 40.0405 109.959 40.2246 110.071 40.3686C110.198 40.4967 110.342 40.5927 110.502 40.6568C110.662 40.7208 110.822 40.7608 110.982 40.7768L112.614 40.9209V43.5621H110.286Z" fill="white"/>
<path d="M118.415 43.7062C117.264 43.7062 116.36 43.37 115.704 42.6977C115.048 42.0094 114.72 41.0409 114.72 39.7924V30.6681H118.271V38.7359C118.271 39.4562 118.439 39.9444 118.775 40.2006C119.127 40.4407 119.583 40.5607 120.143 40.5607C120.591 40.5607 121.047 40.4807 121.511 40.3206C121.991 40.1445 122.415 39.9124 122.783 39.6243V30.6681H126.358V43.5621H123.407L122.783 42.2415C122.207 42.6257 121.543 42.9699 120.791 43.274C120.039 43.5621 119.247 43.7062 118.415 43.7062Z" fill="white"/>
<path d="M133.769 43.7062C133.369 43.7062 132.937 43.6902 132.473 43.6582C132.009 43.6422 131.545 43.6101 131.081 43.5621C130.617 43.5141 130.185 43.4581 129.785 43.394C129.385 43.314 129.049 43.226 128.777 43.1299V41.0409H134.489C134.825 41.0409 135.097 41.0169 135.305 40.9689C135.529 40.9049 135.688 40.8008 135.784 40.6568C135.896 40.4967 135.952 40.2726 135.952 39.9845V39.5763C135.952 39.2561 135.848 39.008 135.64 38.8319C135.433 38.6558 135.049 38.5678 134.489 38.5678H132.473C131.737 38.5678 131.073 38.4557 130.481 38.2316C129.889 38.0075 129.417 37.6394 129.065 37.1271C128.729 36.6149 128.561 35.9266 128.561 35.0622V34.3178C128.561 33.5014 128.721 32.8131 129.041 32.2528C129.361 31.6926 129.897 31.2684 130.649 30.9802C131.401 30.6921 132.433 30.548 133.745 30.548C134.273 30.548 134.833 30.5801 135.425 30.6441C136.032 30.6921 136.6 30.7641 137.128 30.8602C137.672 30.9402 138.104 31.0363 138.424 31.1483V33.2373H133.025C132.561 33.2373 132.209 33.3173 131.969 33.4774C131.729 33.6215 131.609 33.9016 131.609 34.3178V34.702C131.609 34.9901 131.665 35.2062 131.777 35.3503C131.889 35.4783 132.057 35.5744 132.281 35.6384C132.521 35.6864 132.817 35.7105 133.169 35.7105H135.233C136.544 35.7105 137.496 36.0146 138.088 36.6229C138.696 37.2152 139 38.0395 139 39.096V40.2486C139 41.113 138.792 41.8013 138.376 42.3135C137.976 42.8098 137.384 43.1699 136.6 43.394C135.832 43.6021 134.889 43.7062 133.769 43.7062Z" fill="white"/>
<mask id="mask0_328_74104" style="mask-type:luminance" maskUnits="userSpaceOnUse" x="18" y="5" width="26" height="39">
<path d="M29.9387 12.198C31.1895 10.7545 32.457 9.29202 33.8158 7.62952L35.2628 5.8595L36.6159 7.70551C41.5876 14.4891 43.4569 21.0109 43.0981 26.6022C42.9123 29.4935 42.1304 32.1392 40.8701 34.4508C39.6046 36.7726 37.8627 38.7463 35.7634 40.285C32.1898 42.9041 27.5861 44.2683 22.5423 43.9445L21.5701 43.8819L21.1008 43.0295C14.1538 30.4152 21.7118 21.6925 29.9387 12.198ZM35.056 11.6764C34.2638 12.609 33.4354 13.5648 32.6142 14.5129C25.4377 22.7952 18.8296 30.4237 23.7509 40.4481C27.552 40.497 30.984 39.399 33.6706 37.4297C35.3589 36.1921 36.7557 34.612 37.7653 32.7601C38.7803 30.898 39.4115 28.7483 39.5635 26.3807C39.8406 22.0629 38.5239 17.031 35.056 11.6764Z" fill="white"/>
</mask>
<g mask="url(#mask0_328_74104)">
<path d="M43.4572 5.85968H14.1538V44.2688H43.4572V5.85968Z" fill="white"/>
</g>
<mask id="mask1_328_74104" style="mask-type:luminance" maskUnits="userSpaceOnUse" x="0" y="5" width="25" height="39">
<path d="M10.5269 14.513C9.70569 13.5649 8.87728 12.6091 8.08506 11.6765C4.61713 17.031 3.30047 22.0627 3.57755 26.3805C3.72953 28.7484 4.36073 30.8978 5.37575 32.7599C6.38534 34.6121 7.78213 36.1921 9.47048 37.4294C12.1573 39.3985 15.5893 40.4967 19.3902 40.4479C24.3117 30.4238 17.7034 22.7952 10.5269 14.513ZM9.32522 7.62957C10.6843 9.29181 11.9518 10.7545 13.2023 12.1981C21.429 21.6926 28.987 30.4153 22.04 43.03L21.5706 43.8825L20.5985 43.945C15.5547 44.2689 10.951 42.9044 7.37736 40.2856C5.27805 38.7469 3.53645 36.7732 2.27071 34.4513C1.01066 32.1395 0.228516 29.4941 0.0429324 26.6028C-0.316087 21.0112 1.55345 14.4894 6.52492 7.70582L7.87803 5.8598L9.32522 7.62957Z" fill="white"/>
</mask>
<g mask="url(#mask1_328_74104)">
<path d="M28.9869 5.85962H-0.316406V44.2687H28.9869V5.85962Z" fill="white"/>
</g>
<mask id="mask2_328_74104" style="mask-type:luminance" maskUnits="userSpaceOnUse" x="9" y="0" width="25" height="44">
<path d="M27.9705 39.2773C26.4406 40.8287 24.5985 42.2221 22.4232 43.4152L21.5707 43.8828L20.7183 43.4152C18.5432 42.2221 16.7008 40.8287 15.1712 39.2773C11.3605 35.4134 9.54474 30.6247 9.3757 25.5408C9.21053 20.5672 10.6365 15.3308 13.3174 10.4426C15.1169 7.16151 17.4892 4.02546 20.33 1.22361L21.5707 0L22.8114 1.22361C25.6523 4.02546 28.0248 7.16177 29.8243 10.4428C32.5049 15.3311 33.9309 20.5675 33.7657 25.541C33.5967 30.6247 31.7809 35.4134 27.9705 39.2773ZM21.5707 39.8191C23.0743 38.9108 24.3625 37.8963 25.4476 36.796C28.5919 33.6074 30.0908 29.644 30.2309 25.4299C30.3746 21.1056 29.1042 16.497 26.719 12.1477C25.3478 9.64725 23.6129 7.24061 21.5707 5.02859C19.5285 7.24061 17.7937 9.64725 16.4225 12.1475C14.0373 16.4968 12.7669 21.1054 12.9106 25.4296C13.0507 29.644 14.5496 33.6072 17.6939 36.7957C18.779 37.896 20.0672 38.9108 21.5707 39.8191Z" fill="white"/>
</mask>
<g mask="url(#mask2_328_74104)">
<path d="M33.9308 0H9.21045V43.8825H33.9308V0Z" fill="white"/>
</g>
</svg>
