<svg width="24" height="24" viewBox="0 0 24 24" fill="none" xmlns="http://www.w3.org/2000/svg">
<path d="M24 11.1429V14.5714C24 15.5169 23.2311 16.2857 22.2857 16.2857V17.1429C22.2857 19.9791 19.9791 22.2857 17.1429 22.2857V20.5714C19.0337 20.5714 20.5714 19.0337 20.5714 17.1429V16.2857C19.626 16.2857 18.8571 15.5169 18.8571 14.5714V11.1429C18.8571 10.1974 19.626 9.42857 20.5714 9.42857C20.5714 5.17543 17.1111 1.71429 12.8571 1.71429H11.1429C6.88886 1.71429 3.42857 5.17543 3.42857 9.42857C4.374 9.42857 5.14286 10.1974 5.14286 11.1429V14.5714C5.14286 15.5169 4.374 16.2857 3.42857 16.2857H1.71429C0.768857 16.2857 0 15.5169 0 14.5714V11.1429C0 10.1974 0.768857 9.42857 1.71429 9.42857C1.71429 4.23 5.94429 0 11.1429 0H12.8571C18.0557 0 22.2857 4.23 22.2857 9.42857C23.2311 9.42857 24 10.1974 24 11.1429ZM13.7143 18.8571H10.2857C9.34029 18.8571 8.57143 19.626 8.57143 20.5714V22.2857C8.57143 23.2311 9.34029 24 10.2857 24H13.7143C14.6597 24 15.4286 23.2311 15.4286 22.2857V20.5714C15.4286 19.626 14.6597 18.8571 13.7143 18.8571Z" fill="#D6465F"/>
</svg>
