<svg width="20" height="20" viewBox="0 0 20 20" fill="none" xmlns="http://www.w3.org/2000/svg">
<path d="M18.9968 16.7473H10.4175C10.0792 16.7473 9.80469 16.4728 9.80469 16.1345V3.87843C9.80469 3.54016 10.0792 3.26562 10.4175 3.26562H18.9968C19.335 3.26562 19.6096 3.54016 19.6096 3.87843V16.1345C19.6096 16.4728 19.335 16.7473 18.9968 16.7473Z" fill="white"/>
<path d="M12.8687 6.94045H10.4175C10.0792 6.94045 9.80469 6.66592 9.80469 6.32765C9.80469 5.98938 10.0792 5.71484 10.4175 5.71484H12.8687C13.207 5.71484 13.4815 5.98938 13.4815 6.32765C13.4815 6.66592 13.207 6.94045 12.8687 6.94045ZM12.8687 9.39167H10.4175C10.0792 9.39167 9.80469 9.11714 9.80469 8.77887C9.80469 8.4406 10.0792 8.16606 10.4175 8.16606H12.8687C13.207 8.16606 13.4815 8.4406 13.4815 8.77887C13.4815 9.11714 13.207 9.39167 12.8687 9.39167ZM12.8687 11.8429H10.4175C10.0792 11.8429 9.80469 11.5684 9.80469 11.2301C9.80469 10.8918 10.0792 10.6173 10.4175 10.6173H12.8687C13.207 10.6173 13.4815 10.8918 13.4815 11.2301C13.4815 11.5684 13.207 11.8429 12.8687 11.8429ZM12.8687 14.2941H10.4175C10.0792 14.2941 9.80469 14.0196 9.80469 13.6813C9.80469 13.343 10.0792 13.0685 10.4175 13.0685H12.8687C13.207 13.0685 13.4815 13.343 13.4815 13.6813C13.4815 14.0196 13.207 14.2941 12.8687 14.2941ZM16.5455 6.94045H15.3199C14.9817 6.94045 14.7071 6.66592 14.7071 6.32765C14.7071 5.98938 14.9817 5.71484 15.3199 5.71484H16.5455C16.8838 5.71484 17.1583 5.98938 17.1583 6.32765C17.1583 6.66592 16.8838 6.94045 16.5455 6.94045ZM16.5455 9.39167H15.3199C14.9817 9.39167 14.7071 9.11714 14.7071 8.77887C14.7071 8.4406 14.9817 8.16606 15.3199 8.16606H16.5455C16.8838 8.16606 17.1583 8.4406 17.1583 8.77887C17.1583 9.11714 16.8838 9.39167 16.5455 9.39167ZM16.5455 11.8429H15.3199C14.9817 11.8429 14.7071 11.5684 14.7071 11.2301C14.7071 10.8918 14.9817 10.6173 15.3199 10.6173H16.5455C16.8838 10.6173 17.1583 10.8918 17.1583 11.2301C17.1583 11.5684 16.8838 11.8429 16.5455 11.8429ZM16.5455 14.2941H15.3199C14.9817 14.2941 14.7071 14.0196 14.7071 13.6813C14.7071 13.343 14.9817 13.0685 15.3199 13.0685H16.5455C16.8838 13.0685 17.1583 13.343 17.1583 13.6813C17.1583 14.0196 16.8838 14.2941 16.5455 14.2941Z" fill="#388E3C"/>
<path d="M10.8087 0.954271C10.6689 0.837838 10.4814 0.787588 10.3049 0.824356L0.50005 2.66277C0.359473 2.68875 0.232451 2.76319 0.141087 2.87314C0.0497226 2.98309 -0.000201699 3.12159 6.12472e-07 3.26455V16.7463C6.12472e-07 17.0404 0.20958 17.2941 0.50005 17.348L10.3049 19.1865C10.3417 19.1938 10.3797 19.1975 10.4177 19.1975C10.5599 19.1975 10.6984 19.1485 10.8087 19.0565C10.878 18.999 10.9339 18.9269 10.9722 18.8454C11.0106 18.7638 11.0305 18.6748 11.0305 18.5847V1.42613C11.0305 1.24352 10.9496 1.0707 10.8087 0.954271Z" fill="#2E7D32"/>
<path d="M8.42713 12.0524L6.48944 9.83768L8.44919 7.31782C8.65755 7.05064 8.60852 6.6658 8.34257 6.45744C8.07661 6.24909 7.69177 6.29811 7.48219 6.56407L5.66706 8.89764L4.1375 7.14991C3.91321 6.89254 3.52592 6.86925 3.27344 7.09231C3.01852 7.31537 2.99278 7.70266 3.21584 7.95637L4.90105 9.88303L3.19255 12.0793C2.9842 12.3465 3.03322 12.7313 3.29918 12.9397C3.40729 13.0232 3.54006 13.0685 3.67667 13.0684C3.85928 13.0684 4.03945 12.9875 4.16078 12.8318L5.72344 10.8218L7.50548 12.8576C7.56261 12.9238 7.63335 12.9769 7.71288 13.0133C7.79241 13.0497 7.87885 13.0685 7.9663 13.0684C8.1097 13.0684 8.2531 13.0181 8.36953 12.9164C8.62446 12.6934 8.6502 12.3061 8.42713 12.0524Z" fill="#FAFAFA"/>
</svg>
