<svg width="18" height="18" viewBox="0 0 18 18" fill="none" xmlns="http://www.w3.org/2000/svg">
<path d="M4.5 0C3.88125 0 3.375 0.50625 3.375 1.125V16.875C3.375 17.4937 3.88125 18 4.5 18H15.75C16.3687 18 16.875 17.4937 16.875 16.875V4.5L12.375 0H4.5Z" fill="#E2E5E7"/>
<path d="M13.5 4.5H16.875L12.375 0V3.375C12.375 3.99375 12.8812 4.5 13.5 4.5Z" fill="#B0B7BD"/>
<path d="M16.875 7.875L13.5 4.5H16.875V7.875Z" fill="#CAD1D8"/>
<path d="M14.625 14.625C14.625 14.9344 14.3719 15.1875 14.0625 15.1875H1.6875C1.37812 15.1875 1.125 14.9344 1.125 14.625V9C1.125 8.69062 1.37812 8.4375 1.6875 8.4375H14.0625C14.3719 8.4375 14.625 8.69062 14.625 9V14.625Z" fill="#E0A737"/>
<path d="M4.98895 10.6507C4.98895 10.2727 5.58295 10.2727 5.58295 10.6507V12.4271C5.58295 13.1336 5.24545 13.5611 4.46751 13.5611C4.08501 13.5611 3.76607 13.457 3.48707 13.0976C3.25757 12.8231 3.68957 12.4276 3.92357 12.7151C4.11257 12.9491 4.31507 13.0031 4.51251 12.9941C4.76395 12.9851 4.98501 12.872 4.98951 12.4271V10.6507H4.98895Z" fill="white"/>
<path d="M6.375 10.6542C6.375 10.5058 6.492 10.3438 6.681 10.3438H7.71994C8.30494 10.3438 8.83144 10.7352 8.83144 11.4856C8.83144 12.1966 8.30494 12.5926 7.71994 12.5926H6.969V13.1866C6.969 13.3846 6.843 13.4966 6.681 13.4966C6.5325 13.4966 6.375 13.3846 6.375 13.1866V10.6542ZM6.969 10.9102V12.0307H7.71994C8.02144 12.0307 8.25994 11.7646 8.25994 11.4856C8.25994 11.1712 8.02144 10.9102 7.71994 10.9102H6.969Z" fill="white"/>
<path d="M12.0417 13.1509C11.7222 13.4164 11.3307 13.5289 10.9353 13.5289C9.99025 13.5289 9.32031 12.9895 9.32031 11.9185C9.32031 11.0106 10.0268 10.3047 10.9752 10.3047C11.3307 10.3047 11.7216 10.4256 12.0006 10.7001C12.2746 10.9696 11.8791 11.3701 11.6097 11.1321C11.4432 10.9701 11.2092 10.8486 10.9752 10.8486C10.4312 10.8486 9.90531 11.2846 9.90531 11.9185C9.90531 12.5845 10.3458 12.9895 10.9353 12.9895C11.2092 12.9895 11.4432 12.9079 11.6097 12.787V12.2341H10.9353C10.5348 12.2341 10.5753 11.6851 10.9353 11.6851H11.8347C12.0012 11.6851 12.1536 11.8111 12.1536 11.9506V12.9085C12.1536 12.9895 12.1182 13.0649 12.0417 13.1509Z" fill="white"/>
<path d="M14.0625 15.1875H3.375V15.75H14.0625C14.3719 15.75 14.625 15.4969 14.625 15.1875V14.625C14.625 14.9344 14.3719 15.1875 14.0625 15.1875Z" fill="#CAD1D8"/>
</svg>
