<svg width="24" height="24" viewBox="0 0 24 24" fill="none" xmlns="http://www.w3.org/2000/svg">
<path d="M9.47211 10.6364H5.16428C4.46571 10.6364 4 10.1707 4 9.47211V5.16428C4 4.46571 4.46571 4 5.16428 4H9.47211C10.1707 4 10.6364 4.46571 10.6364 5.16428V9.47211C10.6364 10.1707 10.1707 10.6364 9.47211 10.6364Z" stroke="#001D6E" stroke-miterlimit="10" stroke-linecap="round" stroke-linejoin="round"/>
<path d="M16.8069 10.6371C14.944 10.6371 13.5469 9.12359 13.5469 7.37717C13.5469 5.51432 15.0604 4.11719 16.8069 4.11719C18.6697 4.11719 20.0668 5.63075 20.0668 7.37717C20.1833 9.12359 18.6697 10.6371 16.8069 10.6371Z" stroke="#001D6E" stroke-miterlimit="10" stroke-linecap="round" stroke-linejoin="round"/>
<path d="M9.47211 19.9496H5.16428C4.46571 19.9496 4 19.4839 4 18.7854V14.594C4 13.8954 4.46571 13.4297 5.16428 13.4297H9.47211C10.1707 13.4297 10.6364 13.8954 10.6364 14.594V18.9018C10.6364 19.4839 10.1707 19.9496 9.47211 19.9496Z" stroke="#001D6E" stroke-miterlimit="10" stroke-linecap="round" stroke-linejoin="round"/>
<path d="M19.019 19.9496H14.7112C14.0126 19.9496 13.5469 19.4839 13.5469 18.7854V14.594C13.5469 13.8954 14.0126 13.4297 14.7112 13.4297H19.019C19.7176 13.4297 20.1833 13.8954 20.1833 14.594V18.9018C20.1833 19.4839 19.6011 19.9496 19.019 19.9496Z" stroke="#001D6E" stroke-miterlimit="10" stroke-linecap="round" stroke-linejoin="round"/>
</svg>
