<svg width="19" height="21" viewBox="0 0 19 21" fill="none" xmlns="http://www.w3.org/2000/svg">
<g id="Group">
<g id="1">
<path id="Vector" opacity="0.4" d="M16.9301 6.67555V10.6117C16.9304 10.7232 16.9049 10.8333 16.8556 10.9334C16.8063 11.0335 16.7346 11.1208 16.6461 11.1887C16.5575 11.2565 16.4545 11.303 16.345 11.3245C16.2356 11.346 16.1226 11.3419 16.015 11.3126C15.4433 11.1762 14.8566 11.1133 14.269 11.1254C14.0432 11.0968 13.8139 11.1176 13.597 11.1864C13.3801 11.2552 13.1807 11.3703 13.0127 11.5237L12.0685 12.5231C11.7301 12.8835 11.3215 13.1707 10.8678 13.367C10.4142 13.5633 9.92505 13.6644 9.43073 13.6642C8.93641 13.664 8.44739 13.5625 7.99386 13.3658C7.54033 13.1692 7.13194 12.8817 6.79391 12.521L5.85173 11.5227C5.68368 11.3693 5.48428 11.2543 5.26735 11.1857C5.05042 11.1171 4.82116 11.0966 4.59549 11.1254C4.00753 11.1132 3.42042 11.1761 2.8484 11.3126C2.7409 11.3415 2.62819 11.3453 2.519 11.3236C2.40982 11.3019 2.3071 11.2554 2.2188 11.1876C2.1305 11.1198 2.059 11.0326 2.00984 10.9327C1.96068 10.8329 1.93519 10.723 1.93533 10.6117V6.67659C1.93429 4.5208 1.93429 2.08008 6.52976 2.08008H12.3347C16.9291 2.08008 16.9301 4.5208 16.9301 6.67555Z" fill="url(#paint0_linear_4962_22112)"/>
<path id="Vector_2" d="M11.8001 5.9817L9.92825 7.85359C9.83054 7.95157 9.70597 8.01839 9.57029 8.0456C9.43461 8.07281 9.29391 8.05919 9.16598 8.00646H9.1639C9.08751 7.9731 9.01776 7.92625 8.95799 7.86814C8.95071 7.8619 8.94239 7.85983 8.93615 7.85359L7.06427 5.9817C6.9953 5.91744 6.93999 5.83994 6.90162 5.75384C6.86325 5.66773 6.84262 5.57478 6.84096 5.48053C6.8393 5.38628 6.85663 5.29265 6.89194 5.20525C6.92724 5.11784 6.97979 5.03844 7.04645 4.97179C7.11311 4.90513 7.1925 4.85258 7.27991 4.81728C7.36732 4.78197 7.46094 4.76464 7.55519 4.7663C7.64944 4.76796 7.74239 4.78859 7.8285 4.82696C7.91461 4.86532 7.9921 4.92064 8.05637 4.98961L8.73024 5.66348V0.701956C8.73024 0.515785 8.8042 0.33724 8.93584 0.205598C9.06748 0.0739558 9.24603 0 9.4322 0C9.61837 0 9.79691 0.0739558 9.92856 0.205598C10.0602 0.33724 10.1342 0.515785 10.1342 0.701956V5.66244L10.808 4.98961C10.8723 4.92064 10.9498 4.86532 11.0359 4.82696C11.122 4.78859 11.215 4.76796 11.3092 4.7663C11.4035 4.76464 11.4971 4.78197 11.5845 4.81728C11.6719 4.85258 11.7513 4.90513 11.8179 4.97179C11.8846 5.03844 11.9372 5.11784 11.9725 5.20525C12.0078 5.29265 12.0251 5.38628 12.0234 5.48053C12.0218 5.57478 12.0011 5.66773 11.9628 5.75384C11.9244 5.83994 11.8691 5.91744 11.8001 5.9817Z" fill="#D6465F"/>
<path id="Vector_3" d="M16.3894 9.91098C15.6954 9.7407 14.9824 9.66031 14.2679 9.67179C13.8755 9.64345 13.4813 9.6932 13.1083 9.81815C12.7352 9.9431 12.3906 10.1408 12.0944 10.3997C12.0607 10.4245 12.0294 10.4524 12.0008 10.4829L11.0129 11.5333C10.806 11.7426 10.5595 11.9087 10.2877 12.0217C10.0159 12.1347 9.72436 12.1924 9.43002 12.1914C9.13569 12.1904 8.8445 12.1308 8.57347 12.016C8.30244 11.9012 8.057 11.7336 7.8515 11.5229L6.86357 10.4829C6.83502 10.4524 6.80369 10.4245 6.76997 10.3997C6.47379 10.1408 6.1292 9.9431 5.75613 9.81815C5.38306 9.6932 4.98892 9.64345 4.59651 9.67179C3.88203 9.66031 3.16903 9.7407 2.47504 9.91098C-2.4794e-07 10.5765 0 12.542 0 14.2683V15.2354C0 17.8457 -4.95879e-07 20.7991 5.56365 20.7991H13.3008C16.9925 20.7991 18.8644 18.9272 18.8644 15.2354V14.2683C18.8644 12.542 18.8644 10.5765 16.3894 9.91098ZM11.8553 17.0553H7.00916C6.81609 17.0553 6.63093 16.9786 6.49442 16.8421C6.3579 16.7056 6.2812 16.5204 6.2812 16.3274C6.2812 16.1343 6.3579 15.9492 6.49442 15.8126C6.63093 15.6761 6.81609 15.5994 7.00916 15.5994H11.8553C12.0483 15.5994 12.2335 15.6761 12.37 15.8126C12.5065 15.9492 12.5832 16.1343 12.5832 16.3274C12.5832 16.5204 12.5065 16.7056 12.37 16.8421C12.2335 16.9786 12.0483 17.0553 11.8553 17.0553Z" fill="#D6465F"/>
</g>
</g>
<defs>
<linearGradient id="paint0_linear_4962_22112" x1="1.9353" y1="2.08008" x2="10.4047" y2="17.017" gradientUnits="userSpaceOnUse">
<stop offset="0.162245" stop-color="#D6465F"/>
<stop offset="1" stop-color="#FF8CA0"/>
</linearGradient>
</defs>
</svg>
