<svg width="16" height="11" viewBox="0 0 16 11" fill="none" xmlns="http://www.w3.org/2000/svg">
<path d="M7.30597 5.02375C8.88306 5.49259 10.5936 4.24263 10.5687 2.55239C10.4282 -0.850939 5.5723 -0.850654 5.43174 2.55239C5.43174 3.72664 6.226 4.7209 7.30597 5.02375ZM12.1401 9.13791C11.803 7.16083 10.0745 5.6523 8.00023 5.6523C5.65744 5.63516 3.69636 7.65281 3.81464 9.9436C3.85178 10.0579 3.96035 10.135 4.0832 10.135H11.9173C12.3887 10.095 12.1555 9.43762 12.1401 9.13791ZM12.9858 5.87515C14.0201 5.87515 14.8629 5.03232 14.8629 3.99806C14.7686 1.51528 11.2024 1.51585 11.1087 3.99806C11.1087 5.03232 11.9515 5.87515 12.9858 5.87515ZM12.9858 6.07514C12.4544 6.07514 11.9287 6.21514 11.4716 6.48085C11.6058 6.62084 11.7287 6.77227 11.843 6.92941C12.3667 7.64283 12.6787 8.4895 12.743 9.37219H15.7143C15.8714 9.37219 16 9.24362 16 9.08648C16 7.42653 14.6486 6.07514 12.9858 6.07514ZM3.01466 5.87515C4.04892 5.87515 4.89175 5.03232 4.89175 3.99806C4.79747 1.51528 1.23129 1.51585 1.13758 3.99806C1.13758 5.03232 1.98041 5.87515 3.01466 5.87515ZM4.52891 6.48085C2.58068 5.30631 -0.0401049 6.80798 0.000465334 9.08648C0.000465334 9.24362 0.129033 9.37219 0.286171 9.37219H3.25751C3.33707 8.2911 3.78597 7.27024 4.52891 6.48085Z" fill="#D6465F"/>
</svg>
