<svg width="20" height="23" viewBox="0 0 20 23" fill="none" xmlns="http://www.w3.org/2000/svg">
<path d="M14.2041 9.59047C14.2041 9.10902 13.8139 8.71875 13.3324 8.71875H4.35366C3.8722 8.71875 3.48193 9.10902 3.48193 9.59047C3.48193 10.0719 3.8722 10.4622 4.35366 10.4622H13.3324C13.8139 10.4622 14.2041 10.0719 14.2041 9.59047ZM4.35366 12.2056C3.8722 12.2056 3.48193 12.5959 3.48193 13.0774C3.48193 13.5588 3.8722 13.9491 4.35366 13.9491H9.80677C10.2882 13.9491 10.6785 13.5588 10.6785 13.0774C10.6785 12.5959 10.2882 12.2056 9.80677 12.2056H4.35366Z" fill="#D6465F"/>
<path d="M6.40233 20.5727H3.48689C2.52556 20.5727 1.74345 19.7906 1.74345 18.8292V3.48689C1.74345 2.52556 2.52556 1.74345 3.48689 1.74345H14.2043C15.1656 1.74345 15.9477 2.52556 15.9477 3.48689V8.84799C15.9477 9.32945 16.338 9.71972 16.8194 9.71972C17.3009 9.71972 17.6912 9.32945 17.6912 8.84799V3.48689C17.6912 1.56422 16.1269 0 14.2043 0H3.48689C1.56422 0 0 1.56422 0 3.48689V18.8292C0 20.7519 1.56422 22.3161 3.48689 22.3161H6.40233C6.88378 22.3161 7.27405 21.9259 7.27405 21.4444C7.27405 20.9629 6.88378 20.5727 6.40233 20.5727Z" fill="#D6465F"/>
<path d="M19.2351 12.6215C18.2154 11.6018 16.5563 11.6018 15.5373 12.6208L10.7515 17.3961C10.6498 17.4975 10.5748 17.6224 10.5331 17.7598L9.49081 21.1911C9.44544 21.3405 9.44101 21.4993 9.47798 21.6509C9.51494 21.8026 9.59195 21.9415 9.70095 22.0532C9.80995 22.165 9.94696 22.2454 10.0977 22.2861C10.2483 22.3268 10.4072 22.3262 10.5576 22.2846L14.0761 21.3099C14.2209 21.2698 14.3529 21.193 14.4592 21.0868L19.2351 16.3199C20.2548 15.3003 20.2548 13.6412 19.2351 12.6215ZM13.3898 19.691L11.6197 20.1813L12.1377 18.4758L15.367 15.2537L16.6 16.4868L13.3898 19.691ZM18.0029 15.0866L17.834 15.2552L16.6012 14.0223L16.7695 13.8543C17.1094 13.5145 17.6624 13.5145 18.0023 13.8543C18.3422 14.1942 18.3422 14.7472 18.0029 15.0866ZM13.3324 5.23047H4.35366C3.8722 5.23047 3.48193 5.62074 3.48193 6.10219C3.48193 6.58365 3.8722 6.97392 4.35366 6.97392H13.3324C13.8139 6.97392 14.2041 6.58365 14.2041 6.10219C14.2041 5.62074 13.8139 5.23047 13.3324 5.23047Z" fill="#D6465F"/>
</svg>
