<svg width="253" height="163" viewBox="0 0 253 163" fill="none" xmlns="http://www.w3.org/2000/svg">
<rect x="0.925781" width="252" height="162.796" fill="#F4F4F4"/>
<path d="M147.897 67.0704H142.196L139.049 62.3194C137.861 60.5377 135.782 59.4688 133.644 59.4688H120.579C118.441 59.4688 116.362 60.5377 115.175 62.3194L112.027 67.0704H106.326C102.703 67.0704 99.793 69.9805 99.793 73.6031V96.6458C99.793 100.268 102.703 103.178 106.326 103.178H147.897C151.52 103.178 154.43 100.268 154.43 96.6458V73.6031C154.43 69.9805 151.52 67.0704 147.897 67.0704ZM127.112 97.8335C118.975 97.8335 112.383 91.2414 112.383 83.1053C112.383 74.9691 118.975 68.4364 127.112 68.4364C135.248 68.4364 141.84 75.0285 141.84 83.1646C141.84 91.2414 135.248 97.8335 127.112 97.8335ZM147.066 76.2756C147.007 76.2756 146.947 76.2756 146.828 76.2756H144.453C143.384 76.2162 142.552 75.3254 142.612 74.2564C142.671 73.2468 143.443 72.4748 144.453 72.4154H146.828C147.897 72.356 148.788 73.1874 148.848 74.2564C148.907 75.3254 148.135 76.2162 147.066 76.2756Z" fill="#C1C1C1"/>
<path d="M127.114 74.9688C122.6 74.9688 118.918 78.6508 118.918 83.1643C118.918 87.6778 122.6 91.3005 127.114 91.3005C131.627 91.3005 135.309 87.6184 135.309 83.1049C135.309 78.5914 131.627 74.9688 127.114 74.9688Z" fill="#C1C1C1"/>
</svg>
