<svg width="24" height="24" viewBox="0 0 24 24" fill="none" xmlns="http://www.w3.org/2000/svg">
<mask id="mask0_6971_32071" style="mask-type:alpha" maskUnits="userSpaceOnUse" x="0" y="0" width="24" height="24">
<circle cx="12" cy="12" r="12" fill="#D9D9D9"/>
</mask>
<g mask="url(#mask0_6971_32071)">
<path d="M1.56551 1.66657C-0.315069 3.61995 0.0698223 5.69497 0.0698223 11.9988C0.0698223 17.2337 -0.843546 22.4816 3.93668 23.717C5.42938 24.1009 18.6553 24.1009 20.146 23.715C22.1362 23.2015 23.7556 21.5872 23.9769 18.7723C24.0078 18.3794 24.0078 5.62517 23.9759 5.22432C23.7406 2.22596 21.8949 0.497942 19.4629 0.14795C18.9056 0.0671829 18.7939 0.0432518 15.9341 0.0382662C5.79034 0.0432518 3.56675 -0.408447 1.56551 1.66657Z" fill="url(#paint0_linear_6971_32071)"/>
<path d="M12.0329 3.16771C8.41232 3.16771 4.97423 2.84564 3.66101 6.21592C3.11858 7.60791 3.19735 9.41571 3.19735 12.0042C3.19735 14.2757 3.12456 16.4106 3.66101 17.7916C4.97124 21.1639 8.43725 20.8408 12.0309 20.8408C15.4979 20.8408 19.0726 21.2017 20.4018 17.7916C20.9452 16.3856 20.8654 14.6048 20.8654 12.0042C20.8654 8.55219 21.0559 6.32361 19.3817 4.65043C17.6866 2.95532 15.3942 3.16771 12.0289 3.16771H12.0329ZM11.2412 4.76012C18.7934 4.74815 19.7546 3.90857 19.2242 15.572C19.0357 19.6971 15.8948 19.2444 12.0339 19.2444C4.99417 19.2444 4.79176 19.043 4.79176 12.0003C4.79176 4.87579 5.35015 4.76411 11.2412 4.75813V4.76012ZM16.7493 6.22689C16.4682 6.22689 16.1986 6.33857 15.9998 6.53734C15.801 6.73612 15.6894 7.00572 15.6894 7.28684C15.6894 7.56795 15.801 7.83755 15.9998 8.03633C16.1986 8.23511 16.4682 8.34679 16.7493 8.34679C17.0304 8.34679 17.3 8.23511 17.4988 8.03633C17.6976 7.83755 17.8092 7.56795 17.8092 7.28684C17.8092 7.00572 17.6976 6.73612 17.4988 6.53734C17.3 6.33857 17.0304 6.22689 16.7493 6.22689ZM12.0329 7.46632C11.437 7.46639 10.847 7.58382 10.2965 7.8119C9.74605 8.03999 9.24589 8.37427 8.82459 8.79566C7.97375 9.64668 7.49583 10.8008 7.49596 12.0042C7.4961 13.2076 7.97427 14.3617 8.8253 15.2125C9.67632 16.0634 10.8305 16.5413 12.0339 16.5412C13.2373 16.541 14.3913 16.0629 15.2422 15.2118C16.093 14.3608 16.5709 13.2067 16.5708 12.0033C16.5707 10.7998 16.0925 9.64579 15.2415 8.79495C14.3905 7.94411 13.2363 7.46619 12.0329 7.46632ZM12.0329 9.05873C15.9267 9.05873 15.9317 14.9498 12.0329 14.9498C8.14011 14.9498 8.13412 9.05873 12.0329 9.05873Z" fill="white"/>
</g>
<defs>
<linearGradient id="paint0_linear_6971_32071" x1="1.6114" y1="22.4408" x2="23.8528" y2="3.19116" gradientUnits="userSpaceOnUse">
<stop stop-color="#FFDD55"/>
<stop offset="0.5" stop-color="#FF543E"/>
<stop offset="1" stop-color="#C837AB"/>
</linearGradient>
</defs>
</svg>
