<svg width="31" height="29" viewBox="0 0 31 29" fill="none" xmlns="http://www.w3.org/2000/svg">
<path fill-rule="evenodd" clip-rule="evenodd" d="M16.1681 0C14.5842 0 13.3001 1.42377 13.3001 3.18002V8.35183C13.3001 10.1081 14.5842 11.5318 16.1681 11.5318H19.6348V12.7955C19.6348 13.1252 19.811 13.4235 20.0836 13.5552C20.3561 13.687 20.6732 13.6271 20.891 13.4028L22.7078 11.5318H27.2276C28.8116 11.5318 30.0957 10.1081 30.0957 8.35183V3.18002C30.0957 1.42369 28.8116 0 27.2276 0H16.1681ZM14.7951 3.18002C14.7951 2.33926 15.4099 1.65765 16.1681 1.65765H27.2276C27.9859 1.65765 28.6006 2.33921 28.6006 3.18002V8.35183C28.6006 9.19259 27.9859 9.8742 27.2276 9.8742H22.4142C22.2255 9.8742 22.0438 9.95333 21.9055 10.0957L21.1298 10.8945V10.703C21.1298 10.2453 20.7951 9.8742 20.3823 9.8742H16.1681C15.4099 9.8742 14.7951 9.19259 14.7951 8.35183V3.18002ZM14.2016 18.0133C18.6006 18.0133 22.2122 21.7537 22.5905 26.5223H17.0138C17.017 26.4917 17.0199 26.461 17.0224 26.4302L17.8907 21.4245C17.9542 21.0583 17.9074 20.679 17.7573 20.3453C17.6073 20.0116 17.3623 19.7418 17.0603 19.5777C16.755 19.4118 16.4086 19.3633 16.0756 19.4398C15.7428 19.5163 15.4424 19.7134 15.2218 20L12.1493 23.9884C11.6662 24.5513 11.3697 25.3129 11.3697 26.1515C11.3697 26.2768 11.3764 26.4006 11.3893 26.5223H5.81171C6.19003 21.7537 9.80167 18.0133 14.2016 18.0133ZM15.4961 26.5223H12.9067C12.8793 26.4043 12.8647 26.2801 12.8647 26.1515C12.8647 25.3332 13.4632 24.6697 14.202 24.6697C14.9397 24.6697 15.5383 25.333 15.5383 26.1515L15.5383 26.1524C15.5384 26.1985 15.5365 26.2445 15.5327 26.2902M12.4097 28.18H5.03147L5.02867 28.18H1.67109C1.47165 28.18 1.28048 28.0916 1.14011 27.9345C0.99973 27.7775 0.921787 27.5647 0.923615 27.3436C0.948224 24.3676 1.76835 21.6008 3.1584 19.2932C3.38769 18.9125 3.85188 18.81 4.19519 19.0643C4.53849 19.3185 4.63092 19.8332 4.40163 20.2138C3.29914 22.0441 2.60086 24.1984 2.44923 26.5223H4.31172C4.67552 21.1106 8.57266 16.7897 13.4542 16.3864V14.4062C11.314 14.5608 9.3307 15.3469 7.65216 16.5978C7.30953 16.8532 6.84508 16.7522 6.61478 16.3723C6.38448 15.9924 6.47554 15.4774 6.81817 15.2221C8.93793 13.6423 11.4904 12.7204 14.235 12.7204C21.5458 12.7204 27.4794 19.2546 27.5463 27.3436C27.5482 27.5647 27.4702 27.7775 27.3298 27.9345C27.1895 28.0916 26.9983 28.18 26.7988 28.18H23.3736L23.3708 28.18H15.9933C15.9899 28.1801 15.9864 28.1801 15.9829 28.1801H12.4202C12.4167 28.1801 12.4132 28.1801 12.4097 28.18ZM15.9732 23.7022C15.6395 23.4052 15.2439 23.1902 14.8114 23.085L16.359 21.0762C16.3642 21.0694 16.3713 21.0647 16.3791 21.0629C16.387 21.0611 16.3951 21.0623 16.4023 21.0662C16.4097 21.0702 16.4157 21.0768 16.4194 21.0849C16.423 21.093 16.4242 21.1024 16.4226 21.1113L15.9732 23.7022ZM23.064 22.4124C21.5383 19.0533 18.5048 16.6803 14.9492 16.3865V14.4016C19.2849 14.6882 22.9909 17.5668 24.8243 21.6593L23.064 22.4124ZM23.6334 23.9456L25.4031 23.1884C25.7333 24.2449 25.9451 25.3627 26.0207 26.5223H24.0905C24.0305 25.6295 23.8743 24.7664 23.6334 23.9456ZM17.5609 2.62158C17.9737 2.62158 18.3084 2.99266 18.3084 3.45041V3.92234L19.3125 2.8989C19.6165 2.58912 20.0894 2.6112 20.3687 2.94821C20.6481 3.28521 20.6282 3.80953 20.3243 4.1193L18.7854 5.68765L20.4864 7.50723C20.7835 7.82505 20.792 8.34975 20.5053 8.67918C20.2187 9.0086 19.7455 9.018 19.4484 8.70018L18.3084 7.48067V8.1037C18.3084 8.56145 17.9737 8.93253 17.5609 8.93253C17.148 8.93253 16.8133 8.56145 16.8133 8.1037V3.45041C16.8133 2.99266 17.148 2.62158 17.5609 2.62158ZM21.0696 3.45041C21.0696 2.99266 21.4042 2.62158 21.8171 2.62158H22.9856C24.0336 2.62158 24.9407 3.55989 24.9407 4.76357C24.9407 5.96724 24.0336 6.90556 22.9856 6.90556C22.8833 6.90556 22.7284 6.90615 22.5646 6.90695V8.1037C22.5646 8.56145 22.2299 8.93253 21.8171 8.93253C21.4042 8.93253 21.0696 8.56145 21.0696 8.1037V3.45041ZM22.5688 5.24926C22.7299 5.24848 22.8827 5.2479 22.9856 5.2479C23.2458 5.2479 23.4456 5.01034 23.4456 4.76357C23.4456 4.51679 23.2458 4.27923 22.9856 4.27923H22.5667C22.5672 4.47729 22.5675 4.66112 22.5675 4.76357C22.5675 4.8807 22.5681 5.06001 22.5688 5.24926ZM26.1089 2.62158C26.5217 2.62158 26.8564 2.99266 26.8564 3.45041V8.1037C26.8564 8.56145 26.5217 8.93253 26.1089 8.93253C25.6961 8.93253 25.3614 8.56145 25.3614 8.1037V3.45041C25.3614 2.99266 25.6961 2.62158 26.1089 2.62158Z" fill="#D45B7A"/>
</svg>
