<svg width="30" height="31" viewBox="0 0 30 31" fill="none" xmlns="http://www.w3.org/2000/svg">
<path d="M17.5862 18.2788C18.4363 17.5471 18.9871 16.4769 18.9871 15.2701C18.9871 13.0718 17.1984 11.2827 15 11.2827C12.8017 11.2827 11.013 13.0721 11.013 15.2701C11.013 16.4769 11.5638 17.5471 12.4139 18.2788C10.649 19.2144 9.43048 21.0491 9.43048 23.1817C9.43048 24.2701 11.0751 24.2701 11.0751 23.1817C11.0751 21.0177 12.836 19.2564 15 19.2564C17.164 19.2564 18.9249 21.0177 18.9249 23.1817C18.9249 24.2701 20.5696 24.2701 20.5696 23.1817C20.5696 21.0491 19.3511 19.2144 17.5862 18.2788ZM12.6577 15.2698C12.6577 13.9785 13.7084 12.927 15 12.927C16.2916 12.927 17.3424 13.9785 17.3424 15.2698C17.3424 16.561 16.2913 17.6117 15 17.6117C13.7088 17.6117 12.6577 16.561 12.6577 15.2698ZM27.0166 6.99602C27.8668 6.26433 28.4175 5.1942 28.4175 3.98739C28.4175 1.78939 26.6289 0 24.4305 0C22.2321 0 20.4435 1.78939 20.4435 3.98739C20.4435 5.19311 20.9932 6.2625 21.8418 6.99419C21.3788 7.23906 20.9373 7.52816 20.552 7.90204C19.7714 8.66115 20.9215 9.83909 21.6978 9.08218C22.4288 8.36976 23.4098 7.97198 24.4305 7.97404C26.5945 7.97404 28.3554 9.73529 28.3554 11.8993C28.3554 12.9877 30.0001 12.9877 30.0001 11.8993C30.0001 9.76672 28.7815 7.93165 27.0166 6.99602ZM22.0885 3.98739C22.0885 2.69615 23.1393 1.64466 24.4309 1.64466C25.7225 1.64466 26.7732 2.69615 26.7732 3.98739C26.7732 5.27863 25.7225 6.32902 24.4309 6.32902C23.1393 6.32902 22.0885 5.27863 22.0885 3.98739ZM8.29969 9.07999C9.08693 9.83763 10.2228 8.65201 9.44437 7.89802C9.05988 7.5256 8.61985 7.23797 8.15825 6.99419C9.00689 6.2625 9.55621 5.19347 9.55621 3.98775C9.55621 1.78939 7.76755 0 5.56955 0C3.37155 0 1.58253 1.78939 1.58253 3.98739C1.58253 5.1942 2.13331 6.26433 2.98341 6.99602C1.21851 7.93165 0 9.76636 0 11.8989C0 12.9873 1.64466 12.9873 1.64466 11.8989C1.64466 9.73493 3.40554 7.97368 5.56955 7.97368C6.59399 7.97368 7.56361 8.36693 8.29969 9.07999ZM3.22719 3.98739C3.22719 2.69615 4.27794 1.64466 5.56955 1.64466C6.86116 1.64466 7.91191 2.69615 7.91191 3.98739C7.91191 5.27863 6.86116 6.32902 5.56955 6.32902C4.27794 6.32902 3.22719 5.27863 3.22719 3.98739Z" fill="#7A7A7A"/>
<path d="M23.3644 23.8563C25.7681 20.0371 25.316 14.9218 21.9931 11.5996C18.1373 7.74268 11.8627 7.74268 8.00688 11.5996C4.1507 15.4554 4.1507 21.73 8.00688 25.5858C9.93479 27.5141 12.4676 28.4778 15 28.4778C16.8318 28.4778 18.6603 27.9662 20.2633 26.9574L23.3475 30.0413C23.7591 30.4518 24.3166 30.6823 24.8979 30.6823C25.4792 30.6823 26.0367 30.4518 26.4483 30.0413C26.8588 29.6298 27.0894 29.0723 27.0894 28.491C27.0894 27.9097 26.8588 27.3521 26.4483 26.9406L23.3644 23.8563ZM9.16984 24.4225C5.95508 21.2081 5.95508 15.9766 9.16984 12.7622C10.7769 11.1552 12.8886 10.3507 15 10.3507C17.1114 10.3507 19.2231 11.1548 20.8301 12.7622C24.0449 15.9766 24.0449 21.2081 20.8301 24.4225C17.6157 27.6369 12.3842 27.6369 9.16984 24.4225ZM24.5101 28.878L21.5856 25.9538C22.102 25.4911 21.9002 25.6929 22.3607 25.1786L25.2853 28.1028C25.7988 28.6171 25.0207 29.3908 24.5101 28.878Z" fill="#7A7A7A"/>
</svg>
