<svg width="31" height="31" viewBox="0 0 31 31" fill="none" xmlns="http://www.w3.org/2000/svg">
<path d="M17.8362 18.2788C18.6863 17.5471 19.2371 16.4769 19.2371 15.2701C19.2371 13.0718 17.4484 11.2827 15.25 11.2827C13.0517 11.2827 11.263 13.0721 11.263 15.2701C11.263 16.4769 11.8138 17.5471 12.6639 18.2788C10.899 19.2144 9.68048 21.0491 9.68048 23.1817C9.68048 24.2701 11.3251 24.2701 11.3251 23.1817C11.3251 21.0177 13.086 19.2564 15.25 19.2564C17.414 19.2564 19.1749 21.0177 19.1749 23.1817C19.1749 24.2701 20.8196 24.2701 20.8196 23.1817C20.8196 21.0491 19.6011 19.2144 17.8362 18.2788ZM12.9077 15.2698C12.9077 13.9785 13.9584 12.927 15.25 12.927C16.5416 12.927 17.5924 13.9785 17.5924 15.2698C17.5924 16.561 16.5413 17.6117 15.25 17.6117C13.9588 17.6117 12.9077 16.561 12.9077 15.2698ZM27.2666 6.99602C28.1168 6.26433 28.6675 5.1942 28.6675 3.98739C28.6675 1.78939 26.8789 0 24.6805 0C22.4821 0 20.6935 1.78939 20.6935 3.98739C20.6935 5.19311 21.2432 6.2625 22.0918 6.99419C21.6288 7.23906 21.1873 7.52816 20.802 7.90204C20.0214 8.66115 21.1715 9.83909 21.9478 9.08218C22.6788 8.36976 23.6598 7.97198 24.6805 7.97404C26.8445 7.97404 28.6054 9.73529 28.6054 11.8993C28.6054 12.9877 30.2501 12.9877 30.2501 11.8993C30.2501 9.76672 29.0315 7.93165 27.2666 6.99602ZM22.3385 3.98739C22.3385 2.69615 23.3893 1.64466 24.6809 1.64466C25.9725 1.64466 27.0232 2.69615 27.0232 3.98739C27.0232 5.27863 25.9725 6.32902 24.6809 6.32902C23.3893 6.32902 22.3385 5.27863 22.3385 3.98739ZM8.54969 9.07999C9.33693 9.83763 10.4728 8.65201 9.69437 7.89802C9.30988 7.5256 8.86985 7.23797 8.40825 6.99419C9.25689 6.2625 9.80621 5.19347 9.80621 3.98775C9.80621 1.78939 8.01755 0 5.81955 0C3.62155 0 1.83253 1.78939 1.83253 3.98739C1.83253 5.1942 2.38331 6.26433 3.23341 6.99602C1.46851 7.93165 0.25 9.76636 0.25 11.8989C0.25 12.9873 1.89466 12.9873 1.89466 11.8989C1.89466 9.73493 3.65554 7.97368 5.81955 7.97368C6.84399 7.97368 7.81361 8.36693 8.54969 9.07999ZM3.47719 3.98739C3.47719 2.69615 4.52794 1.64466 5.81955 1.64466C7.11116 1.64466 8.16191 2.69615 8.16191 3.98739C8.16191 5.27863 7.11116 6.32902 5.81955 6.32902C4.52794 6.32902 3.47719 5.27863 3.47719 3.98739Z" fill="#D45B7A"/>
<path d="M23.6144 23.8563C26.0181 20.0371 25.566 14.9218 22.2431 11.5996C18.3873 7.74268 12.1127 7.74268 8.25688 11.5996C4.4007 15.4554 4.4007 21.73 8.25688 25.5858C10.1848 27.5141 12.7176 28.4778 15.25 28.4778C17.0818 28.4778 18.9103 27.9662 20.5133 26.9574L23.5975 30.0413C24.0091 30.4518 24.5666 30.6823 25.1479 30.6823C25.7292 30.6823 26.2867 30.4518 26.6983 30.0413C27.1088 29.6298 27.3394 29.0723 27.3394 28.491C27.3394 27.9097 27.1088 27.3521 26.6983 26.9406L23.6144 23.8563ZM9.41984 24.4225C6.20508 21.2081 6.20508 15.9766 9.41984 12.7622C11.0269 11.1552 13.1386 10.3507 15.25 10.3507C17.3614 10.3507 19.4731 11.1548 21.0801 12.7622C24.2949 15.9766 24.2949 21.2081 21.0801 24.4225C17.8657 27.6369 12.6342 27.6369 9.41984 24.4225ZM24.7601 28.878L21.8356 25.9538C22.352 25.4911 22.1502 25.6929 22.6107 25.1786L25.5353 28.1028C26.0488 28.6171 25.2707 29.3908 24.7601 28.878Z" fill="#D45B7A"/>
</svg>
