<svg width="24" height="24" viewBox="0 0 24 24" fill="none" xmlns="http://www.w3.org/2000/svg">
<path d="M9 14C9 15.1073 9.89055 16 10.997 16H13.2549C14.2174 16 15 15.2189 15 14.2575C15 13.2103 14.5232 12.8412 13.8126 12.6009L10.1874 11.3991C9.47676 11.1588 9 10.7897 9 9.74249C9 8.78112 9.78261 8 10.7451 8H13.003C14.1094 8 15 8.8927 15 10" stroke="#001D6E" stroke-linecap="round" stroke-linejoin="round"/>
<path d="M12 7V17" stroke="#001D6E" stroke-linecap="round" stroke-linejoin="round"/>
<path d="M14.7 21H9.3C4.8 21 3 19.2 3 14.7V9.3C3 4.8 4.8 3 9.3 3H14.7C19.2 3 21 4.8 21 9.3V14.7C21 19.2 19.2 21 14.7 21Z" stroke="#001D6E" stroke-linecap="round" stroke-linejoin="round"/>
</svg>
