<svg width="10" height="13" viewBox="0 0 10 13" fill="none" xmlns="http://www.w3.org/2000/svg">
<path d="M4.70811 0C2.11205 0 0 2.11205 0 4.70809C0 7.92986 4.2133 12.6596 4.39268 12.8594C4.56118 13.047 4.85535 13.0467 5.02354 12.8594C5.20293 12.6596 9.41623 7.92986 9.41623 4.70809C9.41617 2.11205 7.30415 0 4.70811 0ZM4.70811 7.07686C3.40197 7.07686 2.33937 6.01423 2.33937 4.70809C2.33937 3.40194 3.40199 2.33934 4.70811 2.33934C6.01423 2.33934 7.07683 3.40197 7.07683 4.70811C7.07683 6.01426 6.01423 7.07686 4.70811 7.07686Z" fill="#7A7A7A"/>
</svg>
