<svg width="21" height="21" viewBox="0 0 21 21" fill="none" xmlns="http://www.w3.org/2000/svg">
<path d="M5.17969 8.62852V6.90303C5.17969 4.04735 6.04243 1.72656 10.3562 1.72656C14.6699 1.72656 15.5326 4.04735 15.5326 6.90303V8.62852" stroke="#001D6E" stroke-linecap="round" stroke-linejoin="round"/>
<path d="M10.3522 15.9622C11.5434 15.9622 12.509 14.9965 12.509 13.8053C12.509 12.6141 11.5434 11.6484 10.3522 11.6484C9.16097 11.6484 8.19531 12.6141 8.19531 13.8053C8.19531 14.9965 9.16097 15.9622 10.3522 15.9622Z" stroke="#001D6E" stroke-linecap="round" stroke-linejoin="round"/>
<path d="M14.6677 18.9779H6.04029C2.58931 18.9779 1.72656 18.1152 1.72656 14.6642V12.9387C1.72656 9.48775 2.58931 8.625 6.04029 8.625H14.6677C18.1187 8.625 18.9815 9.48775 18.9815 12.9387V14.6642C18.9815 18.1152 18.1187 18.9779 14.6677 18.9779Z" stroke="#001D6E" stroke-linecap="round" stroke-linejoin="round"/>
</svg>
