<svg width="150" height="30" viewBox="0 0 150 30" fill="none" xmlns="http://www.w3.org/2000/svg">
<path d="M36.876 0H31.416L26.124 17.724L21.672 11.55L20.832 10.374L18.438 7.098L16.044 10.374L15.204 11.55L10.752 17.724L5.46 0H0L6.846 23.058L8.736 29.358L12.6 24.024L18.396 16.002L24.234 24.024L28.098 29.4L36.876 0Z" fill="#001D6E"/>
<path d="M66.15 0V10.668H47.25V0H42V29.4H47.25V15.918H66.15V29.4H71.4V0H66.15Z" fill="#B7E5FF"/>
<path d="M81.2618 29.4V0H76.0118V29.4H81.2618Z" fill="#B7E5FF"/>
<path d="M96.6174 24.108L100.565 19.026L103.883 14.742L111.191 5.25L115.265 0H85.9494V5.25H104.639L97.2894 14.742L90.0654 24.108L86.0334 29.358L85.9914 29.4H92.6274L92.6694 29.358H115.391V24.108H96.6174Z" fill="#B7E5FF"/>
<path d="M130.629 24.108L134.577 19.026L137.895 14.742L145.203 5.25L149.277 0H119.961V5.25H138.651L131.301 14.742L124.077 24.108L120.045 29.358L120.003 29.4H126.639L126.681 29.358H149.403V24.108H130.629Z" fill="#B7E5FF"/>
</svg>
