<svg width="24" height="24" viewBox="0 0 24 24" fill="none" xmlns="http://www.w3.org/2000/svg">
<path d="M12.0206 3.62695C8.9717 3.62695 6.49393 6.10473 6.49393 9.15358V11.8156C6.49393 12.3775 6.25444 13.2341 5.9689 13.7131L4.90962 15.4724C4.25564 16.5593 4.70698 17.7659 5.90442 18.1712C9.87438 19.4976 14.1575 19.4976 18.1275 18.1712C19.242 17.8028 19.7302 16.4856 19.1223 15.4724L18.063 13.7131C17.7867 13.2341 17.5472 12.3775 17.5472 11.8156V9.15358C17.5472 6.11394 15.0602 3.62695 12.0206 3.62695Z" stroke="#001D6E" stroke-width="1.2" stroke-miterlimit="10" stroke-linecap="round"/>
<path d="M13.7245 3.89497C13.439 3.81207 13.1442 3.74759 12.8402 3.71075C11.956 3.60021 11.1086 3.66469 10.3164 3.89497C10.5835 3.21335 11.2467 2.73438 12.0205 2.73438C12.7942 2.73438 13.4574 3.21335 13.7245 3.89497Z" stroke="#001D6E" stroke-width="1.2" stroke-miterlimit="10" stroke-linecap="round" stroke-linejoin="round"/>
<path d="M14.7844 18.5039C14.7844 20.0237 13.541 21.2672 12.0211 21.2672C11.2658 21.2672 10.5658 20.954 10.0684 20.4566C9.57099 19.9593 9.25781 19.2592 9.25781 18.5039" stroke="#001D6E" stroke-width="1.2" stroke-miterlimit="10"/>
</svg>
