<svg width="20" height="24" viewBox="0 0 20 24" fill="none" xmlns="http://www.w3.org/2000/svg">
<path d="M12.3017 3.48726H11.4645C11.4645 3.84447 11.6922 4.1626 12.0305 4.27981L12.3017 3.48726ZM7.2338 3.48726L7.50506 4.27981C7.67027 4.22323 7.81365 4.11641 7.91513 3.97429C8.01662 3.83218 8.07112 3.66189 8.07101 3.48726H7.2338ZM13.9002 21.2249C13.9416 21.1214 13.962 21.0107 13.96 20.8993C13.9581 20.7878 13.9339 20.6779 13.8889 20.5759C13.844 20.4739 13.779 20.3819 13.698 20.3054C13.617 20.2288 13.5215 20.1692 13.4172 20.13C13.3128 20.0908 13.2017 20.0729 13.0903 20.0772C12.9789 20.0816 12.8695 20.1081 12.7685 20.1553C12.6675 20.2025 12.577 20.2694 12.5022 20.3521C12.4274 20.4347 12.3699 20.5315 12.333 20.6367L13.9002 21.2249ZM7.20255 20.6367C7.16645 20.5305 7.10941 20.4327 7.0348 20.3491C6.9602 20.2654 6.86955 20.1975 6.76823 20.1496C6.66691 20.1016 6.557 20.0745 6.44499 20.0698C6.33299 20.0651 6.22119 20.0829 6.11621 20.1222C6.01123 20.1616 5.91523 20.2216 5.83388 20.2987C5.75253 20.3758 5.68751 20.4685 5.64265 20.5713C5.5978 20.674 5.57404 20.7847 5.57277 20.8968C5.57151 21.0089 5.59277 21.1201 5.63529 21.2238L7.20255 20.6367ZM16.2165 17.8605H3.31901V19.5349H16.2165V17.8605ZM15.9006 8.71814L16.3996 13.1163L18.0628 12.9265L17.565 8.52837L15.9006 8.71814ZM3.13483 13.1163L3.63492 8.71814L1.97166 8.52837L1.47157 12.9265L3.13483 13.1163ZM1.9739 15.7485C2.61503 15.0066 3.01859 14.0899 3.13483 13.1163L1.47157 12.9265C1.39363 13.5695 1.12498 14.1745 0.700222 14.6634L1.9739 15.7485ZM16.3996 13.1163C16.5101 14.0819 16.9175 14.9916 17.5616 15.7485L18.8364 14.6634C18.4119 14.1748 18.1432 13.5702 18.0651 12.9276L16.3996 13.1163ZM3.31901 17.8605C2.58785 17.8605 2.0699 17.4988 1.83213 17.0791C1.60106 16.6716 1.60329 16.1838 1.9739 15.7485L0.700222 14.6634C-0.154847 15.667 -0.181638 16.925 0.375385 17.9051C0.922362 18.8696 2.0085 19.5349 3.31901 19.5349V17.8605ZM16.2165 19.5349C17.5259 19.5349 18.612 18.8696 19.1601 17.9051C19.716 16.925 19.6904 15.667 18.8364 14.6634L17.5616 15.7485C17.9322 16.1838 17.9345 16.6716 17.7034 17.078C17.4656 17.4988 16.9477 17.8605 16.2165 17.8605V19.5349ZM13.1389 3.48726V3.37116H11.4645V3.48726H13.1389ZM17.565 8.52837C17.2524 5.78233 15.2163 3.6 12.573 2.6947L12.0305 4.27981C14.1704 5.01209 15.674 6.72112 15.9006 8.71814L17.565 8.52837ZM8.07101 3.48726V3.37116H6.39659V3.48726H8.07101ZM3.63492 8.71814C3.86152 6.72112 5.36515 5.01321 7.50506 4.27981L6.96255 2.6947C4.3192 3.59888 2.28199 5.78233 1.97055 8.52949L3.63492 8.71814ZM9.76776 1.67442C10.7054 1.67442 11.4645 2.43349 11.4645 3.37116H13.1389C13.1389 2.47707 12.7837 1.61961 12.1515 0.987391C11.5193 0.355175 10.6618 0 9.76776 0V1.67442ZM9.76776 0C8.87367 0 8.0162 0.355175 7.38399 0.987391C6.75177 1.61961 6.39659 2.47707 6.39659 3.37116H8.07101C8.07101 2.43349 8.83008 1.67442 9.76776 1.67442V0ZM12.333 20.6367C11.9724 21.5967 10.9789 22.3256 9.76776 22.3256V24C11.6487 24 13.2863 22.8647 13.9002 21.2249L12.333 20.6367ZM9.76776 22.3256C8.55659 22.3256 7.56311 21.5978 7.20255 20.6367L5.63529 21.2238C6.24925 22.8647 7.88571 24 9.76776 24V22.3256Z" fill="white"/>
</svg>
