<svg width="27" height="28" viewBox="0 0 27 28" fill="none" xmlns="http://www.w3.org/2000/svg">
<path d="M13.5002 21.2162C13.0926 21.2162 12.7617 20.8853 12.7617 20.4777V17.6483C12.7617 17.2406 13.0926 16.9098 13.5002 16.9098C13.9079 16.9098 14.2387 17.2406 14.2387 17.6483V20.4777C14.2387 20.8853 13.9079 21.2162 13.5002 21.2162ZM13.5002 12.9472C13.0926 12.9472 12.7617 12.6164 12.7617 12.2087V6.42528C12.7617 6.01762 13.0926 5.68677 13.5002 5.68677C13.9079 5.68677 14.2387 6.01762 14.2387 6.42528V12.2087C14.2387 12.6164 13.9079 12.9472 13.5002 12.9472Z" fill="#7A7A7A"/>
<path d="M23.0524 12.9473C22.6447 12.9473 22.3139 12.6164 22.3139 12.2088V11.0892C22.3139 10.5191 21.8501 10.0553 21.28 10.0553H5.72041C5.15028 10.0553 4.6865 10.5191 4.6865 11.0892V12.2088C4.6865 12.6164 4.35564 12.9473 3.94798 12.9473C3.54033 12.9473 3.20947 12.6164 3.20947 12.2088V11.0892C3.20947 9.70492 4.33615 8.57825 5.72041 8.57825H21.2806C22.6648 8.57825 23.7915 9.70492 23.7915 11.0892V12.2088C23.7915 12.6164 23.4607 12.9473 23.053 12.9473H23.0524Z" fill="#7A7A7A"/>
<path d="M14.9363 27.2466H12.0632C10.6789 27.2466 9.55225 26.1199 9.55225 24.7356V22.2501C9.55225 20.8658 10.6789 19.7391 12.0632 19.7391H14.9363C16.3206 19.7391 17.4472 20.8658 17.4472 22.2501V24.7356C17.4472 26.1199 16.3206 27.2466 14.9363 27.2466ZM12.0632 21.2162C11.4931 21.2162 11.0293 21.6799 11.0293 22.2501V24.7356C11.0293 25.3057 11.4931 25.7695 12.0632 25.7695H14.9363C15.5064 25.7695 15.9702 25.3057 15.9702 24.7356V22.2501C15.9702 21.6799 15.5064 21.2162 14.9363 21.2162H12.0632Z" fill="#7A7A7A"/>
<path d="M17.8909 7.16319H9.10909C7.72482 7.16319 6.59814 6.03652 6.59814 4.65225V2.75752C6.59814 1.37326 7.72482 0.246582 9.10909 0.246582H17.8909C19.2751 0.246582 20.4018 1.37326 20.4018 2.75752V4.65225C20.4018 6.03652 19.2751 7.16319 17.8909 7.16319ZM9.10909 1.72361C8.53895 1.72361 8.07517 2.18739 8.07517 2.75752V4.65225C8.07517 5.22238 8.53895 5.68617 9.10909 5.68617H17.8909C18.461 5.68617 18.9248 5.22238 18.9248 4.65225V2.75752C18.9248 2.18739 18.461 1.72361 17.8909 1.72361H9.10909Z" fill="#7A7A7A"/>
<path d="M5.38405 18.3868H2.51094C1.12667 18.3868 0 17.2601 0 15.8759V13.9812C0 12.5969 1.12667 11.4702 2.51094 11.4702H5.38405C6.76831 11.4702 7.89499 12.5969 7.89499 13.9812V15.8759C7.89499 17.2601 6.76831 18.3868 5.38405 18.3868ZM2.51094 12.9472C1.94081 12.9472 1.47702 13.411 1.47702 13.9812V15.8759C1.47702 16.446 1.94081 16.9098 2.51094 16.9098H5.38405C5.95418 16.9098 6.41797 16.446 6.41797 15.8759V13.9812C6.41797 13.411 5.95418 12.9472 5.38405 12.9472H2.51094Z" fill="#7A7A7A"/>
<path d="M14.9363 18.3868H12.0632C10.6789 18.3868 9.55225 17.2601 9.55225 15.8759V13.9812C9.55225 12.5969 10.6789 11.4702 12.0632 11.4702H14.9363C16.3206 11.4702 17.4472 12.5969 17.4472 13.9812V15.8759C17.4472 17.2601 16.3206 18.3868 14.9363 18.3868ZM12.0632 12.9472C11.4931 12.9472 11.0293 13.411 11.0293 13.9812V15.8759C11.0293 16.446 11.4931 16.9098 12.0632 16.9098H14.9363C15.5064 16.9098 15.9702 16.446 15.9702 15.8759V13.9812C15.9702 13.411 15.5064 12.9472 14.9363 12.9472H12.0632Z" fill="#7A7A7A"/>
<path d="M24.489 18.3868H21.6159C20.2317 18.3868 19.105 17.2601 19.105 15.8759V13.9812C19.105 12.5969 20.2317 11.4702 21.6159 11.4702H24.489C25.8733 11.4702 27 12.5969 27 13.9812V15.8759C27 17.2601 25.8733 18.3868 24.489 18.3868ZM21.6159 12.9472C21.0458 12.9472 20.582 13.411 20.582 13.9812V15.8759C20.582 16.446 21.0458 16.9098 21.6159 16.9098H24.489C25.0592 16.9098 25.5229 16.446 25.5229 15.8759V13.9812C25.5229 13.411 25.0592 12.9472 24.489 12.9472H21.6159Z" fill="#7A7A7A"/>
</svg>
