<svg width="40" height="40" viewBox="0 0 40 40" fill="none" xmlns="http://www.w3.org/2000/svg">
<path d="M35.6249 39.3749H29.3749C29.2091 39.3749 29.0501 39.309 28.9329 39.1918C28.8157 39.0746 28.7499 38.9156 28.7499 38.7499V26.6124C28.7499 26.4466 28.8157 26.2876 28.9329 26.1704C29.0501 26.0532 29.2091 25.9874 29.3749 25.9874C29.5406 25.9874 29.6996 26.0532 29.8168 26.1704C29.934 26.2876 29.9999 26.4466 29.9999 26.6124V38.1249H34.9999V11.8749C34.9999 11.7091 35.0657 11.5501 35.1829 11.4329C35.3001 11.3157 35.4591 11.2499 35.6249 11.2499H37.2411L32.4999 6.50862L27.7586 11.2499H29.3749C29.5406 11.2499 29.6996 11.3157 29.8168 11.4329C29.934 11.5501 29.9999 11.7091 29.9999 11.8749V19.6374C29.9999 19.8031 29.934 19.9621 29.8168 20.0793C29.6996 20.1965 29.5406 20.2624 29.3749 20.2624C29.2091 20.2624 29.0501 20.1965 28.9329 20.0793C28.8157 19.9621 28.7499 19.8031 28.7499 19.6374V12.4999H26.2499C26.1263 12.4998 26.0055 12.4632 25.9027 12.3945C25.7999 12.3258 25.7199 12.2282 25.6726 12.114C25.6253 11.9998 25.6129 11.8742 25.637 11.753C25.6611 11.6318 25.7206 11.5204 25.808 11.433L32.058 5.18299C32.1752 5.06582 32.3341 5 32.4999 5C32.6656 5 32.8245 5.06582 32.9417 5.18299L39.1917 11.433C39.2791 11.5204 39.3386 11.6318 39.3627 11.753C39.3868 11.8742 39.3745 11.9998 39.3272 12.114C39.2799 12.2282 39.1998 12.3258 39.097 12.3945C38.9943 12.4632 38.8735 12.4998 38.7499 12.4999H36.2499V38.7499C36.2499 38.9156 36.184 39.0746 36.0668 39.1918C35.9496 39.309 35.7906 39.3749 35.6249 39.3749Z" fill="#3D423C"/>
<path d="M10.6249 39.3749H4.37487C4.20911 39.3749 4.05014 39.309 3.93293 39.1918C3.81571 39.0746 3.74987 38.9156 3.74987 38.7499V12.4999H1.24987C1.12627 12.4998 1.00546 12.4632 0.902705 12.3945C0.799949 12.3258 0.719862 12.2282 0.672568 12.114C0.625274 11.9998 0.612897 11.8742 0.637002 11.753C0.661107 11.6318 0.720611 11.5204 0.807992 11.433L7.05799 5.18299C7.1752 5.06582 7.33414 5 7.49987 5C7.66559 5 7.82454 5.06582 7.94174 5.18299L14.1917 11.433C14.2791 11.5204 14.3386 11.6318 14.3627 11.753C14.3868 11.8742 14.3745 11.9998 14.3272 12.114C14.2799 12.2282 14.1998 12.3258 14.097 12.3945C13.9943 12.4632 13.8735 12.4998 13.7499 12.4999H11.2499V19.6374C11.2499 19.8031 11.184 19.9621 11.0668 20.0793C10.9496 20.1965 10.7906 20.2624 10.6249 20.2624C10.4591 20.2624 10.3001 20.1965 10.1829 20.0793C10.0657 19.9621 9.99987 19.8031 9.99987 19.6374V11.8749C9.99987 11.7091 10.0657 11.5501 10.1829 11.4329C10.3001 11.3157 10.4591 11.2499 10.6249 11.2499H12.2411L7.49987 6.50862L2.75862 11.2499H4.37487C4.54063 11.2499 4.6996 11.3157 4.81681 11.4329C4.93402 11.5501 4.99987 11.7091 4.99987 11.8749V38.1249H9.99987V26.6124C9.99987 26.4466 10.0657 26.2876 10.1829 26.1704C10.3001 26.0532 10.4591 25.9874 10.6249 25.9874C10.7906 25.9874 10.9496 26.0532 11.0668 26.1704C11.184 26.2876 11.2499 26.4466 11.2499 26.6124V38.7499C11.2499 38.9156 11.184 39.0746 11.0668 39.1918C10.9496 39.309 10.7906 39.3749 10.6249 39.3749Z" fill="#3D423C"/>
<path d="M23.1249 14.2499C22.9591 14.2499 22.8001 14.184 22.6829 14.0668C22.5657 13.9496 22.4999 13.7906 22.4999 13.6249V7.49987C22.4999 7.33411 22.5657 7.17514 22.6829 7.05792C22.8001 6.94071 22.9591 6.87487 23.1249 6.87487H24.7411L19.9999 2.13362L15.2586 6.87487H16.8749C17.0406 6.87487 17.1996 6.94071 17.3168 7.05792C17.434 7.17514 17.4999 7.33411 17.4999 7.49987V13.6249C17.4999 13.7906 17.434 13.9496 17.3168 14.0668C17.1996 14.184 17.0406 14.2499 16.8749 14.2499C16.7091 14.2499 16.5501 14.184 16.4329 14.0668C16.3157 13.9496 16.2499 13.7906 16.2499 13.6249V8.12487H13.7499C13.6263 8.12484 13.5055 8.08817 13.4027 8.01949C13.2999 7.95081 13.2199 7.85321 13.1726 7.73903C13.1253 7.62484 13.1129 7.49919 13.137 7.37797C13.1611 7.25675 13.2206 7.1454 13.308 7.05799L19.558 0.807992C19.6752 0.690822 19.8341 0.625 19.9999 0.625C20.1656 0.625 20.3245 0.690822 20.4417 0.807992L26.6917 7.05799C26.7791 7.1454 26.8386 7.25675 26.8627 7.37797C26.8868 7.49919 26.8745 7.62484 26.8272 7.73903C26.7799 7.85321 26.6998 7.95081 26.597 8.01949C26.4943 8.08817 26.3735 8.12484 26.2499 8.12487H23.7499V13.6249C23.7499 13.7906 23.684 13.9496 23.5668 14.0668C23.4496 14.184 23.2906 14.2499 23.1249 14.2499Z" fill="#3D423C"/>
<path d="M23.125 39.375H16.875C16.7092 39.375 16.5503 39.3092 16.4331 39.1919C16.3158 39.0747 16.25 38.9158 16.25 38.75V32.625C16.25 32.4592 16.3158 32.3003 16.4331 32.1831C16.5503 32.0658 16.7092 32 16.875 32C17.0408 32 17.1997 32.0658 17.3169 32.1831C17.4342 32.3003 17.5 32.4592 17.5 32.625V38.125H22.5V32.625C22.5 32.4592 22.5658 32.3003 22.6831 32.1831C22.8003 32.0658 22.9592 32 23.125 32C23.2908 32 23.4497 32.0658 23.5669 32.1831C23.6842 32.3003 23.75 32.4592 23.75 32.625V38.75C23.75 38.9158 23.6842 39.0747 23.5669 39.1919C23.4497 39.3092 23.2908 39.375 23.125 39.375Z" fill="#3D423C"/>
<path d="M16.8749 26.8751C16.7513 26.8751 16.6305 26.8384 16.5277 26.7698C16.4249 26.7011 16.3449 26.6035 16.2976 26.4893C16.2503 26.3751 16.2379 26.2495 16.262 26.1282C16.2861 26.007 16.3456 25.8957 16.433 25.8083L22.683 19.5583C22.8009 19.4444 22.9587 19.3814 23.1226 19.3828C23.2865 19.3843 23.4432 19.45 23.5591 19.5659C23.675 19.6818 23.7407 19.8385 23.7422 20.0024C23.7436 20.1663 23.6806 20.3241 23.5667 20.442L17.3167 26.692C17.1996 26.8092 17.0406 26.8751 16.8749 26.8751Z" fill="#3D423C"/>
<path d="M17.5 22.5C17.1292 22.5 16.7666 22.39 16.4583 22.184C16.15 21.978 15.9096 21.6851 15.7677 21.3425C15.6258 20.9999 15.5887 20.6229 15.661 20.2592C15.7334 19.8955 15.912 19.5614 16.1742 19.2992C16.4364 19.037 16.7705 18.8584 17.1342 18.786C17.4979 18.7137 17.8749 18.7508 18.2175 18.8927C18.5601 19.0346 18.853 19.275 19.059 19.5833C19.265 19.8916 19.375 20.2542 19.375 20.625C19.375 21.1223 19.1775 21.5992 18.8258 21.9508C18.4742 22.3025 17.9973 22.5 17.5 22.5ZM17.5 20C17.3764 20 17.2556 20.0367 17.1528 20.1053C17.05 20.174 16.9699 20.2716 16.9226 20.3858C16.8753 20.5 16.8629 20.6257 16.887 20.7469C16.9111 20.8682 16.9707 20.9795 17.0581 21.0669C17.1455 21.1544 17.2568 21.2139 17.3781 21.238C17.4993 21.2621 17.625 21.2497 17.7392 21.2024C17.8534 21.1551 17.951 21.075 18.0197 20.9722C18.0883 20.8695 18.125 20.7486 18.125 20.625C18.125 20.4592 18.0592 20.3003 17.9419 20.1831C17.8247 20.0658 17.6658 20 17.5 20Z" fill="#3D423C"/>
<path d="M22.5 27.5C22.1292 27.5 21.7666 27.39 21.4583 27.184C21.15 26.978 20.9096 26.6851 20.7677 26.3425C20.6258 25.9999 20.5887 25.6229 20.661 25.2592C20.7334 24.8955 20.912 24.5614 21.1742 24.2992C21.4364 24.037 21.7705 23.8584 22.1342 23.786C22.4979 23.7137 22.8749 23.7508 23.2175 23.8927C23.5601 24.0346 23.853 24.275 24.059 24.5833C24.265 24.8916 24.375 25.2542 24.375 25.625C24.375 26.1223 24.1775 26.5992 23.8258 26.9508C23.4742 27.3025 22.9973 27.5 22.5 27.5ZM22.5 25C22.3764 25 22.2556 25.0367 22.1528 25.1053C22.05 25.174 21.9699 25.2716 21.9226 25.3858C21.8753 25.5 21.8629 25.6257 21.887 25.7469C21.9111 25.8682 21.9707 25.9795 22.0581 26.0669C22.1455 26.1544 22.2568 26.2139 22.3781 26.238C22.4993 26.2621 22.625 26.2497 22.7392 26.2024C22.8534 26.1551 22.951 26.075 23.0197 25.9722C23.0883 25.8695 23.125 25.7486 23.125 25.625C23.125 25.4592 23.0592 25.3003 22.9419 25.1831C22.8247 25.0658 22.6658 25 22.5 25Z" fill="#3D423C"/>
<path d="M20 33.75C17.8986 33.75 15.8443 33.1269 14.0971 31.9594C12.3498 30.7919 10.988 29.1325 10.1838 27.191C9.3796 25.2496 9.16919 23.1132 9.57916 21.0522C9.98913 18.9911 11.0011 17.0979 12.487 15.612C13.9729 14.1261 15.8661 13.1141 17.9272 12.7042C19.9882 12.2942 22.1246 12.5046 24.066 13.3088C26.0075 14.113 27.6669 15.4748 28.8344 17.2221C30.0019 18.9693 30.625 21.0236 30.625 23.125C30.6219 25.942 29.5014 28.6427 27.5095 30.6345C25.5177 32.6264 22.817 33.7469 20 33.75ZM20 13.75C18.1458 13.75 16.3332 14.2998 14.7915 15.33C13.2498 16.3601 12.0482 17.8243 11.3386 19.5373C10.6291 21.2504 10.4434 23.1354 10.8051 24.954C11.1669 26.7725 12.0598 28.443 13.3709 29.7541C14.682 31.0652 16.3525 31.9581 18.171 32.3199C19.9896 32.6816 21.8746 32.4959 23.5877 31.7864C25.3007 31.0768 26.7649 29.8752 27.795 28.3335C28.8252 26.7918 29.375 24.9792 29.375 23.125C29.3724 20.6394 28.3838 18.2564 26.6262 16.4988C24.8686 14.7412 22.4856 13.7527 20 13.75Z" fill="#3D423C"/>
</svg>
