<svg width="26" height="16" viewBox="0 0 26 16" fill="none" xmlns="http://www.w3.org/2000/svg">
<path d="M0.558937 7.51176C0.783201 7.20498 6.12669 0 12.9513 0C19.7759 0 25.1196 7.20498 25.3436 7.51147C25.4471 7.65328 25.5029 7.82431 25.5029 7.99988C25.5029 8.17546 25.4471 8.34649 25.3436 8.4883C25.1196 8.79508 19.7759 16.0001 12.9513 16.0001C6.12669 16.0001 0.783201 8.79503 0.558937 8.48855C0.455282 8.3468 0.399414 8.17575 0.399414 8.00015C0.399414 7.82455 0.455282 7.6535 0.558937 7.51176ZM12.9513 14.3449C17.9783 14.3449 22.3323 9.5628 23.6211 7.99947C22.3339 6.43476 17.9891 1.65517 12.9513 1.65517C7.92449 1.65517 3.57083 6.43642 2.28143 8.00059C3.56862 9.56525 7.91346 14.3449 12.9513 14.3449Z" fill="black"/>
<path d="M12.9514 3.03516C15.6894 3.03516 17.917 5.26276 17.917 8.00071C17.917 10.7387 15.6894 12.9663 12.9514 12.9663C10.2135 12.9663 7.98587 10.7387 7.98587 8.00071C7.98587 5.26276 10.2135 3.03516 12.9514 3.03516ZM12.9514 11.3111C14.7768 11.3111 16.2618 9.82607 16.2618 8.00071C16.2618 6.17536 14.7768 4.69037 12.9514 4.69037C11.1261 4.69037 9.64109 6.17536 9.64109 8.00071C9.64109 9.82607 11.126 11.3111 12.9514 11.3111Z" fill="black"/>
</svg>
