<svg width="24" height="27" viewBox="0 0 24 27" fill="none" xmlns="http://www.w3.org/2000/svg">
<path d="M8.37211 12.2488V14.6556C8.37211 15.3737 8.63672 16.0624 9.10775 16.5701C9.57877 17.0779 10.2176 17.3632 10.8837 17.3632H13.1163C13.7824 17.3632 14.4213 17.0779 14.8923 16.5701C15.3633 16.0624 15.6279 15.3737 15.6279 14.6556V12.2488C15.6279 11.5306 15.3633 10.8419 14.8923 10.3342C14.4213 9.82638 13.7824 9.54111 13.1163 9.54111H10.8837C10.2176 9.54111 9.57877 9.82638 9.10775 10.3342C8.63672 10.8419 8.37211 11.5306 8.37211 12.2488ZM10.0465 12.2488C10.0465 12.0093 10.1347 11.7794 10.2921 11.611C10.3697 11.527 10.4619 11.4603 10.5634 11.4149C10.6649 11.3695 10.7738 11.3461 10.8837 11.3462H13.1163C13.3384 11.3462 13.5517 11.4413 13.7079 11.611C13.8653 11.7794 13.9535 12.0093 13.9535 12.2488V14.6556C13.9535 14.895 13.8653 15.1249 13.7079 15.2934C13.6304 15.3773 13.5382 15.444 13.4366 15.4894C13.3351 15.5349 13.2262 15.5582 13.1163 15.5581H10.8837C10.7738 15.5582 10.6649 15.5349 10.5634 15.4894C10.4619 15.444 10.3697 15.3773 10.2921 15.2934C10.2142 15.2097 10.1524 15.1103 10.1102 15.0009C10.0681 14.8914 10.0464 14.7741 10.0465 14.6556V12.2488ZM0 3.22327V5.63007C0 6.34818 0.264618 7.03688 0.73564 7.54466C1.20666 8.05244 1.84551 8.33771 2.51163 8.33771H4.74419C5.41032 8.33771 6.04916 8.05244 6.52019 7.54466C6.99121 7.03688 7.25583 6.34818 7.25583 5.63007V3.22327C7.25583 2.50516 6.99121 1.81646 6.52019 1.30868C6.04916 0.800894 5.41032 0.515625 4.74419 0.515625H2.51163C1.84551 0.515625 1.20666 0.800894 0.73564 1.30868C0.264618 1.81646 0 2.50516 0 3.22327ZM1.67442 3.22327C1.67442 2.98379 1.76261 2.75395 1.92 2.58547C1.99756 2.50148 2.08976 2.43484 2.19129 2.38941C2.29283 2.34397 2.4017 2.32063 2.51163 2.32072H4.74419C4.96633 2.32072 5.17954 2.41579 5.33582 2.58547C5.49322 2.75395 5.5814 2.98379 5.5814 3.22327V5.63007C5.5814 5.86954 5.49322 6.09939 5.33582 6.26787C5.25827 6.35186 5.16607 6.41849 5.06453 6.46393C4.963 6.50937 4.85413 6.53271 4.74419 6.53262H2.51163C2.4017 6.53271 2.29283 6.50937 2.19129 6.46393C2.08976 6.41849 1.99756 6.35186 1.92 6.26787C1.84209 6.18426 1.78028 6.08486 1.73813 5.9754C1.69599 5.86594 1.67434 5.74858 1.67442 5.63007V3.22327ZM16.7442 21.2742V23.681C16.7442 24.3992 17.0088 25.0879 17.4799 25.5956C17.9509 26.1034 18.5897 26.3887 19.2558 26.3887H21.4884C22.1545 26.3887 22.7934 26.1034 23.2644 25.5956C23.7354 25.0879 24 24.3992 24 23.681V21.2742C24 20.5561 23.7354 19.8674 23.2644 19.3596C22.7934 18.8519 22.1545 18.5666 21.4884 18.5666H19.2558C18.5897 18.5666 17.9509 18.8519 17.4799 19.3596C17.0088 19.8674 16.7442 20.5561 16.7442 21.2742ZM18.4186 21.2742C18.4186 21.0348 18.5068 20.8049 18.6642 20.6364C18.7418 20.5524 18.834 20.4858 18.9355 20.4404C19.037 20.3949 19.1459 20.3716 19.2558 20.3717H21.4884C21.7105 20.3717 21.9238 20.4668 22.08 20.6364C22.2374 20.8049 22.3256 21.0348 22.3256 21.2742V23.681C22.3256 23.9205 22.2374 24.1504 22.08 24.3188C22.0025 24.4028 21.9103 24.4695 21.8087 24.5149C21.7072 24.5603 21.5983 24.5837 21.4884 24.5836H19.2558C19.1459 24.5837 19.037 24.5603 18.9355 24.5149C18.834 24.4695 18.7418 24.4028 18.6642 24.3188C18.5863 24.2352 18.5245 24.1358 18.4823 24.0264C18.4402 23.9169 18.4185 23.7996 18.4186 23.681V21.2742Z" fill="#D45B7A"/>
<path d="M6.41862 5.32853H20.9303C21.3002 5.32917 21.6547 5.48786 21.9163 5.76982C22.1778 6.05178 22.325 6.43403 22.3256 6.83278V11.0447C22.325 11.4434 22.1778 11.8257 21.9163 12.1076C21.6547 12.3896 21.3002 12.5483 20.9303 12.5489H17.5814C17.3594 12.5489 17.1464 12.644 16.9894 12.8133C16.8324 12.9825 16.7442 13.2121 16.7442 13.4515C16.7442 13.6908 16.8324 13.9204 16.9894 14.0897C17.1464 14.2589 17.3594 14.354 17.5814 14.354H20.9303C21.744 14.354 22.5254 14.005 23.1014 13.3853C23.6765 12.7641 23.9997 11.9223 24 11.0447V6.83278C24 5.9555 23.6763 5.11313 23.1014 4.49217C22.5252 3.87218 21.7444 3.52381 20.9303 3.52344H6.41862C6.19657 3.52344 5.98363 3.61853 5.82662 3.78779C5.66961 3.95705 5.5814 4.18662 5.5814 4.42599C5.5814 4.66536 5.66961 4.89492 5.82662 5.06418C5.98363 5.23344 6.19657 5.32853 6.41862 5.32853ZM13.1163 21.5744H3.06977C2.69988 21.5738 2.34531 21.4151 2.08376 21.1331C1.82221 20.8512 1.67501 20.4689 1.67442 20.0702V15.8583C1.67501 15.4595 1.82221 15.0773 2.08376 14.7953C2.34531 14.5133 2.69988 14.3547 3.06977 14.354H9.20932C9.43136 14.354 9.64431 14.2589 9.80131 14.0897C9.95832 13.9204 10.0465 13.6908 10.0465 13.4515C10.0465 13.2121 9.95832 12.9825 9.80131 12.8133C9.64431 12.644 9.43136 12.5489 9.20932 12.5489H3.06977C2.256 12.5489 1.47461 12.8979 0.898606 13.5177C0.323493 14.1389 0.000341822 14.9806 0 15.8583V20.0702C0 20.9474 0.323722 21.7898 0.898606 22.4108C1.47485 23.0308 2.25564 23.3791 3.06977 23.3795H13.1163C13.3383 23.3795 13.5513 23.2844 13.7083 23.1152C13.8653 22.9459 13.9535 22.7163 13.9535 22.477C13.9535 22.2376 13.8653 22.008 13.7083 21.8388C13.5513 21.6695 13.3383 21.5744 13.1163 21.5744Z" fill="#D45B7A"/>
<path d="M20.4056 15.2223L18.7658 13.4533L20.4056 11.6843C20.4833 11.6006 20.5449 11.5011 20.587 11.3917C20.629 11.2823 20.6507 11.165 20.6507 11.0465C20.6507 10.9281 20.629 10.8108 20.587 10.7013C20.5449 10.5919 20.4833 10.4925 20.4056 10.4087C20.3279 10.325 20.2357 10.2585 20.1342 10.2132C20.0327 10.1679 19.9239 10.1445 19.814 10.1445C19.7041 10.1445 19.5953 10.1679 19.4938 10.2132C19.3923 10.2585 19.3 10.325 19.2224 10.4087L16.9898 12.8155C16.912 12.8992 16.8503 12.9986 16.8082 13.1081C16.7662 13.2175 16.7445 13.3348 16.7445 13.4533C16.7445 13.5718 16.7662 13.6891 16.8082 13.7985C16.8503 13.908 16.912 14.0074 16.9898 14.0911L19.2224 16.4979C19.3 16.5817 19.3923 16.6481 19.4938 16.6934C19.5953 16.7388 19.7041 16.7621 19.814 16.7621C19.9239 16.7621 20.0327 16.7388 20.1342 16.6934C20.2357 16.6481 20.3279 16.5817 20.4056 16.4979C20.4833 16.4142 20.5449 16.3147 20.587 16.2053C20.629 16.0959 20.6507 15.9786 20.6507 15.8601C20.6507 15.7417 20.629 15.6244 20.587 15.5149C20.5449 15.4055 20.4833 15.3061 20.4056 15.2223ZM12.5916 25.5234L14.8242 23.1166C14.902 23.0329 14.9637 22.9335 15.0058 22.824C15.0479 22.7146 15.0695 22.5973 15.0695 22.4788C15.0695 22.3603 15.0479 22.243 15.0058 22.1336C14.9637 22.0241 14.902 21.9247 14.8242 21.841L12.5916 19.4342C12.4347 19.265 12.2219 19.17 12 19.17C11.7781 19.17 11.5653 19.265 11.4084 19.4342C11.2515 19.6034 11.1633 19.8328 11.1633 20.072C11.1633 20.3112 11.2515 20.5407 11.4084 20.7098L13.0482 22.4788L11.4084 24.2478C11.3307 24.3316 11.2691 24.431 11.227 24.5404C11.185 24.6499 11.1633 24.7671 11.1633 24.8856C11.1633 25.004 11.185 25.1213 11.227 25.2308C11.2691 25.3402 11.3307 25.4396 11.4084 25.5234C11.4861 25.6072 11.5783 25.6736 11.6798 25.7189C11.7813 25.7643 11.8901 25.7876 12 25.7876C12.1099 25.7876 12.2187 25.7643 12.3202 25.7189C12.4217 25.6736 12.514 25.6072 12.5916 25.5234Z" fill="#D45B7A"/>
</svg>
