<svg width="32" height="31" viewBox="0 0 32 31" fill="none" xmlns="http://www.w3.org/2000/svg">
<path d="M12.7731 4.86923H14.9577V7.05384H12.7731V4.86923ZM12.7731 9.63846H14.9577V11.8231H12.7731V9.63846ZM12.7731 14.4077H14.9577V16.5923H12.7731V14.4077ZM12.7731 19.1769H14.9577V21.3615H12.7731V19.1769ZM17.5423 4.86923H19.7269V7.05384H17.5423V4.86923ZM17.5423 9.63846H19.7269V11.8231H17.5423V9.63846ZM17.5423 14.4077H19.7269V16.5923H17.5423V14.4077ZM17.5423 19.1769H19.7269V21.3615H17.5423V19.1769Z" fill="#D45B7A" stroke="white" stroke-width="0.2"/>
<path d="M24.4962 28.6154V28.7154H24.5962H30.5577C30.8474 28.7154 31.1252 28.8305 31.3301 29.0353C31.5349 29.2402 31.65 29.518 31.65 29.8077C31.65 30.0974 31.5349 30.3752 31.3301 30.5801C31.1252 30.7849 30.8474 30.9 30.5577 30.9H1.94231C1.65261 30.9 1.37478 30.7849 1.16993 30.5801C0.965082 30.3752 0.85 30.0974 0.85 29.8077C0.85 29.518 0.965082 29.2402 1.16993 29.0353C1.37478 28.8305 1.65261 28.7154 1.94231 28.7154H3.13462H3.23462V28.6154V5.96154C3.23462 5.67184 3.3497 5.39401 3.55455 5.18916C3.75939 4.98431 4.03723 4.86923 4.32692 4.86923H7.90385H8.00385V4.76923V1.19231C8.00385 0.90261 8.11893 0.624777 8.32378 0.41993C8.52862 0.215082 8.80646 0.1 9.09615 0.1H23.4038C23.6935 0.1 23.9714 0.215082 24.1762 0.419929C24.3811 0.624777 24.4962 0.902609 24.4962 1.19231V4.76923V4.86923H24.5962H28.1731C28.4628 4.86923 28.7406 4.98431 28.9455 5.18916C29.1503 5.39401 29.2654 5.67184 29.2654 5.96154V25.0385C29.2654 25.3282 29.1503 25.606 28.9455 25.8108C28.7406 26.0157 28.4628 26.1308 28.1731 26.1308C27.8834 26.1308 27.6055 26.0157 27.4007 25.8108C27.1959 25.606 27.0808 25.3282 27.0808 25.0385V7.15385V7.05385H26.9808H24.5962H24.4962V7.15385V28.6154ZM5.51923 7.05385H5.41923V7.15385V28.6154V28.7154H5.51923H12.6731H12.7731V28.6154V25.0385C12.7731 24.7488 12.8882 24.4709 13.093 24.2661C13.2979 24.0612 13.5757 23.9462 13.8654 23.9462H18.6346C18.9243 23.9462 19.2021 24.0612 19.407 24.2661C19.6118 24.4709 19.7269 24.7488 19.7269 25.0385V28.6154V28.7154H19.8269H22.2115H22.3115V28.6154V2.38462V2.28462H22.2115H10.2885H10.1885V2.38462V25.0385C10.1885 25.3282 10.0734 25.606 9.86853 25.8108C9.66368 26.0157 9.38585 26.1308 9.09615 26.1308C8.80646 26.1308 8.52862 26.0157 8.32378 25.8108C8.11893 25.606 8.00385 25.3282 8.00385 25.0385V7.15385V7.05385H7.90385H5.51923ZM17.4423 28.7154H17.5423V28.6154V26.2308V26.1308H17.4423H15.0577H14.9577V26.2308V28.6154V28.7154H15.0577H17.4423Z" fill="#D45B7A" stroke="white" stroke-width="0.2"/>
</svg>
