<svg width="18" height="11" viewBox="0 0 18 11" fill="none" xmlns="http://www.w3.org/2000/svg">
<path d="M17.0938 0.746862L16.7529 4.0284C16.7135 4.38864 16.2718 4.54353 16.0184 4.29015L15.2135 3.48521L10.1448 8.55391C9.82693 8.87205 9.26674 8.87205 8.94887 8.55391L6.15709 5.76213L1.44027 10.4817C1.27674 10.6449 1.06006 10.7294 0.843379 10.7294C0.626697 10.7294 0.410014 10.6449 0.24703 10.4819C0.0888248 10.3231 0 10.108 0 9.88382C0 9.65963 0.0888248 9.44457 0.24703 9.28572L5.5602 3.97227C5.87835 3.65413 6.43854 3.65413 6.75371 3.97227L9.54819 6.76405L14.0203 2.29197L13.0774 1.34915C12.8214 1.09307 12.9762 0.651338 13.3365 0.614639L16.6178 0.2741C16.6817 0.267021 16.7464 0.274356 16.8071 0.295567C16.8679 0.316778 16.9231 0.351326 16.9687 0.396672C17.0143 0.442019 17.0492 0.497012 17.0708 0.557611C17.0924 0.618211 17.1004 0.682878 17.0938 0.746862Z" fill="#2A9F47"/>
</svg>
