<svg width="25" height="24" viewBox="0 0 25 24" fill="none" xmlns="http://www.w3.org/2000/svg">
<path d="M22.972 21.0534V21.0636H23.122C23.7674 21.0636 24.2914 21.5876 24.2914 22.233C24.2914 22.8784 23.7674 23.4024 23.122 23.4024H5.3465C2.50935 23.4024 0.208838 21.1018 0.208838 18.2647V1.50174C0.208838 0.856348 0.732813 0.332373 1.37821 0.332373C2.0236 0.332373 2.54758 0.856392 2.54758 1.50174L2.54757 18.2647L2.54758 18.2653C2.55407 19.8073 3.80437 21.0534 5.3465 21.0534H22.972Z" fill="#D45B7A" stroke="white" stroke-width="0.3"/>
<path d="M7.81818 14.8273V14.8141L7.67106 14.8112C7.42424 14.8065 7.18532 14.7234 6.98887 14.5739L6.98881 14.5738C6.47476 14.183 6.37424 13.4487 6.76482 12.9349L6.76492 12.9349L6.7685 12.9298L10.5372 7.51678C10.5405 7.5128 10.5436 7.50867 10.5465 7.50439C10.9352 6.9923 11.666 6.8905 12.1804 7.27745L16.5168 10.54L16.6411 10.6335L16.73 10.506L19.7969 6.11025C20.1852 5.59333 20.9184 5.48878 21.4366 5.8765C21.9552 6.26453 22.0605 6.99893 21.6724 7.5177L21.6723 7.51767L21.6699 7.52109L17.8296 12.965C17.826 12.9693 17.8225 12.9738 17.8193 12.9786C17.4305 13.4901 16.7001 13.5917 16.1859 13.2049C16.1859 13.2049 16.1859 13.2049 16.1859 13.2049L11.8494 9.94233L11.7252 9.84885L11.6362 9.97636L8.56931 14.3722C8.46377 14.5134 8.32775 14.6289 8.17138 14.7102C8.06034 14.768 7.94107 14.8074 7.81818 14.8273Z" fill="#D45B7A" stroke="white" stroke-width="0.3"/>
</svg>
