<svg width="18" height="17" viewBox="0 0 18 17" fill="none" xmlns="http://www.w3.org/2000/svg">
<path d="M17.7051 0.0660162C17.6663 0.0320271 17.6185 0.0100316 17.5674 0.00270263C17.5164 -0.0046263 17.4643 0.00302691 17.4176 0.0247322L0.153846 8.04595C0.108323 8.06713 0.0697203 8.10075 0.0424991 8.14294C0.0152779 8.18513 0.000549211 8.23415 1.50626e-05 8.28436C-0.000519086 8.33456 0.0131631 8.38389 0.0394806 8.42665C0.065798 8.46941 0.103677 8.50385 0.148739 8.52599L5.03435 10.9236C5.07833 10.9452 5.12741 10.9542 5.17619 10.9497C5.22497 10.9452 5.27154 10.9272 5.31078 10.8979L10.0609 7.34758L6.33186 11.1834C6.30557 11.2104 6.28532 11.2428 6.27248 11.2783C6.25964 11.3137 6.25449 11.3515 6.25738 11.3892L6.62867 16.2245C6.63269 16.2769 6.65213 16.327 6.68455 16.3683C6.71696 16.4097 6.7609 16.4405 6.81081 16.4569C6.86072 16.4733 6.91438 16.4746 6.96501 16.4605C7.01564 16.4465 7.06098 16.4178 7.0953 16.378L9.68842 13.3731L12.894 14.9047C12.9284 14.9212 12.9659 14.93 13.004 14.9307C13.0421 14.9313 13.0799 14.9238 13.1149 14.9086C13.1498 14.8934 13.1811 14.8709 13.2065 14.8426C13.232 14.8142 13.2511 14.7807 13.2625 14.7444L17.7834 0.345694C17.7989 0.296497 17.7997 0.243869 17.7858 0.194215C17.7719 0.144561 17.7438 0.100022 17.7051 0.0660162Z" fill="white"/>
</svg>
