<svg width="24" height="24" viewBox="0 0 24 24" fill="none" xmlns="http://www.w3.org/2000/svg">
<path d="M16 2H8C4 2 2 4 2 8V21C2 21.55 2.45 22 3 22H16C20 22 22 20 22 16V8C22 4 20 2 16 2Z" stroke="#C1C1C1" stroke-linecap="round" stroke-linejoin="round"/>
<path d="M12.9127 7.83991L7.72272 13.0299C7.52272 13.2299 7.33273 13.6199 7.29273 13.8999L7.01273 15.8799C6.91273 16.5999 7.41272 17.0999 8.13272 16.9999L10.1127 16.7199C10.3927 16.6799 10.7827 16.4899 10.9827 16.2899L16.1727 11.0999C17.0627 10.2099 17.4927 9.16991 16.1727 7.84991C14.8527 6.51991 13.8127 6.93991 12.9127 7.83991Z" stroke="#C1C1C1" stroke-miterlimit="10" stroke-linecap="round" stroke-linejoin="round"/>
<path d="M12.1719 8.57983C12.6119 10.1498 13.8419 11.3898 15.4219 11.8298" stroke="#C1C1C1" stroke-miterlimit="10" stroke-linecap="round" stroke-linejoin="round"/>
</svg>
