<svg width="14" height="28" viewBox="0 0 14 28" fill="none" xmlns="http://www.w3.org/2000/svg">
<path d="M13.4993 9.12061V4.90208C13.4993 4.43614 13.1216 4.05837 12.6556 4.05837H11.8119V1.52726C11.8119 1.06132 11.4342 0.68355 10.9682 0.68355C9.7737 0.68355 7.94444 0.592008 5.7971 1.87845C4.46225 1.48112 3.5182 1.52726 2.53112 1.52726C2.06513 1.52726 1.68741 1.90502 1.68741 2.37096V4.05837H0.843706C0.377716 4.05837 0 4.43614 0 4.90208V9.12061C0 12.5567 2.58095 15.4012 5.90594 15.8176V26.8384C5.90594 27.3044 6.28366 27.6821 6.74965 27.6821C7.21563 27.6821 7.59335 27.3044 7.59335 26.8384V23.8855H8.85891C11.4176 23.8855 13.4993 21.8038 13.4993 19.2451V17.9795C13.4993 17.5136 13.1216 17.1358 12.6556 17.1358H10.5463C9.42551 17.1358 8.39624 17.5353 7.59335 18.1992V15.8172C10.9134 15.4061 13.4993 12.5757 13.4993 9.12061ZM11.8119 9.12061C11.8119 10.6221 11.1478 11.9783 10.0983 12.9081C10.1149 12.7727 10.1245 12.6352 10.1245 12.4954C10.1245 10.3588 9.32569 8.40551 8.01162 6.91743C9.12568 6.15725 10.4466 5.74578 11.8119 5.74578V9.12061ZM10.1245 2.37096V4.22859C9.96871 4.26033 9.81388 4.29649 9.66017 4.33701C9.11281 3.72432 8.48857 3.20233 7.80702 2.78053C8.54951 2.50915 9.33394 2.37052 10.1245 2.37096ZM3.37482 3.21467C5.051 3.21467 6.67877 3.82672 7.9447 4.99615C7.52514 5.21279 7.12455 5.46434 6.74717 5.74816C5.7662 5.01065 4.61997 4.48175 3.37482 4.22801V3.21467ZM1.68741 9.12061V5.74578C5.40916 5.74578 8.43706 8.77363 8.43706 12.4954C8.43706 13.4383 7.65847 14.2065 6.7053 14.182C3.74125 14.1089 1.68741 11.754 1.68741 9.12061ZM10.5463 18.8232H11.8119V19.2451C11.8119 20.8733 10.4872 22.198 8.85891 22.198H7.59335V21.7762C7.59335 20.1479 8.91807 18.8232 10.5463 18.8232Z" fill="#7A7A7A"/>
</svg>
