<svg width="24" height="24" viewBox="0 0 24 24" fill="none" xmlns="http://www.w3.org/2000/svg">
<mask id="mask0_6971_32086" style="mask-type:alpha" maskUnits="userSpaceOnUse" x="0" y="0" width="24" height="24">
<circle cx="12" cy="12" r="12" fill="#D9D9D9"/>
</mask>
<g mask="url(#mask0_6971_32086)">
<path fill-rule="evenodd" clip-rule="evenodd" d="M18 24H6.00001C4.40871 24 2.88258 23.3679 1.75736 22.2427C0.632142 21.1174 0 19.5913 0 18V6.00001C0 4.40871 0.632142 2.88258 1.75736 1.75736C2.88258 0.632142 4.40871 0 6.00001 0L18 0C19.5913 0 21.1174 0.632142 22.2427 1.75736C23.3679 2.88258 24 4.40871 24 6.00001V18C24 19.5913 23.3679 21.1174 22.2427 22.2427C21.1174 23.3679 19.5913 24 18 24Z" fill="#0F9DFF"/>
<path fill-rule="evenodd" clip-rule="evenodd" d="M11.25 6.75001H18C18.866 6.75109 19.6992 6.4193 20.3273 5.82325C20.9555 5.22721 21.3305 4.41253 21.3748 3.54772C21.4192 2.68292 21.1294 1.83417 20.5654 1.17704C20.0015 0.519909 19.2065 0.104682 18.345 0.01725C18.2303 0.010875 18.1166 0 18 0H6.00001C4.40871 0 2.88258 0.632142 1.75736 1.75736C0.632142 2.88258 0 4.40871 0 6.00001L0 18C0 15.0163 1.18527 12.1548 3.29505 10.0451C5.40484 7.93527 8.26632 6.75001 11.25 6.75001Z" fill="#00B7FF"/>
<path fill-rule="evenodd" clip-rule="evenodd" d="M18 12C16.8133 12 15.6533 12.3519 14.6666 13.0112C13.6799 13.6705 12.9109 14.6076 12.4567 15.7039C12.0026 16.8003 11.8838 18.0067 12.1153 19.1706C12.3468 20.3344 12.9182 21.4035 13.7574 22.2427C14.5965 23.0818 15.6656 23.6532 16.8295 23.8847C17.9934 24.1162 19.1998 23.9974 20.2961 23.5433C21.3925 23.0892 22.3295 22.3201 22.9888 21.3334C23.6481 20.3467 24 19.1867 24 18V6C24 7.5913 23.3679 9.11743 22.2427 10.2426C21.1174 11.3679 19.5913 12 18 12Z" fill="#1D83FF"/>
<path d="M9.21724 18.0961C14.969 18.0961 18.1591 13.2121 17.9653 8.94609C18.3914 8.63817 18.7766 8.27727 19.1116 7.87209C19.137 7.84073 19.1515 7.80201 19.153 7.76173C19.1545 7.72145 19.1429 7.68176 19.12 7.64859C19.0971 7.61542 19.0641 7.59056 19.0258 7.57772C18.9876 7.56487 18.9463 7.56474 18.908 7.57734C18.6551 7.65858 18.3973 7.72384 18.1363 7.77271C18.1157 7.77608 18.0946 7.77251 18.0763 7.76255C18.058 7.7526 18.0435 7.73683 18.0352 7.71773C18.0268 7.69864 18.0251 7.67731 18.0302 7.65711C18.0353 7.63692 18.0471 7.61901 18.0635 7.60621C18.3996 7.34034 18.6766 7.00739 18.8769 6.62859C18.8943 6.59406 18.9004 6.55492 18.8944 6.51671C18.8883 6.47851 18.8704 6.44318 18.8431 6.41575C18.8159 6.38831 18.7806 6.37016 18.7425 6.36387C18.7043 6.35758 18.6651 6.36347 18.6305 6.38071C18.1535 6.608 17.6498 6.77443 17.1313 6.87609C16.709 6.42609 16.1613 6.11341 15.5591 5.97862C14.957 5.84383 14.3282 5.89316 13.7544 6.12021C13.1807 6.34726 12.6884 6.74154 12.3415 7.25188C11.9947 7.76221 11.8092 8.36503 11.8092 8.98209C11.8101 9.17822 11.8285 9.37388 11.8644 9.56671C11.867 9.58074 11.8664 9.59519 11.8627 9.60895C11.8589 9.62272 11.852 9.63544 11.8426 9.64614C11.8331 9.65685 11.8214 9.66526 11.8082 9.67073C11.795 9.6762 11.7807 9.67859 11.7665 9.67771C9.53998 9.53533 7.45253 8.54568 5.93299 6.91209C5.88906 6.8634 5.83306 6.82717 5.77066 6.80705C5.70825 6.78692 5.64164 6.78361 5.57754 6.79746C5.51345 6.81131 5.45414 6.84181 5.40561 6.88591C5.35707 6.93 5.32103 6.98611 5.30111 7.04859C5.09114 7.63286 5.06833 8.26803 5.23587 8.86586C5.40341 9.4637 5.75296 9.99451 6.23599 10.3846C6.25178 10.3971 6.26303 10.4144 6.26797 10.4339C6.27292 10.4534 6.2713 10.474 6.26335 10.4925C6.25541 10.511 6.24159 10.5264 6.22403 10.5362C6.20647 10.5461 6.18616 10.5498 6.16624 10.547C5.99042 10.523 5.8171 10.4834 5.64836 10.4285C5.58678 10.4079 5.52086 10.4038 5.45722 10.4167C5.39357 10.4296 5.33444 10.459 5.28574 10.502C5.23579 10.544 5.19836 10.5989 5.17753 10.6607C5.15669 10.7226 5.15326 10.7889 5.16761 10.8526C5.81936 13.3621 7.58449 13.0422 7.58449 13.2323C7.58449 13.361 7.23536 13.361 6.76736 13.3621C6.70404 13.3624 6.64186 13.379 6.58679 13.4103C6.53172 13.4416 6.4856 13.4864 6.45286 13.5406C6.42011 13.5948 6.40183 13.6565 6.39978 13.7198C6.39772 13.7831 6.41195 13.8459 6.44111 13.9021C6.68742 14.3256 7.03045 14.6848 7.44217 14.9503C7.85389 15.2158 8.3226 15.3802 8.80999 15.4298C8.82897 15.4312 8.84706 15.4384 8.8618 15.4505C8.87654 15.4625 8.88722 15.4788 8.89238 15.4971C8.89754 15.5154 8.89694 15.5349 8.89065 15.5528C8.88436 15.5708 8.8727 15.5864 8.85724 15.5975C8.0059 16.2132 7.01078 16.6002 5.96711 16.7213C5.88641 16.7279 5.81022 16.7612 5.75061 16.816C5.691 16.8708 5.6514 16.9439 5.63809 17.0238C5.62478 17.1037 5.63852 17.1857 5.67714 17.2568C5.71575 17.328 5.77703 17.3842 5.85124 17.4166C6.91619 17.867 8.06098 18.0981 9.21724 18.0961Z" fill="white"/>
</g>
</svg>
