<svg width="54" height="64" viewBox="0 0 54 64" fill="none" xmlns="http://www.w3.org/2000/svg">
<path d="M47.5933 28.2187V59.3384C47.5933 61.9116 45.5073 63.9974 42.9342 63.9974H4.65906C2.08584 63.9974 0 61.9115 0 59.3384V10.5887C0 8.01491 2.08647 5.92969 4.65906 5.92969H25.3036L47.5933 28.2187Z" fill="#F4BDCB"/>
<path d="M10.59 58.0679C8.01675 58.0679 5.93091 55.9819 5.93091 53.4088V4.65906C5.93078 2.08522 8.01725 0 10.59 0H31.2344C34.7837 0 53.5241 18.7402 53.5241 22.2892V53.4088C53.5241 55.982 51.4381 58.0679 48.865 58.0679H10.59Z" fill="#FEF4FA"/>
<path d="M53.5243 22.2895V24.2604C53.5243 20.1111 50.1596 16.7464 46.0103 16.7464H41.437C38.8644 16.7464 36.7779 14.6599 36.7779 12.0873V7.51401C36.7779 3.3647 33.4132 0 29.2639 0H31.2348C34.7835 0 38.188 1.40998 40.6972 3.91932L49.6051 12.8272C52.1144 15.3369 53.5242 18.7405 53.5243 22.2895Z" fill="#F4BDCB"/>
<path d="M25.0892 35.5689V49.1906C25.0892 49.4728 25.2013 49.7434 25.4008 49.9429C25.6004 50.1425 25.871 50.2546 26.1532 50.2546H33.3023C33.5845 50.2546 33.8551 50.1425 34.0547 49.9429C34.2542 49.7434 34.3663 49.4728 34.3663 49.1906V35.5689H37.4056C38.3535 35.5689 38.8282 34.4229 38.158 33.7527L31.3667 26.9614C30.4616 26.0563 28.994 26.0563 28.0889 26.9614L21.2976 33.7527C20.6274 34.4229 21.1021 35.5689 22.05 35.5689H25.0892ZM21.4369 23.2232H38.0186C39.1637 23.2232 40.092 22.295 40.092 21.1499V21.0929C40.092 19.9478 39.1637 19.0195 38.0186 19.0195H21.4369C20.2918 19.0195 19.3635 19.9478 19.3635 21.0929V21.1499C19.3635 22.2949 20.2918 23.2232 21.4369 23.2232Z" fill="url(#paint0_linear_2941_19009)"/>
<defs>
<linearGradient id="paint0_linear_2941_19009" x1="19.3635" y1="19.0195" x2="45.8411" y2="42.9598" gradientUnits="userSpaceOnUse">
<stop offset="0.162245" stop-color="#D6465F"/>
<stop offset="1" stop-color="#FF8CA0"/>
</linearGradient>
</defs>
</svg>
