<svg width="30" height="29" viewBox="0 0 30 29" fill="none" xmlns="http://www.w3.org/2000/svg">
<path d="M20.2109 17.7326C19.8536 17.7327 19.5043 17.6268 19.2072 17.4283C18.9102 17.2299 18.6786 16.9478 18.5419 16.6177C18.4052 16.2876 18.3694 15.9244 18.4391 15.574C18.5088 15.2236 18.6809 14.9018 18.9336 14.6492L24.4387 9.1441C25.0513 8.53146 25.3887 7.71797 25.3887 6.85247C25.3887 5.98697 25.0513 5.17277 24.4394 4.56013C23.8267 3.94821 23.0133 3.61155 22.1478 3.61155C21.2823 3.61155 20.4673 3.94821 19.8554 4.56085L14.3503 10.0659C14.0098 10.395 13.5536 10.5772 13.08 10.5732C12.6065 10.5693 12.1534 10.3794 11.8184 10.0447C11.4835 9.70989 11.2934 9.25694 11.2891 8.78338C11.2849 8.30981 11.4668 7.85353 11.7957 7.5128L17.3008 2.00625C18.5969 0.711617 20.3163 0 22.1485 0C23.9806 0 25.7001 0.713062 26.994 2.00698C27.6325 2.64185 28.1387 3.39708 28.4833 4.22894C28.828 5.06081 29.0041 5.95277 29.0017 6.8532C29.004 7.75367 28.8278 8.64566 28.483 9.47753C28.1383 10.3094 27.6319 11.0646 26.9933 11.6994L21.4882 17.2045C21.3207 17.3724 21.1217 17.5055 20.9026 17.5963C20.6835 17.687 20.4487 17.7336 20.2116 17.7333L20.2109 17.7326Z" fill="url(#paint0_linear_1401_14055)"/>
<path d="M6.8532 29C5.95272 29.0023 5.06073 28.8261 4.22886 28.4813C3.39699 28.1366 2.64179 27.6302 2.00698 26.9915C0.713062 25.6984 0 23.9775 0 22.1468C0 20.3161 0.712339 18.5952 2.00698 17.3006L7.5128 11.7947C7.85207 11.4585 8.3107 11.2704 8.78835 11.2715C9.266 11.2726 9.72375 11.4629 10.0615 11.8007C10.3992 12.1385 10.5893 12.5963 10.5903 13.0739C10.5912 13.5516 10.403 14.0102 10.0667 14.3493L4.56157 19.8544C3.94893 20.4671 3.61227 21.2805 3.61227 22.1468C3.61227 23.013 3.94893 23.8258 4.56085 24.4384C5.17349 25.0503 5.98697 25.3877 6.8532 25.3877C7.71942 25.3877 8.53218 25.0503 9.14482 24.4384L14.6499 18.9333C14.8173 18.7644 15.0165 18.6301 15.2359 18.5384C15.4553 18.4466 15.6907 18.3991 15.9286 18.3985C16.1664 18.398 16.4021 18.4444 16.6219 18.5351C16.8418 18.6259 17.0415 18.7592 17.2098 18.9273C17.378 19.0955 17.5113 19.2952 17.6021 19.5151C17.6929 19.7349 17.7394 19.9705 17.7389 20.2083C17.7384 20.4462 17.691 20.6816 17.5993 20.9011C17.5076 21.1205 17.3734 21.3197 17.2045 21.4872L11.6994 26.9923C11.0646 27.6308 10.3093 28.1371 9.47747 28.4817C8.6456 28.8263 7.75362 29.0025 6.8532 29Z" fill="url(#paint1_linear_1401_14055)"/>
<path d="M8.78987 22.0155C8.4326 22.0155 8.08334 21.9096 7.78626 21.7112C7.48918 21.5127 7.25763 21.2306 7.1209 20.9006C6.98417 20.5705 6.9484 20.2073 7.01812 19.8569C7.08784 19.5065 7.25991 19.1846 7.51257 18.932L18.9331 7.5115C19.2719 7.17274 19.7313 6.98242 20.2104 6.98242C20.6895 6.98242 21.149 7.17274 21.4877 7.5115C21.8265 7.85026 22.0168 8.30971 22.0168 8.78879C22.0168 9.26787 21.8265 9.72733 21.4877 10.0661L10.0672 21.4866C9.89963 21.6546 9.70053 21.7878 9.48132 21.8786C9.26212 21.9694 9.02712 22.0159 8.78987 22.0155Z" fill="#D6465F"/>
<defs>
<linearGradient id="paint0_linear_1401_14055" x1="11.2891" y1="0" x2="25.7078" y2="19.6222" gradientUnits="userSpaceOnUse">
<stop offset="0.162245" stop-color="#D6465F"/>
<stop offset="1" stop-color="#FF8CA0"/>
</linearGradient>
<linearGradient id="paint1_linear_1401_14055" x1="9.27155" y1="27.0186" x2="9.27155" y2="11.7929" gradientUnits="userSpaceOnUse">
<stop stop-color="#F7D5E6"/>
<stop offset="1" stop-color="#EA6E92"/>
</linearGradient>
</defs>
</svg>
