<svg width="77" height="71" viewBox="0 0 77 71" fill="none" xmlns="http://www.w3.org/2000/svg">
<path d="M60.7765 44.2578C62.0158 44.2578 62.9893 43.284 62.9893 42.0449V39.2567L51.9249 15.4902L32.816 20.2674C33.7039 18.8883 34.2218 17.2492 34.2218 15.4902C34.2218 10.6085 30.2498 6.63867 25.3702 6.63867C20.4906 6.63867 16.5186 10.6085 16.5186 15.4902C16.5186 18.8019 18.3477 21.6921 21.0468 23.2098L16.5186 24.3418L1.17578 53.1536C2.06109 55.7204 4.49512 57.5352 7.37202 57.5352H47.4991C48.7385 57.5352 49.712 56.5613 49.712 55.3223C49.712 49.2147 54.6689 44.2578 60.7765 44.2578ZM68.3141 52.2083L64.0483 47.9597C63.2418 46.9536 61.9475 46.4837 60.7765 46.4837C59.4068 46.4837 58.1366 47.1555 57.6645 47.7825L53.282 52.1673C51.4361 53.9115 51.5373 56.8338 53.1998 58.3954C54.0124 59.2553 55.1621 59.748 56.3507 59.748C56.3507 62.2288 58.2957 64.1738 60.7765 64.1738C63.2572 64.1738 65.2022 62.2288 65.2022 59.748C66.4341 59.748 67.601 59.238 68.2709 58.4774C70.0889 56.7593 70.0545 53.8525 68.3141 52.2083Z" fill="url(#paint0_linear_1141_7919)"/>
<path d="M49.2274 22.0737L62.9894 39.2567V6.63867C62.9894 2.97221 60.0172 0 56.3507 0H7.37207C3.70561 0 0.733398 2.97221 0.733398 6.63867V50.8965C0.733398 51.6931 0.866319 52.4454 1.17583 53.1536L19.2168 30.931C20.1022 29.8222 21.7876 29.8215 22.6739 30.9296L28.9532 38.7785C29.8391 39.8859 31.5233 39.8859 32.4092 38.7785L45.7721 22.0748C46.6577 20.9677 48.3412 20.9673 49.2274 22.0737ZM25.3702 22.1289C21.6967 22.1289 18.7316 19.1635 18.7316 15.4902C18.7316 11.8167 21.6967 8.85156 25.3702 8.85156C29.0438 8.85156 32.0089 11.8167 32.0089 15.4902C32.0089 19.1635 29.0438 22.1289 25.3702 22.1289ZM60.7765 39.832C52.2347 39.832 45.2863 46.7805 45.2863 55.3223C45.2863 63.864 52.2347 70.8125 60.7765 70.8125C69.3183 70.8125 76.2667 63.864 76.2667 55.3223C76.2667 46.7805 69.3183 39.832 60.7765 39.832ZM66.7512 56.8711C65.9551 57.7563 64.4497 57.7566 63.6533 56.8711L62.9892 56.2515V59.748C62.9892 60.9871 62.0157 61.9609 60.7763 61.9609C59.537 61.9609 58.5635 60.9871 58.5635 59.748V56.2515L57.8994 56.8711C57.0585 57.7563 55.6426 57.7563 54.8015 56.8711C53.9164 56.0302 53.9164 54.614 54.8015 53.7731L59.2273 49.3473C59.8859 48.5238 61.6071 48.4493 62.3252 49.3473L66.751 53.7731C67.6365 54.614 67.6365 56.0302 66.7512 56.8711Z" fill="url(#paint1_linear_1141_7919)"/>
<defs>
<linearGradient id="paint0_linear_1141_7919" x1="35.4014" y1="64.1738" x2="35.4014" y2="6.63867" gradientUnits="userSpaceOnUse">
<stop stop-color="#FFC2CC"/>
<stop offset="1" stop-color="#FFF2F4"/>
</linearGradient>
<linearGradient id="paint1_linear_1141_7919" x1="38.5001" y1="70.8125" x2="38.5001" y2="0" gradientUnits="userSpaceOnUse">
<stop stop-color="#FD3A84"/>
<stop offset="1" stop-color="#FFA68D"/>
</linearGradient>
</defs>
</svg>
