<svg width="62" height="51" viewBox="0 0 62 51" fill="none" xmlns="http://www.w3.org/2000/svg">
<path d="M41.2228 0.00838596C33.6229 -0.150292 25.7809 4.20917 23.6346 14.0221C14.8823 11.0406 6.98183 16.9284 7.80027 26.3405C5.49254 27.2723 3.51646 28.8734 2.12635 30.9378C0.736233 33.0021 -0.00431088 35.4352 1.88781e-05 37.924C1.88781e-05 44.8473 5.57879 50.4177 12.5021 50.4177H27.6851L27.6684 36.1702L24.1106 37.4646C21.5217 38.5754 19.6176 35.3183 21.8307 33.2889L28.5703 26.7497C30.107 25.2131 31.9443 25.3884 33.3056 26.7497L40.0452 33.2973C42.2583 35.3183 40.3459 38.5754 37.7653 37.4646L34.2076 36.1702V50.4177H49.3654C56.2888 50.4177 61.8592 44.8473 61.8592 37.924C61.8592 32.8296 58.836 28.4701 54.4849 26.5242C62.9198 10.0719 52.3302 0.225524 41.2228 0.00838596Z" fill="url(#paint0_linear_514_2146)"/>
<path d="M41.2228 0C40.8052 0 40.3375 0.00835162 39.9116 0.0250545C30.2072 15.3249 45.2064 26.5158 54.4932 26.5158C62.9282 10.0635 52.3302 0.225489 41.2228 0Z" fill="#D45B7A"/>
<defs>
<linearGradient id="paint0_linear_514_2146" x1="32.3317" y1="44.7833" x2="32.3317" y2="1.48696" gradientUnits="userSpaceOnUse">
<stop stop-color="#F7D5E6"/>
<stop offset="1" stop-color="#EA6E92"/>
</linearGradient>
</defs>
</svg>
