<svg width="64" height="54" viewBox="0 0 64 54" fill="none" xmlns="http://www.w3.org/2000/svg">
<path d="M54.1661 0.953125H7.31969C3.27714 0.953125 0 4.23026 0 8.27281V43.4077C0 47.4502 3.27714 50.7274 7.31969 50.7274H54.1661C58.2086 50.7274 61.4857 47.4502 61.4857 43.4077V8.27281C61.4857 4.23026 58.2086 0.953125 54.1661 0.953125Z" fill="url(#paint0_linear_1401_13847)"/>
<path opacity="0.5" d="M1.28682e-09 41.9434V43.4072C-1.80226e-05 44.3685 0.189303 45.3203 0.557152 46.2084C0.925001 47.0965 1.46417 47.9034 2.14389 48.5832C2.8236 49.2629 3.63054 49.802 4.51863 50.1699C5.40672 50.5377 6.35857 50.7271 7.31982 50.727H54.1661C55.1273 50.727 56.0791 50.5377 56.9672 50.1698C57.8553 49.802 58.6622 49.2628 59.3419 48.5831C60.0216 47.9034 60.5608 47.0965 60.9286 46.2084C61.2964 45.3203 61.4858 44.3685 61.4857 43.4072V41.9434H1.28682e-09Z" fill="url(#paint1_linear_1401_13847)"/>
<path d="M38.3816 21.0966L26.9954 14.6273C26.673 14.4441 26.3072 14.3476 25.9349 14.3477C25.5626 14.3477 25.1969 14.4441 24.8745 14.6273C24.552 14.8105 24.2843 15.074 24.0981 15.3913C23.912 15.7086 23.814 16.0685 23.814 16.4349V29.3734C23.8126 29.7403 23.9097 30.1011 24.0955 30.4192C24.2813 30.7373 24.5492 31.0015 24.8721 31.1849C25.195 31.3684 25.5615 31.4647 25.9343 31.4639C26.3072 31.4632 26.6732 31.3656 26.9954 31.1809L38.3816 24.7117C38.704 24.5285 38.9717 24.265 39.1578 23.9477C39.3439 23.6305 39.4419 23.2706 39.4419 22.9043C39.4419 22.5379 39.3439 22.178 39.1578 21.8608C38.9717 21.5435 38.704 21.28 38.3816 21.0968V21.0966Z" fill="url(#paint2_linear_1401_13847)"/>
<path d="M52.093 53.0464C58.6691 53.0464 64 47.7155 64 41.1394C64 34.5634 58.6691 29.2324 52.093 29.2324C45.517 29.2324 40.186 34.5634 40.186 41.1394C40.186 47.7155 45.517 53.0464 52.093 53.0464Z" fill="#FD5586"/>
<path d="M56.859 38.6026L53.1408 34.8776C52.8618 34.5983 52.4836 34.4414 52.0892 34.4414C51.6948 34.4414 51.3165 34.5983 51.0375 34.8776L47.3194 38.6026C47.1813 38.741 47.0717 38.9052 46.997 39.086C46.9222 39.2668 46.8838 39.4606 46.8838 39.6562C46.8838 39.8519 46.9223 40.0457 46.997 40.2265C47.0718 40.4072 47.1813 40.5715 47.3194 40.7098C47.4576 40.8482 47.6215 40.958 47.802 41.0328C47.9824 41.1077 48.1758 41.1462 48.3711 41.1462C48.5664 41.1462 48.7598 41.1077 48.9403 41.0328C49.1207 40.9579 49.2847 40.8481 49.4228 40.7098L50.6019 39.5285V46.3612C50.6057 46.7538 50.7641 47.1291 51.0426 47.4054C51.3211 47.6818 51.6972 47.8368 52.0892 47.8368C52.4811 47.8368 52.8572 47.6818 53.1357 47.4054C53.4142 47.1291 53.5726 46.7538 53.5764 46.3612V39.5285L54.7557 40.7098C54.8934 40.8498 55.0574 40.9612 55.2383 41.0374C55.4192 41.1137 55.6134 41.1533 55.8096 41.154C56.0058 41.1548 56.2003 41.1166 56.3817 41.0417C56.5632 40.9668 56.728 40.8566 56.8668 40.7176C57.0056 40.5786 57.1155 40.4134 57.1902 40.2317C57.265 40.0499 57.3031 39.8551 57.3024 39.6585C57.3017 39.4619 57.2621 39.2674 57.186 39.0862C57.1099 38.9049 56.9987 38.7406 56.859 38.6026Z" fill="#FFCBD4"/>
<defs>
<linearGradient id="paint0_linear_1401_13847" x1="32.1365" y1="45.1643" x2="32.1365" y2="2.41708" gradientUnits="userSpaceOnUse">
<stop stop-color="#F7D5E6"/>
<stop offset="1" stop-color="#EA6E92"/>
</linearGradient>
<linearGradient id="paint1_linear_1401_13847" x1="0" y1="41.9434" x2="1.55227" y2="56.7478" gradientUnits="userSpaceOnUse">
<stop offset="0.162245" stop-color="#D6465F"/>
<stop offset="1" stop-color="#FF8CA0"/>
</linearGradient>
<linearGradient id="paint2_linear_1401_13847" x1="31.628" y1="15.3273" x2="31.628" y2="30.687" gradientUnits="userSpaceOnUse">
<stop stop-color="white"/>
<stop offset="1" stop-color="#EDF1F2"/>
</linearGradient>
</defs>
</svg>
