<svg width="62" height="51" viewBox="0 0 62 51" fill="none" xmlns="http://www.w3.org/2000/svg">
<path d="M41.2228 0.00808078C33.6229 -0.150597 25.7809 4.20886 23.6346 14.0218C14.8823 11.0403 6.98183 16.9281 7.80027 26.3402C5.49254 27.272 3.51646 28.8731 2.12635 30.9375C0.736233 33.0018 -0.00431088 35.4349 1.88781e-05 37.9237C1.88781e-05 44.847 5.57879 50.4174 12.5021 50.4174H27.6851L27.6684 36.1699L24.1106 37.4643C21.5217 38.5751 19.6176 35.318 21.8307 33.2886L28.5703 26.7494C30.107 25.2128 31.9443 25.3881 33.3056 26.7494L40.0452 33.297C42.2583 35.318 40.3459 38.5751 37.7653 37.4643L34.2076 36.1699V50.4174H49.3654C56.2888 50.4174 61.8592 44.847 61.8592 37.9237C61.8592 32.8293 58.836 28.4698 54.4849 26.5239C62.9198 10.0716 52.3302 0.225218 41.2228 0.00808078Z" fill="url(#paint0_linear_2270_16572)"/>
<path d="M41.2228 0C40.8052 0 40.3375 0.00835162 39.9116 0.0250545C30.2072 15.3249 45.2064 26.5158 54.4932 26.5158C62.9282 10.0635 52.3302 0.225489 41.2228 0Z" fill="#D45B7A"/>
<defs>
<linearGradient id="paint0_linear_2270_16572" x1="32.3317" y1="44.783" x2="32.3317" y2="1.48666" gradientUnits="userSpaceOnUse">
<stop stop-color="#F7D5E6"/>
<stop offset="1" stop-color="#EA6E92"/>
</linearGradient>
</defs>
</svg>
