<svg width="20" height="20" viewBox="0 0 20 20" fill="none" xmlns="http://www.w3.org/2000/svg">
<path fill-rule="evenodd" clip-rule="evenodd" d="M6.6779 10.4202C5.21519 9.37997 4.26102 7.67123 4.26102 5.73965C4.26102 2.56974 6.83077 0 10.0007 0C13.1706 0 15.7403 2.56974 15.7403 5.73965C15.7403 8.90955 13.1706 11.4793 10.0007 11.4793C9.97463 11.4793 9.94862 11.4791 9.92266 11.4788C6.2048 11.4952 3.77165 12.6979 2.47983 13.8329C1.78037 14.4474 1.38067 15.3367 1.38067 16.2715V17.7311C1.38067 18.2212 1.77807 18.6186 2.26825 18.6186H17.7318C18.222 18.6186 18.6193 18.2212 18.6193 17.7311V16.2715C18.6193 15.3367 18.2196 14.4474 17.5202 13.8328C17.0187 13.3922 16.3432 12.9454 15.4829 12.5631C15.1345 12.4083 14.9776 12.0003 15.1324 11.6519C15.2872 11.3035 15.6951 11.1466 16.0436 11.3014C17.0222 11.7362 17.8178 12.2565 18.4315 12.7957C19.432 13.6748 20 14.9433 20 16.2715V17.7311C20 18.9838 18.9845 19.9993 17.7318 19.9993H2.26825C1.01554 19.9993 0 18.9838 0 17.7311V16.2715C0 14.9433 0.567956 13.6748 1.56854 12.7957C2.67168 11.8264 4.36837 10.8937 6.6779 10.4202ZM10.029 10.0985C10.0194 10.0981 10.0097 10.0979 10 10.0979C9.97664 10.0979 9.95332 10.098 9.93005 10.0981C7.55524 10.0603 5.6417 8.12344 5.6417 5.73965C5.6417 3.33227 7.59329 1.38067 10.0007 1.38067C12.408 1.38067 14.3596 3.33227 14.3596 5.73965C14.3596 8.13755 12.4234 10.0833 10.029 10.0985Z" fill="#D6465F"/>
</svg>
