<svg width="24" height="24" viewBox="0 0 24 24" fill="none" xmlns="http://www.w3.org/2000/svg">
<path d="M4.81894 16.0216L8.97144 20.1741C10.6764 21.8791 13.4448 21.8791 15.1589 20.1741L19.1831 16.1499C20.8881 14.4449 20.8881 11.6766 19.1831 9.9624L15.0214 5.81907C14.1506 4.94823 12.9498 4.48073 11.7214 4.5449L7.13811 4.7649C5.30478 4.8474 3.84728 6.3049 3.75561 8.12907L3.53561 12.7124C3.48061 13.9499 3.94811 15.1507 4.81894 16.0216Z" stroke="#001D6E" stroke-linecap="round" stroke-linejoin="round"/>
<path d="M9.70573 12.9974C10.9714 12.9974 11.9974 11.9714 11.9974 10.7057C11.9974 9.44008 10.9714 8.41406 9.70573 8.41406C8.44008 8.41406 7.41406 9.44008 7.41406 10.7057C7.41406 11.9714 8.44008 12.9974 9.70573 12.9974Z" stroke="#001D6E" stroke-linecap="round"/>
</svg>
