<svg width="25" height="15" viewBox="0 0 25 15" fill="none" xmlns="http://www.w3.org/2000/svg">
<path d="M12.4456 0C7.68985 0 3.37712 2.6019 0.19476 6.82807C-0.0649201 7.17431 -0.0649201 7.65802 0.19476 8.00427C3.37712 12.2355 7.68985 14.8374 12.4456 14.8374C17.2013 14.8374 21.514 12.2355 24.6964 8.00936C24.956 7.66312 24.956 7.1794 24.6964 6.83316C21.514 2.6019 17.2013 0 12.4456 0ZM12.7867 12.6429C9.62981 12.8414 7.02283 10.2396 7.22141 7.07756C7.38434 4.47058 9.49743 2.35749 12.1044 2.19455C15.2613 1.99597 17.8683 4.59787 17.6697 7.75986C17.5017 10.3618 15.3886 12.4748 12.7867 12.6429ZM12.6289 10.2294C10.9282 10.3363 9.52289 8.93606 9.63491 7.23541C9.72147 5.83008 10.862 4.69461 12.2674 4.60296C13.968 4.49603 15.3733 5.89627 15.2613 7.59692C15.1697 9.00734 14.0291 10.1428 12.6289 10.2294Z" fill="#D45B7A"/>
</svg>
