<svg width="16" height="16" viewBox="0 0 16 16" fill="none" xmlns="http://www.w3.org/2000/svg">
<path d="M16 8C16 3.58172 12.4183 -5.4282e-07 8 -3.49691e-07C3.58172 -1.56562e-07 -5.4282e-07 3.58172 -3.49691e-07 8C-1.56562e-07 12.4183 3.58172 16 8 16C12.4183 16 16 12.4183 16 8Z" fill="#E42B2C"/>
<path fill-rule="evenodd" clip-rule="evenodd" d="M8.00186 10.4137C7.82434 10.4137 7.67243 10.2623 7.64162 10.0539L6.73363 3.92981C6.61948 3.15854 7.11774 2.45151 7.7753 2.45151H8.22799C8.88554 2.45151 9.3838 3.15854 9.26965 3.92981L8.36167 10.0539C8.33129 10.2623 8.17938 10.4137 8.00186 10.4137ZM8.83259 12.7176C8.83259 12.2601 8.45932 11.8868 8.00186 11.8868C7.54439 11.8868 7.17113 12.2601 7.17113 12.7176C7.17113 13.175 7.54439 13.5483 8.00186 13.5483C8.45932 13.5483 8.83259 13.1755 8.83259 12.7176Z" fill="white"/>
</svg>
