<svg width="27" height="22" viewBox="0 0 27 22" fill="none" xmlns="http://www.w3.org/2000/svg">
<path d="M23.7595 0H3.1123C1.39083 0 0 1.39608 0 3.1123V15.9499C0 17.6661 1.39083 19.057 3.1123 19.057H9.82501L12.2918 21.5237C12.9268 22.1588 13.9555 22.1588 14.5906 21.5237L17.0573 19.057H23.7648C25.481 19.057 26.8771 17.6661 26.8771 15.9499V3.1123C26.8718 1.39608 25.481 0 23.7595 0Z" fill="#E42B2C"/>
<path d="M13.4358 3.48828C10.1031 3.48828 7.40015 6.19121 7.40015 9.52395C7.40015 12.8567 10.1031 15.5596 13.4358 15.5596C16.7685 15.5596 19.4715 12.8567 19.4715 9.52395C19.4715 6.19121 16.7685 3.48828 13.4358 3.48828ZM14.4802 12.5523C14.4802 13.1296 14.0131 13.5915 13.4358 13.5915C12.8585 13.5915 12.3914 13.1244 12.3914 12.547C12.3914 11.9697 12.8585 11.5078 13.4358 11.5078C14.0131 11.5131 14.4802 11.975 14.4802 12.5523ZM14.4802 10.012C14.4593 10.5736 13.9974 11.0145 13.4358 11.0145C12.8742 11.0145 12.4176 10.5736 12.3914 10.012L12.2549 6.5376C12.2339 5.96028 12.68 5.47743 13.2574 5.45643H13.5723C14.1496 5.45643 14.6167 5.92354 14.6167 6.50087V6.54285L14.4802 10.012Z" fill="white"/>
</svg>
