<svg width="176" height="35" viewBox="0 0 176 35" fill="none" xmlns="http://www.w3.org/2000/svg">
<path d="M12.65 35L0.85 -2.38419e-06H4.65L15.7 32.95H13.8L25.2 -2.38419e-06H28.6L39.85 32.95H38.05L49.2 -2.38419e-06H52.75L40.95 35H37.05L26.3 3.75H27.3L16.5 35H12.65ZM86.3664 -2.38419e-06H90.0164V35H86.3664V-2.38419e-06ZM64.4664 35H60.7664V-2.38419e-06H64.4664V35ZM86.7164 18.85H64.0664V15.6H86.7164V18.85ZM101.94 35V-2.38419e-06H105.64V35H101.94ZM114.078 35V32.45L138.378 1.8L138.778 3.2H114.428V-2.38419e-06H142.178V2.55L117.928 33.2L117.478 31.8H142.778V35H114.078ZM147.146 35V32.45L171.446 1.8L171.846 3.2H147.496V-2.38419e-06H175.246V2.55L150.996 33.2L150.546 31.8H175.846V35H147.146Z" fill="#001D6E"/>
</svg>
