<svg width="24" height="24" viewBox="0 0 24 24" fill="none" xmlns="http://www.w3.org/2000/svg">
<mask id="mask0_6971_32076" style="mask-type:alpha" maskUnits="userSpaceOnUse" x="0" y="0" width="24" height="24">
<circle cx="12" cy="12" r="12" fill="#D9D9D9"/>
</mask>
<g mask="url(#mask0_6971_32076)">
<path d="M3.72723 21.3602C3.62693 21.3156 3.5545 21.2654 3.67151 21.1651C3.74395 21.1093 3.82195 21.0591 3.89996 21.009C4.62989 20.5351 5.31524 20.0166 5.76657 19.2528C6.14546 18.6172 6.08417 18.2437 5.61055 17.7754C2.96944 15.1327 1.81047 11.9716 2.38996 8.23619C2.7187 6.12877 3.68265 4.30568 5.08679 2.72232C5.93373 1.76339 6.94225 0.988435 8.0455 0.341712C8.11237 0.302685 8.20709 0.291535 8.21823 0.191181C8.19595 0.135429 8.15694 0.152155 8.12351 0.152155C6.24576 0.152155 4.36801 0.113129 2.49583 0.163305C0.701652 0.219057 -0.847354 1.60728 -0.841782 3.59763C-0.830638 9.41256 -0.841782 15.2275 -0.841782 21.048C-0.841782 22.8544 0.534493 24.3652 2.33424 24.4321C3.85538 24.4935 5.37653 24.4433 6.90325 24.4377C7.01469 24.4433 7.12613 24.4489 7.23757 24.4489H15.2835C17.2894 24.4489 19.2953 24.46 21.3012 24.4489C23.1622 24.4489 24.6722 22.9436 24.6722 21.087V21.0536V17.7921C24.6722 17.714 24.7001 17.6304 24.65 17.5468C24.5497 17.5523 24.5107 17.636 24.4549 17.6917C23.374 18.7789 22.098 19.6542 20.6994 20.273C17.2727 21.7839 13.7846 21.8899 10.2464 20.6745C9.93997 20.563 9.60565 20.5518 9.28805 20.6299C8.82001 20.7469 8.35753 20.8863 7.89506 21.0257C6.5355 21.4494 5.14808 21.639 3.72723 21.3602ZM7.7669 11.966C7.86163 11.8433 7.91177 11.7709 7.96749 11.6984C8.69742 10.7729 9.42735 9.84742 10.1573 8.91637C10.369 8.64876 10.5807 8.37557 10.7145 8.05221C10.8705 7.68425 10.7033 7.33858 10.3244 7.20478C10.1573 7.1546 9.97897 7.1323 9.80067 7.14345C8.80886 7.13788 7.81148 7.13788 6.81967 7.14345C6.68037 7.14345 6.54107 7.16018 6.40734 7.19363C6.09531 7.27168 5.90587 7.58947 5.98388 7.90726C6.0396 8.11911 6.20675 8.28637 6.41849 8.33654C6.55222 8.37 6.69152 8.38672 6.83081 8.38115C7.43259 8.38672 8.03993 8.38115 8.6417 8.38672C8.70857 8.38672 8.79215 8.34212 8.84229 8.44247C8.79215 8.50938 8.742 8.57628 8.69185 8.63761C7.8282 9.73034 6.97011 10.8287 6.10646 11.9214C5.89472 12.1946 5.78329 12.4956 5.9393 12.8302C6.09531 13.1647 6.41292 13.226 6.73609 13.2483C6.9924 13.265 7.25428 13.2539 7.51617 13.2539C8.41882 13.2539 9.31591 13.2594 10.2186 13.2483C10.6978 13.2427 10.9541 12.9528 10.9039 12.5068C10.8649 12.1556 10.6253 11.9716 10.1796 11.966C9.39392 11.9604 8.60827 11.966 7.7669 11.966ZM14.2304 9.03344C13.5339 8.42575 12.765 8.38672 12.0127 8.83274C11.0989 9.36796 10.7646 10.2433 10.8761 11.2579C10.9819 12.2057 11.3943 12.9807 12.3861 13.2985C13.0046 13.4992 13.5785 13.4267 14.0855 13.0141C14.2192 12.9082 14.2582 12.9305 14.353 13.0476C14.5368 13.2817 14.8544 13.3709 15.133 13.265C15.4116 13.1814 15.5955 12.9249 15.5955 12.635C15.6011 11.52 15.6067 10.4049 15.5955 9.2899C15.5899 8.84389 15.172 8.55955 14.7374 8.64876C14.4978 8.69893 14.3641 8.86061 14.2304 9.03344ZM18.0918 11.1018C18.0695 12.4956 19.2229 13.5494 20.6716 13.4044C22.0033 13.2706 22.8669 12.2726 22.8224 10.8621C22.7778 9.46831 21.7414 8.51495 20.3205 8.55955C18.9888 8.59858 18.0472 9.66902 18.0918 11.1018ZM17.6014 9.99238C17.6014 9.11707 17.607 8.24734 17.6014 7.37204C17.6014 6.92602 17.3173 6.64726 16.8938 6.65283C16.4815 6.65841 16.2084 6.93717 16.2029 7.36646C16.1973 7.62849 16.2029 7.88495 16.2029 8.14699V12.5793C16.2029 12.9249 16.4146 13.226 16.6932 13.2985C17.0777 13.4044 17.4733 13.1758 17.5736 12.7911C17.5903 12.7242 17.6014 12.6573 17.5958 12.5848C17.607 11.7207 17.6014 10.8565 17.6014 9.99238Z" fill="#2C9DE2"/>
<path d="M7.76818 11.9676C8.60955 11.9676 9.40077 11.9621 10.1864 11.9676C10.6266 11.9732 10.8662 12.1572 10.9108 12.5084C10.9609 12.9489 10.7046 13.2444 10.2254 13.2499C9.32276 13.2611 8.42567 13.2555 7.52302 13.2555C7.26113 13.2555 7.00482 13.2667 6.74294 13.2499C6.41977 13.2332 6.10217 13.1663 5.94615 12.8318C5.79014 12.4973 5.90157 12.1962 6.11331 11.923C6.97139 10.8303 7.83505 9.73198 8.6987 8.63924C8.74885 8.57234 8.799 8.50544 8.84914 8.44411C8.79342 8.34933 8.71542 8.39393 8.64855 8.38836C8.04678 8.38278 7.43944 8.38836 6.83766 8.38278C6.69837 8.38278 6.55907 8.36606 6.42534 8.33818C6.10774 8.26571 5.91272 7.94792 5.98515 7.63571C6.0353 7.42385 6.20246 7.25102 6.4142 7.20084C6.54792 7.16739 6.68722 7.15067 6.82652 7.15067C7.81833 7.14509 8.81571 7.14509 9.80752 7.15067C9.98582 7.14509 10.1586 7.16739 10.3313 7.21199C10.7102 7.34022 10.8718 7.69146 10.7213 8.05942C10.5876 8.37721 10.3759 8.65039 10.1641 8.92358C9.4342 9.85464 8.70427 10.7801 7.97435 11.7C7.91305 11.7725 7.85733 11.845 7.76818 11.9676Z" fill="#2C9DE2"/>
<path d="M14.2298 9.03332C14.3635 8.86049 14.5028 8.69881 14.7313 8.65421C15.1714 8.565 15.5838 8.84934 15.5893 9.29535C15.6061 10.4104 15.6005 11.5254 15.5893 12.6405C15.5893 12.9304 15.3999 13.1868 15.1269 13.2705C14.8483 13.3764 14.5307 13.2928 14.3468 13.053C14.2521 12.936 14.2131 12.9137 14.0793 13.0196C13.5723 13.4322 12.9984 13.5046 12.3799 13.3039C11.3881 12.9806 10.9813 12.2056 10.8699 11.2634C10.7529 10.2431 11.0928 9.37341 12.0066 8.83819C12.7644 8.3866 13.5333 8.42562 14.2298 9.03332ZM12.2573 11.0683C12.2685 11.3136 12.3465 11.5477 12.4913 11.7429C12.7922 12.1443 13.3661 12.2279 13.7729 11.9268C13.8397 11.8767 13.901 11.8153 13.9568 11.7429C14.2688 11.3192 14.2688 10.6223 13.9568 10.1985C13.8007 9.9811 13.5556 9.85287 13.2937 9.8473C12.6808 9.80827 12.2517 10.2822 12.2573 11.0683ZM18.0912 11.1017C18.0466 9.66889 18.9882 8.59845 20.3255 8.55943C21.7464 8.51483 22.7828 9.46819 22.8273 10.862C22.8719 12.2725 22.0082 13.2705 20.6765 13.4043C19.2223 13.5492 18.0689 12.4955 18.0912 11.1017ZM19.4897 10.9679C19.4786 11.2467 19.5622 11.5199 19.7293 11.7484C20.0358 12.1499 20.6097 12.2279 21.0109 11.9157C21.0722 11.8711 21.1223 11.8153 21.1725 11.7596C21.4956 11.3359 21.4956 10.6223 21.178 10.1985C21.022 9.98668 20.7768 9.85287 20.515 9.8473C19.9132 9.81385 19.4897 10.271 19.4897 10.9679ZM17.6008 9.99225C17.6008 10.8564 17.6064 11.7206 17.6008 12.5847C17.6064 12.9806 17.2944 13.3095 16.8988 13.3206C16.8319 13.3206 16.7595 13.3151 16.6926 13.2983C16.414 13.2259 16.2023 12.9304 16.2023 12.5791V8.14686C16.2023 7.88483 16.1967 7.62837 16.2023 7.36634C16.2078 6.93704 16.4809 6.65829 16.8932 6.65829C17.3167 6.65271 17.6008 6.93147 17.6008 7.37749C17.6064 8.24722 17.6008 9.12252 17.6008 9.99225Z" fill="#2C9DE2"/>
<path d="M12.2579 11.069C12.2523 10.2829 12.6813 9.80903 13.2887 9.84248C13.5506 9.85363 13.7957 9.98186 13.9517 10.1993C14.2638 10.6174 14.2638 11.3199 13.9517 11.7436C13.6509 12.145 13.0769 12.2287 12.6702 11.9276C12.6033 11.8774 12.542 11.8161 12.4863 11.7436C12.347 11.5485 12.269 11.3143 12.2579 11.069ZM19.4903 10.9687C19.4903 10.2773 19.9137 9.81461 20.5155 9.84806C20.7774 9.85363 21.0226 9.98744 21.1786 10.1993C21.4962 10.623 21.4962 11.3422 21.173 11.7603C20.861 12.1562 20.2815 12.2231 19.8859 11.9109C19.8246 11.8663 19.7744 11.8105 19.7299 11.7492C19.5627 11.5206 19.4847 11.2474 19.4903 10.9687Z" fill="#FDFEFE"/>
<path fill-rule="evenodd" clip-rule="evenodd" d="M-0.434217 22.6955C-0.792966 22.1149 -1 21.4304 -1 20.6976V3.80479C-1 1.70348 0.702338 0 2.80269 0H21.0843C23.1846 0 24.887 1.70348 24.887 3.80479V20.6976C24.887 22.799 23.1846 24.5024 21.0843 24.5024H2.80269C2.4826 24.5024 2.17177 24.4629 1.87479 24.3884C0.8684 24.2061 0.0350918 23.5651 -0.434217 22.6955ZM6.60558 24.1406H21.0843C22.9846 24.1406 24.5252 22.5993 24.5252 20.6976V3.80479C24.5252 1.9031 22.9846 0.361816 21.0843 0.361816H8.03189C6.93422 1.00685 5.93074 1.77925 5.08746 2.73404C3.6889 4.3174 2.71938 6.13491 2.39063 8.24791C1.81115 11.9777 2.97569 15.1444 5.61123 17.7871C6.07927 18.261 6.14056 18.6289 5.76724 19.2645C5.31591 20.0283 4.63056 20.5468 3.90063 21.0207C3.84863 21.0504 3.79662 21.0851 3.74462 21.1198C3.71862 21.1371 3.69261 21.1545 3.66661 21.1712C3.5496 21.2716 3.62204 21.3218 3.72233 21.3664C3.74462 21.4165 3.77248 21.4611 3.80591 21.5057C4.18442 21.8417 4.55127 22.1912 4.91793 22.5406C5.17199 22.7826 5.42596 23.0246 5.68366 23.2619C5.97898 23.5351 6.27429 23.8194 6.55846 24.1038C6.5731 24.117 6.58897 24.1292 6.60558 24.1406Z" fill="#2C9DE2"/>
</g>
</svg>
