<svg width="32" height="32" viewBox="0 0 32 32" fill="none" xmlns="http://www.w3.org/2000/svg">
<path d="M31.3727 15.3946C30.696 15.3389 28.9999 15.1808 26.5386 15.8347C26.2275 13.2963 25.5281 11.3232 24.663 9.21861C21.2164 10.4277 18.1253 12.4451 15.836 14.7027C13.548 12.4464 10.4569 10.4277 7.00906 9.21861C6.14268 11.3232 5.44451 13.2963 5.13337 15.8347C2.48997 15.1416 0.977283 15.3389 0.299356 15.3946C-0.429161 19.2231 0.127346 23.574 2.46214 26.7574C5.7683 31.2626 11.0121 31.6066 13.7188 32C12.5842 30.8996 10.0104 28.0083 9.46401 27.295C9.46274 27.2937 9.45389 27.2836 9.45389 27.2836H9.45515C7.02803 24.1153 6.26409 20.799 6.44117 16.9288C6.47784 16.1332 6.62203 15.3301 6.73839 14.7419L6.74092 14.7432C6.98123 13.4898 7.34296 12.249 7.80587 11.0311C9.1086 11.5888 12.1947 13.0889 14.8836 15.7512C13.8819 16.8895 13.0472 18.105 12.392 19.3799C12.392 19.3799 10.4986 17.6737 7.53015 16.6315C7.47829 17.1273 7.46185 17.651 7.47703 18.1467C11.8077 20.0237 14.704 23.2755 15.8145 25.1511C16.7416 23.9395 17.355 22.9884 18.7539 21.6919C19.0119 22.3952 19.2168 23.1186 19.3648 23.8522C18.9322 24.5453 17.5169 26.7056 15.836 28.0981C14.1551 26.7056 12.7411 24.5453 12.3073 23.8522C12.3844 23.4715 12.4514 23.13 12.5577 22.7569C12.225 22.4268 11.8077 22.0739 11.3877 21.7425C11.1095 22.5849 10.964 23.3134 10.8161 24.1165C12.5033 27.1988 14.3701 28.7204 15.812 29.8865C17.3373 28.6736 19.4533 26.894 20.8522 24.1165C20.2096 20.4626 18.0582 17.3208 17.4524 16.5519C17.1071 16.887 16.758 17.245 16.4621 17.5864C17.1324 18.4579 17.7016 19.3685 18.1632 20.3133C17.3057 21.0671 16.5354 21.8804 15.8335 22.7721C15.1315 21.8804 14.3625 21.0671 13.5037 20.3133C14.6231 18.0177 16.629 15.7424 17.5801 15.005C20.0579 12.8043 22.6874 11.5332 23.8623 11.0298C24.539 12.8119 24.9728 14.5623 25.1562 16.2496C23.2692 16.8959 21.5958 17.7635 20.0402 18.8474C20.2716 19.2395 20.4879 19.6974 20.6726 20.1363C22.06 19.1472 24.1115 18.0418 25.9353 17.4853C27.6023 16.9768 29.3692 16.739 30.1534 16.739C30.3229 18.2454 30.5366 22.5457 28.0627 25.9189C26.6499 27.8439 24.577 29.1744 21.8792 29.8928C23.8763 27.8388 26.6158 23.9888 26.6727 18.2998C26.1959 18.4351 25.6938 18.592 25.2473 18.7602C25.1145 22.4711 23.7966 25.2156 22.2118 27.2836H22.2131C22.1056 27.405 19.6721 30.3292 17.9482 32C20.6548 31.6066 25.8987 31.2626 29.2048 26.7574C31.5447 23.574 32.1012 19.2243 31.3727 15.3946ZM9.78906 29.8928C7.09127 29.1744 5.01828 27.8439 3.60551 25.9189C1.13159 22.5469 1.34534 18.2467 1.51482 16.7403C1.52494 16.7403 1.53505 16.7403 1.54517 16.7403C2.57218 16.7403 3.76108 16.9212 5.01322 17.269C4.72232 23.5259 7.67433 27.7174 9.78906 29.8928Z" fill="url(#paint0_linear_871_6555)"/>
<path fill-rule="evenodd" clip-rule="evenodd" d="M17.8462 5.87625C18.7342 7.49565 19.2373 9.20457 19.2595 10.8289C19.6966 10.5324 20.156 10.2387 20.6309 9.95805C20.4729 8.36238 19.9383 6.73398 19.0927 5.19189C18.3703 3.87483 17.418 2.61587 16.2776 1.49117L15.7796 1H15.7796L15.2816 1.49117C14.1412 2.61587 13.1889 3.87472 12.4666 5.19178C11.6251 6.72614 11.0916 8.34596 10.9307 9.93395C11.3821 10.1796 11.8427 10.4474 12.3014 10.7364C12.341 9.13974 12.8417 7.46486 13.713 5.87615C14.2634 4.87253 14.9598 3.90647 15.7796 3.01854C16.5993 3.90647 17.2957 4.87253 17.8462 5.87625Z" fill="url(#paint1_linear_871_6555)"/>
<defs>
<linearGradient id="paint0_linear_871_6555" x1="16.5539" y1="29.4538" x2="16.5539" y2="9.88865" gradientUnits="userSpaceOnUse">
<stop stop-color="#FF9EB6"/>
<stop offset="1" stop-color="#E66A8C"/>
</linearGradient>
<linearGradient id="paint1_linear_871_6555" x1="16.0006" y1="9.73035" x2="16.0006" y2="1.28909" gradientUnits="userSpaceOnUse">
<stop stop-color="#FF9EB6"/>
<stop offset="1" stop-color="#E66A8C"/>
</linearGradient>
</defs>
</svg>
